# Bara Kitchen - metres, +Y up; editable mesh source
mtllib palette.mtl
o cafe-table_oakDark
usemtl oakDark
v 0.000000 0.000000 0.000000
v 0.000000 0.000000 0.000000
v 0.000000 0.000000 0.000000
v 0.000000 0.000000 0.000000
v 0.000000 0.000000 0.000000
v 0.000000 0.000000 0.000000
v 0.000000 0.000000 0.000000
v 0.000000 0.000000 0.000000
v 0.000000 0.000000 0.000000
v 0.000000 0.000000 0.000000
v 0.000000 0.000000 0.000000
v 0.000000 0.000000 0.000000
v 0.000000 0.000000 0.000000
v 0.000000 0.000000 0.000000
v 0.000000 0.000000 0.000000
v 0.000000 0.000000 0.000000
v 0.000000 0.000000 0.000000
v 0.000000 0.000000 0.000000
v 0.000000 0.000000 0.000000
v 0.000000 0.000000 0.000000
v 0.000000 0.000000 0.000000
v 0.000000 0.000000 0.000000
v 0.000000 0.000000 0.000000
v 0.000000 0.000000 0.000000
v 0.000000 0.000000 0.000000
v 0.000000 0.000000 0.000000
v 0.000000 0.000000 0.000000
v 0.000000 0.000000 0.000000
v 0.000000 0.000000 0.000000
v 0.000000 0.000000 0.000000
v 0.000000 0.000000 0.000000
v 0.000000 0.000000 0.000000
v 0.000000 0.000000 0.000000
v 0.000000 0.000000 0.000000
v 0.000000 0.000000 0.000000
v 0.000000 0.000000 0.000000
v 0.000000 0.000000 0.000000
v 0.000000 0.000000 0.000000
v 0.000000 0.000000 0.000000
v 0.000000 0.000000 0.000000
v 0.000000 0.000000 0.000000
v 0.263200 0.000000 0.000000
v 0.259960 0.000000 0.041174
v 0.250318 0.000000 0.081333
v 0.234513 0.000000 0.119490
v 0.212933 0.000000 0.154705
v 0.186111 0.000000 0.186111
v 0.154705 0.000000 0.212933
v 0.119490 0.000000 0.234513
v 0.081333 0.000000 0.250318
v 0.041174 0.000000 0.259960
v 0.000000 0.000000 0.263200
v -0.041174 0.000000 0.259960
v -0.081333 0.000000 0.250318
v -0.119490 0.000000 0.234513
v -0.154705 0.000000 0.212933
v -0.186111 0.000000 0.186111
v -0.212933 0.000000 0.154705
v -0.234513 0.000000 0.119490
v -0.250318 0.000000 0.081333
v -0.259960 0.000000 0.041174
v -0.263200 0.000000 0.000000
v -0.259960 0.000000 -0.041174
v -0.250318 0.000000 -0.081333
v -0.234513 0.000000 -0.119490
v -0.212933 0.000000 -0.154705
v -0.186111 0.000000 -0.186111
v -0.154705 0.000000 -0.212933
v -0.119490 0.000000 -0.234513
v -0.081333 0.000000 -0.250318
v -0.041174 0.000000 -0.259960
v -0.000000 0.000000 -0.263200
v 0.041174 0.000000 -0.259960
v 0.081333 0.000000 -0.250318
v 0.119490 0.000000 -0.234513
v 0.154705 0.000000 -0.212933
v 0.186111 0.000000 -0.186111
v 0.212933 0.000000 -0.154705
v 0.234513 0.000000 -0.119490
v 0.250318 0.000000 -0.081333
v 0.259960 0.000000 -0.041174
v 0.263200 0.000000 -0.000000
v 0.280000 0.004800 0.000000
v 0.276553 0.004800 0.043802
v 0.266296 0.004800 0.086525
v 0.249482 0.004800 0.127117
v 0.226525 0.004800 0.164580
v 0.197990 0.004800 0.197990
v 0.164580 0.004800 0.226525
v 0.127117 0.004800 0.249482
v 0.086525 0.004800 0.266296
v 0.043802 0.004800 0.276553
v 0.000000 0.004800 0.280000
v -0.043802 0.004800 0.276553
v -0.086525 0.004800 0.266296
v -0.127117 0.004800 0.249482
v -0.164580 0.004800 0.226525
v -0.197990 0.004800 0.197990
v -0.226525 0.004800 0.164580
v -0.249482 0.004800 0.127117
v -0.266296 0.004800 0.086525
v -0.276553 0.004800 0.043802
v -0.280000 0.004800 0.000000
v -0.276553 0.004800 -0.043802
v -0.266296 0.004800 -0.086525
v -0.249482 0.004800 -0.127117
v -0.226525 0.004800 -0.164580
v -0.197990 0.004800 -0.197990
v -0.164580 0.004800 -0.226525
v -0.127117 0.004800 -0.249482
v -0.086525 0.004800 -0.266296
v -0.043802 0.004800 -0.276553
v -0.000000 0.004800 -0.280000
v 0.043802 0.004800 -0.276553
v 0.086525 0.004800 -0.266296
v 0.127117 0.004800 -0.249482
v 0.164580 0.004800 -0.226525
v 0.197990 0.004800 -0.197990
v 0.226525 0.004800 -0.164580
v 0.249482 0.004800 -0.127117
v 0.266296 0.004800 -0.086525
v 0.276553 0.004800 -0.043802
v 0.280000 0.004800 -0.000000
v 0.280000 0.055200 0.000000
v 0.276553 0.055200 0.043802
v 0.266296 0.055200 0.086525
v 0.249482 0.055200 0.127117
v 0.226525 0.055200 0.164580
v 0.197990 0.055200 0.197990
v 0.164580 0.055200 0.226525
v 0.127117 0.055200 0.249482
v 0.086525 0.055200 0.266296
v 0.043802 0.055200 0.276553
v 0.000000 0.055200 0.280000
v -0.043802 0.055200 0.276553
v -0.086525 0.055200 0.266296
v -0.127117 0.055200 0.249482
v -0.164580 0.055200 0.226525
v -0.197990 0.055200 0.197990
v -0.226525 0.055200 0.164580
v -0.249482 0.055200 0.127117
v -0.266296 0.055200 0.086525
v -0.276553 0.055200 0.043802
v -0.280000 0.055200 0.000000
v -0.276553 0.055200 -0.043802
v -0.266296 0.055200 -0.086525
v -0.249482 0.055200 -0.127117
v -0.226525 0.055200 -0.164580
v -0.197990 0.055200 -0.197990
v -0.164580 0.055200 -0.226525
v -0.127117 0.055200 -0.249482
v -0.086525 0.055200 -0.266296
v -0.043802 0.055200 -0.276553
v -0.000000 0.055200 -0.280000
v 0.043802 0.055200 -0.276553
v 0.086525 0.055200 -0.266296
v 0.127117 0.055200 -0.249482
v 0.164580 0.055200 -0.226525
v 0.197990 0.055200 -0.197990
v 0.226525 0.055200 -0.164580
v 0.249482 0.055200 -0.127117
v 0.266296 0.055200 -0.086525
v 0.276553 0.055200 -0.043802
v 0.280000 0.055200 -0.000000
v 0.263200 0.060000 0.000000
v 0.259960 0.060000 0.041174
v 0.250318 0.060000 0.081333
v 0.234513 0.060000 0.119490
v 0.212933 0.060000 0.154705
v 0.186111 0.060000 0.186111
v 0.154705 0.060000 0.212933
v 0.119490 0.060000 0.234513
v 0.081333 0.060000 0.250318
v 0.041174 0.060000 0.259960
v 0.000000 0.060000 0.263200
v -0.041174 0.060000 0.259960
v -0.081333 0.060000 0.250318
v -0.119490 0.060000 0.234513
v -0.154705 0.060000 0.212933
v -0.186111 0.060000 0.186111
v -0.212933 0.060000 0.154705
v -0.234513 0.060000 0.119490
v -0.250318 0.060000 0.081333
v -0.259960 0.060000 0.041174
v -0.263200 0.060000 0.000000
v -0.259960 0.060000 -0.041174
v -0.250318 0.060000 -0.081333
v -0.234513 0.060000 -0.119490
v -0.212933 0.060000 -0.154705
v -0.186111 0.060000 -0.186111
v -0.154705 0.060000 -0.212933
v -0.119490 0.060000 -0.234513
v -0.081333 0.060000 -0.250318
v -0.041174 0.060000 -0.259960
v -0.000000 0.060000 -0.263200
v 0.041174 0.060000 -0.259960
v 0.081333 0.060000 -0.250318
v 0.119490 0.060000 -0.234513
v 0.154705 0.060000 -0.212933
v 0.186111 0.060000 -0.186111
v 0.212933 0.060000 -0.154705
v 0.234513 0.060000 -0.119490
v 0.250318 0.060000 -0.081333
v 0.259960 0.060000 -0.041174
v 0.263200 0.060000 -0.000000
v 0.000000 0.060000 0.000000
v 0.000000 0.060000 0.000000
v 0.000000 0.060000 0.000000
v 0.000000 0.060000 0.000000
v 0.000000 0.060000 0.000000
v 0.000000 0.060000 0.000000
v 0.000000 0.060000 0.000000
v 0.000000 0.060000 0.000000
v 0.000000 0.060000 0.000000
v 0.000000 0.060000 0.000000
v 0.000000 0.060000 0.000000
v 0.000000 0.060000 0.000000
v 0.000000 0.060000 0.000000
v 0.000000 0.060000 0.000000
v 0.000000 0.060000 0.000000
v 0.000000 0.060000 0.000000
v 0.000000 0.060000 0.000000
v 0.000000 0.060000 0.000000
v 0.000000 0.060000 0.000000
v 0.000000 0.060000 0.000000
v 0.000000 0.060000 0.000000
v 0.000000 0.060000 0.000000
v 0.000000 0.060000 0.000000
v 0.000000 0.060000 0.000000
v 0.000000 0.060000 0.000000
v 0.000000 0.060000 0.000000
v 0.000000 0.060000 0.000000
v 0.000000 0.060000 0.000000
v 0.000000 0.060000 0.000000
v 0.000000 0.060000 0.000000
v 0.000000 0.060000 0.000000
v 0.000000 0.060000 0.000000
v 0.000000 0.060000 0.000000
v 0.000000 0.060000 0.000000
v 0.000000 0.060000 0.000000
v 0.000000 0.060000 0.000000
v 0.000000 0.060000 0.000000
v 0.000000 0.060000 0.000000
v 0.000000 0.060000 0.000000
v 0.000000 0.060000 0.000000
v 0.000000 0.060000 0.000000
vn 0.000000 -1.000000 0.000000
vn 0.000000 -1.000000 0.000000
vn 0.000000 -1.000000 0.000000
vn 0.000000 -1.000000 0.000000
vn 0.000000 -1.000000 0.000000
vn 0.000000 -1.000000 0.000000
vn 0.000000 -1.000000 0.000000
vn 0.000000 -1.000000 0.000000
vn 0.000000 -1.000000 0.000000
vn 0.000000 -1.000000 0.000000
vn 0.000000 -1.000000 0.000000
vn 0.000000 -1.000000 0.000000
vn 0.000000 -1.000000 0.000000
vn 0.000000 -1.000000 0.000000
vn 0.000000 -1.000000 0.000000
vn 0.000000 -1.000000 0.000000
vn 0.000000 -1.000000 0.000000
vn 0.000000 -1.000000 0.000000
vn 0.000000 -1.000000 0.000000
vn 0.000000 -1.000000 0.000000
vn 0.000000 -1.000000 0.000000
vn 0.000000 -1.000000 0.000000
vn 0.000000 -1.000000 0.000000
vn 0.000000 -1.000000 0.000000
vn 0.000000 -1.000000 0.000000
vn 0.000000 -1.000000 0.000000
vn 0.000000 -1.000000 0.000000
vn 0.000000 -1.000000 0.000000
vn 0.000000 -1.000000 0.000000
vn 0.000000 -1.000000 0.000000
vn 0.000000 -1.000000 0.000000
vn 0.000000 -1.000000 0.000000
vn 0.000000 -1.000000 0.000000
vn 0.000000 -1.000000 0.000000
vn 0.000000 -1.000000 0.000000
vn 0.000000 -1.000000 0.000000
vn 0.000000 -1.000000 0.000000
vn 0.000000 -1.000000 0.000000
vn 0.000000 -1.000000 0.000000
vn 0.000000 -1.000000 0.000000
vn 0.000000 -1.000000 0.000000
vn 0.025441 -0.999676 -0.000695
vn 0.025236 -0.999676 0.003293
vn 0.024411 -0.999676 0.007200
vn 0.022984 -0.999676 0.010930
vn 0.020991 -0.999676 0.014391
vn 0.018481 -0.999676 0.017498
vn 0.015516 -0.999676 0.020174
vn 0.012169 -0.999676 0.022352
vn 0.008523 -0.999676 0.023981
vn 0.004667 -0.999676 0.025019
vn 0.000695 -0.999676 0.025441
vn -0.003293 -0.999676 0.025236
vn -0.007200 -0.999676 0.024411
vn -0.010930 -0.999676 0.022984
vn -0.014391 -0.999676 0.020991
vn -0.017498 -0.999676 0.018481
vn -0.020174 -0.999676 0.015516
vn -0.022352 -0.999676 0.012169
vn -0.023981 -0.999676 0.008523
vn -0.025019 -0.999676 0.004667
vn -0.025441 -0.999676 0.000695
vn -0.025236 -0.999676 -0.003293
vn -0.024411 -0.999676 -0.007200
vn -0.022984 -0.999676 -0.010930
vn -0.020991 -0.999676 -0.014391
vn -0.018481 -0.999676 -0.017498
vn -0.015516 -0.999676 -0.020174
vn -0.012169 -0.999676 -0.022352
vn -0.008523 -0.999676 -0.023981
vn -0.004667 -0.999676 -0.025019
vn -0.000695 -0.999676 -0.025441
vn 0.003293 -0.999676 -0.025236
vn 0.007200 -0.999676 -0.024411
vn 0.010930 -0.999676 -0.022984
vn 0.014391 -0.999676 -0.020991
vn 0.017498 -0.999676 -0.018481
vn 0.020174 -0.999676 -0.015516
vn 0.022352 -0.999676 -0.012169
vn 0.023981 -0.999676 -0.008523
vn 0.025019 -0.999676 -0.004667
vn 0.025441 -0.999676 -0.000695
vn 0.957937 -0.286213 -0.020927
vn 0.949417 -0.286213 0.129185
vn 0.917520 -0.286213 0.276116
vn 0.863029 -0.286213 0.416248
vn 0.787289 -0.286213 0.546131
vn 0.692162 -0.286213 0.662566
vn 0.579992 -0.286213 0.762687
vn 0.453541 -0.286213 0.844028
vn 0.315922 -0.286213 0.904586
vn 0.170524 -0.286213 0.942870
vn 0.020927 -0.286213 0.957937
vn -0.129185 -0.286213 0.949417
vn -0.276116 -0.286213 0.917520
vn -0.416248 -0.286213 0.863029
vn -0.546131 -0.286213 0.787289
vn -0.662566 -0.286213 0.692162
vn -0.762687 -0.286213 0.579992
vn -0.844028 -0.286213 0.453541
vn -0.904586 -0.286213 0.315922
vn -0.942870 -0.286213 0.170524
vn -0.957937 -0.286213 0.020927
vn -0.949417 -0.286213 -0.129185
vn -0.917520 -0.286213 -0.276116
vn -0.863029 -0.286213 -0.416248
vn -0.787289 -0.286213 -0.546131
vn -0.692162 -0.286213 -0.662566
vn -0.579992 -0.286213 -0.762687
vn -0.453541 -0.286213 -0.844028
vn -0.315922 -0.286213 -0.904586
vn -0.170524 -0.286213 -0.942870
vn -0.020927 -0.286213 -0.957937
vn 0.129185 -0.286213 -0.949417
vn 0.276116 -0.286213 -0.917520
vn 0.416248 -0.286213 -0.863029
vn 0.546131 -0.286213 -0.787289
vn 0.662566 -0.286213 -0.692162
vn 0.762687 -0.286213 -0.579992
vn 0.844028 -0.286213 -0.453541
vn 0.904586 -0.286213 -0.315922
vn 0.942870 -0.286213 -0.170524
vn 0.957937 -0.286213 -0.020927
vn 0.957937 0.286213 0.020927
vn 0.942870 0.286213 0.170524
vn 0.904586 0.286213 0.315922
vn 0.844028 0.286213 0.453541
vn 0.762687 0.286213 0.579992
vn 0.662566 0.286213 0.692162
vn 0.546131 0.286213 0.787289
vn 0.416248 0.286213 0.863029
vn 0.276116 0.286213 0.917520
vn 0.129185 0.286213 0.949417
vn -0.020927 0.286213 0.957937
vn -0.170524 0.286213 0.942870
vn -0.315922 0.286213 0.904586
vn -0.453541 0.286213 0.844028
vn -0.579992 0.286213 0.762687
vn -0.692162 0.286213 0.662566
vn -0.787289 0.286213 0.546131
vn -0.863029 0.286213 0.416248
vn -0.917520 0.286213 0.276116
vn -0.949417 0.286213 0.129185
vn -0.957937 0.286213 -0.020927
vn -0.942870 0.286213 -0.170524
vn -0.904586 0.286213 -0.315922
vn -0.844028 0.286213 -0.453541
vn -0.762687 0.286213 -0.579992
vn -0.662566 0.286213 -0.692162
vn -0.546131 0.286213 -0.787289
vn -0.416248 0.286213 -0.863029
vn -0.276116 0.286213 -0.917520
vn -0.129185 0.286213 -0.949417
vn 0.020927 0.286213 -0.957937
vn 0.170524 0.286213 -0.942870
vn 0.315922 0.286213 -0.904586
vn 0.453541 0.286213 -0.844028
vn 0.579992 0.286213 -0.762687
vn 0.692162 0.286213 -0.662566
vn 0.787289 0.286213 -0.546131
vn 0.863029 0.286213 -0.416248
vn 0.917520 0.286213 -0.276116
vn 0.949417 0.286213 -0.129185
vn 0.957937 0.286213 0.020927
vn 0.025441 0.999676 0.000695
vn 0.025019 0.999676 0.004667
vn 0.023981 0.999676 0.008523
vn 0.022352 0.999676 0.012169
vn 0.020174 0.999676 0.015516
vn 0.017498 0.999676 0.018481
vn 0.014391 0.999676 0.020991
vn 0.010930 0.999676 0.022984
vn 0.007200 0.999676 0.024411
vn 0.003293 0.999676 0.025236
vn -0.000695 0.999676 0.025441
vn -0.004667 0.999676 0.025019
vn -0.008523 0.999676 0.023981
vn -0.012169 0.999676 0.022352
vn -0.015516 0.999676 0.020174
vn -0.018481 0.999676 0.017498
vn -0.020991 0.999676 0.014391
vn -0.022984 0.999676 0.010930
vn -0.024411 0.999676 0.007200
vn -0.025236 0.999676 0.003293
vn -0.025441 0.999676 -0.000695
vn -0.025019 0.999676 -0.004667
vn -0.023981 0.999676 -0.008523
vn -0.022352 0.999676 -0.012169
vn -0.020174 0.999676 -0.015516
vn -0.017498 0.999676 -0.018481
vn -0.014391 0.999676 -0.020991
vn -0.010930 0.999676 -0.022984
vn -0.007200 0.999676 -0.024411
vn -0.003293 0.999676 -0.025236
vn 0.000695 0.999676 -0.025441
vn 0.004667 0.999676 -0.025019
vn 0.008523 0.999676 -0.023981
vn 0.012169 0.999676 -0.022352
vn 0.015516 0.999676 -0.020174
vn 0.018481 0.999676 -0.017498
vn 0.020991 0.999676 -0.014391
vn 0.022984 0.999676 -0.010930
vn 0.024411 0.999676 -0.007200
vn 0.025236 0.999676 -0.003293
vn 0.025441 0.999676 0.000695
vn 0.000000 1.000000 0.000000
vn 0.000000 1.000000 0.000000
vn 0.000000 1.000000 0.000000
vn 0.000000 1.000000 0.000000
vn 0.000000 1.000000 0.000000
vn 0.000000 1.000000 0.000000
vn 0.000000 1.000000 0.000000
vn 0.000000 1.000000 0.000000
vn 0.000000 1.000000 0.000000
vn 0.000000 1.000000 0.000000
vn 0.000000 1.000000 0.000000
vn 0.000000 1.000000 0.000000
vn 0.000000 1.000000 0.000000
vn 0.000000 1.000000 0.000000
vn 0.000000 1.000000 0.000000
vn 0.000000 1.000000 0.000000
vn 0.000000 1.000000 0.000000
vn 0.000000 1.000000 0.000000
vn 0.000000 1.000000 0.000000
vn 0.000000 1.000000 0.000000
vn 0.000000 1.000000 0.000000
vn 0.000000 1.000000 0.000000
vn 0.000000 1.000000 0.000000
vn 0.000000 1.000000 0.000000
vn 0.000000 1.000000 0.000000
vn 0.000000 1.000000 0.000000
vn 0.000000 1.000000 0.000000
vn 0.000000 1.000000 0.000000
vn 0.000000 1.000000 0.000000
vn 0.000000 1.000000 0.000000
vn 0.000000 1.000000 0.000000
vn 0.000000 1.000000 0.000000
vn 0.000000 1.000000 0.000000
vn 0.000000 1.000000 0.000000
vn 0.000000 1.000000 0.000000
vn 0.000000 1.000000 0.000000
vn 0.000000 1.000000 0.000000
vn 0.000000 1.000000 0.000000
vn 0.000000 1.000000 0.000000
vn 0.000000 1.000000 0.000000
vn 0.000000 1.000000 0.000000
f 1//1 42//42 2//2
f 2//2 42//42 43//43
f 2//2 43//43 3//3
f 3//3 43//43 44//44
f 3//3 44//44 4//4
f 4//4 44//44 45//45
f 4//4 45//45 5//5
f 5//5 45//45 46//46
f 5//5 46//46 6//6
f 6//6 46//46 47//47
f 6//6 47//47 7//7
f 7//7 47//47 48//48
f 7//7 48//48 8//8
f 8//8 48//48 49//49
f 8//8 49//49 9//9
f 9//9 49//49 50//50
f 9//9 50//50 10//10
f 10//10 50//50 51//51
f 10//10 51//51 11//11
f 11//11 51//51 52//52
f 11//11 52//52 12//12
f 12//12 52//52 53//53
f 12//12 53//53 13//13
f 13//13 53//53 54//54
f 13//13 54//54 14//14
f 14//14 54//54 55//55
f 14//14 55//55 15//15
f 15//15 55//55 56//56
f 15//15 56//56 16//16
f 16//16 56//56 57//57
f 16//16 57//57 17//17
f 17//17 57//57 58//58
f 17//17 58//58 18//18
f 18//18 58//58 59//59
f 18//18 59//59 19//19
f 19//19 59//59 60//60
f 19//19 60//60 20//20
f 20//20 60//60 61//61
f 20//20 61//61 21//21
f 21//21 61//61 62//62
f 21//21 62//62 22//22
f 22//22 62//62 63//63
f 22//22 63//63 23//23
f 23//23 63//63 64//64
f 23//23 64//64 24//24
f 24//24 64//64 65//65
f 24//24 65//65 25//25
f 25//25 65//65 66//66
f 25//25 66//66 26//26
f 26//26 66//66 67//67
f 26//26 67//67 27//27
f 27//27 67//67 68//68
f 27//27 68//68 28//28
f 28//28 68//68 69//69
f 28//28 69//69 29//29
f 29//29 69//69 70//70
f 29//29 70//70 30//30
f 30//30 70//70 71//71
f 30//30 71//71 31//31
f 31//31 71//71 72//72
f 31//31 72//72 32//32
f 32//32 72//72 73//73
f 32//32 73//73 33//33
f 33//33 73//73 74//74
f 33//33 74//74 34//34
f 34//34 74//74 75//75
f 34//34 75//75 35//35
f 35//35 75//75 76//76
f 35//35 76//76 36//36
f 36//36 76//76 77//77
f 36//36 77//77 37//37
f 37//37 77//77 78//78
f 37//37 78//78 38//38
f 38//38 78//78 79//79
f 38//38 79//79 39//39
f 39//39 79//79 80//80
f 39//39 80//80 40//40
f 40//40 80//80 81//81
f 40//40 81//81 41//41
f 41//41 81//81 82//82
f 42//42 83//83 43//43
f 43//43 83//83 84//84
f 43//43 84//84 44//44
f 44//44 84//84 85//85
f 44//44 85//85 45//45
f 45//45 85//85 86//86
f 45//45 86//86 46//46
f 46//46 86//86 87//87
f 46//46 87//87 47//47
f 47//47 87//87 88//88
f 47//47 88//88 48//48
f 48//48 88//88 89//89
f 48//48 89//89 49//49
f 49//49 89//89 90//90
f 49//49 90//90 50//50
f 50//50 90//90 91//91
f 50//50 91//91 51//51
f 51//51 91//91 92//92
f 51//51 92//92 52//52
f 52//52 92//92 93//93
f 52//52 93//93 53//53
f 53//53 93//93 94//94
f 53//53 94//94 54//54
f 54//54 94//94 95//95
f 54//54 95//95 55//55
f 55//55 95//95 96//96
f 55//55 96//96 56//56
f 56//56 96//96 97//97
f 56//56 97//97 57//57
f 57//57 97//97 98//98
f 57//57 98//98 58//58
f 58//58 98//98 99//99
f 58//58 99//99 59//59
f 59//59 99//99 100//100
f 59//59 100//100 60//60
f 60//60 100//100 101//101
f 60//60 101//101 61//61
f 61//61 101//101 102//102
f 61//61 102//102 62//62
f 62//62 102//102 103//103
f 62//62 103//103 63//63
f 63//63 103//103 104//104
f 63//63 104//104 64//64
f 64//64 104//104 105//105
f 64//64 105//105 65//65
f 65//65 105//105 106//106
f 65//65 106//106 66//66
f 66//66 106//106 107//107
f 66//66 107//107 67//67
f 67//67 107//107 108//108
f 67//67 108//108 68//68
f 68//68 108//108 109//109
f 68//68 109//109 69//69
f 69//69 109//109 110//110
f 69//69 110//110 70//70
f 70//70 110//110 111//111
f 70//70 111//111 71//71
f 71//71 111//111 112//112
f 71//71 112//112 72//72
f 72//72 112//112 113//113
f 72//72 113//113 73//73
f 73//73 113//113 114//114
f 73//73 114//114 74//74
f 74//74 114//114 115//115
f 74//74 115//115 75//75
f 75//75 115//115 116//116
f 75//75 116//116 76//76
f 76//76 116//116 117//117
f 76//76 117//117 77//77
f 77//77 117//117 118//118
f 77//77 118//118 78//78
f 78//78 118//118 119//119
f 78//78 119//119 79//79
f 79//79 119//119 120//120
f 79//79 120//120 80//80
f 80//80 120//120 121//121
f 80//80 121//121 81//81
f 81//81 121//121 122//122
f 81//81 122//122 82//82
f 82//82 122//122 123//123
f 83//83 124//124 84//84
f 84//84 124//124 125//125
f 84//84 125//125 85//85
f 85//85 125//125 126//126
f 85//85 126//126 86//86
f 86//86 126//126 127//127
f 86//86 127//127 87//87
f 87//87 127//127 128//128
f 87//87 128//128 88//88
f 88//88 128//128 129//129
f 88//88 129//129 89//89
f 89//89 129//129 130//130
f 89//89 130//130 90//90
f 90//90 130//130 131//131
f 90//90 131//131 91//91
f 91//91 131//131 132//132
f 91//91 132//132 92//92
f 92//92 132//132 133//133
f 92//92 133//133 93//93
f 93//93 133//133 134//134
f 93//93 134//134 94//94
f 94//94 134//134 135//135
f 94//94 135//135 95//95
f 95//95 135//135 136//136
f 95//95 136//136 96//96
f 96//96 136//136 137//137
f 96//96 137//137 97//97
f 97//97 137//137 138//138
f 97//97 138//138 98//98
f 98//98 138//138 139//139
f 98//98 139//139 99//99
f 99//99 139//139 140//140
f 99//99 140//140 100//100
f 100//100 140//140 141//141
f 100//100 141//141 101//101
f 101//101 141//141 142//142
f 101//101 142//142 102//102
f 102//102 142//142 143//143
f 102//102 143//143 103//103
f 103//103 143//143 144//144
f 103//103 144//144 104//104
f 104//104 144//144 145//145
f 104//104 145//145 105//105
f 105//105 145//145 146//146
f 105//105 146//146 106//106
f 106//106 146//146 147//147
f 106//106 147//147 107//107
f 107//107 147//147 148//148
f 107//107 148//148 108//108
f 108//108 148//148 149//149
f 108//108 149//149 109//109
f 109//109 149//149 150//150
f 109//109 150//150 110//110
f 110//110 150//150 151//151
f 110//110 151//151 111//111
f 111//111 151//151 152//152
f 111//111 152//152 112//112
f 112//112 152//152 153//153
f 112//112 153//153 113//113
f 113//113 153//153 154//154
f 113//113 154//154 114//114
f 114//114 154//154 155//155
f 114//114 155//155 115//115
f 115//115 155//155 156//156
f 115//115 156//156 116//116
f 116//116 156//156 157//157
f 116//116 157//157 117//117
f 117//117 157//157 158//158
f 117//117 158//158 118//118
f 118//118 158//158 159//159
f 118//118 159//159 119//119
f 119//119 159//159 160//160
f 119//119 160//160 120//120
f 120//120 160//160 161//161
f 120//120 161//161 121//121
f 121//121 161//161 162//162
f 121//121 162//162 122//122
f 122//122 162//162 163//163
f 122//122 163//163 123//123
f 123//123 163//163 164//164
f 124//124 165//165 125//125
f 125//125 165//165 166//166
f 125//125 166//166 126//126
f 126//126 166//166 167//167
f 126//126 167//167 127//127
f 127//127 167//167 168//168
f 127//127 168//168 128//128
f 128//128 168//168 169//169
f 128//128 169//169 129//129
f 129//129 169//169 170//170
f 129//129 170//170 130//130
f 130//130 170//170 171//171
f 130//130 171//171 131//131
f 131//131 171//171 172//172
f 131//131 172//172 132//132
f 132//132 172//172 173//173
f 132//132 173//173 133//133
f 133//133 173//173 174//174
f 133//133 174//174 134//134
f 134//134 174//174 175//175
f 134//134 175//175 135//135
f 135//135 175//175 176//176
f 135//135 176//176 136//136
f 136//136 176//176 177//177
f 136//136 177//177 137//137
f 137//137 177//177 178//178
f 137//137 178//178 138//138
f 138//138 178//178 179//179
f 138//138 179//179 139//139
f 139//139 179//179 180//180
f 139//139 180//180 140//140
f 140//140 180//180 181//181
f 140//140 181//181 141//141
f 141//141 181//181 182//182
f 141//141 182//182 142//142
f 142//142 182//182 183//183
f 142//142 183//183 143//143
f 143//143 183//183 184//184
f 143//143 184//184 144//144
f 144//144 184//184 185//185
f 144//144 185//185 145//145
f 145//145 185//185 186//186
f 145//145 186//186 146//146
f 146//146 186//186 187//187
f 146//146 187//187 147//147
f 147//147 187//187 188//188
f 147//147 188//188 148//148
f 148//148 188//188 189//189
f 148//148 189//189 149//149
f 149//149 189//189 190//190
f 149//149 190//190 150//150
f 150//150 190//190 191//191
f 150//150 191//191 151//151
f 151//151 191//191 192//192
f 151//151 192//192 152//152
f 152//152 192//192 193//193
f 152//152 193//193 153//153
f 153//153 193//193 194//194
f 153//153 194//194 154//154
f 154//154 194//194 195//195
f 154//154 195//195 155//155
f 155//155 195//195 196//196
f 155//155 196//196 156//156
f 156//156 196//196 197//197
f 156//156 197//197 157//157
f 157//157 197//197 198//198
f 157//157 198//198 158//158
f 158//158 198//198 199//199
f 158//158 199//199 159//159
f 159//159 199//199 200//200
f 159//159 200//200 160//160
f 160//160 200//200 201//201
f 160//160 201//201 161//161
f 161//161 201//201 202//202
f 161//161 202//202 162//162
f 162//162 202//202 203//203
f 162//162 203//203 163//163
f 163//163 203//203 204//204
f 163//163 204//204 164//164
f 164//164 204//204 205//205
f 165//165 206//206 166//166
f 166//166 206//206 207//207
f 166//166 207//207 167//167
f 167//167 207//207 208//208
f 167//167 208//208 168//168
f 168//168 208//208 209//209
f 168//168 209//209 169//169
f 169//169 209//209 210//210
f 169//169 210//210 170//170
f 170//170 210//210 211//211
f 170//170 211//211 171//171
f 171//171 211//211 212//212
f 171//171 212//212 172//172
f 172//172 212//212 213//213
f 172//172 213//213 173//173
f 173//173 213//213 214//214
f 173//173 214//214 174//174
f 174//174 214//214 215//215
f 174//174 215//215 175//175
f 175//175 215//215 216//216
f 175//175 216//216 176//176
f 176//176 216//216 217//217
f 176//176 217//217 177//177
f 177//177 217//217 218//218
f 177//177 218//218 178//178
f 178//178 218//218 219//219
f 178//178 219//219 179//179
f 179//179 219//219 220//220
f 179//179 220//220 180//180
f 180//180 220//220 221//221
f 180//180 221//221 181//181
f 181//181 221//221 222//222
f 181//181 222//222 182//182
f 182//182 222//222 223//223
f 182//182 223//223 183//183
f 183//183 223//223 224//224
f 183//183 224//224 184//184
f 184//184 224//224 225//225
f 184//184 225//225 185//185
f 185//185 225//225 226//226
f 185//185 226//226 186//186
f 186//186 226//226 227//227
f 186//186 227//227 187//187
f 187//187 227//227 228//228
f 187//187 228//228 188//188
f 188//188 228//228 229//229
f 188//188 229//229 189//189
f 189//189 229//229 230//230
f 189//189 230//230 190//190
f 190//190 230//230 231//231
f 190//190 231//231 191//191
f 191//191 231//231 232//232
f 191//191 232//232 192//192
f 192//192 232//232 233//233
f 192//192 233//233 193//193
f 193//193 233//233 234//234
f 193//193 234//234 194//194
f 194//194 234//234 235//235
f 194//194 235//235 195//195
f 195//195 235//235 236//236
f 195//195 236//236 196//196
f 196//196 236//236 237//237
f 196//196 237//237 197//197
f 197//197 237//237 238//238
f 197//197 238//238 198//198
f 198//198 238//238 239//239
f 198//198 239//239 199//199
f 199//199 239//239 240//240
f 199//199 240//240 200//200
f 200//200 240//240 241//241
f 200//200 241//241 201//201
f 201//201 241//241 242//242
f 201//201 242//242 202//202
f 202//202 242//242 243//243
f 202//202 243//243 203//203
f 203//203 243//243 244//244
f 203//203 244//244 204//204
f 204//204 244//244 245//245
f 204//204 245//245 205//205
f 205//205 245//245 246//246
o cafe-table_oak
usemtl oak
v 0.000000 0.045000 0.000000
v 0.000000 0.045000 0.000000
v 0.000000 0.045000 0.000000
v 0.000000 0.045000 0.000000
v 0.000000 0.045000 0.000000
v 0.000000 0.045000 0.000000
v 0.000000 0.045000 0.000000
v 0.000000 0.045000 0.000000
v 0.000000 0.045000 0.000000
v 0.000000 0.045000 0.000000
v 0.000000 0.045000 0.000000
v 0.000000 0.045000 0.000000
v 0.000000 0.045000 0.000000
v 0.000000 0.045000 0.000000
v 0.000000 0.045000 0.000000
v 0.000000 0.045000 0.000000
v 0.000000 0.045000 0.000000
v 0.000000 0.045000 0.000000
v 0.000000 0.045000 0.000000
v 0.000000 0.045000 0.000000
v 0.000000 0.045000 0.000000
v 0.000000 0.045000 0.000000
v 0.000000 0.045000 0.000000
v 0.000000 0.045000 0.000000
v 0.000000 0.045000 0.000000
v 0.000000 0.045000 0.000000
v 0.000000 0.045000 0.000000
v 0.000000 0.045000 0.000000
v 0.000000 0.045000 0.000000
v 0.000000 0.045000 0.000000
v 0.000000 0.045000 0.000000
v 0.000000 0.045000 0.000000
v 0.000000 0.045000 0.000000
v 0.000000 0.045000 0.000000
v 0.000000 0.045000 0.000000
v 0.000000 0.045000 0.000000
v 0.000000 0.045000 0.000000
v 0.000000 0.045000 0.000000
v 0.000000 0.045000 0.000000
v 0.000000 0.045000 0.000000
v 0.000000 0.045000 0.000000
v 0.098700 0.045000 0.000000
v 0.097485 0.045000 0.015440
v 0.093869 0.045000 0.030500
v 0.087942 0.045000 0.044809
v 0.079850 0.045000 0.058014
v 0.069791 0.045000 0.069791
v 0.058014 0.045000 0.079850
v 0.044809 0.045000 0.087942
v 0.030500 0.045000 0.093869
v 0.015440 0.045000 0.097485
v 0.000000 0.045000 0.098700
v -0.015440 0.045000 0.097485
v -0.030500 0.045000 0.093869
v -0.044809 0.045000 0.087942
v -0.058014 0.045000 0.079850
v -0.069791 0.045000 0.069791
v -0.079850 0.045000 0.058014
v -0.087942 0.045000 0.044809
v -0.093869 0.045000 0.030500
v -0.097485 0.045000 0.015440
v -0.098700 0.045000 0.000000
v -0.097485 0.045000 -0.015440
v -0.093869 0.045000 -0.030500
v -0.087942 0.045000 -0.044809
v -0.079850 0.045000 -0.058014
v -0.069791 0.045000 -0.069791
v -0.058014 0.045000 -0.079850
v -0.044809 0.045000 -0.087942
v -0.030500 0.045000 -0.093869
v -0.015440 0.045000 -0.097485
v -0.000000 0.045000 -0.098700
v 0.015440 0.045000 -0.097485
v 0.030500 0.045000 -0.093869
v 0.044809 0.045000 -0.087942
v 0.058014 0.045000 -0.079850
v 0.069791 0.045000 -0.069791
v 0.079850 0.045000 -0.058014
v 0.087942 0.045000 -0.044809
v 0.093869 0.045000 -0.030500
v 0.097485 0.045000 -0.015440
v 0.098700 0.045000 -0.000000
v 0.105000 0.081800 0.000000
v 0.103707 0.081800 0.016426
v 0.099861 0.081800 0.032447
v 0.093556 0.081800 0.047669
v 0.084947 0.081800 0.061717
v 0.074246 0.081800 0.074246
v 0.061717 0.081800 0.084947
v 0.047669 0.081800 0.093556
v 0.032447 0.081800 0.099861
v 0.016426 0.081800 0.103707
v 0.000000 0.081800 0.105000
v -0.016426 0.081800 0.103707
v -0.032447 0.081800 0.099861
v -0.047669 0.081800 0.093556
v -0.061717 0.081800 0.084947
v -0.074246 0.081800 0.074246
v -0.084947 0.081800 0.061717
v -0.093556 0.081800 0.047669
v -0.099861 0.081800 0.032447
v -0.103707 0.081800 0.016426
v -0.105000 0.081800 0.000000
v -0.103707 0.081800 -0.016426
v -0.099861 0.081800 -0.032447
v -0.093556 0.081800 -0.047669
v -0.084947 0.081800 -0.061717
v -0.074246 0.081800 -0.074246
v -0.061717 0.081800 -0.084947
v -0.047669 0.081800 -0.093556
v -0.032447 0.081800 -0.099861
v -0.016426 0.081800 -0.103707
v -0.000000 0.081800 -0.105000
v 0.016426 0.081800 -0.103707
v 0.032447 0.081800 -0.099861
v 0.047669 0.081800 -0.093556
v 0.061717 0.081800 -0.084947
v 0.074246 0.081800 -0.074246
v 0.084947 0.081800 -0.061717
v 0.093556 0.081800 -0.047669
v 0.099861 0.081800 -0.032447
v 0.103707 0.081800 -0.016426
v 0.105000 0.081800 -0.000000
v 0.105000 0.468200 0.000000
v 0.103707 0.468200 0.016426
v 0.099861 0.468200 0.032447
v 0.093556 0.468200 0.047669
v 0.084947 0.468200 0.061717
v 0.074246 0.468200 0.074246
v 0.061717 0.468200 0.084947
v 0.047669 0.468200 0.093556
v 0.032447 0.468200 0.099861
v 0.016426 0.468200 0.103707
v 0.000000 0.468200 0.105000
v -0.016426 0.468200 0.103707
v -0.032447 0.468200 0.099861
v -0.047669 0.468200 0.093556
v -0.061717 0.468200 0.084947
v -0.074246 0.468200 0.074246
v -0.084947 0.468200 0.061717
v -0.093556 0.468200 0.047669
v -0.099861 0.468200 0.032447
v -0.103707 0.468200 0.016426
v -0.105000 0.468200 0.000000
v -0.103707 0.468200 -0.016426
v -0.099861 0.468200 -0.032447
v -0.093556 0.468200 -0.047669
v -0.084947 0.468200 -0.061717
v -0.074246 0.468200 -0.074246
v -0.061717 0.468200 -0.084947
v -0.047669 0.468200 -0.093556
v -0.032447 0.468200 -0.099861
v -0.016426 0.468200 -0.103707
v -0.000000 0.468200 -0.105000
v 0.016426 0.468200 -0.103707
v 0.032447 0.468200 -0.099861
v 0.047669 0.468200 -0.093556
v 0.061717 0.468200 -0.084947
v 0.074246 0.468200 -0.074246
v 0.084947 0.468200 -0.061717
v 0.093556 0.468200 -0.047669
v 0.099861 0.468200 -0.032447
v 0.103707 0.468200 -0.016426
v 0.105000 0.468200 -0.000000
v 0.098700 0.505000 0.000000
v 0.097485 0.505000 0.015440
v 0.093869 0.505000 0.030500
v 0.087942 0.505000 0.044809
v 0.079850 0.505000 0.058014
v 0.069791 0.505000 0.069791
v 0.058014 0.505000 0.079850
v 0.044809 0.505000 0.087942
v 0.030500 0.505000 0.093869
v 0.015440 0.505000 0.097485
v 0.000000 0.505000 0.098700
v -0.015440 0.505000 0.097485
v -0.030500 0.505000 0.093869
v -0.044809 0.505000 0.087942
v -0.058014 0.505000 0.079850
v -0.069791 0.505000 0.069791
v -0.079850 0.505000 0.058014
v -0.087942 0.505000 0.044809
v -0.093869 0.505000 0.030500
v -0.097485 0.505000 0.015440
v -0.098700 0.505000 0.000000
v -0.097485 0.505000 -0.015440
v -0.093869 0.505000 -0.030500
v -0.087942 0.505000 -0.044809
v -0.079850 0.505000 -0.058014
v -0.069791 0.505000 -0.069791
v -0.058014 0.505000 -0.079850
v -0.044809 0.505000 -0.087942
v -0.030500 0.505000 -0.093869
v -0.015440 0.505000 -0.097485
v -0.000000 0.505000 -0.098700
v 0.015440 0.505000 -0.097485
v 0.030500 0.505000 -0.093869
v 0.044809 0.505000 -0.087942
v 0.058014 0.505000 -0.079850
v 0.069791 0.505000 -0.069791
v 0.079850 0.505000 -0.058014
v 0.087942 0.505000 -0.044809
v 0.093869 0.505000 -0.030500
v 0.097485 0.505000 -0.015440
v 0.098700 0.505000 -0.000000
v 0.000000 0.505000 0.000000
v 0.000000 0.505000 0.000000
v 0.000000 0.505000 0.000000
v 0.000000 0.505000 0.000000
v 0.000000 0.505000 0.000000
v 0.000000 0.505000 0.000000
v 0.000000 0.505000 0.000000
v 0.000000 0.505000 0.000000
v 0.000000 0.505000 0.000000
v 0.000000 0.505000 0.000000
v 0.000000 0.505000 0.000000
v 0.000000 0.505000 0.000000
v 0.000000 0.505000 0.000000
v 0.000000 0.505000 0.000000
v 0.000000 0.505000 0.000000
v 0.000000 0.505000 0.000000
v 0.000000 0.505000 0.000000
v 0.000000 0.505000 0.000000
v 0.000000 0.505000 0.000000
v 0.000000 0.505000 0.000000
v 0.000000 0.505000 0.000000
v 0.000000 0.505000 0.000000
v 0.000000 0.505000 0.000000
v 0.000000 0.505000 0.000000
v 0.000000 0.505000 0.000000
v 0.000000 0.505000 0.000000
v 0.000000 0.505000 0.000000
v 0.000000 0.505000 0.000000
v 0.000000 0.505000 0.000000
v 0.000000 0.505000 0.000000
v 0.000000 0.505000 0.000000
v 0.000000 0.505000 0.000000
v 0.000000 0.505000 0.000000
v 0.000000 0.505000 0.000000
v 0.000000 0.505000 0.000000
v 0.000000 0.505000 0.000000
v 0.000000 0.505000 0.000000
v 0.000000 0.505000 0.000000
v 0.000000 0.505000 0.000000
v 0.000000 0.505000 0.000000
v 0.000000 0.505000 0.000000
vn 0.000000 -1.000000 0.000000
vn 0.000000 -1.000000 0.000000
vn 0.000000 -1.000000 0.000000
vn 0.000000 -1.000000 0.000000
vn 0.000000 -1.000000 0.000000
vn 0.000000 -1.000000 0.000000
vn 0.000000 -1.000000 0.000000
vn 0.000000 -1.000000 0.000000
vn 0.000000 -1.000000 0.000000
vn 0.000000 -1.000000 0.000000
vn 0.000000 -1.000000 0.000000
vn 0.000000 -1.000000 0.000000
vn 0.000000 -1.000000 0.000000
vn 0.000000 -1.000000 0.000000
vn 0.000000 -1.000000 0.000000
vn 0.000000 -1.000000 0.000000
vn 0.000000 -1.000000 0.000000
vn 0.000000 -1.000000 0.000000
vn 0.000000 -1.000000 0.000000
vn 0.000000 -1.000000 0.000000
vn 0.000000 -1.000000 0.000000
vn 0.000000 -1.000000 0.000000
vn 0.000000 -1.000000 0.000000
vn 0.000000 -1.000000 0.000000
vn 0.000000 -1.000000 0.000000
vn 0.000000 -1.000000 0.000000
vn 0.000000 -1.000000 0.000000
vn 0.000000 -1.000000 0.000000
vn 0.000000 -1.000000 0.000000
vn 0.000000 -1.000000 0.000000
vn 0.000000 -1.000000 0.000000
vn 0.000000 -1.000000 0.000000
vn 0.000000 -1.000000 0.000000
vn 0.000000 -1.000000 0.000000
vn 0.000000 -1.000000 0.000000
vn 0.000000 -1.000000 0.000000
vn 0.000000 -1.000000 0.000000
vn 0.000000 -1.000000 0.000000
vn 0.000000 -1.000000 0.000000
vn 0.000000 -1.000000 0.000000
vn 0.000000 -1.000000 0.000000
vn 0.461522 -0.887039 -0.012612
vn 0.457813 -0.887039 0.059741
vn 0.442831 -0.887039 0.130623
vn 0.416945 -0.887039 0.198289
vn 0.380792 -0.887039 0.261072
vn 0.335263 -0.887039 0.317427
vn 0.281479 -0.887039 0.365966
vn 0.220764 -0.887039 0.405493
vn 0.154613 -0.887039 0.435036
vn 0.084655 -0.887039 0.453867
vn 0.012612 -0.887039 0.461522
vn -0.059741 -0.887039 0.457813
vn -0.130623 -0.887039 0.442831
vn -0.198289 -0.887039 0.416945
vn -0.261072 -0.887039 0.380792
vn -0.317427 -0.887039 0.335263
vn -0.365966 -0.887039 0.281479
vn -0.405493 -0.887039 0.220764
vn -0.435036 -0.887039 0.154613
vn -0.453867 -0.887039 0.084655
vn -0.461522 -0.887039 0.012612
vn -0.457813 -0.887039 -0.059741
vn -0.442831 -0.887039 -0.130623
vn -0.416945 -0.887039 -0.198289
vn -0.380792 -0.887039 -0.261072
vn -0.335263 -0.887039 -0.317427
vn -0.281479 -0.887039 -0.365966
vn -0.220764 -0.887039 -0.405493
vn -0.154613 -0.887039 -0.435036
vn -0.084655 -0.887039 -0.453867
vn -0.012612 -0.887039 -0.461522
vn 0.059741 -0.887039 -0.457813
vn 0.130623 -0.887039 -0.442831
vn 0.198289 -0.887039 -0.416945
vn 0.261072 -0.887039 -0.380792
vn 0.317427 -0.887039 -0.335263
vn 0.365966 -0.887039 -0.281479
vn 0.405493 -0.887039 -0.220764
vn 0.435036 -0.887039 -0.154613
vn 0.453867 -0.887039 -0.084655
vn 0.461522 -0.887039 -0.012612
vn 0.999655 -0.014609 -0.021839
vn 0.990764 -0.014609 0.134811
vn 0.957477 -0.014609 0.288140
vn 0.900614 -0.014609 0.434375
vn 0.821574 -0.014609 0.569914
vn 0.722305 -0.014609 0.691420
vn 0.605250 -0.014609 0.795901
vn 0.473292 -0.014609 0.880784
vn 0.329680 -0.014609 0.943980
vn 0.177950 -0.014609 0.983931
vn 0.021839 -0.014609 0.999655
vn -0.134811 -0.014609 0.990764
vn -0.288140 -0.014609 0.957477
vn -0.434375 -0.014609 0.900614
vn -0.569914 -0.014609 0.821574
vn -0.691420 -0.014609 0.722305
vn -0.795901 -0.014609 0.605250
vn -0.880784 -0.014609 0.473292
vn -0.943980 -0.014609 0.329680
vn -0.983931 -0.014609 0.177950
vn -0.999655 -0.014609 0.021839
vn -0.990764 -0.014609 -0.134811
vn -0.957477 -0.014609 -0.288140
vn -0.900614 -0.014609 -0.434375
vn -0.821574 -0.014609 -0.569914
vn -0.722305 -0.014609 -0.691420
vn -0.605250 -0.014609 -0.795901
vn -0.473292 -0.014609 -0.880784
vn -0.329680 -0.014609 -0.943980
vn -0.177950 -0.014609 -0.983931
vn -0.021839 -0.014609 -0.999655
vn 0.134811 -0.014609 -0.990764
vn 0.288140 -0.014609 -0.957477
vn 0.434375 -0.014609 -0.900614
vn 0.569914 -0.014609 -0.821574
vn 0.691420 -0.014609 -0.722305
vn 0.795901 -0.014609 -0.605250
vn 0.880784 -0.014609 -0.473292
vn 0.943980 -0.014609 -0.329680
vn 0.983931 -0.014609 -0.177950
vn 0.999655 -0.014609 -0.021839
vn 0.999655 0.014609 0.021839
vn 0.983931 0.014609 0.177950
vn 0.943980 0.014609 0.329680
vn 0.880784 0.014609 0.473292
vn 0.795901 0.014609 0.605250
vn 0.691420 0.014609 0.722305
vn 0.569914 0.014609 0.821574
vn 0.434375 0.014609 0.900614
vn 0.288140 0.014609 0.957477
vn 0.134811 0.014609 0.990764
vn -0.021839 0.014609 0.999655
vn -0.177950 0.014609 0.983931
vn -0.329680 0.014609 0.943980
vn -0.473292 0.014609 0.880784
vn -0.605250 0.014609 0.795901
vn -0.722305 0.014609 0.691420
vn -0.821574 0.014609 0.569914
vn -0.900614 0.014609 0.434375
vn -0.957477 0.014609 0.288140
vn -0.990764 0.014609 0.134811
vn -0.999655 0.014609 -0.021839
vn -0.983931 0.014609 -0.177950
vn -0.943980 0.014609 -0.329680
vn -0.880784 0.014609 -0.473292
vn -0.795901 0.014609 -0.605250
vn -0.691420 0.014609 -0.722305
vn -0.569914 0.014609 -0.821574
vn -0.434375 0.014609 -0.900614
vn -0.288140 0.014609 -0.957477
vn -0.134811 0.014609 -0.990764
vn 0.021839 0.014609 -0.999655
vn 0.177950 0.014609 -0.983931
vn 0.329680 0.014609 -0.943980
vn 0.473292 0.014609 -0.880784
vn 0.605250 0.014609 -0.795901
vn 0.722305 0.014609 -0.691420
vn 0.821574 0.014609 -0.569914
vn 0.900614 0.014609 -0.434375
vn 0.957477 0.014609 -0.288140
vn 0.990764 0.014609 -0.134811
vn 0.999655 0.014609 0.021839
vn 0.461522 0.887039 0.012612
vn 0.453867 0.887039 0.084655
vn 0.435036 0.887039 0.154613
vn 0.405493 0.887039 0.220764
vn 0.365966 0.887039 0.281479
vn 0.317427 0.887039 0.335263
vn 0.261072 0.887039 0.380792
vn 0.198289 0.887039 0.416945
vn 0.130623 0.887039 0.442831
vn 0.059741 0.887039 0.457813
vn -0.012612 0.887039 0.461522
vn -0.084655 0.887039 0.453867
vn -0.154613 0.887039 0.435036
vn -0.220764 0.887039 0.405493
vn -0.281479 0.887039 0.365966
vn -0.335263 0.887039 0.317427
vn -0.380792 0.887039 0.261072
vn -0.416945 0.887039 0.198289
vn -0.442831 0.887039 0.130623
vn -0.457813 0.887039 0.059741
vn -0.461522 0.887039 -0.012612
vn -0.453867 0.887039 -0.084655
vn -0.435036 0.887039 -0.154613
vn -0.405493 0.887039 -0.220764
vn -0.365966 0.887039 -0.281479
vn -0.317427 0.887039 -0.335263
vn -0.261072 0.887039 -0.380792
vn -0.198289 0.887039 -0.416945
vn -0.130623 0.887039 -0.442831
vn -0.059741 0.887039 -0.457813
vn 0.012612 0.887039 -0.461522
vn 0.084655 0.887039 -0.453867
vn 0.154613 0.887039 -0.435036
vn 0.220764 0.887039 -0.405493
vn 0.281479 0.887039 -0.365966
vn 0.335263 0.887039 -0.317427
vn 0.380792 0.887039 -0.261072
vn 0.416945 0.887039 -0.198289
vn 0.442831 0.887039 -0.130623
vn 0.457813 0.887039 -0.059741
vn 0.461522 0.887039 0.012612
vn 0.000000 1.000000 0.000000
vn 0.000000 1.000000 0.000000
vn 0.000000 1.000000 0.000000
vn 0.000000 1.000000 0.000000
vn 0.000000 1.000000 0.000000
vn 0.000000 1.000000 0.000000
vn 0.000000 1.000000 0.000000
vn 0.000000 1.000000 0.000000
vn 0.000000 1.000000 0.000000
vn 0.000000 1.000000 0.000000
vn 0.000000 1.000000 0.000000
vn 0.000000 1.000000 0.000000
vn 0.000000 1.000000 0.000000
vn 0.000000 1.000000 0.000000
vn 0.000000 1.000000 0.000000
vn 0.000000 1.000000 0.000000
vn 0.000000 1.000000 0.000000
vn 0.000000 1.000000 0.000000
vn 0.000000 1.000000 0.000000
vn 0.000000 1.000000 0.000000
vn 0.000000 1.000000 0.000000
vn 0.000000 1.000000 0.000000
vn 0.000000 1.000000 0.000000
vn 0.000000 1.000000 0.000000
vn 0.000000 1.000000 0.000000
vn 0.000000 1.000000 0.000000
vn 0.000000 1.000000 0.000000
vn 0.000000 1.000000 0.000000
vn 0.000000 1.000000 0.000000
vn 0.000000 1.000000 0.000000
vn 0.000000 1.000000 0.000000
vn 0.000000 1.000000 0.000000
vn 0.000000 1.000000 0.000000
vn 0.000000 1.000000 0.000000
vn 0.000000 1.000000 0.000000
vn 0.000000 1.000000 0.000000
vn 0.000000 1.000000 0.000000
vn 0.000000 1.000000 0.000000
vn 0.000000 1.000000 0.000000
vn 0.000000 1.000000 0.000000
vn 0.000000 1.000000 0.000000
f 247//247 288//288 248//248
f 248//248 288//288 289//289
f 248//248 289//289 249//249
f 249//249 289//289 290//290
f 249//249 290//290 250//250
f 250//250 290//290 291//291
f 250//250 291//291 251//251
f 251//251 291//291 292//292
f 251//251 292//292 252//252
f 252//252 292//292 293//293
f 252//252 293//293 253//253
f 253//253 293//293 294//294
f 253//253 294//294 254//254
f 254//254 294//294 295//295
f 254//254 295//295 255//255
f 255//255 295//295 296//296
f 255//255 296//296 256//256
f 256//256 296//296 297//297
f 256//256 297//297 257//257
f 257//257 297//297 298//298
f 257//257 298//298 258//258
f 258//258 298//298 299//299
f 258//258 299//299 259//259
f 259//259 299//299 300//300
f 259//259 300//300 260//260
f 260//260 300//300 301//301
f 260//260 301//301 261//261
f 261//261 301//301 302//302
f 261//261 302//302 262//262
f 262//262 302//302 303//303
f 262//262 303//303 263//263
f 263//263 303//303 304//304
f 263//263 304//304 264//264
f 264//264 304//304 305//305
f 264//264 305//305 265//265
f 265//265 305//305 306//306
f 265//265 306//306 266//266
f 266//266 306//306 307//307
f 266//266 307//307 267//267
f 267//267 307//307 308//308
f 267//267 308//308 268//268
f 268//268 308//308 309//309
f 268//268 309//309 269//269
f 269//269 309//309 310//310
f 269//269 310//310 270//270
f 270//270 310//310 311//311
f 270//270 311//311 271//271
f 271//271 311//311 312//312
f 271//271 312//312 272//272
f 272//272 312//312 313//313
f 272//272 313//313 273//273
f 273//273 313//313 314//314
f 273//273 314//314 274//274
f 274//274 314//314 315//315
f 274//274 315//315 275//275
f 275//275 315//315 316//316
f 275//275 316//316 276//276
f 276//276 316//316 317//317
f 276//276 317//317 277//277
f 277//277 317//317 318//318
f 277//277 318//318 278//278
f 278//278 318//318 319//319
f 278//278 319//319 279//279
f 279//279 319//319 320//320
f 279//279 320//320 280//280
f 280//280 320//320 321//321
f 280//280 321//321 281//281
f 281//281 321//321 322//322
f 281//281 322//322 282//282
f 282//282 322//322 323//323
f 282//282 323//323 283//283
f 283//283 323//323 324//324
f 283//283 324//324 284//284
f 284//284 324//324 325//325
f 284//284 325//325 285//285
f 285//285 325//325 326//326
f 285//285 326//326 286//286
f 286//286 326//326 327//327
f 286//286 327//327 287//287
f 287//287 327//327 328//328
f 288//288 329//329 289//289
f 289//289 329//329 330//330
f 289//289 330//330 290//290
f 290//290 330//330 331//331
f 290//290 331//331 291//291
f 291//291 331//331 332//332
f 291//291 332//332 292//292
f 292//292 332//332 333//333
f 292//292 333//333 293//293
f 293//293 333//333 334//334
f 293//293 334//334 294//294
f 294//294 334//334 335//335
f 294//294 335//335 295//295
f 295//295 335//335 336//336
f 295//295 336//336 296//296
f 296//296 336//336 337//337
f 296//296 337//337 297//297
f 297//297 337//337 338//338
f 297//297 338//338 298//298
f 298//298 338//338 339//339
f 298//298 339//339 299//299
f 299//299 339//339 340//340
f 299//299 340//340 300//300
f 300//300 340//340 341//341
f 300//300 341//341 301//301
f 301//301 341//341 342//342
f 301//301 342//342 302//302
f 302//302 342//342 343//343
f 302//302 343//343 303//303
f 303//303 343//343 344//344
f 303//303 344//344 304//304
f 304//304 344//344 345//345
f 304//304 345//345 305//305
f 305//305 345//345 346//346
f 305//305 346//346 306//306
f 306//306 346//346 347//347
f 306//306 347//347 307//307
f 307//307 347//347 348//348
f 307//307 348//348 308//308
f 308//308 348//348 349//349
f 308//308 349//349 309//309
f 309//309 349//349 350//350
f 309//309 350//350 310//310
f 310//310 350//350 351//351
f 310//310 351//351 311//311
f 311//311 351//351 352//352
f 311//311 352//352 312//312
f 312//312 352//352 353//353
f 312//312 353//353 313//313
f 313//313 353//353 354//354
f 313//313 354//354 314//314
f 314//314 354//354 355//355
f 314//314 355//355 315//315
f 315//315 355//355 356//356
f 315//315 356//356 316//316
f 316//316 356//356 357//357
f 316//316 357//357 317//317
f 317//317 357//357 358//358
f 317//317 358//358 318//318
f 318//318 358//358 359//359
f 318//318 359//359 319//319
f 319//319 359//359 360//360
f 319//319 360//360 320//320
f 320//320 360//360 361//361
f 320//320 361//361 321//321
f 321//321 361//361 362//362
f 321//321 362//362 322//322
f 322//322 362//362 363//363
f 322//322 363//363 323//323
f 323//323 363//363 364//364
f 323//323 364//364 324//324
f 324//324 364//364 365//365
f 324//324 365//365 325//325
f 325//325 365//365 366//366
f 325//325 366//366 326//326
f 326//326 366//366 367//367
f 326//326 367//367 327//327
f 327//327 367//367 368//368
f 327//327 368//368 328//328
f 328//328 368//368 369//369
f 329//329 370//370 330//330
f 330//330 370//370 371//371
f 330//330 371//371 331//331
f 331//331 371//371 372//372
f 331//331 372//372 332//332
f 332//332 372//372 373//373
f 332//332 373//373 333//333
f 333//333 373//373 374//374
f 333//333 374//374 334//334
f 334//334 374//374 375//375
f 334//334 375//375 335//335
f 335//335 375//375 376//376
f 335//335 376//376 336//336
f 336//336 376//376 377//377
f 336//336 377//377 337//337
f 337//337 377//377 378//378
f 337//337 378//378 338//338
f 338//338 378//378 379//379
f 338//338 379//379 339//339
f 339//339 379//379 380//380
f 339//339 380//380 340//340
f 340//340 380//380 381//381
f 340//340 381//381 341//341
f 341//341 381//381 382//382
f 341//341 382//382 342//342
f 342//342 382//382 383//383
f 342//342 383//383 343//343
f 343//343 383//383 384//384
f 343//343 384//384 344//344
f 344//344 384//384 385//385
f 344//344 385//385 345//345
f 345//345 385//385 386//386
f 345//345 386//386 346//346
f 346//346 386//386 387//387
f 346//346 387//387 347//347
f 347//347 387//387 388//388
f 347//347 388//388 348//348
f 348//348 388//388 389//389
f 348//348 389//389 349//349
f 349//349 389//389 390//390
f 349//349 390//390 350//350
f 350//350 390//390 391//391
f 350//350 391//391 351//351
f 351//351 391//391 392//392
f 351//351 392//392 352//352
f 352//352 392//392 393//393
f 352//352 393//393 353//353
f 353//353 393//393 394//394
f 353//353 394//394 354//354
f 354//354 394//394 395//395
f 354//354 395//395 355//355
f 355//355 395//395 396//396
f 355//355 396//396 356//356
f 356//356 396//396 397//397
f 356//356 397//397 357//357
f 357//357 397//397 398//398
f 357//357 398//398 358//358
f 358//358 398//398 399//399
f 358//358 399//399 359//359
f 359//359 399//399 400//400
f 359//359 400//400 360//360
f 360//360 400//400 401//401
f 360//360 401//401 361//361
f 361//361 401//401 402//402
f 361//361 402//402 362//362
f 362//362 402//402 403//403
f 362//362 403//403 363//363
f 363//363 403//403 404//404
f 363//363 404//404 364//364
f 364//364 404//404 405//405
f 364//364 405//405 365//365
f 365//365 405//405 406//406
f 365//365 406//406 366//366
f 366//366 406//406 407//407
f 366//366 407//407 367//367
f 367//367 407//407 408//408
f 367//367 408//408 368//368
f 368//368 408//408 409//409
f 368//368 409//409 369//369
f 369//369 409//409 410//410
f 370//370 411//411 371//371
f 371//371 411//411 412//412
f 371//371 412//412 372//372
f 372//372 412//412 413//413
f 372//372 413//413 373//373
f 373//373 413//413 414//414
f 373//373 414//414 374//374
f 374//374 414//414 415//415
f 374//374 415//415 375//375
f 375//375 415//415 416//416
f 375//375 416//416 376//376
f 376//376 416//416 417//417
f 376//376 417//417 377//377
f 377//377 417//417 418//418
f 377//377 418//418 378//378
f 378//378 418//418 419//419
f 378//378 419//419 379//379
f 379//379 419//419 420//420
f 379//379 420//420 380//380
f 380//380 420//420 421//421
f 380//380 421//421 381//381
f 381//381 421//421 422//422
f 381//381 422//422 382//382
f 382//382 422//422 423//423
f 382//382 423//423 383//383
f 383//383 423//423 424//424
f 383//383 424//424 384//384
f 384//384 424//424 425//425
f 384//384 425//425 385//385
f 385//385 425//425 426//426
f 385//385 426//426 386//386
f 386//386 426//426 427//427
f 386//386 427//427 387//387
f 387//387 427//427 428//428
f 387//387 428//428 388//388
f 388//388 428//428 429//429
f 388//388 429//429 389//389
f 389//389 429//429 430//430
f 389//389 430//430 390//390
f 390//390 430//430 431//431
f 390//390 431//431 391//391
f 391//391 431//431 432//432
f 391//391 432//432 392//392
f 392//392 432//432 433//433
f 392//392 433//433 393//393
f 393//393 433//433 434//434
f 393//393 434//434 394//394
f 394//394 434//434 435//435
f 394//394 435//435 395//395
f 395//395 435//435 436//436
f 395//395 436//436 396//396
f 396//396 436//436 437//437
f 396//396 437//437 397//397
f 397//397 437//437 438//438
f 397//397 438//438 398//398
f 398//398 438//438 439//439
f 398//398 439//439 399//399
f 399//399 439//439 440//440
f 399//399 440//440 400//400
f 400//400 440//440 441//441
f 400//400 441//441 401//401
f 401//401 441//441 442//442
f 401//401 442//442 402//402
f 402//402 442//442 443//443
f 402//402 443//443 403//403
f 403//403 443//443 444//444
f 403//403 444//444 404//404
f 404//404 444//444 445//445
f 404//404 445//445 405//405
f 405//405 445//445 446//446
f 405//405 446//446 406//406
f 406//406 446//446 447//447
f 406//406 447//447 407//407
f 407//407 447//447 448//448
f 407//407 448//448 408//408
f 408//408 448//448 449//449
f 408//408 449//449 409//409
f 409//409 449//449 450//450
f 409//409 450//450 410//410
f 410//410 450//450 451//451
f 411//411 452//452 412//412
f 412//412 452//452 453//453
f 412//412 453//453 413//413
f 413//413 453//453 454//454
f 413//413 454//454 414//414
f 414//414 454//454 455//455
f 414//414 455//455 415//415
f 415//415 455//455 456//456
f 415//415 456//456 416//416
f 416//416 456//456 457//457
f 416//416 457//457 417//417
f 417//417 457//457 458//458
f 417//417 458//458 418//418
f 418//418 458//458 459//459
f 418//418 459//459 419//419
f 419//419 459//459 460//460
f 419//419 460//460 420//420
f 420//420 460//460 461//461
f 420//420 461//461 421//421
f 421//421 461//461 462//462
f 421//421 462//462 422//422
f 422//422 462//462 463//463
f 422//422 463//463 423//423
f 423//423 463//463 464//464
f 423//423 464//464 424//424
f 424//424 464//464 465//465
f 424//424 465//465 425//425
f 425//425 465//465 466//466
f 425//425 466//466 426//426
f 426//426 466//466 467//467
f 426//426 467//467 427//427
f 427//427 467//467 468//468
f 427//427 468//468 428//428
f 428//428 468//468 469//469
f 428//428 469//469 429//429
f 429//429 469//469 470//470
f 429//429 470//470 430//430
f 430//430 470//470 471//471
f 430//430 471//471 431//431
f 431//431 471//471 472//472
f 431//431 472//472 432//432
f 432//432 472//472 473//473
f 432//432 473//473 433//433
f 433//433 473//473 474//474
f 433//433 474//474 434//434
f 434//434 474//474 475//475
f 434//434 475//475 435//435
f 435//435 475//475 476//476
f 435//435 476//476 436//436
f 436//436 476//476 477//477
f 436//436 477//477 437//437
f 437//437 477//477 478//478
f 437//437 478//478 438//438
f 438//438 478//478 479//479
f 438//438 479//479 439//439
f 439//439 479//479 480//480
f 439//439 480//480 440//440
f 440//440 480//480 481//481
f 440//440 481//481 441//441
f 441//441 481//481 482//482
f 441//441 482//482 442//442
f 442//442 482//482 483//483
f 442//442 483//483 443//443
f 443//443 483//483 484//484
f 443//443 484//484 444//444
f 444//444 484//484 485//485
f 444//444 485//485 445//445
f 445//445 485//485 486//486
f 445//445 486//486 446//446
f 446//446 486//486 487//487
f 446//446 487//487 447//447
f 447//447 487//487 488//488
f 447//447 488//488 448//448
f 448//448 488//488 489//489
f 448//448 489//489 449//449
f 449//449 489//489 490//490
f 449//449 490//490 450//450
f 450//450 490//490 491//491
f 450//450 491//491 451//451
f 451//451 491//491 492//492
o cafe-table_oakLight
usemtl oakLight
v 0.000000 0.460000 0.000000
v 0.000000 0.460000 0.000000
v 0.000000 0.460000 0.000000
v 0.000000 0.460000 0.000000
v 0.000000 0.460000 0.000000
v 0.000000 0.460000 0.000000
v 0.000000 0.460000 0.000000
v 0.000000 0.460000 0.000000
v 0.000000 0.460000 0.000000
v 0.000000 0.460000 0.000000
v 0.000000 0.460000 0.000000
v 0.000000 0.460000 0.000000
v 0.000000 0.460000 0.000000
v 0.000000 0.460000 0.000000
v 0.000000 0.460000 0.000000
v 0.000000 0.460000 0.000000
v 0.000000 0.460000 0.000000
v 0.000000 0.460000 0.000000
v 0.000000 0.460000 0.000000
v 0.000000 0.460000 0.000000
v 0.000000 0.460000 0.000000
v 0.000000 0.460000 0.000000
v 0.000000 0.460000 0.000000
v 0.000000 0.460000 0.000000
v 0.000000 0.460000 0.000000
v 0.000000 0.460000 0.000000
v 0.000000 0.460000 0.000000
v 0.000000 0.460000 0.000000
v 0.000000 0.460000 0.000000
v 0.000000 0.460000 0.000000
v 0.000000 0.460000 0.000000
v 0.000000 0.460000 0.000000
v 0.000000 0.460000 0.000000
v 0.000000 0.460000 0.000000
v 0.000000 0.460000 0.000000
v 0.000000 0.460000 0.000000
v 0.000000 0.460000 0.000000
v 0.000000 0.460000 0.000000
v 0.000000 0.460000 0.000000
v 0.000000 0.460000 0.000000
v 0.000000 0.460000 0.000000
v 0.432400 0.460000 0.000000
v 0.427076 0.460000 0.067642
v 0.411237 0.460000 0.133619
v 0.385271 0.460000 0.196305
v 0.349819 0.460000 0.254158
v 0.305753 0.460000 0.305753
v 0.254158 0.460000 0.349819
v 0.196305 0.460000 0.385271
v 0.133619 0.460000 0.411237
v 0.067642 0.460000 0.427076
v 0.000000 0.460000 0.432400
v -0.067642 0.460000 0.427076
v -0.133619 0.460000 0.411237
v -0.196305 0.460000 0.385271
v -0.254158 0.460000 0.349819
v -0.305753 0.460000 0.305753
v -0.349819 0.460000 0.254158
v -0.385271 0.460000 0.196305
v -0.411237 0.460000 0.133619
v -0.427076 0.460000 0.067642
v -0.432400 0.460000 0.000000
v -0.427076 0.460000 -0.067642
v -0.411237 0.460000 -0.133619
v -0.385271 0.460000 -0.196305
v -0.349819 0.460000 -0.254158
v -0.305753 0.460000 -0.305753
v -0.254158 0.460000 -0.349819
v -0.196305 0.460000 -0.385271
v -0.133619 0.460000 -0.411237
v -0.067642 0.460000 -0.427076
v -0.000000 0.460000 -0.432400
v 0.067642 0.460000 -0.427076
v 0.133619 0.460000 -0.411237
v 0.196305 0.460000 -0.385271
v 0.254158 0.460000 -0.349819
v 0.305753 0.460000 -0.305753
v 0.349819 0.460000 -0.254158
v 0.385271 0.460000 -0.196305
v 0.411237 0.460000 -0.133619
v 0.427076 0.460000 -0.067642
v 0.432400 0.460000 -0.000000
v 0.460000 0.466000 0.000000
v 0.454337 0.466000 0.071960
v 0.437486 0.466000 0.142148
v 0.409863 0.466000 0.208836
v 0.372148 0.466000 0.270381
v 0.325269 0.466000 0.325269
v 0.270381 0.466000 0.372148
v 0.208836 0.466000 0.409863
v 0.142148 0.466000 0.437486
v 0.071960 0.466000 0.454337
v 0.000000 0.466000 0.460000
v -0.071960 0.466000 0.454337
v -0.142148 0.466000 0.437486
v -0.208836 0.466000 0.409863
v -0.270381 0.466000 0.372148
v -0.325269 0.466000 0.325269
v -0.372148 0.466000 0.270381
v -0.409863 0.466000 0.208836
v -0.437486 0.466000 0.142148
v -0.454337 0.466000 0.071960
v -0.460000 0.466000 0.000000
v -0.454337 0.466000 -0.071960
v -0.437486 0.466000 -0.142148
v -0.409863 0.466000 -0.208836
v -0.372148 0.466000 -0.270381
v -0.325269 0.466000 -0.325269
v -0.270381 0.466000 -0.372148
v -0.208836 0.466000 -0.409863
v -0.142148 0.466000 -0.437486
v -0.071960 0.466000 -0.454337
v -0.000000 0.466000 -0.460000
v 0.071960 0.466000 -0.454337
v 0.142148 0.466000 -0.437486
v 0.208836 0.466000 -0.409863
v 0.270381 0.466000 -0.372148
v 0.325269 0.466000 -0.325269
v 0.372148 0.466000 -0.270381
v 0.409863 0.466000 -0.208836
v 0.437486 0.466000 -0.142148
v 0.454337 0.466000 -0.071960
v 0.460000 0.466000 -0.000000
v 0.460000 0.529000 0.000000
v 0.454337 0.529000 0.071960
v 0.437486 0.529000 0.142148
v 0.409863 0.529000 0.208836
v 0.372148 0.529000 0.270381
v 0.325269 0.529000 0.325269
v 0.270381 0.529000 0.372148
v 0.208836 0.529000 0.409863
v 0.142148 0.529000 0.437486
v 0.071960 0.529000 0.454337
v 0.000000 0.529000 0.460000
v -0.071960 0.529000 0.454337
v -0.142148 0.529000 0.437486
v -0.208836 0.529000 0.409863
v -0.270381 0.529000 0.372148
v -0.325269 0.529000 0.325269
v -0.372148 0.529000 0.270381
v -0.409863 0.529000 0.208836
v -0.437486 0.529000 0.142148
v -0.454337 0.529000 0.071960
v -0.460000 0.529000 0.000000
v -0.454337 0.529000 -0.071960
v -0.437486 0.529000 -0.142148
v -0.409863 0.529000 -0.208836
v -0.372148 0.529000 -0.270381
v -0.325269 0.529000 -0.325269
v -0.270381 0.529000 -0.372148
v -0.208836 0.529000 -0.409863
v -0.142148 0.529000 -0.437486
v -0.071960 0.529000 -0.454337
v -0.000000 0.529000 -0.460000
v 0.071960 0.529000 -0.454337
v 0.142148 0.529000 -0.437486
v 0.208836 0.529000 -0.409863
v 0.270381 0.529000 -0.372148
v 0.325269 0.529000 -0.325269
v 0.372148 0.529000 -0.270381
v 0.409863 0.529000 -0.208836
v 0.437486 0.529000 -0.142148
v 0.454337 0.529000 -0.071960
v 0.460000 0.529000 -0.000000
v 0.432400 0.535000 0.000000
v 0.427076 0.535000 0.067642
v 0.411237 0.535000 0.133619
v 0.385271 0.535000 0.196305
v 0.349819 0.535000 0.254158
v 0.305753 0.535000 0.305753
v 0.254158 0.535000 0.349819
v 0.196305 0.535000 0.385271
v 0.133619 0.535000 0.411237
v 0.067642 0.535000 0.427076
v 0.000000 0.535000 0.432400
v -0.067642 0.535000 0.427076
v -0.133619 0.535000 0.411237
v -0.196305 0.535000 0.385271
v -0.254158 0.535000 0.349819
v -0.305753 0.535000 0.305753
v -0.349819 0.535000 0.254158
v -0.385271 0.535000 0.196305
v -0.411237 0.535000 0.133619
v -0.427076 0.535000 0.067642
v -0.432400 0.535000 0.000000
v -0.427076 0.535000 -0.067642
v -0.411237 0.535000 -0.133619
v -0.385271 0.535000 -0.196305
v -0.349819 0.535000 -0.254158
v -0.305753 0.535000 -0.305753
v -0.254158 0.535000 -0.349819
v -0.196305 0.535000 -0.385271
v -0.133619 0.535000 -0.411237
v -0.067642 0.535000 -0.427076
v -0.000000 0.535000 -0.432400
v 0.067642 0.535000 -0.427076
v 0.133619 0.535000 -0.411237
v 0.196305 0.535000 -0.385271
v 0.254158 0.535000 -0.349819
v 0.305753 0.535000 -0.305753
v 0.349819 0.535000 -0.254158
v 0.385271 0.535000 -0.196305
v 0.411237 0.535000 -0.133619
v 0.427076 0.535000 -0.067642
v 0.432400 0.535000 -0.000000
v 0.000000 0.535000 0.000000
v 0.000000 0.535000 0.000000
v 0.000000 0.535000 0.000000
v 0.000000 0.535000 0.000000
v 0.000000 0.535000 0.000000
v 0.000000 0.535000 0.000000
v 0.000000 0.535000 0.000000
v 0.000000 0.535000 0.000000
v 0.000000 0.535000 0.000000
v 0.000000 0.535000 0.000000
v 0.000000 0.535000 0.000000
v 0.000000 0.535000 0.000000
v 0.000000 0.535000 0.000000
v 0.000000 0.535000 0.000000
v 0.000000 0.535000 0.000000
v 0.000000 0.535000 0.000000
v 0.000000 0.535000 0.000000
v 0.000000 0.535000 0.000000
v 0.000000 0.535000 0.000000
v 0.000000 0.535000 0.000000
v 0.000000 0.535000 0.000000
v 0.000000 0.535000 0.000000
v 0.000000 0.535000 0.000000
v 0.000000 0.535000 0.000000
v 0.000000 0.535000 0.000000
v 0.000000 0.535000 0.000000
v 0.000000 0.535000 0.000000
v 0.000000 0.535000 0.000000
v 0.000000 0.535000 0.000000
v 0.000000 0.535000 0.000000
v 0.000000 0.535000 0.000000
v 0.000000 0.535000 0.000000
v 0.000000 0.535000 0.000000
v 0.000000 0.535000 0.000000
v 0.000000 0.535000 0.000000
v 0.000000 0.535000 0.000000
v 0.000000 0.535000 0.000000
v 0.000000 0.535000 0.000000
v 0.000000 0.535000 0.000000
v 0.000000 0.535000 0.000000
v 0.000000 0.535000 0.000000
vn 0.000000 -1.000000 0.000000
vn 0.000000 -1.000000 0.000000
vn 0.000000 -1.000000 0.000000
vn 0.000000 -1.000000 0.000000
vn 0.000000 -1.000000 0.000000
vn 0.000000 -1.000000 0.000000
vn 0.000000 -1.000000 0.000000
vn 0.000000 -1.000000 0.000000
vn 0.000000 -1.000000 0.000000
vn 0.000000 -1.000000 0.000000
vn 0.000000 -1.000000 0.000000
vn 0.000000 -1.000000 0.000000
vn 0.000000 -1.000000 0.000000
vn 0.000000 -1.000000 0.000000
vn 0.000000 -1.000000 0.000000
vn 0.000000 -1.000000 0.000000
vn 0.000000 -1.000000 0.000000
vn 0.000000 -1.000000 0.000000
vn 0.000000 -1.000000 0.000000
vn 0.000000 -1.000000 0.000000
vn 0.000000 -1.000000 0.000000
vn 0.000000 -1.000000 0.000000
vn 0.000000 -1.000000 0.000000
vn 0.000000 -1.000000 0.000000
vn 0.000000 -1.000000 0.000000
vn 0.000000 -1.000000 0.000000
vn 0.000000 -1.000000 0.000000
vn 0.000000 -1.000000 0.000000
vn 0.000000 -1.000000 0.000000
vn 0.000000 -1.000000 0.000000
vn 0.000000 -1.000000 0.000000
vn 0.000000 -1.000000 0.000000
vn 0.000000 -1.000000 0.000000
vn 0.000000 -1.000000 0.000000
vn 0.000000 -1.000000 0.000000
vn 0.000000 -1.000000 0.000000
vn 0.000000 -1.000000 0.000000
vn 0.000000 -1.000000 0.000000
vn 0.000000 -1.000000 0.000000
vn 0.000000 -1.000000 0.000000
vn 0.000000 -1.000000 0.000000
vn 0.019360 -0.999812 -0.000529
vn 0.019204 -0.999812 0.002506
vn 0.018576 -0.999812 0.005479
vn 0.017490 -0.999812 0.008318
vn 0.015973 -0.999812 0.010951
vn 0.014064 -0.999812 0.013315
vn 0.011807 -0.999812 0.015352
vn 0.009261 -0.999812 0.017010
vn 0.006486 -0.999812 0.018249
vn 0.003551 -0.999812 0.019039
vn 0.000529 -0.999812 0.019360
vn -0.002506 -0.999812 0.019204
vn -0.005479 -0.999812 0.018576
vn -0.008318 -0.999812 0.017490
vn -0.010951 -0.999812 0.015973
vn -0.013315 -0.999812 0.014064
vn -0.015352 -0.999812 0.011807
vn -0.017010 -0.999812 0.009261
vn -0.018249 -0.999812 0.006486
vn -0.019039 -0.999812 0.003551
vn -0.019360 -0.999812 0.000529
vn -0.019204 -0.999812 -0.002506
vn -0.018576 -0.999812 -0.005479
vn -0.017490 -0.999812 -0.008318
vn -0.015973 -0.999812 -0.010951
vn -0.014064 -0.999812 -0.013315
vn -0.011807 -0.999812 -0.015352
vn -0.009261 -0.999812 -0.017010
vn -0.006486 -0.999812 -0.018249
vn -0.003551 -0.999812 -0.019039
vn -0.000529 -0.999812 -0.019360
vn 0.002506 -0.999812 -0.019204
vn 0.005479 -0.999812 -0.018576
vn 0.008318 -0.999812 -0.017490
vn 0.010951 -0.999812 -0.015973
vn 0.013315 -0.999812 -0.014064
vn 0.015352 -0.999812 -0.011807
vn 0.017010 -0.999812 -0.009261
vn 0.018249 -0.999812 -0.006486
vn 0.019039 -0.999812 -0.003551
vn 0.019360 -0.999812 -0.000529
vn 0.930614 -0.365436 -0.020331
vn 0.922337 -0.365436 0.125500
vn 0.891349 -0.365436 0.268240
vn 0.838413 -0.365436 0.404375
vn 0.764833 -0.365436 0.530554
vn 0.672420 -0.365436 0.643668
vn 0.563449 -0.365436 0.740933
vn 0.440605 -0.365436 0.819954
vn 0.306911 -0.365436 0.878784
vn 0.165660 -0.365436 0.915976
vn 0.020331 -0.365436 0.930614
vn -0.125500 -0.365436 0.922337
vn -0.268240 -0.365436 0.891349
vn -0.404375 -0.365436 0.838413
vn -0.530554 -0.365436 0.764833
vn -0.643668 -0.365436 0.672420
vn -0.740933 -0.365436 0.563449
vn -0.819954 -0.365436 0.440605
vn -0.878784 -0.365436 0.306911
vn -0.915976 -0.365436 0.165660
vn -0.930614 -0.365436 0.020331
vn -0.922337 -0.365436 -0.125500
vn -0.891349 -0.365436 -0.268240
vn -0.838413 -0.365436 -0.404375
vn -0.764833 -0.365436 -0.530554
vn -0.672420 -0.365436 -0.643668
vn -0.563449 -0.365436 -0.740933
vn -0.440605 -0.365436 -0.819954
vn -0.306911 -0.365436 -0.878784
vn -0.165660 -0.365436 -0.915976
vn -0.020331 -0.365436 -0.930614
vn 0.125500 -0.365436 -0.922337
vn 0.268240 -0.365436 -0.891349
vn 0.404375 -0.365436 -0.838413
vn 0.530554 -0.365436 -0.764833
vn 0.643668 -0.365436 -0.672420
vn 0.740933 -0.365436 -0.563449
vn 0.819954 -0.365436 -0.440605
vn 0.878784 -0.365436 -0.306911
vn 0.915976 -0.365436 -0.165660
vn 0.930614 -0.365436 -0.020331
vn 0.930614 0.365436 0.020331
vn 0.915976 0.365436 0.165660
vn 0.878784 0.365436 0.306911
vn 0.819954 0.365436 0.440605
vn 0.740933 0.365436 0.563449
vn 0.643668 0.365436 0.672420
vn 0.530554 0.365436 0.764833
vn 0.404375 0.365436 0.838413
vn 0.268240 0.365436 0.891349
vn 0.125500 0.365436 0.922337
vn -0.020331 0.365436 0.930614
vn -0.165660 0.365436 0.915976
vn -0.306911 0.365436 0.878784
vn -0.440605 0.365436 0.819954
vn -0.563449 0.365436 0.740933
vn -0.672420 0.365436 0.643668
vn -0.764833 0.365436 0.530554
vn -0.838413 0.365436 0.404375
vn -0.891349 0.365436 0.268240
vn -0.922337 0.365436 0.125500
vn -0.930614 0.365436 -0.020331
vn -0.915976 0.365436 -0.165660
vn -0.878784 0.365436 -0.306911
vn -0.819954 0.365436 -0.440605
vn -0.740933 0.365436 -0.563449
vn -0.643668 0.365436 -0.672420
vn -0.530554 0.365436 -0.764833
vn -0.404375 0.365436 -0.838413
vn -0.268240 0.365436 -0.891349
vn -0.125500 0.365436 -0.922337
vn 0.020331 0.365436 -0.930614
vn 0.165660 0.365436 -0.915976
vn 0.306911 0.365436 -0.878784
vn 0.440605 0.365436 -0.819954
vn 0.563449 0.365436 -0.740933
vn 0.672420 0.365436 -0.643668
vn 0.764833 0.365436 -0.530554
vn 0.838413 0.365436 -0.404375
vn 0.891349 0.365436 -0.268240
vn 0.922337 0.365436 -0.125500
vn 0.930614 0.365436 0.020331
vn 0.019360 0.999812 0.000529
vn 0.019039 0.999812 0.003551
vn 0.018249 0.999812 0.006486
vn 0.017010 0.999812 0.009261
vn 0.015352 0.999812 0.011807
vn 0.013315 0.999812 0.014064
vn 0.010951 0.999812 0.015973
vn 0.008318 0.999812 0.017490
vn 0.005479 0.999812 0.018576
vn 0.002506 0.999812 0.019204
vn -0.000529 0.999812 0.019360
vn -0.003551 0.999812 0.019039
vn -0.006486 0.999812 0.018249
vn -0.009261 0.999812 0.017010
vn -0.011807 0.999812 0.015352
vn -0.014064 0.999812 0.013315
vn -0.015973 0.999812 0.010951
vn -0.017490 0.999812 0.008318
vn -0.018576 0.999812 0.005479
vn -0.019204 0.999812 0.002506
vn -0.019360 0.999812 -0.000529
vn -0.019039 0.999812 -0.003551
vn -0.018249 0.999812 -0.006486
vn -0.017010 0.999812 -0.009261
vn -0.015352 0.999812 -0.011807
vn -0.013315 0.999812 -0.014064
vn -0.010951 0.999812 -0.015973
vn -0.008318 0.999812 -0.017490
vn -0.005479 0.999812 -0.018576
vn -0.002506 0.999812 -0.019204
vn 0.000529 0.999812 -0.019360
vn 0.003551 0.999812 -0.019039
vn 0.006486 0.999812 -0.018249
vn 0.009261 0.999812 -0.017010
vn 0.011807 0.999812 -0.015352
vn 0.014064 0.999812 -0.013315
vn 0.015973 0.999812 -0.010951
vn 0.017490 0.999812 -0.008318
vn 0.018576 0.999812 -0.005479
vn 0.019204 0.999812 -0.002506
vn 0.019360 0.999812 0.000529
vn 0.000000 1.000000 0.000000
vn 0.000000 1.000000 0.000000
vn 0.000000 1.000000 0.000000
vn 0.000000 1.000000 0.000000
vn 0.000000 1.000000 0.000000
vn 0.000000 1.000000 0.000000
vn 0.000000 1.000000 0.000000
vn 0.000000 1.000000 0.000000
vn 0.000000 1.000000 0.000000
vn 0.000000 1.000000 0.000000
vn 0.000000 1.000000 0.000000
vn 0.000000 1.000000 0.000000
vn 0.000000 1.000000 0.000000
vn 0.000000 1.000000 0.000000
vn 0.000000 1.000000 0.000000
vn 0.000000 1.000000 0.000000
vn 0.000000 1.000000 0.000000
vn 0.000000 1.000000 0.000000
vn 0.000000 1.000000 0.000000
vn 0.000000 1.000000 0.000000
vn 0.000000 1.000000 0.000000
vn 0.000000 1.000000 0.000000
vn 0.000000 1.000000 0.000000
vn 0.000000 1.000000 0.000000
vn 0.000000 1.000000 0.000000
vn 0.000000 1.000000 0.000000
vn 0.000000 1.000000 0.000000
vn 0.000000 1.000000 0.000000
vn 0.000000 1.000000 0.000000
vn 0.000000 1.000000 0.000000
vn 0.000000 1.000000 0.000000
vn 0.000000 1.000000 0.000000
vn 0.000000 1.000000 0.000000
vn 0.000000 1.000000 0.000000
vn 0.000000 1.000000 0.000000
vn 0.000000 1.000000 0.000000
vn 0.000000 1.000000 0.000000
vn 0.000000 1.000000 0.000000
vn 0.000000 1.000000 0.000000
vn 0.000000 1.000000 0.000000
vn 0.000000 1.000000 0.000000
f 493//493 534//534 494//494
f 494//494 534//534 535//535
f 494//494 535//535 495//495
f 495//495 535//535 536//536
f 495//495 536//536 496//496
f 496//496 536//536 537//537
f 496//496 537//537 497//497
f 497//497 537//537 538//538
f 497//497 538//538 498//498
f 498//498 538//538 539//539
f 498//498 539//539 499//499
f 499//499 539//539 540//540
f 499//499 540//540 500//500
f 500//500 540//540 541//541
f 500//500 541//541 501//501
f 501//501 541//541 542//542
f 501//501 542//542 502//502
f 502//502 542//542 543//543
f 502//502 543//543 503//503
f 503//503 543//543 544//544
f 503//503 544//544 504//504
f 504//504 544//544 545//545
f 504//504 545//545 505//505
f 505//505 545//545 546//546
f 505//505 546//546 506//506
f 506//506 546//546 547//547
f 506//506 547//547 507//507
f 507//507 547//547 548//548
f 507//507 548//548 508//508
f 508//508 548//548 549//549
f 508//508 549//549 509//509
f 509//509 549//549 550//550
f 509//509 550//550 510//510
f 510//510 550//550 551//551
f 510//510 551//551 511//511
f 511//511 551//551 552//552
f 511//511 552//552 512//512
f 512//512 552//552 553//553
f 512//512 553//553 513//513
f 513//513 553//553 554//554
f 513//513 554//554 514//514
f 514//514 554//554 555//555
f 514//514 555//555 515//515
f 515//515 555//555 556//556
f 515//515 556//556 516//516
f 516//516 556//556 557//557
f 516//516 557//557 517//517
f 517//517 557//557 558//558
f 517//517 558//558 518//518
f 518//518 558//558 559//559
f 518//518 559//559 519//519
f 519//519 559//559 560//560
f 519//519 560//560 520//520
f 520//520 560//560 561//561
f 520//520 561//561 521//521
f 521//521 561//561 562//562
f 521//521 562//562 522//522
f 522//522 562//562 563//563
f 522//522 563//563 523//523
f 523//523 563//563 564//564
f 523//523 564//564 524//524
f 524//524 564//564 565//565
f 524//524 565//565 525//525
f 525//525 565//565 566//566
f 525//525 566//566 526//526
f 526//526 566//566 567//567
f 526//526 567//567 527//527
f 527//527 567//567 568//568
f 527//527 568//568 528//528
f 528//528 568//568 569//569
f 528//528 569//569 529//529
f 529//529 569//569 570//570
f 529//529 570//570 530//530
f 530//530 570//570 571//571
f 530//530 571//571 531//531
f 531//531 571//571 572//572
f 531//531 572//572 532//532
f 532//532 572//572 573//573
f 532//532 573//573 533//533
f 533//533 573//573 574//574
f 534//534 575//575 535//535
f 535//535 575//575 576//576
f 535//535 576//576 536//536
f 536//536 576//576 577//577
f 536//536 577//577 537//537
f 537//537 577//577 578//578
f 537//537 578//578 538//538
f 538//538 578//578 579//579
f 538//538 579//579 539//539
f 539//539 579//579 580//580
f 539//539 580//580 540//540
f 540//540 580//580 581//581
f 540//540 581//581 541//541
f 541//541 581//581 582//582
f 541//541 582//582 542//542
f 542//542 582//582 583//583
f 542//542 583//583 543//543
f 543//543 583//583 584//584
f 543//543 584//584 544//544
f 544//544 584//584 585//585
f 544//544 585//585 545//545
f 545//545 585//585 586//586
f 545//545 586//586 546//546
f 546//546 586//586 587//587
f 546//546 587//587 547//547
f 547//547 587//587 588//588
f 547//547 588//588 548//548
f 548//548 588//588 589//589
f 548//548 589//589 549//549
f 549//549 589//589 590//590
f 549//549 590//590 550//550
f 550//550 590//590 591//591
f 550//550 591//591 551//551
f 551//551 591//591 592//592
f 551//551 592//592 552//552
f 552//552 592//592 593//593
f 552//552 593//593 553//553
f 553//553 593//593 594//594
f 553//553 594//594 554//554
f 554//554 594//594 595//595
f 554//554 595//595 555//555
f 555//555 595//595 596//596
f 555//555 596//596 556//556
f 556//556 596//596 597//597
f 556//556 597//597 557//557
f 557//557 597//597 598//598
f 557//557 598//598 558//558
f 558//558 598//598 599//599
f 558//558 599//599 559//559
f 559//559 599//599 600//600
f 559//559 600//600 560//560
f 560//560 600//600 601//601
f 560//560 601//601 561//561
f 561//561 601//601 602//602
f 561//561 602//602 562//562
f 562//562 602//602 603//603
f 562//562 603//603 563//563
f 563//563 603//603 604//604
f 563//563 604//604 564//564
f 564//564 604//604 605//605
f 564//564 605//605 565//565
f 565//565 605//605 606//606
f 565//565 606//606 566//566
f 566//566 606//606 607//607
f 566//566 607//607 567//567
f 567//567 607//607 608//608
f 567//567 608//608 568//568
f 568//568 608//608 609//609
f 568//568 609//609 569//569
f 569//569 609//609 610//610
f 569//569 610//610 570//570
f 570//570 610//610 611//611
f 570//570 611//611 571//571
f 571//571 611//611 612//612
f 571//571 612//612 572//572
f 572//572 612//612 613//613
f 572//572 613//613 573//573
f 573//573 613//613 614//614
f 573//573 614//614 574//574
f 574//574 614//614 615//615
f 575//575 616//616 576//576
f 576//576 616//616 617//617
f 576//576 617//617 577//577
f 577//577 617//617 618//618
f 577//577 618//618 578//578
f 578//578 618//618 619//619
f 578//578 619//619 579//579
f 579//579 619//619 620//620
f 579//579 620//620 580//580
f 580//580 620//620 621//621
f 580//580 621//621 581//581
f 581//581 621//621 622//622
f 581//581 622//622 582//582
f 582//582 622//622 623//623
f 582//582 623//623 583//583
f 583//583 623//623 624//624
f 583//583 624//624 584//584
f 584//584 624//624 625//625
f 584//584 625//625 585//585
f 585//585 625//625 626//626
f 585//585 626//626 586//586
f 586//586 626//626 627//627
f 586//586 627//627 587//587
f 587//587 627//627 628//628
f 587//587 628//628 588//588
f 588//588 628//628 629//629
f 588//588 629//629 589//589
f 589//589 629//629 630//630
f 589//589 630//630 590//590
f 590//590 630//630 631//631
f 590//590 631//631 591//591
f 591//591 631//631 632//632
f 591//591 632//632 592//592
f 592//592 632//632 633//633
f 592//592 633//633 593//593
f 593//593 633//633 634//634
f 593//593 634//634 594//594
f 594//594 634//634 635//635
f 594//594 635//635 595//595
f 595//595 635//635 636//636
f 595//595 636//636 596//596
f 596//596 636//636 637//637
f 596//596 637//637 597//597
f 597//597 637//637 638//638
f 597//597 638//638 598//598
f 598//598 638//638 639//639
f 598//598 639//639 599//599
f 599//599 639//639 640//640
f 599//599 640//640 600//600
f 600//600 640//640 641//641
f 600//600 641//641 601//601
f 601//601 641//641 642//642
f 601//601 642//642 602//602
f 602//602 642//642 643//643
f 602//602 643//643 603//603
f 603//603 643//643 644//644
f 603//603 644//644 604//604
f 604//604 644//644 645//645
f 604//604 645//645 605//605
f 605//605 645//645 646//646
f 605//605 646//646 606//606
f 606//606 646//646 647//647
f 606//606 647//647 607//607
f 607//607 647//647 648//648
f 607//607 648//648 608//608
f 608//608 648//648 649//649
f 608//608 649//649 609//609
f 609//609 649//649 650//650
f 609//609 650//650 610//610
f 610//610 650//650 651//651
f 610//610 651//651 611//611
f 611//611 651//651 652//652
f 611//611 652//652 612//612
f 612//612 652//652 653//653
f 612//612 653//653 613//613
f 613//613 653//653 654//654
f 613//613 654//654 614//614
f 614//614 654//654 655//655
f 614//614 655//655 615//615
f 615//615 655//655 656//656
f 616//616 657//657 617//617
f 617//617 657//657 658//658
f 617//617 658//658 618//618
f 618//618 658//658 659//659
f 618//618 659//659 619//619
f 619//619 659//659 660//660
f 619//619 660//660 620//620
f 620//620 660//660 661//661
f 620//620 661//661 621//621
f 621//621 661//661 662//662
f 621//621 662//662 622//622
f 622//622 662//662 663//663
f 622//622 663//663 623//623
f 623//623 663//663 664//664
f 623//623 664//664 624//624
f 624//624 664//664 665//665
f 624//624 665//665 625//625
f 625//625 665//665 666//666
f 625//625 666//666 626//626
f 626//626 666//666 667//667
f 626//626 667//667 627//627
f 627//627 667//667 668//668
f 627//627 668//668 628//628
f 628//628 668//668 669//669
f 628//628 669//669 629//629
f 629//629 669//669 670//670
f 629//629 670//670 630//630
f 630//630 670//670 671//671
f 630//630 671//671 631//631
f 631//631 671//671 672//672
f 631//631 672//672 632//632
f 632//632 672//672 673//673
f 632//632 673//673 633//633
f 633//633 673//673 674//674
f 633//633 674//674 634//634
f 634//634 674//674 675//675
f 634//634 675//675 635//635
f 635//635 675//675 676//676
f 635//635 676//676 636//636
f 636//636 676//676 677//677
f 636//636 677//677 637//637
f 637//637 677//677 678//678
f 637//637 678//678 638//638
f 638//638 678//678 679//679
f 638//638 679//679 639//639
f 639//639 679//679 680//680
f 639//639 680//680 640//640
f 640//640 680//680 681//681
f 640//640 681//681 641//641
f 641//641 681//681 682//682
f 641//641 682//682 642//642
f 642//642 682//682 683//683
f 642//642 683//683 643//643
f 643//643 683//683 684//684
f 643//643 684//684 644//644
f 644//644 684//684 685//685
f 644//644 685//685 645//645
f 645//645 685//685 686//686
f 645//645 686//686 646//646
f 646//646 686//686 687//687
f 646//646 687//687 647//647
f 647//647 687//687 688//688
f 647//647 688//688 648//648
f 648//648 688//688 689//689
f 648//648 689//689 649//649
f 649//649 689//689 690//690
f 649//649 690//690 650//650
f 650//650 690//690 691//691
f 650//650 691//691 651//651
f 651//651 691//691 692//692
f 651//651 692//692 652//652
f 652//652 692//692 693//693
f 652//652 693//693 653//653
f 653//653 693//693 694//694
f 653//653 694//694 654//654
f 654//654 694//694 695//695
f 654//654 695//695 655//655
f 655//655 695//695 696//696
f 655//655 696//696 656//656
f 656//656 696//696 697//697
f 657//657 698//698 658//658
f 658//658 698//698 699//699
f 658//658 699//699 659//659
f 659//659 699//699 700//700
f 659//659 700//700 660//660
f 660//660 700//700 701//701
f 660//660 701//701 661//661
f 661//661 701//701 702//702
f 661//661 702//702 662//662
f 662//662 702//702 703//703
f 662//662 703//703 663//663
f 663//663 703//703 704//704
f 663//663 704//704 664//664
f 664//664 704//704 705//705
f 664//664 705//705 665//665
f 665//665 705//705 706//706
f 665//665 706//706 666//666
f 666//666 706//706 707//707
f 666//666 707//707 667//667
f 667//667 707//707 708//708
f 667//667 708//708 668//668
f 668//668 708//708 709//709
f 668//668 709//709 669//669
f 669//669 709//709 710//710
f 669//669 710//710 670//670
f 670//670 710//710 711//711
f 670//670 711//711 671//671
f 671//671 711//711 712//712
f 671//671 712//712 672//672
f 672//672 712//712 713//713
f 672//672 713//713 673//673
f 673//673 713//713 714//714
f 673//673 714//714 674//674
f 674//674 714//714 715//715
f 674//674 715//715 675//675
f 675//675 715//715 716//716
f 675//675 716//716 676//676
f 676//676 716//716 717//717
f 676//676 717//717 677//677
f 677//677 717//717 718//718
f 677//677 718//718 678//678
f 678//678 718//718 719//719
f 678//678 719//719 679//679
f 679//679 719//719 720//720
f 679//679 720//720 680//680
f 680//680 720//720 721//721
f 680//680 721//721 681//681
f 681//681 721//721 722//722
f 681//681 722//722 682//682
f 682//682 722//722 723//723
f 682//682 723//723 683//683
f 683//683 723//723 724//724
f 683//683 724//724 684//684
f 684//684 724//724 725//725
f 684//684 725//725 685//685
f 685//685 725//725 726//726
f 685//685 726//726 686//686
f 686//686 726//726 727//727
f 686//686 727//727 687//687
f 687//687 727//727 728//728
f 687//687 728//728 688//688
f 688//688 728//728 729//729
f 688//688 729//729 689//689
f 689//689 729//729 730//730
f 689//689 730//730 690//690
f 690//690 730//730 731//731
f 690//690 731//731 691//691
f 691//691 731//731 732//732
f 691//691 732//732 692//692
f 692//692 732//732 733//733
f 692//692 733//733 693//693
f 693//693 733//733 734//734
f 693//693 734//734 694//694
f 694//694 734//734 735//735
f 694//694 735//735 695//695
f 695//695 735//735 736//736
f 695//695 736//736 696//696
f 696//696 736//736 737//737
f 696//696 737//737 697//697
f 697//697 737//737 738//738
