# Bara Kitchen - metres, +Y up; editable mesh source
mtllib palette.mtl
o carrot-chopped_carrot
usemtl carrot
v -0.108771 0.007000 -0.081671
v -0.000014 0.007000 -0.030956
v -0.001867 0.025376 -0.031820
v -0.007300 0.042500 -0.034354
v -0.015941 0.057205 -0.038383
v -0.027204 0.068488 -0.043635
v -0.040319 0.075581 -0.049751
v -0.054393 0.078000 -0.056314
v -0.068467 0.075581 -0.062876
v -0.081582 0.068488 -0.068992
v -0.092844 0.057205 -0.074244
v -0.101486 0.042500 -0.078273
v -0.106918 0.025376 -0.080807
v -0.123986 0.007000 -0.049044
v -0.015229 0.007000 0.001671
v -0.017082 0.025376 0.000807
v -0.022514 0.042500 -0.001727
v -0.031156 0.057205 -0.005756
v -0.042418 0.068488 -0.011008
v -0.055533 0.075581 -0.017124
v -0.069607 0.078000 -0.023686
v -0.083681 0.075581 -0.030249
v -0.096796 0.068488 -0.036365
v -0.108059 0.057205 -0.041617
v -0.116700 0.042500 -0.045646
v -0.122133 0.025376 -0.048180
v -0.108771 0.007000 -0.081671
v -0.000014 0.007000 -0.030956
v -0.015229 0.007000 0.001671
v -0.123986 0.007000 -0.049044
v -0.000014 0.007000 -0.030956
v -0.001867 0.025376 -0.031820
v -0.017082 0.025376 0.000807
v -0.015229 0.007000 0.001671
v -0.001867 0.025376 -0.031820
v -0.007300 0.042500 -0.034354
v -0.022514 0.042500 -0.001727
v -0.017082 0.025376 0.000807
v -0.007300 0.042500 -0.034354
v -0.015941 0.057205 -0.038383
v -0.031156 0.057205 -0.005756
v -0.022514 0.042500 -0.001727
v -0.015941 0.057205 -0.038383
v -0.027204 0.068488 -0.043635
v -0.042418 0.068488 -0.011008
v -0.031156 0.057205 -0.005756
v -0.027204 0.068488 -0.043635
v -0.040319 0.075581 -0.049751
v -0.055533 0.075581 -0.017124
v -0.042418 0.068488 -0.011008
v -0.040319 0.075581 -0.049751
v -0.054393 0.078000 -0.056314
v -0.069607 0.078000 -0.023686
v -0.055533 0.075581 -0.017124
v -0.054393 0.078000 -0.056314
v -0.068467 0.075581 -0.062876
v -0.083681 0.075581 -0.030249
v -0.069607 0.078000 -0.023686
v -0.068467 0.075581 -0.062876
v -0.081582 0.068488 -0.068992
v -0.096796 0.068488 -0.036365
v -0.083681 0.075581 -0.030249
v -0.081582 0.068488 -0.068992
v -0.092844 0.057205 -0.074244
v -0.108059 0.057205 -0.041617
v -0.096796 0.068488 -0.036365
v -0.092844 0.057205 -0.074244
v -0.101486 0.042500 -0.078273
v -0.116700 0.042500 -0.045646
v -0.108059 0.057205 -0.041617
v -0.101486 0.042500 -0.078273
v -0.106918 0.025376 -0.080807
v -0.122133 0.025376 -0.048180
v -0.116700 0.042500 -0.045646
v -0.106918 0.025376 -0.080807
v -0.108771 0.007000 -0.081671
v -0.123986 0.007000 -0.049044
v -0.122133 0.025376 -0.048180
v -0.009473 0.007000 -0.018330
v 0.088825 0.007000 -0.087159
v 0.087150 0.025376 -0.085987
v 0.082240 0.042500 -0.082549
v 0.074429 0.057205 -0.077080
v 0.064250 0.068488 -0.069952
v 0.052396 0.075581 -0.061652
v 0.039676 0.078000 -0.052745
v 0.026955 0.075581 -0.043838
v 0.015101 0.068488 -0.035537
v 0.004922 0.057205 -0.028410
v -0.002889 0.042500 -0.022941
v -0.007799 0.025376 -0.019503
v 0.011175 0.007000 0.011159
v 0.109473 0.007000 -0.057670
v 0.107799 0.025376 -0.056497
v 0.102889 0.042500 -0.053059
v 0.095078 0.057205 -0.047590
v 0.084899 0.068488 -0.040463
v 0.073045 0.075581 -0.032162
v 0.060324 0.078000 -0.023255
v 0.047604 0.075581 -0.014348
v 0.035750 0.068488 -0.006048
v 0.025571 0.057205 0.001080
v 0.017760 0.042500 0.006549
v 0.012850 0.025376 0.009987
v -0.009473 0.007000 -0.018330
v 0.088825 0.007000 -0.087159
v 0.109473 0.007000 -0.057670
v 0.011175 0.007000 0.011159
v 0.088825 0.007000 -0.087159
v 0.087150 0.025376 -0.085987
v 0.107799 0.025376 -0.056497
v 0.109473 0.007000 -0.057670
v 0.087150 0.025376 -0.085987
v 0.082240 0.042500 -0.082549
v 0.102889 0.042500 -0.053059
v 0.107799 0.025376 -0.056497
v 0.082240 0.042500 -0.082549
v 0.074429 0.057205 -0.077080
v 0.095078 0.057205 -0.047590
v 0.102889 0.042500 -0.053059
v 0.074429 0.057205 -0.077080
v 0.064250 0.068488 -0.069952
v 0.084899 0.068488 -0.040463
v 0.095078 0.057205 -0.047590
v 0.064250 0.068488 -0.069952
v 0.052396 0.075581 -0.061652
v 0.073045 0.075581 -0.032162
v 0.084899 0.068488 -0.040463
v 0.052396 0.075581 -0.061652
v 0.039676 0.078000 -0.052745
v 0.060324 0.078000 -0.023255
v 0.073045 0.075581 -0.032162
v 0.039676 0.078000 -0.052745
v 0.026955 0.075581 -0.043838
v 0.047604 0.075581 -0.014348
v 0.060324 0.078000 -0.023255
v 0.026955 0.075581 -0.043838
v 0.015101 0.068488 -0.035537
v 0.035750 0.068488 -0.006048
v 0.047604 0.075581 -0.014348
v 0.015101 0.068488 -0.035537
v 0.004922 0.057205 -0.028410
v 0.025571 0.057205 0.001080
v 0.035750 0.068488 -0.006048
v 0.004922 0.057205 -0.028410
v -0.002889 0.042500 -0.022941
v 0.017760 0.042500 0.006549
v 0.025571 0.057205 0.001080
v -0.002889 0.042500 -0.022941
v -0.007799 0.025376 -0.019503
v 0.012850 0.025376 0.009987
v 0.017760 0.042500 0.006549
v -0.007799 0.025376 -0.019503
v -0.009473 0.007000 -0.018330
v 0.011175 0.007000 0.011159
v 0.012850 0.025376 0.009987
v -0.102431 0.007000 0.055868
v 0.014946 0.007000 0.030919
v 0.012947 0.025376 0.031344
v 0.007084 0.042500 0.032590
v -0.002243 0.057205 0.034572
v -0.014398 0.068488 0.037156
v -0.028553 0.075581 0.040165
v -0.043742 0.078000 0.043393
v -0.058932 0.075581 0.046622
v -0.073087 0.068488 0.049631
v -0.085242 0.057205 0.052214
v -0.094568 0.042500 0.054197
v -0.100431 0.025376 0.055443
v -0.094946 0.007000 0.091081
v 0.022431 0.007000 0.066132
v 0.020431 0.025376 0.066557
v 0.014568 0.042500 0.067803
v 0.005242 0.057205 0.069786
v -0.006913 0.068488 0.072369
v -0.021068 0.075581 0.075378
v -0.036258 0.078000 0.078607
v -0.051447 0.075581 0.081835
v -0.065602 0.068488 0.084844
v -0.077757 0.057205 0.087428
v -0.087084 0.042500 0.089410
v -0.092947 0.025376 0.090656
v -0.102431 0.007000 0.055868
v 0.014946 0.007000 0.030919
v 0.022431 0.007000 0.066132
v -0.094946 0.007000 0.091081
v 0.014946 0.007000 0.030919
v 0.012947 0.025376 0.031344
v 0.020431 0.025376 0.066557
v 0.022431 0.007000 0.066132
v 0.012947 0.025376 0.031344
v 0.007084 0.042500 0.032590
v 0.014568 0.042500 0.067803
v 0.020431 0.025376 0.066557
v 0.007084 0.042500 0.032590
v -0.002243 0.057205 0.034572
v 0.005242 0.057205 0.069786
v 0.014568 0.042500 0.067803
v -0.002243 0.057205 0.034572
v -0.014398 0.068488 0.037156
v -0.006913 0.068488 0.072369
v 0.005242 0.057205 0.069786
v -0.014398 0.068488 0.037156
v -0.028553 0.075581 0.040165
v -0.021068 0.075581 0.075378
v -0.006913 0.068488 0.072369
v -0.028553 0.075581 0.040165
v -0.043742 0.078000 0.043393
v -0.036258 0.078000 0.078607
v -0.021068 0.075581 0.075378
v -0.043742 0.078000 0.043393
v -0.058932 0.075581 0.046622
v -0.051447 0.075581 0.081835
v -0.036258 0.078000 0.078607
v -0.058932 0.075581 0.046622
v -0.073087 0.068488 0.049631
v -0.065602 0.068488 0.084844
v -0.051447 0.075581 0.081835
v -0.073087 0.068488 0.049631
v -0.085242 0.057205 0.052214
v -0.077757 0.057205 0.087428
v -0.065602 0.068488 0.084844
v -0.085242 0.057205 0.052214
v -0.094568 0.042500 0.054197
v -0.087084 0.042500 0.089410
v -0.077757 0.057205 0.087428
v -0.094568 0.042500 0.054197
v -0.100431 0.025376 0.055443
v -0.092947 0.025376 0.090656
v -0.087084 0.042500 0.089410
v -0.100431 0.025376 0.055443
v -0.102431 0.007000 0.055868
v -0.094946 0.007000 0.091081
v -0.092947 0.025376 0.090656
v 0.036175 0.032000 0.008841
v 0.134473 0.032000 0.077670
v 0.132799 0.050376 0.076497
v 0.127889 0.067500 0.073059
v 0.120078 0.082205 0.067590
v 0.109899 0.093488 0.060463
v 0.098045 0.100581 0.052162
v 0.085324 0.103000 0.043255
v 0.072604 0.100581 0.034348
v 0.060750 0.093488 0.026048
v 0.050571 0.082205 0.018920
v 0.042760 0.067500 0.013451
v 0.037850 0.050376 0.010013
v 0.015527 0.032000 0.038330
v 0.113825 0.032000 0.107159
v 0.112150 0.050376 0.105987
v 0.107240 0.067500 0.102549
v 0.099429 0.082205 0.097080
v 0.089250 0.093488 0.089952
v 0.077396 0.100581 0.081652
v 0.064676 0.103000 0.072745
v 0.051955 0.100581 0.063838
v 0.040101 0.093488 0.055537
v 0.029922 0.082205 0.048410
v 0.022111 0.067500 0.042941
v 0.017201 0.050376 0.039503
v 0.036175 0.032000 0.008841
v 0.134473 0.032000 0.077670
v 0.113825 0.032000 0.107159
v 0.015527 0.032000 0.038330
v 0.134473 0.032000 0.077670
v 0.132799 0.050376 0.076497
v 0.112150 0.050376 0.105987
v 0.113825 0.032000 0.107159
v 0.132799 0.050376 0.076497
v 0.127889 0.067500 0.073059
v 0.107240 0.067500 0.102549
v 0.112150 0.050376 0.105987
v 0.127889 0.067500 0.073059
v 0.120078 0.082205 0.067590
v 0.099429 0.082205 0.097080
v 0.107240 0.067500 0.102549
v 0.120078 0.082205 0.067590
v 0.109899 0.093488 0.060463
v 0.089250 0.093488 0.089952
v 0.099429 0.082205 0.097080
v 0.109899 0.093488 0.060463
v 0.098045 0.100581 0.052162
v 0.077396 0.100581 0.081652
v 0.089250 0.093488 0.089952
v 0.098045 0.100581 0.052162
v 0.085324 0.103000 0.043255
v 0.064676 0.103000 0.072745
v 0.077396 0.100581 0.081652
v 0.085324 0.103000 0.043255
v 0.072604 0.100581 0.034348
v 0.051955 0.100581 0.063838
v 0.064676 0.103000 0.072745
v 0.072604 0.100581 0.034348
v 0.060750 0.093488 0.026048
v 0.040101 0.093488 0.055537
v 0.051955 0.100581 0.063838
v 0.060750 0.093488 0.026048
v 0.050571 0.082205 0.018920
v 0.029922 0.082205 0.048410
v 0.040101 0.093488 0.055537
v 0.050571 0.082205 0.018920
v 0.042760 0.067500 0.013451
v 0.022111 0.067500 0.042941
v 0.029922 0.082205 0.048410
v 0.042760 0.067500 0.013451
v 0.037850 0.050376 0.010013
v 0.017201 0.050376 0.039503
v 0.022111 0.067500 0.042941
v 0.037850 0.050376 0.010013
v 0.036175 0.032000 0.008841
v 0.015527 0.032000 0.038330
v 0.017201 0.050376 0.039503
vn 0.316436 -0.543009 -0.777823
vn 0.434769 -0.851318 -0.293656
vn 0.745933 0.106175 -0.657504
vn 0.718488 0.199034 -0.666454
vn 0.670920 0.295900 -0.679933
vn 0.595704 0.398027 -0.697647
vn 0.480428 0.503990 -0.717762
vn 0.307738 0.605069 -0.734295
vn 0.062991 0.677029 -0.733256
vn -0.240292 0.677991 -0.694686
vn -0.537615 0.577966 -0.613943
vn -0.755950 0.397833 -0.519874
vn -0.874115 0.183823 -0.449592
vn -0.487271 -0.299422 0.820313
vn -0.037470 -0.965732 0.256823
vn -0.015596 0.076208 0.996970
vn -0.031222 0.170559 0.984853
vn -0.062741 0.270259 0.960741
vn -0.114628 0.377205 0.919009
vn -0.193684 0.491130 0.849281
vn -0.307738 0.605069 0.734295
vn -0.458762 0.696223 0.552097
vn -0.627328 0.720344 0.295912
vn -0.768915 0.639281 0.009453
vn -0.853314 0.468603 -0.228618
vn -0.891250 0.257465 -0.373343
vn 0.316436 -0.543009 -0.777823
vn 0.434769 -0.851318 -0.293656
vn -0.037470 -0.965732 0.256823
vn -0.487271 -0.299422 0.820313
vn 0.434769 -0.851318 -0.293656
vn 0.745933 0.106175 -0.657504
vn -0.015596 0.076208 0.996970
vn -0.037470 -0.965732 0.256823
vn 0.745933 0.106175 -0.657504
vn 0.718488 0.199034 -0.666454
vn -0.031222 0.170559 0.984853
vn -0.015596 0.076208 0.996970
vn 0.718488 0.199034 -0.666454
vn 0.670920 0.295900 -0.679933
vn -0.062741 0.270259 0.960741
vn -0.031222 0.170559 0.984853
vn 0.670920 0.295900 -0.679933
vn 0.595704 0.398027 -0.697647
vn -0.114628 0.377205 0.919009
vn -0.062741 0.270259 0.960741
vn 0.595704 0.398027 -0.697647
vn 0.480428 0.503990 -0.717762
vn -0.193684 0.491130 0.849281
vn -0.114628 0.377205 0.919009
vn 0.480428 0.503990 -0.717762
vn 0.307738 0.605069 -0.734295
vn -0.307738 0.605069 0.734295
vn -0.193684 0.491130 0.849281
vn 0.307738 0.605069 -0.734295
vn 0.062991 0.677029 -0.733256
vn -0.458762 0.696223 0.552097
vn -0.307738 0.605069 0.734295
vn 0.062991 0.677029 -0.733256
vn -0.240292 0.677991 -0.694686
vn -0.627328 0.720344 0.295912
vn -0.458762 0.696223 0.552097
vn -0.240292 0.677991 -0.694686
vn -0.537615 0.577966 -0.613943
vn -0.768915 0.639281 0.009453
vn -0.627328 0.720344 0.295912
vn -0.537615 0.577966 -0.613943
vn -0.755950 0.397833 -0.519874
vn -0.853314 0.468603 -0.228618
vn -0.768915 0.639281 0.009453
vn -0.755950 0.397833 -0.519874
vn -0.874115 0.183823 -0.449592
vn -0.891250 0.257465 -0.373343
vn -0.853314 0.468603 -0.228618
vn -0.874115 0.183823 -0.449592
vn 0.316436 -0.543009 -0.777823
vn -0.487271 -0.299422 0.820313
vn -0.891250 0.257465 -0.373343
vn -0.515397 -0.543009 -0.662953
vn -0.036929 -0.851318 -0.523349
vn -0.196449 0.106175 -0.974749
vn -0.217922 0.199034 -0.955456
vn -0.253379 0.295900 -0.921001
vn -0.306328 0.398027 -0.864718
vn -0.381386 0.503990 -0.774944
vn -0.482049 0.605069 -0.633657
vn -0.603523 0.677029 -0.421180
vn -0.721762 0.677991 -0.139244
vn -0.800498 0.577966 0.158617
vn -0.828199 0.397833 0.394735
vn -0.826415 0.183823 0.532210
vn 0.466776 -0.299422 0.832146
vn 0.203680 -0.965732 0.160861
vn 0.855603 0.076208 0.511992
vn 0.837296 0.170559 0.519465
vn 0.800656 0.270259 0.534706
vn 0.738571 0.377205 0.558775
vn 0.638657 0.491130 0.592375
vn 0.482049 0.605069 0.633657
vn 0.248749 0.696223 0.673348
vn -0.057396 0.720344 0.691238
vn -0.376271 0.639281 0.670627
vn -0.624646 0.468603 0.624683
vn -0.768950 0.257465 0.585174
vn -0.515397 -0.543009 -0.662953
vn -0.036929 -0.851318 -0.523349
vn 0.203680 -0.965732 0.160861
vn 0.466776 -0.299422 0.832146
vn -0.036929 -0.851318 -0.523349
vn -0.196449 0.106175 -0.974749
vn 0.855603 0.076208 0.511992
vn 0.203680 -0.965732 0.160861
vn -0.196449 0.106175 -0.974749
vn -0.217922 0.199034 -0.955456
vn 0.837296 0.170559 0.519465
vn 0.855603 0.076208 0.511992
vn -0.217922 0.199034 -0.955456
vn -0.253379 0.295900 -0.921001
vn 0.800656 0.270259 0.534706
vn 0.837296 0.170559 0.519465
vn -0.253379 0.295900 -0.921001
vn -0.306328 0.398027 -0.864718
vn 0.738571 0.377205 0.558775
vn 0.800656 0.270259 0.534706
vn -0.306328 0.398027 -0.864718
vn -0.381386 0.503990 -0.774944
vn 0.638657 0.491130 0.592375
vn 0.738571 0.377205 0.558775
vn -0.381386 0.503990 -0.774944
vn -0.482049 0.605069 -0.633657
vn 0.482049 0.605069 0.633657
vn 0.638657 0.491130 0.592375
vn -0.482049 0.605069 -0.633657
vn -0.603523 0.677029 -0.421180
vn 0.248749 0.696223 0.673348
vn 0.482049 0.605069 0.633657
vn -0.603523 0.677029 -0.421180
vn -0.721762 0.677991 -0.139244
vn -0.057396 0.720344 0.691238
vn 0.248749 0.696223 0.673348
vn -0.721762 0.677991 -0.139244
vn -0.800498 0.577966 0.158617
vn -0.376271 0.639281 0.670627
vn -0.057396 0.720344 0.691238
vn -0.800498 0.577966 0.158617
vn -0.828199 0.397833 0.394735
vn -0.624646 0.468603 0.624683
vn -0.376271 0.639281 0.670627
vn -0.828199 0.397833 0.394735
vn -0.826415 0.183823 0.532210
vn -0.768950 0.257465 0.585174
vn -0.624646 0.468603 0.624683
vn -0.826415 0.183823 0.532210
vn -0.515397 -0.543009 -0.662953
vn 0.466776 -0.299422 0.832146
vn -0.768950 0.257465 0.585174
vn -0.215389 -0.543009 -0.811633
vn 0.170495 -0.851318 -0.496174
vn 0.200032 0.106175 -0.974019
vn 0.172728 0.199034 -0.964651
vn 0.126627 0.295900 -0.946789
vn 0.055896 0.398027 -0.915669
vn -0.048273 0.503990 -0.862359
vn -0.196139 0.605069 -0.771636
vn -0.390978 0.677029 -0.623513
vn -0.609978 0.677991 -0.410189
vn -0.798838 0.577966 -0.166772
vn -0.916596 0.397833 0.039752
vn -0.968670 0.183823 0.166996
vn 0.104524 -0.299422 0.948378
vn 0.124635 -0.965732 0.227658
vn 0.587536 0.076208 0.805602
vn 0.567764 0.170559 0.805328
vn 0.528081 0.270259 0.805041
vn 0.461527 0.377205 0.802938
vn 0.356427 0.491130 0.794828
vn 0.196139 0.605069 0.771636
vn -0.034124 0.696223 0.717014
vn -0.322922 0.720344 0.613861
vn -0.608394 0.639281 0.470294
vn -0.819073 0.468603 0.330955
vn -0.936468 0.257465 0.238203
vn -0.215389 -0.543009 -0.811633
vn 0.170495 -0.851318 -0.496174
vn 0.124635 -0.965732 0.227658
vn 0.104524 -0.299422 0.948378
vn 0.170495 -0.851318 -0.496174
vn 0.200032 0.106175 -0.974019
vn 0.587536 0.076208 0.805602
vn 0.124635 -0.965732 0.227658
vn 0.200032 0.106175 -0.974019
vn 0.172728 0.199034 -0.964651
vn 0.567764 0.170559 0.805328
vn 0.587536 0.076208 0.805602
vn 0.172728 0.199034 -0.964651
vn 0.126627 0.295900 -0.946789
vn 0.528081 0.270259 0.805041
vn 0.567764 0.170559 0.805328
vn 0.126627 0.295900 -0.946789
vn 0.055896 0.398027 -0.915669
vn 0.461527 0.377205 0.802938
vn 0.528081 0.270259 0.805041
vn 0.055896 0.398027 -0.915669
vn -0.048273 0.503990 -0.862359
vn 0.356427 0.491130 0.794828
vn 0.461527 0.377205 0.802938
vn -0.048273 0.503990 -0.862359
vn -0.196139 0.605069 -0.771636
vn 0.196139 0.605069 0.771636
vn 0.356427 0.491130 0.794828
vn -0.196139 0.605069 -0.771636
vn -0.390978 0.677029 -0.623513
vn -0.034124 0.696223 0.717014
vn 0.196139 0.605069 0.771636
vn -0.390978 0.677029 -0.623513
vn -0.609978 0.677991 -0.410189
vn -0.322922 0.720344 0.613861
vn -0.034124 0.696223 0.717014
vn -0.609978 0.677991 -0.410189
vn -0.798838 0.577966 -0.166772
vn -0.608394 0.639281 0.470294
vn -0.322922 0.720344 0.613861
vn -0.798838 0.577966 -0.166772
vn -0.916596 0.397833 0.039752
vn -0.819073 0.468603 0.330955
vn -0.608394 0.639281 0.470294
vn -0.916596 0.397833 0.039752
vn -0.968670 0.183823 0.166996
vn -0.936468 0.257465 0.238203
vn -0.819073 0.468603 0.330955
vn -0.968670 0.183823 0.166996
vn -0.215389 -0.543009 -0.811633
vn 0.104524 -0.299422 0.948378
vn -0.936468 0.257465 0.238203
vn 0.446696 -0.543009 -0.711058
vn 0.479156 -0.851318 -0.213697
vn 0.848775 0.106175 -0.517985
vn 0.823301 0.199034 -0.531565
vn 0.778797 0.295900 -0.553100
vn 0.707799 0.398027 -0.583605
vn 0.597768 0.503990 -0.623432
vn 0.430572 0.605069 -0.669701
vn 0.189363 0.677029 -0.711178
vn -0.116011 0.677991 -0.725858
vn -0.422837 0.577966 -0.697972
vn -0.654190 0.397833 -0.643245
vn -0.782764 0.183823 -0.594550
vn -0.622314 -0.299422 0.723237
vn -0.081497 -0.965732 0.246415
vn -0.188481 0.076208 0.979115
vn -0.201766 0.170559 0.964469
vn -0.228619 0.270259 0.935250
vn -0.272470 0.377205 0.885142
vn -0.338217 0.491130 0.802746
vn -0.430572 0.605069 0.669701
vn -0.547663 0.696223 0.464046
vn -0.669182 0.720344 0.182482
vn -0.758875 0.639281 -0.124211
vn -0.800652 0.468603 -0.373321
vn -0.812880 0.257465 -0.522435
vn 0.446696 -0.543009 -0.711058
vn 0.479156 -0.851318 -0.213697
vn -0.081497 -0.965732 0.246415
vn -0.622314 -0.299422 0.723237
vn 0.479156 -0.851318 -0.213697
vn 0.848775 0.106175 -0.517985
vn -0.188481 0.076208 0.979115
vn -0.081497 -0.965732 0.246415
vn 0.848775 0.106175 -0.517985
vn 0.823301 0.199034 -0.531565
vn -0.201766 0.170559 0.964469
vn -0.188481 0.076208 0.979115
vn 0.823301 0.199034 -0.531565
vn 0.778797 0.295900 -0.553100
vn -0.228619 0.270259 0.935250
vn -0.201766 0.170559 0.964469
vn 0.778797 0.295900 -0.553100
vn 0.707799 0.398027 -0.583605
vn -0.272470 0.377205 0.885142
vn -0.228619 0.270259 0.935250
vn 0.707799 0.398027 -0.583605
vn 0.597768 0.503990 -0.623432
vn -0.338217 0.491130 0.802746
vn -0.272470 0.377205 0.885142
vn 0.597768 0.503990 -0.623432
vn 0.430572 0.605069 -0.669701
vn -0.430572 0.605069 0.669701
vn -0.338217 0.491130 0.802746
vn 0.430572 0.605069 -0.669701
vn 0.189363 0.677029 -0.711178
vn -0.547663 0.696223 0.464046
vn -0.430572 0.605069 0.669701
vn 0.189363 0.677029 -0.711178
vn -0.116011 0.677991 -0.725858
vn -0.669182 0.720344 0.182482
vn -0.547663 0.696223 0.464046
vn -0.116011 0.677991 -0.725858
vn -0.422837 0.577966 -0.697972
vn -0.758875 0.639281 -0.124211
vn -0.669182 0.720344 0.182482
vn -0.422837 0.577966 -0.697972
vn -0.654190 0.397833 -0.643245
vn -0.800652 0.468603 -0.373321
vn -0.758875 0.639281 -0.124211
vn -0.654190 0.397833 -0.643245
vn -0.782764 0.183823 -0.594550
vn -0.812880 0.257465 -0.522435
vn -0.800652 0.468603 -0.373321
vn -0.782764 0.183823 -0.594550
vn 0.446696 -0.543009 -0.711058
vn -0.622314 -0.299422 0.723237
vn -0.812880 0.257465 -0.522435
f 3//3 2//2 1//1
f 4//4 3//3 1//1
f 5//5 4//4 1//1
f 6//6 5//5 1//1
f 7//7 6//6 1//1
f 8//8 7//7 1//1
f 9//9 8//8 1//1
f 10//10 9//9 1//1
f 11//11 10//10 1//1
f 12//12 11//11 1//1
f 13//13 12//12 1//1
f 14//14 15//15 16//16
f 14//14 16//16 17//17
f 14//14 17//17 18//18
f 14//14 18//18 19//19
f 14//14 19//19 20//20
f 14//14 20//20 21//21
f 14//14 21//21 22//22
f 14//14 22//22 23//23
f 14//14 23//23 24//24
f 14//14 24//24 25//25
f 14//14 25//25 26//26
f 27//27 28//28 29//29
f 27//27 29//29 30//30
f 31//31 32//32 33//33
f 31//31 33//33 34//34
f 35//35 36//36 37//37
f 35//35 37//37 38//38
f 39//39 40//40 41//41
f 39//39 41//41 42//42
f 43//43 44//44 45//45
f 43//43 45//45 46//46
f 47//47 48//48 49//49
f 47//47 49//49 50//50
f 51//51 52//52 53//53
f 51//51 53//53 54//54
f 55//55 56//56 57//57
f 55//55 57//57 58//58
f 59//59 60//60 61//61
f 59//59 61//61 62//62
f 63//63 64//64 65//65
f 63//63 65//65 66//66
f 67//67 68//68 69//69
f 67//67 69//69 70//70
f 71//71 72//72 73//73
f 71//71 73//73 74//74
f 75//75 76//76 77//77
f 75//75 77//77 78//78
f 81//81 80//80 79//79
f 82//82 81//81 79//79
f 83//83 82//82 79//79
f 84//84 83//83 79//79
f 85//85 84//84 79//79
f 86//86 85//85 79//79
f 87//87 86//86 79//79
f 88//88 87//87 79//79
f 89//89 88//88 79//79
f 90//90 89//89 79//79
f 91//91 90//90 79//79
f 92//92 93//93 94//94
f 92//92 94//94 95//95
f 92//92 95//95 96//96
f 92//92 96//96 97//97
f 92//92 97//97 98//98
f 92//92 98//98 99//99
f 92//92 99//99 100//100
f 92//92 100//100 101//101
f 92//92 101//101 102//102
f 92//92 102//102 103//103
f 92//92 103//103 104//104
f 105//105 106//106 107//107
f 105//105 107//107 108//108
f 109//109 110//110 111//111
f 109//109 111//111 112//112
f 113//113 114//114 115//115
f 113//113 115//115 116//116
f 117//117 118//118 119//119
f 117//117 119//119 120//120
f 121//121 122//122 123//123
f 121//121 123//123 124//124
f 125//125 126//126 127//127
f 125//125 127//127 128//128
f 129//129 130//130 131//131
f 129//129 131//131 132//132
f 133//133 134//134 135//135
f 133//133 135//135 136//136
f 137//137 138//138 139//139
f 137//137 139//139 140//140
f 141//141 142//142 143//143
f 141//141 143//143 144//144
f 145//145 146//146 147//147
f 145//145 147//147 148//148
f 149//149 150//150 151//151
f 149//149 151//151 152//152
f 153//153 154//154 155//155
f 153//153 155//155 156//156
f 159//159 158//158 157//157
f 160//160 159//159 157//157
f 161//161 160//160 157//157
f 162//162 161//161 157//157
f 163//163 162//162 157//157
f 164//164 163//163 157//157
f 165//165 164//164 157//157
f 166//166 165//165 157//157
f 167//167 166//166 157//157
f 168//168 167//167 157//157
f 169//169 168//168 157//157
f 170//170 171//171 172//172
f 170//170 172//172 173//173
f 170//170 173//173 174//174
f 170//170 174//174 175//175
f 170//170 175//175 176//176
f 170//170 176//176 177//177
f 170//170 177//177 178//178
f 170//170 178//178 179//179
f 170//170 179//179 180//180
f 170//170 180//180 181//181
f 170//170 181//181 182//182
f 183//183 184//184 185//185
f 183//183 185//185 186//186
f 187//187 188//188 189//189
f 187//187 189//189 190//190
f 191//191 192//192 193//193
f 191//191 193//193 194//194
f 195//195 196//196 197//197
f 195//195 197//197 198//198
f 199//199 200//200 201//201
f 199//199 201//201 202//202
f 203//203 204//204 205//205
f 203//203 205//205 206//206
f 207//207 208//208 209//209
f 207//207 209//209 210//210
f 211//211 212//212 213//213
f 211//211 213//213 214//214
f 215//215 216//216 217//217
f 215//215 217//217 218//218
f 219//219 220//220 221//221
f 219//219 221//221 222//222
f 223//223 224//224 225//225
f 223//223 225//225 226//226
f 227//227 228//228 229//229
f 227//227 229//229 230//230
f 231//231 232//232 233//233
f 231//231 233//233 234//234
f 237//237 236//236 235//235
f 238//238 237//237 235//235
f 239//239 238//238 235//235
f 240//240 239//239 235//235
f 241//241 240//240 235//235
f 242//242 241//241 235//235
f 243//243 242//242 235//235
f 244//244 243//243 235//235
f 245//245 244//244 235//235
f 246//246 245//245 235//235
f 247//247 246//246 235//235
f 248//248 249//249 250//250
f 248//248 250//250 251//251
f 248//248 251//251 252//252
f 248//248 252//252 253//253
f 248//248 253//253 254//254
f 248//248 254//254 255//255
f 248//248 255//255 256//256
f 248//248 256//256 257//257
f 248//248 257//257 258//258
f 248//248 258//258 259//259
f 248//248 259//259 260//260
f 261//261 262//262 263//263
f 261//261 263//263 264//264
f 265//265 266//266 267//267
f 265//265 267//267 268//268
f 269//269 270//270 271//271
f 269//269 271//271 272//272
f 273//273 274//274 275//275
f 273//273 275//275 276//276
f 277//277 278//278 279//279
f 277//277 279//279 280//280
f 281//281 282//282 283//283
f 281//281 283//283 284//284
f 285//285 286//286 287//287
f 285//285 287//287 288//288
f 289//289 290//290 291//291
f 289//289 291//291 292//292
f 293//293 294//294 295//295
f 293//293 295//295 296//296
f 297//297 298//298 299//299
f 297//297 299//299 300//300
f 301//301 302//302 303//303
f 301//301 303//303 304//304
f 305//305 306//306 307//307
f 305//305 307//307 308//308
f 309//309 310//310 311//311
f 309//309 311//311 312//312
o carrot-chopped_carrotCore
usemtl carrotCore
v -0.084090 0.007000 -0.070713
v -0.024273 0.007000 -0.042820
v -0.025293 0.018026 -0.043296
v -0.028280 0.028300 -0.044689
v -0.033033 0.037123 -0.046905
v -0.039227 0.043893 -0.049793
v -0.046441 0.048148 -0.053157
v -0.054182 0.049600 -0.056767
v -0.061922 0.048148 -0.060376
v -0.069136 0.043893 -0.063740
v -0.075330 0.037123 -0.066628
v -0.080083 0.028300 -0.068845
v -0.083071 0.018026 -0.070238
v -0.099727 0.007000 -0.037180
v -0.039910 0.007000 -0.009287
v -0.040929 0.018026 -0.009762
v -0.043917 0.028300 -0.011155
v -0.048670 0.037123 -0.013372
v -0.054864 0.043893 -0.016260
v -0.062078 0.048148 -0.019624
v -0.069818 0.049600 -0.023233
v -0.077559 0.048148 -0.026843
v -0.084773 0.043893 -0.030207
v -0.090967 0.037123 -0.033095
v -0.095720 0.028300 -0.035311
v -0.098707 0.018026 -0.036704
v -0.084090 0.007000 -0.070713
v -0.024273 0.007000 -0.042820
v -0.039910 0.007000 -0.009287
v -0.099727 0.007000 -0.037180
v -0.024273 0.007000 -0.042820
v -0.025293 0.018026 -0.043296
v -0.040929 0.018026 -0.009762
v -0.039910 0.007000 -0.009287
v -0.025293 0.018026 -0.043296
v -0.028280 0.028300 -0.044689
v -0.043917 0.028300 -0.011155
v -0.040929 0.018026 -0.009762
v -0.028280 0.028300 -0.044689
v -0.033033 0.037123 -0.046905
v -0.048670 0.037123 -0.013372
v -0.043917 0.028300 -0.011155
v -0.033033 0.037123 -0.046905
v -0.039227 0.043893 -0.049793
v -0.054864 0.043893 -0.016260
v -0.048670 0.037123 -0.013372
v -0.039227 0.043893 -0.049793
v -0.046441 0.048148 -0.053157
v -0.062078 0.048148 -0.019624
v -0.054864 0.043893 -0.016260
v -0.046441 0.048148 -0.053157
v -0.054182 0.049600 -0.056767
v -0.069818 0.049600 -0.023233
v -0.062078 0.048148 -0.019624
v -0.054182 0.049600 -0.056767
v -0.061922 0.048148 -0.060376
v -0.077559 0.048148 -0.026843
v -0.069818 0.049600 -0.023233
v -0.061922 0.048148 -0.060376
v -0.069136 0.043893 -0.063740
v -0.084773 0.043893 -0.030207
v -0.077559 0.048148 -0.026843
v -0.069136 0.043893 -0.063740
v -0.075330 0.037123 -0.066628
v -0.090967 0.037123 -0.033095
v -0.084773 0.043893 -0.030207
v -0.075330 0.037123 -0.066628
v -0.080083 0.028300 -0.068845
v -0.095720 0.028300 -0.035311
v -0.090967 0.037123 -0.033095
v -0.080083 0.028300 -0.068845
v -0.083071 0.018026 -0.070238
v -0.098707 0.018026 -0.036704
v -0.095720 0.028300 -0.035311
v -0.083071 0.018026 -0.070238
v -0.084090 0.007000 -0.070713
v -0.099727 0.007000 -0.037180
v -0.098707 0.018026 -0.036704
v 0.012357 0.007000 -0.034226
v 0.066421 0.007000 -0.072082
v 0.065500 0.018026 -0.071437
v 0.062799 0.028300 -0.069546
v 0.058503 0.037123 -0.066538
v 0.052905 0.043893 -0.062618
v 0.046385 0.048148 -0.058053
v 0.039389 0.049600 -0.053154
v 0.032392 0.048148 -0.048255
v 0.025873 0.043893 -0.043690
v 0.020274 0.037123 -0.039770
v 0.015978 0.028300 -0.036762
v 0.013278 0.018026 -0.034871
v 0.033579 0.007000 -0.003918
v 0.087643 0.007000 -0.041774
v 0.086722 0.018026 -0.041129
v 0.084022 0.028300 -0.039238
v 0.079726 0.037123 -0.036230
v 0.074127 0.043893 -0.032310
v 0.067608 0.048148 -0.027745
v 0.060611 0.049600 -0.022846
v 0.053615 0.048148 -0.017947
v 0.047095 0.043893 -0.013382
v 0.041497 0.037123 -0.009462
v 0.037201 0.028300 -0.006454
v 0.034500 0.018026 -0.004563
v 0.012357 0.007000 -0.034226
v 0.066421 0.007000 -0.072082
v 0.087643 0.007000 -0.041774
v 0.033579 0.007000 -0.003918
v 0.066421 0.007000 -0.072082
v 0.065500 0.018026 -0.071437
v 0.086722 0.018026 -0.041129
v 0.087643 0.007000 -0.041774
v 0.065500 0.018026 -0.071437
v 0.062799 0.028300 -0.069546
v 0.084022 0.028300 -0.039238
v 0.086722 0.018026 -0.041129
v 0.062799 0.028300 -0.069546
v 0.058503 0.037123 -0.066538
v 0.079726 0.037123 -0.036230
v 0.084022 0.028300 -0.039238
v 0.058503 0.037123 -0.066538
v 0.052905 0.043893 -0.062618
v 0.074127 0.043893 -0.032310
v 0.079726 0.037123 -0.036230
v 0.052905 0.043893 -0.062618
v 0.046385 0.048148 -0.058053
v 0.067608 0.048148 -0.027745
v 0.074127 0.043893 -0.032310
v 0.046385 0.048148 -0.058053
v 0.039389 0.049600 -0.053154
v 0.060611 0.049600 -0.022846
v 0.067608 0.048148 -0.027745
v 0.039389 0.049600 -0.053154
v 0.032392 0.048148 -0.048255
v 0.053615 0.048148 -0.017947
v 0.060611 0.049600 -0.022846
v 0.032392 0.048148 -0.048255
v 0.025873 0.043893 -0.043690
v 0.047095 0.043893 -0.013382
v 0.053615 0.048148 -0.017947
v 0.025873 0.043893 -0.043690
v 0.020274 0.037123 -0.039770
v 0.041497 0.037123 -0.009462
v 0.047095 0.043893 -0.013382
v 0.020274 0.037123 -0.039770
v 0.015978 0.028300 -0.036762
v 0.037201 0.028300 -0.006454
v 0.041497 0.037123 -0.009462
v 0.015978 0.028300 -0.036762
v 0.013278 0.018026 -0.034871
v 0.034500 0.018026 -0.004563
v 0.037201 0.028300 -0.006454
v 0.013278 0.018026 -0.034871
v 0.012357 0.007000 -0.034226
v 0.033579 0.007000 -0.003918
v 0.034500 0.018026 -0.004563
v -0.076125 0.007000 0.049765
v -0.011567 0.007000 0.036043
v -0.012667 0.018026 0.036277
v -0.015892 0.028300 0.036962
v -0.021022 0.037123 0.038053
v -0.027707 0.043893 0.039474
v -0.035492 0.048148 0.041128
v -0.043846 0.049600 0.042904
v -0.052201 0.048148 0.044680
v -0.059986 0.043893 0.046335
v -0.066671 0.037123 0.047756
v -0.071801 0.028300 0.048846
v -0.075025 0.018026 0.049532
v -0.068433 0.007000 0.085957
v -0.003875 0.007000 0.072235
v -0.004975 0.018026 0.072468
v -0.008199 0.028300 0.073154
v -0.013329 0.037123 0.074244
v -0.020014 0.043893 0.075665
v -0.027799 0.048148 0.077320
v -0.036154 0.049600 0.079096
v -0.044508 0.048148 0.080872
v -0.052293 0.043893 0.082526
v -0.058978 0.037123 0.083947
v -0.064108 0.028300 0.085038
v -0.067333 0.018026 0.085723
v -0.076125 0.007000 0.049765
v -0.011567 0.007000 0.036043
v -0.003875 0.007000 0.072235
v -0.068433 0.007000 0.085957
v -0.011567 0.007000 0.036043
v -0.012667 0.018026 0.036277
v -0.004975 0.018026 0.072468
v -0.003875 0.007000 0.072235
v -0.012667 0.018026 0.036277
v -0.015892 0.028300 0.036962
v -0.008199 0.028300 0.073154
v -0.004975 0.018026 0.072468
v -0.015892 0.028300 0.036962
v -0.021022 0.037123 0.038053
v -0.013329 0.037123 0.074244
v -0.008199 0.028300 0.073154
v -0.021022 0.037123 0.038053
v -0.027707 0.043893 0.039474
v -0.020014 0.043893 0.075665
v -0.013329 0.037123 0.074244
v -0.027707 0.043893 0.039474
v -0.035492 0.048148 0.041128
v -0.027799 0.048148 0.077320
v -0.020014 0.043893 0.075665
v -0.035492 0.048148 0.041128
v -0.043846 0.049600 0.042904
v -0.036154 0.049600 0.079096
v -0.027799 0.048148 0.077320
v -0.043846 0.049600 0.042904
v -0.052201 0.048148 0.044680
v -0.044508 0.048148 0.080872
v -0.036154 0.049600 0.079096
v -0.052201 0.048148 0.044680
v -0.059986 0.043893 0.046335
v -0.052293 0.043893 0.082526
v -0.044508 0.048148 0.080872
v -0.059986 0.043893 0.046335
v -0.066671 0.037123 0.047756
v -0.058978 0.037123 0.083947
v -0.052293 0.043893 0.082526
v -0.066671 0.037123 0.047756
v -0.071801 0.028300 0.048846
v -0.064108 0.028300 0.085038
v -0.058978 0.037123 0.083947
v -0.071801 0.028300 0.048846
v -0.075025 0.018026 0.049532
v -0.067333 0.018026 0.085723
v -0.064108 0.028300 0.085038
v -0.075025 0.018026 0.049532
v -0.076125 0.007000 0.049765
v -0.068433 0.007000 0.085957
v -0.067333 0.018026 0.085723
v 0.058579 0.032000 0.023918
v 0.112643 0.032000 0.061774
v 0.111722 0.043026 0.061129
v 0.109022 0.053300 0.059238
v 0.104726 0.062123 0.056230
v 0.099127 0.068893 0.052310
v 0.092608 0.073148 0.047745
v 0.085611 0.074600 0.042846
v 0.078615 0.073148 0.037947
v 0.072095 0.068893 0.033382
v 0.066497 0.062123 0.029462
v 0.062201 0.053300 0.026454
v 0.059500 0.043026 0.024563
v 0.037357 0.032000 0.054226
v 0.091421 0.032000 0.092082
v 0.090500 0.043026 0.091437
v 0.087799 0.053300 0.089546
v 0.083503 0.062123 0.086538
v 0.077905 0.068893 0.082618
v 0.071385 0.073148 0.078053
v 0.064389 0.074600 0.073154
v 0.057392 0.073148 0.068255
v 0.050873 0.068893 0.063690
v 0.045274 0.062123 0.059770
v 0.040978 0.053300 0.056762
v 0.038278 0.043026 0.054871
v 0.058579 0.032000 0.023918
v 0.112643 0.032000 0.061774
v 0.091421 0.032000 0.092082
v 0.037357 0.032000 0.054226
v 0.112643 0.032000 0.061774
v 0.111722 0.043026 0.061129
v 0.090500 0.043026 0.091437
v 0.091421 0.032000 0.092082
v 0.111722 0.043026 0.061129
v 0.109022 0.053300 0.059238
v 0.087799 0.053300 0.089546
v 0.090500 0.043026 0.091437
v 0.109022 0.053300 0.059238
v 0.104726 0.062123 0.056230
v 0.083503 0.062123 0.086538
v 0.087799 0.053300 0.089546
v 0.104726 0.062123 0.056230
v 0.099127 0.068893 0.052310
v 0.077905 0.068893 0.082618
v 0.083503 0.062123 0.086538
v 0.099127 0.068893 0.052310
v 0.092608 0.073148 0.047745
v 0.071385 0.073148 0.078053
v 0.077905 0.068893 0.082618
v 0.092608 0.073148 0.047745
v 0.085611 0.074600 0.042846
v 0.064389 0.074600 0.073154
v 0.071385 0.073148 0.078053
v 0.085611 0.074600 0.042846
v 0.078615 0.073148 0.037947
v 0.057392 0.073148 0.068255
v 0.064389 0.074600 0.073154
v 0.078615 0.073148 0.037947
v 0.072095 0.068893 0.033382
v 0.050873 0.068893 0.063690
v 0.057392 0.073148 0.068255
v 0.072095 0.068893 0.033382
v 0.066497 0.062123 0.029462
v 0.045274 0.062123 0.059770
v 0.050873 0.068893 0.063690
v 0.066497 0.062123 0.029462
v 0.062201 0.053300 0.026454
v 0.040978 0.053300 0.056762
v 0.045274 0.062123 0.059770
v 0.062201 0.053300 0.026454
v 0.059500 0.043026 0.024563
v 0.038278 0.043026 0.054871
v 0.040978 0.053300 0.056762
v 0.059500 0.043026 0.024563
v 0.058579 0.032000 0.023918
v 0.037357 0.032000 0.054226
v 0.038278 0.043026 0.054871
vn 0.225856 -0.741233 -0.632110
vn 0.402716 -0.907286 -0.121047
vn 0.890015 0.152793 -0.429567
vn 0.848006 0.286423 -0.445924
vn 0.773370 0.424506 -0.470844
vn 0.653556 0.565025 -0.503598
vn 0.471733 0.696863 -0.540232
vn 0.216378 0.792461 -0.570250
vn -0.095108 0.810808 -0.577533
vn -0.403324 0.728601 -0.553597
vn -0.645985 0.568236 -0.509717
vn -0.802664 0.372530 -0.465781
vn -0.884439 0.169049 -0.434961
vn -0.513933 -0.469017 0.718259
vn 0.012657 -0.985482 0.169306
vn 0.255545 0.109377 0.960590
vn 0.229185 0.244210 0.942250
vn 0.176484 0.385107 0.905840
vn 0.089987 0.531676 0.842154
vn -0.039598 0.675659 0.736150
vn -0.216378 0.792461 0.570250
vn -0.423796 0.839002 0.341280
vn -0.618352 0.781369 0.084281
vn -0.760548 0.633627 -0.141715
vn -0.845390 0.441146 -0.301174
vn -0.888913 0.237394 -0.391763
vn 0.225856 -0.741233 -0.632110
vn 0.402716 -0.907286 -0.121047
vn 0.012657 -0.985482 0.169306
vn -0.513933 -0.469017 0.718259
vn 0.402716 -0.907286 -0.121047
vn 0.890015 0.152793 -0.429567
vn 0.255545 0.109377 0.960590
vn 0.012657 -0.985482 0.169306
vn 0.890015 0.152793 -0.429567
vn 0.848006 0.286423 -0.445924
vn 0.229185 0.244210 0.942250
vn 0.255545 0.109377 0.960590
vn 0.848006 0.286423 -0.445924
vn 0.773370 0.424506 -0.470844
vn 0.176484 0.385107 0.905840
vn 0.229185 0.244210 0.942250
vn 0.773370 0.424506 -0.470844
vn 0.653556 0.565025 -0.503598
vn 0.089987 0.531676 0.842154
vn 0.176484 0.385107 0.905840
vn 0.653556 0.565025 -0.503598
vn 0.471733 0.696863 -0.540232
vn -0.039598 0.675659 0.736150
vn 0.089987 0.531676 0.842154
vn 0.471733 0.696863 -0.540232
vn 0.216378 0.792461 -0.570250
vn -0.216378 0.792461 0.570250
vn -0.039598 0.675659 0.736150
vn 0.216378 0.792461 -0.570250
vn -0.095108 0.810808 -0.577533
vn -0.423796 0.839002 0.341280
vn -0.216378 0.792461 0.570250
vn -0.095108 0.810808 -0.577533
vn -0.403324 0.728601 -0.553597
vn -0.618352 0.781369 0.084281
vn -0.423796 0.839002 0.341280
vn -0.403324 0.728601 -0.553597
vn -0.645985 0.568236 -0.509717
vn -0.760548 0.633627 -0.141715
vn -0.618352 0.781369 0.084281
vn -0.645985 0.568236 -0.509717
vn -0.802664 0.372530 -0.465781
vn -0.845390 0.441146 -0.301174
vn -0.760548 0.633627 -0.141715
vn -0.802664 0.372530 -0.465781
vn -0.884439 0.169049 -0.434961
vn -0.888913 0.237394 -0.391763
vn -0.845390 0.441146 -0.301174
vn -0.884439 0.169049 -0.434961
vn 0.225856 -0.741233 -0.632110
vn -0.513933 -0.469017 0.718259
vn -0.888913 0.237394 -0.391763
vn -0.434495 -0.741233 -0.511652
vn 0.096529 -0.907286 -0.409286
vn 0.072992 0.152793 -0.985559
vn 0.037822 0.286423 -0.957357
vn -0.021078 0.424506 -0.905180
vn -0.109351 0.565025 -0.817795
vn -0.231988 0.696863 -0.678649
vn -0.385662 0.792461 -0.472514
vn -0.547712 0.810808 -0.206400
vn -0.681091 0.728601 0.072491
vn -0.764420 0.568236 0.304581
vn -0.804710 0.372530 0.462237
vn -0.818906 0.169049 0.548466
vn 0.365064 -0.469017 0.804208
vn 0.152951 -0.985482 0.073692
vn 0.959668 0.109377 0.258986
vn 0.930605 0.244210 0.272645
vn 0.872722 0.385107 0.300081
vn 0.774320 0.531676 0.343146
vn 0.617725 0.675659 0.402368
vn 0.385662 0.792461 0.472514
vn 0.083659 0.839002 0.537658
vn -0.236186 0.781369 0.577649
vn -0.503003 0.633627 0.587797
vn -0.683519 0.441146 0.581542
vn -0.783733 0.237394 0.573940
vn -0.434495 -0.741233 -0.511652
vn 0.096529 -0.907286 -0.409286
vn 0.152951 -0.985482 0.073692
vn 0.365064 -0.469017 0.804208
vn 0.096529 -0.907286 -0.409286
vn 0.072992 0.152793 -0.985559
vn 0.959668 0.109377 0.258986
vn 0.152951 -0.985482 0.073692
vn 0.072992 0.152793 -0.985559
vn 0.037822 0.286423 -0.957357
vn 0.930605 0.244210 0.272645
vn 0.959668 0.109377 0.258986
vn 0.037822 0.286423 -0.957357
vn -0.021078 0.424506 -0.905180
vn 0.872722 0.385107 0.300081
vn 0.930605 0.244210 0.272645
vn -0.021078 0.424506 -0.905180
vn -0.109351 0.565025 -0.817795
vn 0.774320 0.531676 0.343146
vn 0.872722 0.385107 0.300081
vn -0.109351 0.565025 -0.817795
vn -0.231988 0.696863 -0.678649
vn 0.617725 0.675659 0.402368
vn 0.774320 0.531676 0.343146
vn -0.231988 0.696863 -0.678649
vn -0.385662 0.792461 -0.472514
vn 0.385662 0.792461 0.472514
vn 0.617725 0.675659 0.402368
vn -0.385662 0.792461 -0.472514
vn -0.547712 0.810808 -0.206400
vn 0.083659 0.839002 0.537658
vn 0.385662 0.792461 0.472514
vn -0.547712 0.810808 -0.206400
vn -0.681091 0.728601 0.072491
vn -0.236186 0.781369 0.577649
vn 0.083659 0.839002 0.537658
vn -0.681091 0.728601 0.072491
vn -0.764420 0.568236 0.304581
vn -0.503003 0.633627 0.587797
vn -0.236186 0.781369 0.577649
vn -0.764420 0.568236 0.304581
vn -0.804710 0.372530 0.462237
vn -0.683519 0.441146 0.581542
vn -0.503003 0.633627 0.587797
vn -0.804710 0.372530 0.462237
vn -0.818906 0.169049 0.548466
vn -0.783733 0.237394 0.573940
vn -0.683519 0.441146 0.581542
vn -0.818906 0.169049 0.548466
vn -0.434495 -0.741233 -0.511652
vn 0.365064 -0.469017 0.804208
vn -0.783733 0.237394 0.573940
vn -0.200036 -0.741233 -0.640749
vn 0.248776 -0.907286 -0.339033
vn 0.452278 0.152793 -0.878692
vn 0.408884 0.286423 -0.866473
vn 0.334279 0.424506 -0.841458
vn 0.218880 0.565025 -0.795511
vn 0.051623 0.696863 -0.715344
vn -0.170378 0.792461 -0.585642
vn -0.423525 0.810808 -0.404001
vn -0.655272 0.728601 -0.199396
vn -0.822662 0.568236 -0.018314
vn -0.921350 0.372530 0.111066
vn -0.968110 0.169049 0.184893
vn 0.021814 -0.469017 0.882920
vn 0.111999 -0.985482 0.127597
vn 0.782185 0.109377 0.613370
vn 0.750096 0.244210 0.614588
vn 0.686094 0.385107 0.617226
vn 0.578688 0.531676 0.618418
vn 0.411401 0.675659 0.611746
vn 0.170378 0.792461 0.585642
vn -0.133072 0.839002 0.527605
vn -0.443116 0.781369 0.439443
vn -0.692687 0.633627 0.344531
vn -0.856409 0.441146 0.268240
vn -0.945686 0.237394 0.222085
vn -0.200036 -0.741233 -0.640749
vn 0.248776 -0.907286 -0.339033
vn 0.111999 -0.985482 0.127597
vn 0.021814 -0.469017 0.882920
vn 0.248776 -0.907286 -0.339033
vn 0.452278 0.152793 -0.878692
vn 0.782185 0.109377 0.613370
vn 0.111999 -0.985482 0.127597
vn 0.452278 0.152793 -0.878692
vn 0.408884 0.286423 -0.866473
vn 0.750096 0.244210 0.614588
vn 0.782185 0.109377 0.613370
vn 0.408884 0.286423 -0.866473
vn 0.334279 0.424506 -0.841458
vn 0.686094 0.385107 0.617226
vn 0.750096 0.244210 0.614588
vn 0.334279 0.424506 -0.841458
vn 0.218880 0.565025 -0.795511
vn 0.578688 0.531676 0.618418
vn 0.686094 0.385107 0.617226
vn 0.218880 0.565025 -0.795511
vn 0.051623 0.696863 -0.715344
vn 0.411401 0.675659 0.611746
vn 0.578688 0.531676 0.618418
vn 0.051623 0.696863 -0.715344
vn -0.170378 0.792461 -0.585642
vn 0.170378 0.792461 0.585642
vn 0.411401 0.675659 0.611746
vn -0.170378 0.792461 -0.585642
vn -0.423525 0.810808 -0.404001
vn -0.133072 0.839002 0.527605
vn 0.170378 0.792461 0.585642
vn -0.423525 0.810808 -0.404001
vn -0.655272 0.728601 -0.199396
vn -0.443116 0.781369 0.439443
vn -0.133072 0.839002 0.527605
vn -0.655272 0.728601 -0.199396
vn -0.822662 0.568236 -0.018314
vn -0.692687 0.633627 0.344531
vn -0.443116 0.781369 0.439443
vn -0.822662 0.568236 -0.018314
vn -0.921350 0.372530 0.111066
vn -0.856409 0.441146 0.268240
vn -0.692687 0.633627 0.344531
vn -0.921350 0.372530 0.111066
vn -0.968110 0.169049 0.184893
vn -0.945686 0.237394 0.222085
vn -0.856409 0.441146 0.268240
vn -0.968110 0.169049 0.184893
vn -0.200036 -0.741233 -0.640749
vn 0.021814 -0.469017 0.882920
vn -0.945686 0.237394 0.222085
vn 0.332190 -0.741233 -0.583287
vn 0.417618 -0.907286 -0.049277
vn 0.951087 0.152793 -0.268491
vn 0.912557 0.286423 -0.291894
vn 0.843382 0.424506 -0.329397
vn 0.731076 0.565025 -0.382459
vn 0.558376 0.696863 -0.450109
vn 0.312114 0.792461 -0.524013
vn 0.006624 0.810808 -0.585274
vn -0.301066 0.728601 -0.615223
vn -0.547660 0.568236 -0.614147
vn -0.709587 0.372530 -0.598086
vn -0.795472 0.169049 -0.581934
vn -0.630850 -0.469017 0.618103
vn -0.016935 -0.985482 0.168932
vn 0.084858 0.109377 0.990371
vn 0.062083 0.244210 0.967733
vn 0.016505 0.385107 0.922724
vn -0.057618 0.531676 0.844985
vn -0.166828 0.675659 0.718090
vn -0.312114 0.792461 0.524013
vn -0.476621 0.839002 0.262503
vn -0.623593 0.781369 -0.024375
vn -0.724385 0.633627 -0.271630
vn -0.780248 0.441146 -0.443399
vn -0.807379 0.237394 -0.540169
vn 0.332190 -0.741233 -0.583287
vn 0.417618 -0.907286 -0.049277
vn -0.016935 -0.985482 0.168932
vn -0.630850 -0.469017 0.618103
vn 0.417618 -0.907286 -0.049277
vn 0.951087 0.152793 -0.268491
vn 0.084858 0.109377 0.990371
vn -0.016935 -0.985482 0.168932
vn 0.951087 0.152793 -0.268491
vn 0.912557 0.286423 -0.291894
vn 0.062083 0.244210 0.967733
vn 0.084858 0.109377 0.990371
vn 0.912557 0.286423 -0.291894
vn 0.843382 0.424506 -0.329397
vn 0.016505 0.385107 0.922724
vn 0.062083 0.244210 0.967733
vn 0.843382 0.424506 -0.329397
vn 0.731076 0.565025 -0.382459
vn -0.057618 0.531676 0.844985
vn 0.016505 0.385107 0.922724
vn 0.731076 0.565025 -0.382459
vn 0.558376 0.696863 -0.450109
vn -0.166828 0.675659 0.718090
vn -0.057618 0.531676 0.844985
vn 0.558376 0.696863 -0.450109
vn 0.312114 0.792461 -0.524013
vn -0.312114 0.792461 0.524013
vn -0.166828 0.675659 0.718090
vn 0.312114 0.792461 -0.524013
vn 0.006624 0.810808 -0.585274
vn -0.476621 0.839002 0.262503
vn -0.312114 0.792461 0.524013
vn 0.006624 0.810808 -0.585274
vn -0.301066 0.728601 -0.615223
vn -0.623593 0.781369 -0.024375
vn -0.476621 0.839002 0.262503
vn -0.301066 0.728601 -0.615223
vn -0.547660 0.568236 -0.614147
vn -0.724385 0.633627 -0.271630
vn -0.623593 0.781369 -0.024375
vn -0.547660 0.568236 -0.614147
vn -0.709587 0.372530 -0.598086
vn -0.780248 0.441146 -0.443399
vn -0.724385 0.633627 -0.271630
vn -0.709587 0.372530 -0.598086
vn -0.795472 0.169049 -0.581934
vn -0.807379 0.237394 -0.540169
vn -0.780248 0.441146 -0.443399
vn -0.795472 0.169049 -0.581934
vn 0.332190 -0.741233 -0.583287
vn -0.630850 -0.469017 0.618103
vn -0.807379 0.237394 -0.540169
f 315//315 314//314 313//313
f 316//316 315//315 313//313
f 317//317 316//316 313//313
f 318//318 317//317 313//313
f 319//319 318//318 313//313
f 320//320 319//319 313//313
f 321//321 320//320 313//313
f 322//322 321//321 313//313
f 323//323 322//322 313//313
f 324//324 323//323 313//313
f 325//325 324//324 313//313
f 326//326 327//327 328//328
f 326//326 328//328 329//329
f 326//326 329//329 330//330
f 326//326 330//330 331//331
f 326//326 331//331 332//332
f 326//326 332//332 333//333
f 326//326 333//333 334//334
f 326//326 334//334 335//335
f 326//326 335//335 336//336
f 326//326 336//336 337//337
f 326//326 337//337 338//338
f 339//339 340//340 341//341
f 339//339 341//341 342//342
f 343//343 344//344 345//345
f 343//343 345//345 346//346
f 347//347 348//348 349//349
f 347//347 349//349 350//350
f 351//351 352//352 353//353
f 351//351 353//353 354//354
f 355//355 356//356 357//357
f 355//355 357//357 358//358
f 359//359 360//360 361//361
f 359//359 361//361 362//362
f 363//363 364//364 365//365
f 363//363 365//365 366//366
f 367//367 368//368 369//369
f 367//367 369//369 370//370
f 371//371 372//372 373//373
f 371//371 373//373 374//374
f 375//375 376//376 377//377
f 375//375 377//377 378//378
f 379//379 380//380 381//381
f 379//379 381//381 382//382
f 383//383 384//384 385//385
f 383//383 385//385 386//386
f 387//387 388//388 389//389
f 387//387 389//389 390//390
f 393//393 392//392 391//391
f 394//394 393//393 391//391
f 395//395 394//394 391//391
f 396//396 395//395 391//391
f 397//397 396//396 391//391
f 398//398 397//397 391//391
f 399//399 398//398 391//391
f 400//400 399//399 391//391
f 401//401 400//400 391//391
f 402//402 401//401 391//391
f 403//403 402//402 391//391
f 404//404 405//405 406//406
f 404//404 406//406 407//407
f 404//404 407//407 408//408
f 404//404 408//408 409//409
f 404//404 409//409 410//410
f 404//404 410//410 411//411
f 404//404 411//411 412//412
f 404//404 412//412 413//413
f 404//404 413//413 414//414
f 404//404 414//414 415//415
f 404//404 415//415 416//416
f 417//417 418//418 419//419
f 417//417 419//419 420//420
f 421//421 422//422 423//423
f 421//421 423//423 424//424
f 425//425 426//426 427//427
f 425//425 427//427 428//428
f 429//429 430//430 431//431
f 429//429 431//431 432//432
f 433//433 434//434 435//435
f 433//433 435//435 436//436
f 437//437 438//438 439//439
f 437//437 439//439 440//440
f 441//441 442//442 443//443
f 441//441 443//443 444//444
f 445//445 446//446 447//447
f 445//445 447//447 448//448
f 449//449 450//450 451//451
f 449//449 451//451 452//452
f 453//453 454//454 455//455
f 453//453 455//455 456//456
f 457//457 458//458 459//459
f 457//457 459//459 460//460
f 461//461 462//462 463//463
f 461//461 463//463 464//464
f 465//465 466//466 467//467
f 465//465 467//467 468//468
f 471//471 470//470 469//469
f 472//472 471//471 469//469
f 473//473 472//472 469//469
f 474//474 473//473 469//469
f 475//475 474//474 469//469
f 476//476 475//475 469//469
f 477//477 476//476 469//469
f 478//478 477//477 469//469
f 479//479 478//478 469//469
f 480//480 479//479 469//469
f 481//481 480//480 469//469
f 482//482 483//483 484//484
f 482//482 484//484 485//485
f 482//482 485//485 486//486
f 482//482 486//486 487//487
f 482//482 487//487 488//488
f 482//482 488//488 489//489
f 482//482 489//489 490//490
f 482//482 490//490 491//491
f 482//482 491//491 492//492
f 482//482 492//492 493//493
f 482//482 493//493 494//494
f 495//495 496//496 497//497
f 495//495 497//497 498//498
f 499//499 500//500 501//501
f 499//499 501//501 502//502
f 503//503 504//504 505//505
f 503//503 505//505 506//506
f 507//507 508//508 509//509
f 507//507 509//509 510//510
f 511//511 512//512 513//513
f 511//511 513//513 514//514
f 515//515 516//516 517//517
f 515//515 517//517 518//518
f 519//519 520//520 521//521
f 519//519 521//521 522//522
f 523//523 524//524 525//525
f 523//523 525//525 526//526
f 527//527 528//528 529//529
f 527//527 529//529 530//530
f 531//531 532//532 533//533
f 531//531 533//533 534//534
f 535//535 536//536 537//537
f 535//535 537//537 538//538
f 539//539 540//540 541//541
f 539//539 541//541 542//542
f 543//543 544//544 545//545
f 543//543 545//545 546//546
f 549//549 548//548 547//547
f 550//550 549//549 547//547
f 551//551 550//550 547//547
f 552//552 551//551 547//547
f 553//553 552//552 547//547
f 554//554 553//553 547//547
f 555//555 554//554 547//547
f 556//556 555//555 547//547
f 557//557 556//556 547//547
f 558//558 557//557 547//547
f 559//559 558//558 547//547
f 560//560 561//561 562//562
f 560//560 562//562 563//563
f 560//560 563//563 564//564
f 560//560 564//564 565//565
f 560//560 565//565 566//566
f 560//560 566//566 567//567
f 560//560 567//567 568//568
f 560//560 568//568 569//569
f 560//560 569//569 570//570
f 560//560 570//570 571//571
f 560//560 571//571 572//572
f 573//573 574//574 575//575
f 573//573 575//575 576//576
f 577//577 578//578 579//579
f 577//577 579//579 580//580
f 581//581 582//582 583//583
f 581//581 583//583 584//584
f 585//585 586//586 587//587
f 585//585 587//587 588//588
f 589//589 590//590 591//591
f 589//589 591//591 592//592
f 593//593 594//594 595//595
f 593//593 595//595 596//596
f 597//597 598//598 599//599
f 597//597 599//599 600//600
f 601//601 602//602 603//603
f 601//601 603//603 604//604
f 605//605 606//606 607//607
f 605//605 607//607 608//608
f 609//609 610//610 611//611
f 609//609 611//611 612//612
f 613//613 614//614 615//615
f 613//613 615//615 616//616
f 617//617 618//618 619//619
f 617//617 619//619 620//620
f 621//621 622//622 623//623
f 621//621 623//623 624//624
