# Bara Kitchen - metres, +Y up; editable mesh source
mtllib palette.mtl
o flame-lobe_carrot
usemtl carrot
v 0.000000 0.000000 0.000000
v 0.000000 0.000000 0.000000
v 0.000000 0.000000 0.000000
v 0.000000 0.000000 0.000000
v 0.000000 0.000000 0.000000
v 0.000000 0.000000 0.000000
v 0.000000 0.000000 0.000000
v 0.000000 0.000000 0.000000
v 0.000000 0.000000 0.000000
v 0.000000 0.000000 0.000000
v 0.000000 0.000000 0.000000
v 0.000000 0.000000 0.000000
v 0.000000 0.000000 0.000000
v 0.000000 0.000000 0.000000
v 0.000000 0.000000 0.000000
v 0.000000 0.000000 0.000000
v 0.000000 0.000000 0.000000
v 0.000000 0.000000 0.000000
v 0.000000 0.000000 0.000000
v 0.000000 0.000000 0.000000
v 0.000000 0.000000 0.000000
v 0.090065 0.015000 0.000000
v 0.085660 0.015000 0.027812
v 0.072876 0.015000 0.052901
v 0.052965 0.015000 0.072812
v 0.027876 0.015000 0.085595
v 0.000065 0.015000 0.090000
v -0.027747 0.015000 0.085595
v -0.052836 0.015000 0.072812
v -0.072747 0.015000 0.052901
v -0.085531 0.015000 0.027812
v -0.089935 0.015000 0.000000
v -0.085531 0.015000 -0.027812
v -0.072747 0.015000 -0.052901
v -0.052836 0.015000 -0.072812
v -0.027747 0.015000 -0.085595
v 0.000065 0.015000 -0.090000
v 0.027876 0.015000 -0.085595
v 0.052965 0.015000 -0.072812
v 0.072876 0.015000 -0.052901
v 0.085660 0.015000 -0.027812
v 0.090065 0.015000 -0.000000
v 0.144133 0.120000 0.000000
v 0.137281 0.120000 0.043262
v 0.117395 0.120000 0.082290
v 0.086423 0.120000 0.113262
v 0.047395 0.120000 0.133148
v 0.004133 0.120000 0.140000
v -0.039130 0.120000 0.133148
v -0.078157 0.120000 0.113262
v -0.109130 0.120000 0.082290
v -0.129015 0.120000 0.043262
v -0.135867 0.120000 0.000000
v -0.129015 0.120000 -0.043262
v -0.109130 0.120000 -0.082290
v -0.078157 0.120000 -0.113262
v -0.039130 0.120000 -0.133148
v 0.004133 0.120000 -0.140000
v 0.047395 0.120000 -0.133148
v 0.086423 0.120000 -0.113262
v 0.117395 0.120000 -0.082290
v 0.137281 0.120000 -0.043262
v 0.144133 0.120000 -0.000000
v 0.125922 0.270000 0.000000
v 0.120782 0.270000 0.032447
v 0.105868 0.270000 0.061717
v 0.082639 0.270000 0.084947
v 0.053368 0.270000 0.099861
v 0.020922 0.270000 0.105000
v -0.011525 0.270000 0.099861
v -0.040796 0.270000 0.084947
v -0.064025 0.270000 0.061717
v -0.078939 0.270000 0.032447
v -0.084078 0.270000 0.000000
v -0.078939 0.270000 -0.032447
v -0.064025 0.270000 -0.061717
v -0.040796 0.270000 -0.084947
v -0.011525 0.270000 -0.099861
v 0.020922 0.270000 -0.105000
v 0.053368 0.270000 -0.099861
v 0.082639 0.270000 -0.084947
v 0.105868 0.270000 -0.061717
v 0.120782 0.270000 -0.032447
v 0.125922 0.270000 -0.000000
v 0.108441 0.380000 0.000000
v 0.105162 0.380000 0.020704
v 0.095645 0.380000 0.039382
v 0.080823 0.380000 0.054204
v 0.062145 0.380000 0.063721
v 0.041441 0.380000 0.067000
v 0.020737 0.380000 0.063721
v 0.002060 0.380000 0.054204
v -0.012763 0.380000 0.039382
v -0.022279 0.380000 0.020704
v -0.025559 0.380000 0.000000
v -0.022279 0.380000 -0.020704
v -0.012763 0.380000 -0.039382
v 0.002060 0.380000 -0.054204
v 0.020737 0.380000 -0.063721
v 0.041441 0.380000 -0.067000
v 0.062145 0.380000 -0.063721
v 0.080823 0.380000 -0.054204
v 0.095645 0.380000 -0.039382
v 0.105162 0.380000 -0.020704
v 0.108441 0.380000 -0.000000
v 0.090000 0.560000 0.000000
v 0.090000 0.560000 0.000000
v 0.090000 0.560000 0.000000
v 0.090000 0.560000 0.000000
v 0.090000 0.560000 0.000000
v 0.090000 0.560000 0.000000
v 0.090000 0.560000 0.000000
v 0.090000 0.560000 0.000000
v 0.090000 0.560000 0.000000
v 0.090000 0.560000 0.000000
v 0.090000 0.560000 0.000000
v 0.090000 0.560000 0.000000
v 0.090000 0.560000 0.000000
v 0.090000 0.560000 0.000000
v 0.090000 0.560000 0.000000
v 0.090000 0.560000 0.000000
v 0.090000 0.560000 0.000000
v 0.090000 0.560000 0.000000
v 0.090000 0.560000 0.000000
v 0.090000 0.560000 0.000000
v 0.090000 0.560000 0.000000
vn -0.000000 -1.000000 -0.000000
vn -0.000000 -1.000000 -0.000000
vn -0.000000 -1.000000 -0.000000
vn -0.000000 -1.000000 -0.000000
vn -0.000000 -1.000000 -0.000000
vn -0.000000 -1.000000 -0.000000
vn -0.000000 -1.000000 -0.000000
vn -0.000000 -1.000000 -0.000000
vn -0.000000 -1.000000 -0.000000
vn -0.000000 -1.000000 -0.000000
vn -0.000000 -1.000000 -0.000000
vn -0.000000 -1.000000 -0.000000
vn -0.000000 -1.000000 -0.000000
vn -0.000000 -1.000000 -0.000000
vn -0.000000 -1.000000 -0.000000
vn -0.000000 -1.000000 -0.000000
vn -0.000000 -1.000000 -0.000000
vn -0.000000 -1.000000 -0.000000
vn -0.000000 -1.000000 -0.000000
vn -0.000000 -1.000000 -0.000000
vn -0.000000 -1.000000 -0.000000
vn 0.733931 -0.677591 -0.047074
vn 0.712912 -0.677192 0.182118
vn 0.623118 -0.675419 0.394378
vn 0.472498 -0.672418 0.569736
vn 0.274638 -0.668451 0.691193
vn 0.047868 -0.663873 0.746312
vn -0.186137 -0.659115 0.728643
vn -0.404270 -0.654650 0.638748
vn -0.584330 -0.650939 0.484601
vn -0.707511 -0.648381 0.281122
vn -0.760705 -0.647261 0.048791
vn -0.738186 -0.647704 -0.188575
vn -0.642375 -0.649660 -0.406566
vn -0.483518 -0.652911 -0.583024
vn -0.278348 -0.657102 -0.700528
vn -0.047986 -0.661790 -0.748152
vn 0.184518 -0.666503 -0.722306
vn 0.396632 -0.670786 -0.626680
vn 0.568454 -0.674247 -0.471435
vn 0.684327 -0.676581 -0.271910
vn 0.733931 -0.677591 -0.047074
vn 0.991022 -0.133305 -0.010237
vn 0.946093 -0.130062 0.296636
vn 0.809230 -0.119240 0.575264
vn 0.593012 -0.101823 0.798730
vn 0.317816 -0.079433 0.944819
vn 0.010314 -0.054226 0.998475
vn -0.299054 -0.028691 0.953805
vn -0.579389 -0.005382 0.815033
vn -0.802831 0.013372 0.596057
vn -0.947500 0.025720 0.318718
vn -0.999483 0.030460 0.010324
vn -0.953846 0.027134 -0.299067
vn -0.814940 0.016064 -0.579323
vn -0.596109 -0.001677 -0.802902
vn -0.318729 -0.024340 -0.947533
vn -0.010316 -0.049665 -0.998713
vn 0.298332 -0.075116 -0.951502
vn 0.576599 -0.098173 -0.811108
vn 0.797426 -0.116604 -0.592044
vn 0.939934 -0.128682 -0.316173
vn 0.991022 -0.133305 -0.010237
vn 0.990657 0.133917 0.025776
vn 0.933266 0.141101 0.330311
vn 0.783141 0.160713 0.600718
vn 0.556169 0.190501 0.808941
vn 0.276753 0.227057 0.933731
vn -0.025071 0.266301 0.963564
vn -0.317847 0.304108 0.898049
vn -0.573054 0.336877 0.747077
vn -0.768182 0.361881 0.528146
vn -0.887897 0.377335 0.263168
vn -0.923735 0.382276 -0.024034
vn -0.873361 0.376421 -0.309109
vn -0.740223 0.360106 -0.567797
vn -0.533937 0.334358 -0.776605
vn -0.270993 0.301041 -0.914296
vn 0.025095 0.262962 -0.964480
vn 0.325188 0.223782 -0.918790
vn 0.597817 0.187649 -0.779360
vn 0.813601 0.158607 -0.559372
vn 0.949332 0.139984 -0.281377
vn 0.990657 0.133917 0.025776
vn 0.990772 0.130680 0.035954
vn 0.929507 0.143472 0.339752
vn 0.774854 0.176190 0.607090
vn 0.543796 0.224641 0.808593
vn 0.263145 0.282553 0.922452
vn -0.034069 0.342701 0.938826
vn -0.314882 0.398404 0.861466
vn -0.552406 0.444680 0.705059
vn -0.728613 0.478555 0.490008
vn -0.833555 0.498642 0.237786
vn -0.862869 0.504457 -0.031313
vn -0.815597 0.495911 -0.298116
vn -0.693484 0.473145 -0.543337
vn -0.502017 0.436763 -0.746470
vn -0.252786 0.388405 -0.886138
vn 0.034216 0.331411 -0.942866
vn 0.330444 0.271136 -0.904042
vn 0.602386 0.214477 -0.768850
vn 0.817924 0.168589 -0.550071
vn 0.952246 0.139416 -0.271644
vn 0.990772 0.130680 0.035954
vn -0.000000 1.000000 0.000000
vn -0.000000 1.000000 0.000000
vn -0.000000 1.000000 0.000000
vn -0.000000 1.000000 0.000000
vn -0.000000 1.000000 0.000000
vn -0.000000 1.000000 0.000000
vn -0.000000 1.000000 0.000000
vn -0.000000 1.000000 0.000000
vn -0.000000 1.000000 0.000000
vn -0.000000 1.000000 0.000000
vn -0.000000 1.000000 0.000000
vn -0.000000 1.000000 0.000000
vn -0.000000 1.000000 0.000000
vn -0.000000 1.000000 0.000000
vn -0.000000 1.000000 0.000000
vn -0.000000 1.000000 0.000000
vn -0.000000 1.000000 0.000000
vn -0.000000 1.000000 0.000000
vn -0.000000 1.000000 0.000000
vn -0.000000 1.000000 0.000000
vn -0.000000 1.000000 0.000000
f 1//1 22//22 2//2
f 2//2 22//22 23//23
f 2//2 23//23 3//3
f 3//3 23//23 24//24
f 3//3 24//24 4//4
f 4//4 24//24 25//25
f 4//4 25//25 5//5
f 5//5 25//25 26//26
f 5//5 26//26 6//6
f 6//6 26//26 27//27
f 6//6 27//27 7//7
f 7//7 27//27 28//28
f 7//7 28//28 8//8
f 8//8 28//28 29//29
f 8//8 29//29 9//9
f 9//9 29//29 30//30
f 9//9 30//30 10//10
f 10//10 30//30 31//31
f 10//10 31//31 11//11
f 11//11 31//31 32//32
f 11//11 32//32 12//12
f 12//12 32//32 33//33
f 12//12 33//33 13//13
f 13//13 33//33 34//34
f 13//13 34//34 14//14
f 14//14 34//34 35//35
f 14//14 35//35 15//15
f 15//15 35//35 36//36
f 15//15 36//36 16//16
f 16//16 36//36 37//37
f 16//16 37//37 17//17
f 17//17 37//37 38//38
f 17//17 38//38 18//18
f 18//18 38//38 39//39
f 18//18 39//39 19//19
f 19//19 39//39 40//40
f 19//19 40//40 20//20
f 20//20 40//40 41//41
f 20//20 41//41 21//21
f 21//21 41//41 42//42
f 22//22 43//43 23//23
f 23//23 43//43 44//44
f 23//23 44//44 24//24
f 24//24 44//44 45//45
f 24//24 45//45 25//25
f 25//25 45//45 46//46
f 25//25 46//46 26//26
f 26//26 46//46 47//47
f 26//26 47//47 27//27
f 27//27 47//47 48//48
f 27//27 48//48 28//28
f 28//28 48//48 49//49
f 28//28 49//49 29//29
f 29//29 49//49 50//50
f 29//29 50//50 30//30
f 30//30 50//50 51//51
f 30//30 51//51 31//31
f 31//31 51//51 52//52
f 31//31 52//52 32//32
f 32//32 52//52 53//53
f 32//32 53//53 33//33
f 33//33 53//53 54//54
f 33//33 54//54 34//34
f 34//34 54//54 55//55
f 34//34 55//55 35//35
f 35//35 55//55 56//56
f 35//35 56//56 36//36
f 36//36 56//56 57//57
f 36//36 57//57 37//37
f 37//37 57//57 58//58
f 37//37 58//58 38//38
f 38//38 58//58 59//59
f 38//38 59//59 39//39
f 39//39 59//59 60//60
f 39//39 60//60 40//40
f 40//40 60//60 61//61
f 40//40 61//61 41//41
f 41//41 61//61 62//62
f 41//41 62//62 42//42
f 42//42 62//62 63//63
f 43//43 64//64 44//44
f 44//44 64//64 65//65
f 44//44 65//65 45//45
f 45//45 65//65 66//66
f 45//45 66//66 46//46
f 46//46 66//66 67//67
f 46//46 67//67 47//47
f 47//47 67//67 68//68
f 47//47 68//68 48//48
f 48//48 68//68 69//69
f 48//48 69//69 49//49
f 49//49 69//69 70//70
f 49//49 70//70 50//50
f 50//50 70//70 71//71
f 50//50 71//71 51//51
f 51//51 71//71 72//72
f 51//51 72//72 52//52
f 52//52 72//72 73//73
f 52//52 73//73 53//53
f 53//53 73//73 74//74
f 53//53 74//74 54//54
f 54//54 74//74 75//75
f 54//54 75//75 55//55
f 55//55 75//75 76//76
f 55//55 76//76 56//56
f 56//56 76//76 77//77
f 56//56 77//77 57//57
f 57//57 77//77 78//78
f 57//57 78//78 58//58
f 58//58 78//78 79//79
f 58//58 79//79 59//59
f 59//59 79//79 80//80
f 59//59 80//80 60//60
f 60//60 80//80 81//81
f 60//60 81//81 61//61
f 61//61 81//81 82//82
f 61//61 82//82 62//62
f 62//62 82//82 83//83
f 62//62 83//83 63//63
f 63//63 83//83 84//84
f 64//64 85//85 65//65
f 65//65 85//85 86//86
f 65//65 86//86 66//66
f 66//66 86//86 87//87
f 66//66 87//87 67//67
f 67//67 87//87 88//88
f 67//67 88//88 68//68
f 68//68 88//88 89//89
f 68//68 89//89 69//69
f 69//69 89//89 90//90
f 69//69 90//90 70//70
f 70//70 90//90 91//91
f 70//70 91//91 71//71
f 71//71 91//91 92//92
f 71//71 92//92 72//72
f 72//72 92//92 93//93
f 72//72 93//93 73//73
f 73//73 93//93 94//94
f 73//73 94//94 74//74
f 74//74 94//94 95//95
f 74//74 95//95 75//75
f 75//75 95//95 96//96
f 75//75 96//96 76//76
f 76//76 96//96 97//97
f 76//76 97//97 77//77
f 77//77 97//97 98//98
f 77//77 98//98 78//78
f 78//78 98//98 99//99
f 78//78 99//99 79//79
f 79//79 99//99 100//100
f 79//79 100//100 80//80
f 80//80 100//100 101//101
f 80//80 101//101 81//81
f 81//81 101//101 102//102
f 81//81 102//102 82//82
f 82//82 102//102 103//103
f 82//82 103//103 83//83
f 83//83 103//103 104//104
f 83//83 104//104 84//84
f 84//84 104//104 105//105
f 85//85 106//106 86//86
f 86//86 106//106 107//107
f 86//86 107//107 87//87
f 87//87 107//107 108//108
f 87//87 108//108 88//88
f 88//88 108//108 109//109
f 88//88 109//109 89//89
f 89//89 109//109 110//110
f 89//89 110//110 90//90
f 90//90 110//110 111//111
f 90//90 111//111 91//91
f 91//91 111//111 112//112
f 91//91 112//112 92//92
f 92//92 112//112 113//113
f 92//92 113//113 93//93
f 93//93 113//113 114//114
f 93//93 114//114 94//94
f 94//94 114//114 115//115
f 94//94 115//115 95//95
f 95//95 115//115 116//116
f 95//95 116//116 96//96
f 96//96 116//116 117//117
f 96//96 117//117 97//97
f 97//97 117//117 118//118
f 97//97 118//118 98//98
f 98//98 118//118 119//119
f 98//98 119//119 99//99
f 99//99 119//119 120//120
f 99//99 120//120 100//100
f 100//100 120//120 121//121
f 100//100 121//121 101//101
f 101//101 121//121 122//122
f 101//101 122//122 102//102
f 102//102 122//122 123//123
f 102//102 123//123 103//103
f 103//103 123//123 124//124
f 103//103 124//124 104//104
f 104//104 124//124 125//125
f 104//104 125//125 105//105
f 105//105 125//125 126//126
