# Bara Kitchen - metres, +Y up; editable mesh source
mtllib palette.mtl
o foam-puff_cream
usemtl cream
v 0.000000 0.060000 0.000000
v 0.000000 0.060000 0.000000
v 0.000000 0.060000 0.000000
v 0.000000 0.060000 0.000000
v 0.000000 0.060000 0.000000
v 0.000000 0.060000 0.000000
v 0.000000 0.060000 0.000000
v 0.000000 0.060000 0.000000
v 0.000000 0.060000 0.000000
v 0.000000 0.060000 0.000000
v 0.000000 0.060000 0.000000
v 0.000000 0.060000 0.000000
v 0.000000 0.060000 0.000000
v 0.000000 0.060000 0.000000
v 0.000000 0.060000 0.000000
v 0.000000 0.060000 0.000000
v 0.000000 0.060000 0.000000
v 0.000000 0.060000 0.000000
v 0.000000 0.060000 0.000000
v 0.000000 0.060000 0.000000
v 0.000000 0.060000 0.000000
v 0.015529 0.057956 0.000000
v 0.014769 0.057956 0.004799
v 0.012563 0.057956 0.009128
v 0.009128 0.057956 0.012563
v 0.004799 0.057956 0.014769
v 0.000000 0.057956 0.015529
v -0.004799 0.057956 0.014769
v -0.009128 0.057956 0.012563
v -0.012563 0.057956 0.009128
v -0.014769 0.057956 0.004799
v -0.015529 0.057956 0.000000
v -0.014769 0.057956 -0.004799
v -0.012563 0.057956 -0.009128
v -0.009128 0.057956 -0.012563
v -0.004799 0.057956 -0.014769
v -0.000000 0.057956 -0.015529
v 0.004799 0.057956 -0.014769
v 0.009128 0.057956 -0.012563
v 0.012563 0.057956 -0.009128
v 0.014769 0.057956 -0.004799
v 0.015529 0.057956 -0.000000
v 0.030000 0.051962 0.000000
v 0.028532 0.051962 0.009271
v 0.024271 0.051962 0.017634
v 0.017634 0.051962 0.024271
v 0.009271 0.051962 0.028532
v 0.000000 0.051962 0.030000
v -0.009271 0.051962 0.028532
v -0.017634 0.051962 0.024271
v -0.024271 0.051962 0.017634
v -0.028532 0.051962 0.009271
v -0.030000 0.051962 0.000000
v -0.028532 0.051962 -0.009271
v -0.024271 0.051962 -0.017634
v -0.017634 0.051962 -0.024271
v -0.009271 0.051962 -0.028532
v -0.000000 0.051962 -0.030000
v 0.009271 0.051962 -0.028532
v 0.017634 0.051962 -0.024271
v 0.024271 0.051962 -0.017634
v 0.028532 0.051962 -0.009271
v 0.030000 0.051962 -0.000000
v 0.042426 0.042426 0.000000
v 0.040350 0.042426 0.013110
v 0.034324 0.042426 0.024938
v 0.024938 0.042426 0.034324
v 0.013110 0.042426 0.040350
v 0.000000 0.042426 0.042426
v -0.013110 0.042426 0.040350
v -0.024938 0.042426 0.034324
v -0.034324 0.042426 0.024938
v -0.040350 0.042426 0.013110
v -0.042426 0.042426 0.000000
v -0.040350 0.042426 -0.013110
v -0.034324 0.042426 -0.024938
v -0.024938 0.042426 -0.034324
v -0.013110 0.042426 -0.040350
v -0.000000 0.042426 -0.042426
v 0.013110 0.042426 -0.040350
v 0.024938 0.042426 -0.034324
v 0.034324 0.042426 -0.024938
v 0.040350 0.042426 -0.013110
v 0.042426 0.042426 -0.000000
v 0.051962 0.030000 0.000000
v 0.049418 0.030000 0.016057
v 0.042038 0.030000 0.030542
v 0.030542 0.030000 0.042038
v 0.016057 0.030000 0.049418
v 0.000000 0.030000 0.051962
v -0.016057 0.030000 0.049418
v -0.030542 0.030000 0.042038
v -0.042038 0.030000 0.030542
v -0.049418 0.030000 0.016057
v -0.051962 0.030000 0.000000
v -0.049418 0.030000 -0.016057
v -0.042038 0.030000 -0.030542
v -0.030542 0.030000 -0.042038
v -0.016057 0.030000 -0.049418
v -0.000000 0.030000 -0.051962
v 0.016057 0.030000 -0.049418
v 0.030542 0.030000 -0.042038
v 0.042038 0.030000 -0.030542
v 0.049418 0.030000 -0.016057
v 0.051962 0.030000 -0.000000
v 0.057956 0.015529 0.000000
v 0.055119 0.015529 0.017909
v 0.046887 0.015529 0.034065
v 0.034065 0.015529 0.046887
v 0.017909 0.015529 0.055119
v 0.000000 0.015529 0.057956
v -0.017909 0.015529 0.055119
v -0.034065 0.015529 0.046887
v -0.046887 0.015529 0.034065
v -0.055119 0.015529 0.017909
v -0.057956 0.015529 0.000000
v -0.055119 0.015529 -0.017909
v -0.046887 0.015529 -0.034065
v -0.034065 0.015529 -0.046887
v -0.017909 0.015529 -0.055119
v -0.000000 0.015529 -0.057956
v 0.017909 0.015529 -0.055119
v 0.034065 0.015529 -0.046887
v 0.046887 0.015529 -0.034065
v 0.055119 0.015529 -0.017909
v 0.057956 0.015529 -0.000000
v 0.060000 0.000000 0.000000
v 0.057063 0.000000 0.018541
v 0.048541 0.000000 0.035267
v 0.035267 0.000000 0.048541
v 0.018541 0.000000 0.057063
v 0.000000 0.000000 0.060000
v -0.018541 0.000000 0.057063
v -0.035267 0.000000 0.048541
v -0.048541 0.000000 0.035267
v -0.057063 0.000000 0.018541
v -0.060000 0.000000 0.000000
v -0.057063 0.000000 -0.018541
v -0.048541 0.000000 -0.035267
v -0.035267 0.000000 -0.048541
v -0.018541 0.000000 -0.057063
v -0.000000 0.000000 -0.060000
v 0.018541 0.000000 -0.057063
v 0.035267 0.000000 -0.048541
v 0.048541 0.000000 -0.035267
v 0.057063 0.000000 -0.018541
v 0.060000 0.000000 -0.000000
v 0.057956 -0.015529 0.000000
v 0.055119 -0.015529 0.017909
v 0.046887 -0.015529 0.034065
v 0.034065 -0.015529 0.046887
v 0.017909 -0.015529 0.055119
v 0.000000 -0.015529 0.057956
v -0.017909 -0.015529 0.055119
v -0.034065 -0.015529 0.046887
v -0.046887 -0.015529 0.034065
v -0.055119 -0.015529 0.017909
v -0.057956 -0.015529 0.000000
v -0.055119 -0.015529 -0.017909
v -0.046887 -0.015529 -0.034065
v -0.034065 -0.015529 -0.046887
v -0.017909 -0.015529 -0.055119
v -0.000000 -0.015529 -0.057956
v 0.017909 -0.015529 -0.055119
v 0.034065 -0.015529 -0.046887
v 0.046887 -0.015529 -0.034065
v 0.055119 -0.015529 -0.017909
v 0.057956 -0.015529 -0.000000
v 0.051962 -0.030000 0.000000
v 0.049418 -0.030000 0.016057
v 0.042038 -0.030000 0.030542
v 0.030542 -0.030000 0.042038
v 0.016057 -0.030000 0.049418
v 0.000000 -0.030000 0.051962
v -0.016057 -0.030000 0.049418
v -0.030542 -0.030000 0.042038
v -0.042038 -0.030000 0.030542
v -0.049418 -0.030000 0.016057
v -0.051962 -0.030000 0.000000
v -0.049418 -0.030000 -0.016057
v -0.042038 -0.030000 -0.030542
v -0.030542 -0.030000 -0.042038
v -0.016057 -0.030000 -0.049418
v -0.000000 -0.030000 -0.051962
v 0.016057 -0.030000 -0.049418
v 0.030542 -0.030000 -0.042038
v 0.042038 -0.030000 -0.030542
v 0.049418 -0.030000 -0.016057
v 0.051962 -0.030000 -0.000000
v 0.042426 -0.042426 0.000000
v 0.040350 -0.042426 0.013110
v 0.034324 -0.042426 0.024938
v 0.024938 -0.042426 0.034324
v 0.013110 -0.042426 0.040350
v 0.000000 -0.042426 0.042426
v -0.013110 -0.042426 0.040350
v -0.024938 -0.042426 0.034324
v -0.034324 -0.042426 0.024938
v -0.040350 -0.042426 0.013110
v -0.042426 -0.042426 0.000000
v -0.040350 -0.042426 -0.013110
v -0.034324 -0.042426 -0.024938
v -0.024938 -0.042426 -0.034324
v -0.013110 -0.042426 -0.040350
v -0.000000 -0.042426 -0.042426
v 0.013110 -0.042426 -0.040350
v 0.024938 -0.042426 -0.034324
v 0.034324 -0.042426 -0.024938
v 0.040350 -0.042426 -0.013110
v 0.042426 -0.042426 -0.000000
v 0.030000 -0.051962 0.000000
v 0.028532 -0.051962 0.009271
v 0.024271 -0.051962 0.017634
v 0.017634 -0.051962 0.024271
v 0.009271 -0.051962 0.028532
v 0.000000 -0.051962 0.030000
v -0.009271 -0.051962 0.028532
v -0.017634 -0.051962 0.024271
v -0.024271 -0.051962 0.017634
v -0.028532 -0.051962 0.009271
v -0.030000 -0.051962 0.000000
v -0.028532 -0.051962 -0.009271
v -0.024271 -0.051962 -0.017634
v -0.017634 -0.051962 -0.024271
v -0.009271 -0.051962 -0.028532
v -0.000000 -0.051962 -0.030000
v 0.009271 -0.051962 -0.028532
v 0.017634 -0.051962 -0.024271
v 0.024271 -0.051962 -0.017634
v 0.028532 -0.051962 -0.009271
v 0.030000 -0.051962 -0.000000
v 0.015529 -0.057956 0.000000
v 0.014769 -0.057956 0.004799
v 0.012563 -0.057956 0.009128
v 0.009128 -0.057956 0.012563
v 0.004799 -0.057956 0.014769
v 0.000000 -0.057956 0.015529
v -0.004799 -0.057956 0.014769
v -0.009128 -0.057956 0.012563
v -0.012563 -0.057956 0.009128
v -0.014769 -0.057956 0.004799
v -0.015529 -0.057956 0.000000
v -0.014769 -0.057956 -0.004799
v -0.012563 -0.057956 -0.009128
v -0.009128 -0.057956 -0.012563
v -0.004799 -0.057956 -0.014769
v -0.000000 -0.057956 -0.015529
v 0.004799 -0.057956 -0.014769
v 0.009128 -0.057956 -0.012563
v 0.012563 -0.057956 -0.009128
v 0.014769 -0.057956 -0.004799
v 0.015529 -0.057956 -0.000000
v 0.000000 -0.060000 0.000000
v 0.000000 -0.060000 0.000000
v 0.000000 -0.060000 0.000000
v 0.000000 -0.060000 0.000000
v 0.000000 -0.060000 0.000000
v 0.000000 -0.060000 0.000000
v -0.000000 -0.060000 0.000000
v -0.000000 -0.060000 0.000000
v -0.000000 -0.060000 0.000000
v -0.000000 -0.060000 0.000000
v -0.000000 -0.060000 0.000000
v -0.000000 -0.060000 -0.000000
v -0.000000 -0.060000 -0.000000
v -0.000000 -0.060000 -0.000000
v -0.000000 -0.060000 -0.000000
v -0.000000 -0.060000 -0.000000
v 0.000000 -0.060000 -0.000000
v 0.000000 -0.060000 -0.000000
v 0.000000 -0.060000 -0.000000
v 0.000000 -0.060000 -0.000000
v 0.000000 -0.060000 -0.000000
vn -0.000000 1.000000 -0.000000
vn -0.000000 1.000000 -0.000000
vn -0.000000 1.000000 -0.000000
vn -0.000000 1.000000 -0.000000
vn -0.000000 1.000000 -0.000000
vn -0.000000 1.000000 -0.000000
vn -0.000000 1.000000 -0.000000
vn -0.000000 1.000000 -0.000000
vn -0.000000 1.000000 -0.000000
vn -0.000000 1.000000 -0.000000
vn -0.000000 1.000000 -0.000000
vn -0.000000 1.000000 -0.000000
vn -0.000000 1.000000 -0.000000
vn -0.000000 1.000000 -0.000000
vn -0.000000 1.000000 -0.000000
vn -0.000000 1.000000 -0.000000
vn -0.000000 1.000000 -0.000000
vn -0.000000 1.000000 -0.000000
vn -0.000000 1.000000 -0.000000
vn -0.000000 1.000000 -0.000000
vn -0.000000 1.000000 -0.000000
vn 0.299899 0.953764 -0.019888
vn 0.291367 0.953764 0.073760
vn 0.254313 0.953764 0.160187
vn 0.192366 0.953764 0.230934
vn 0.111588 0.953764 0.279075
vn 0.019888 0.953764 0.299899
vn -0.073760 0.953764 0.291367
vn -0.160187 0.953764 0.254313
vn -0.230934 0.953764 0.192366
vn -0.279075 0.953764 0.111588
vn -0.299899 0.953764 0.019888
vn -0.291367 0.953764 -0.073760
vn -0.254313 0.953764 -0.160187
vn -0.192366 0.953764 -0.230934
vn -0.111588 0.953764 -0.279075
vn -0.019888 0.953764 -0.299899
vn 0.073760 0.953764 -0.291367
vn 0.160187 0.953764 -0.254313
vn 0.230934 0.953764 -0.192366
vn 0.279075 0.953764 -0.111588
vn 0.299899 0.953764 -0.019888
vn 0.517048 0.855770 -0.017844
vn 0.497256 0.855770 0.142806
vn 0.428789 0.855770 0.289477
vn 0.318350 0.855770 0.407812
vn 0.176748 0.855770 0.486228
vn 0.017844 0.855770 0.517048
vn -0.142806 0.855770 0.497256
vn -0.289477 0.855770 0.428789
vn -0.407812 0.855770 0.318350
vn -0.486228 0.855770 0.176748
vn -0.517048 0.855770 0.017844
vn -0.497256 0.855770 -0.142806
vn -0.428789 0.855770 -0.289477
vn -0.318350 0.855770 -0.407812
vn -0.176748 0.855770 -0.486228
vn -0.017844 0.855770 -0.517048
vn 0.142806 0.855770 -0.497256
vn 0.289477 0.855770 -0.428789
vn 0.407812 0.855770 -0.318350
vn 0.486228 0.855770 -0.176748
vn 0.517048 0.855770 -0.017844
vn 0.715107 0.698863 -0.014572
vn 0.684611 0.698863 0.207121
vn 0.587099 0.698863 0.408540
vn 0.432119 0.698863 0.569968
vn 0.234840 0.698863 0.675604
vn 0.014572 0.698863 0.715107
vn -0.207121 0.698863 0.684611
vn -0.408540 0.698863 0.587099
vn -0.569968 0.698863 0.432119
vn -0.675604 0.698863 0.234840
vn -0.715107 0.698863 0.014572
vn -0.684611 0.698863 -0.207121
vn -0.587099 0.698863 -0.408540
vn -0.432119 0.698863 -0.569968
vn -0.234840 0.698863 -0.675604
vn -0.014572 0.698863 -0.715107
vn 0.207121 0.698863 -0.684611
vn 0.408540 0.698863 -0.587099
vn 0.569968 0.698863 -0.432119
vn 0.675604 0.698863 -0.234840
vn 0.715107 0.698863 -0.014572
vn 0.869277 0.494219 -0.010305
vn 0.829916 0.494219 0.258820
vn 0.709317 0.494219 0.502611
vn 0.519285 0.494219 0.697202
vn 0.278422 0.494219 0.823547
vn 0.010305 0.494219 0.869277
vn -0.258820 0.494219 0.829916
vn -0.502611 0.494219 0.709317
vn -0.697202 0.494219 0.519285
vn -0.823547 0.494219 0.278422
vn -0.869277 0.494219 0.010305
vn -0.829916 0.494219 -0.258820
vn -0.709317 0.494219 -0.502611
vn -0.519285 0.494219 -0.697202
vn -0.278422 0.494219 -0.823547
vn -0.010305 0.494219 -0.869277
vn 0.258820 0.494219 -0.829916
vn 0.502611 0.494219 -0.709317
vn 0.697202 0.494219 -0.519285
vn 0.823547 0.494219 -0.278422
vn 0.869277 0.494219 -0.010305
vn 0.966704 0.255841 -0.005335
vn 0.921039 0.255841 0.293654
vn 0.785216 0.255841 0.563899
vn 0.572530 0.255841 0.778944
vn 0.303802 0.255841 0.917742
vn 0.005335 0.255841 0.966704
vn -0.293654 0.255841 0.921039
vn -0.563899 0.255841 0.785216
vn -0.778944 0.255841 0.572530
vn -0.917742 0.255841 0.303802
vn -0.966704 0.255841 0.005335
vn -0.921039 0.255841 -0.293654
vn -0.785216 0.255841 -0.563899
vn -0.572530 0.255841 -0.778944
vn -0.303802 0.255841 -0.917742
vn -0.005335 0.255841 -0.966704
vn 0.293654 0.255841 -0.921039
vn 0.563899 0.255841 -0.785216
vn 0.778944 0.255841 -0.572530
vn 0.917742 0.255841 -0.303802
vn 0.966704 0.255841 -0.005335
vn 1.000000 0.000000 0.000000
vn 0.951057 0.000000 0.309017
vn 0.809017 -0.000000 0.587785
vn 0.587785 -0.000000 0.809017
vn 0.309017 -0.000000 0.951057
vn 0.000000 -0.000000 1.000000
vn -0.309017 0.000000 0.951057
vn -0.587785 -0.000000 0.809017
vn -0.809017 0.000000 0.587785
vn -0.951057 -0.000000 0.309017
vn -1.000000 -0.000000 0.000000
vn -0.951057 0.000000 -0.309017
vn -0.809017 -0.000000 -0.587785
vn -0.587785 -0.000000 -0.809017
vn -0.309017 -0.000000 -0.951057
vn -0.000000 -0.000000 -1.000000
vn 0.309017 -0.000000 -0.951057
vn 0.587785 -0.000000 -0.809017
vn 0.809017 0.000000 -0.587785
vn 0.951057 -0.000000 -0.309017
vn 1.000000 0.000000 0.000000
vn 0.966704 -0.255841 0.005335
vn 0.917742 -0.255841 0.303802
vn 0.778944 -0.255841 0.572530
vn 0.563899 -0.255841 0.785216
vn 0.293654 -0.255841 0.921039
vn -0.005335 -0.255841 0.966704
vn -0.303802 -0.255841 0.917742
vn -0.572530 -0.255841 0.778944
vn -0.785216 -0.255841 0.563899
vn -0.921039 -0.255841 0.293654
vn -0.966704 -0.255841 -0.005335
vn -0.917742 -0.255841 -0.303802
vn -0.778944 -0.255841 -0.572530
vn -0.563899 -0.255841 -0.785216
vn -0.293654 -0.255841 -0.921039
vn 0.005335 -0.255841 -0.966704
vn 0.303802 -0.255841 -0.917742
vn 0.572530 -0.255841 -0.778944
vn 0.785216 -0.255841 -0.563899
vn 0.921039 -0.255841 -0.293654
vn 0.966704 -0.255841 0.005335
vn 0.869277 -0.494219 0.010305
vn 0.823547 -0.494219 0.278422
vn 0.697202 -0.494219 0.519285
vn 0.502611 -0.494219 0.709317
vn 0.258820 -0.494219 0.829916
vn -0.010305 -0.494219 0.869277
vn -0.278422 -0.494219 0.823547
vn -0.519285 -0.494219 0.697202
vn -0.709317 -0.494219 0.502611
vn -0.829916 -0.494219 0.258820
vn -0.869277 -0.494219 -0.010305
vn -0.823547 -0.494219 -0.278422
vn -0.697202 -0.494219 -0.519285
vn -0.502611 -0.494219 -0.709317
vn -0.258820 -0.494219 -0.829916
vn 0.010305 -0.494219 -0.869277
vn 0.278422 -0.494219 -0.823547
vn 0.519285 -0.494219 -0.697202
vn 0.709317 -0.494219 -0.502611
vn 0.829916 -0.494219 -0.258820
vn 0.869277 -0.494219 0.010305
vn 0.715107 -0.698863 0.014572
vn 0.675604 -0.698863 0.234840
vn 0.569968 -0.698863 0.432119
vn 0.408540 -0.698863 0.587099
vn 0.207121 -0.698863 0.684611
vn -0.014572 -0.698863 0.715107
vn -0.234840 -0.698863 0.675604
vn -0.432119 -0.698863 0.569968
vn -0.587099 -0.698863 0.408540
vn -0.684611 -0.698863 0.207121
vn -0.715107 -0.698863 -0.014572
vn -0.675604 -0.698863 -0.234840
vn -0.569968 -0.698863 -0.432119
vn -0.408540 -0.698863 -0.587099
vn -0.207121 -0.698863 -0.684611
vn 0.014572 -0.698863 -0.715107
vn 0.234840 -0.698863 -0.675604
vn 0.432119 -0.698863 -0.569968
vn 0.587099 -0.698863 -0.408540
vn 0.684611 -0.698863 -0.207121
vn 0.715107 -0.698863 0.014572
vn 0.517048 -0.855770 0.017844
vn 0.486228 -0.855770 0.176748
vn 0.407812 -0.855770 0.318350
vn 0.289477 -0.855770 0.428789
vn 0.142806 -0.855770 0.497256
vn -0.017844 -0.855770 0.517048
vn -0.176748 -0.855770 0.486228
vn -0.318350 -0.855770 0.407812
vn -0.428789 -0.855770 0.289477
vn -0.497256 -0.855770 0.142806
vn -0.517048 -0.855770 -0.017844
vn -0.486228 -0.855770 -0.176748
vn -0.407812 -0.855770 -0.318350
vn -0.289477 -0.855770 -0.428789
vn -0.142806 -0.855770 -0.497256
vn 0.017844 -0.855770 -0.517048
vn 0.176748 -0.855770 -0.486228
vn 0.318350 -0.855770 -0.407812
vn 0.428789 -0.855770 -0.289477
vn 0.497256 -0.855770 -0.142806
vn 0.517048 -0.855770 0.017844
vn 0.299899 -0.953764 0.019888
vn 0.279075 -0.953764 0.111588
vn 0.230934 -0.953764 0.192366
vn 0.160187 -0.953764 0.254313
vn 0.073760 -0.953764 0.291367
vn -0.019888 -0.953764 0.299899
vn -0.111588 -0.953764 0.279075
vn -0.192366 -0.953764 0.230934
vn -0.254313 -0.953764 0.160187
vn -0.291367 -0.953764 0.073760
vn -0.299899 -0.953764 -0.019888
vn -0.279075 -0.953764 -0.111588
vn -0.230934 -0.953764 -0.192366
vn -0.160187 -0.953764 -0.254313
vn -0.073760 -0.953764 -0.291367
vn 0.019888 -0.953764 -0.299899
vn 0.111588 -0.953764 -0.279075
vn 0.192366 -0.953764 -0.230934
vn 0.254313 -0.953764 -0.160187
vn 0.291367 -0.953764 -0.073760
vn 0.299899 -0.953764 0.019888
vn -0.000000 -1.000000 0.000000
vn -0.000000 -1.000000 0.000000
vn -0.000000 -1.000000 0.000000
vn -0.000000 -1.000000 0.000000
vn -0.000000 -1.000000 0.000000
vn -0.000000 -1.000000 0.000000
vn -0.000000 -1.000000 0.000000
vn -0.000000 -1.000000 0.000000
vn -0.000000 -1.000000 0.000000
vn -0.000000 -1.000000 0.000000
vn -0.000000 -1.000000 0.000000
vn -0.000000 -1.000000 0.000000
vn -0.000000 -1.000000 0.000000
vn -0.000000 -1.000000 0.000000
vn -0.000000 -1.000000 0.000000
vn -0.000000 -1.000000 0.000000
vn -0.000000 -1.000000 0.000000
vn -0.000000 -1.000000 0.000000
vn -0.000000 -1.000000 0.000000
vn -0.000000 -1.000000 0.000000
vn -0.000000 -1.000000 0.000000
f 1//1 2//2 22//22
f 2//2 23//23 22//22
f 2//2 3//3 23//23
f 3//3 24//24 23//23
f 3//3 4//4 24//24
f 4//4 25//25 24//24
f 4//4 5//5 25//25
f 5//5 26//26 25//25
f 5//5 6//6 26//26
f 6//6 27//27 26//26
f 6//6 7//7 27//27
f 7//7 28//28 27//27
f 7//7 8//8 28//28
f 8//8 29//29 28//28
f 8//8 9//9 29//29
f 9//9 30//30 29//29
f 9//9 10//10 30//30
f 10//10 31//31 30//30
f 10//10 11//11 31//31
f 11//11 32//32 31//31
f 11//11 12//12 32//32
f 12//12 33//33 32//32
f 12//12 13//13 33//33
f 13//13 34//34 33//33
f 13//13 14//14 34//34
f 14//14 35//35 34//34
f 14//14 15//15 35//35
f 15//15 36//36 35//35
f 15//15 16//16 36//36
f 16//16 37//37 36//36
f 16//16 17//17 37//37
f 17//17 38//38 37//37
f 17//17 18//18 38//38
f 18//18 39//39 38//38
f 18//18 19//19 39//39
f 19//19 40//40 39//39
f 19//19 20//20 40//40
f 20//20 41//41 40//40
f 20//20 21//21 41//41
f 21//21 42//42 41//41
f 22//22 23//23 43//43
f 23//23 44//44 43//43
f 23//23 24//24 44//44
f 24//24 45//45 44//44
f 24//24 25//25 45//45
f 25//25 46//46 45//45
f 25//25 26//26 46//46
f 26//26 47//47 46//46
f 26//26 27//27 47//47
f 27//27 48//48 47//47
f 27//27 28//28 48//48
f 28//28 49//49 48//48
f 28//28 29//29 49//49
f 29//29 50//50 49//49
f 29//29 30//30 50//50
f 30//30 51//51 50//50
f 30//30 31//31 51//51
f 31//31 52//52 51//51
f 31//31 32//32 52//52
f 32//32 53//53 52//52
f 32//32 33//33 53//53
f 33//33 54//54 53//53
f 33//33 34//34 54//54
f 34//34 55//55 54//54
f 34//34 35//35 55//55
f 35//35 56//56 55//55
f 35//35 36//36 56//56
f 36//36 57//57 56//56
f 36//36 37//37 57//57
f 37//37 58//58 57//57
f 37//37 38//38 58//58
f 38//38 59//59 58//58
f 38//38 39//39 59//59
f 39//39 60//60 59//59
f 39//39 40//40 60//60
f 40//40 61//61 60//60
f 40//40 41//41 61//61
f 41//41 62//62 61//61
f 41//41 42//42 62//62
f 42//42 63//63 62//62
f 43//43 44//44 64//64
f 44//44 65//65 64//64
f 44//44 45//45 65//65
f 45//45 66//66 65//65
f 45//45 46//46 66//66
f 46//46 67//67 66//66
f 46//46 47//47 67//67
f 47//47 68//68 67//67
f 47//47 48//48 68//68
f 48//48 69//69 68//68
f 48//48 49//49 69//69
f 49//49 70//70 69//69
f 49//49 50//50 70//70
f 50//50 71//71 70//70
f 50//50 51//51 71//71
f 51//51 72//72 71//71
f 51//51 52//52 72//72
f 52//52 73//73 72//72
f 52//52 53//53 73//73
f 53//53 74//74 73//73
f 53//53 54//54 74//74
f 54//54 75//75 74//74
f 54//54 55//55 75//75
f 55//55 76//76 75//75
f 55//55 56//56 76//76
f 56//56 77//77 76//76
f 56//56 57//57 77//77
f 57//57 78//78 77//77
f 57//57 58//58 78//78
f 58//58 79//79 78//78
f 58//58 59//59 79//79
f 59//59 80//80 79//79
f 59//59 60//60 80//80
f 60//60 81//81 80//80
f 60//60 61//61 81//81
f 61//61 82//82 81//81
f 61//61 62//62 82//82
f 62//62 83//83 82//82
f 62//62 63//63 83//83
f 63//63 84//84 83//83
f 64//64 65//65 85//85
f 65//65 86//86 85//85
f 65//65 66//66 86//86
f 66//66 87//87 86//86
f 66//66 67//67 87//87
f 67//67 88//88 87//87
f 67//67 68//68 88//88
f 68//68 89//89 88//88
f 68//68 69//69 89//89
f 69//69 90//90 89//89
f 69//69 70//70 90//90
f 70//70 91//91 90//90
f 70//70 71//71 91//91
f 71//71 92//92 91//91
f 71//71 72//72 92//92
f 72//72 93//93 92//92
f 72//72 73//73 93//93
f 73//73 94//94 93//93
f 73//73 74//74 94//94
f 74//74 95//95 94//94
f 74//74 75//75 95//95
f 75//75 96//96 95//95
f 75//75 76//76 96//96
f 76//76 97//97 96//96
f 76//76 77//77 97//97
f 77//77 98//98 97//97
f 77//77 78//78 98//98
f 78//78 99//99 98//98
f 78//78 79//79 99//99
f 79//79 100//100 99//99
f 79//79 80//80 100//100
f 80//80 101//101 100//100
f 80//80 81//81 101//101
f 81//81 102//102 101//101
f 81//81 82//82 102//102
f 82//82 103//103 102//102
f 82//82 83//83 103//103
f 83//83 104//104 103//103
f 83//83 84//84 104//104
f 84//84 105//105 104//104
f 85//85 86//86 106//106
f 86//86 107//107 106//106
f 86//86 87//87 107//107
f 87//87 108//108 107//107
f 87//87 88//88 108//108
f 88//88 109//109 108//108
f 88//88 89//89 109//109
f 89//89 110//110 109//109
f 89//89 90//90 110//110
f 90//90 111//111 110//110
f 90//90 91//91 111//111
f 91//91 112//112 111//111
f 91//91 92//92 112//112
f 92//92 113//113 112//112
f 92//92 93//93 113//113
f 93//93 114//114 113//113
f 93//93 94//94 114//114
f 94//94 115//115 114//114
f 94//94 95//95 115//115
f 95//95 116//116 115//115
f 95//95 96//96 116//116
f 96//96 117//117 116//116
f 96//96 97//97 117//117
f 97//97 118//118 117//117
f 97//97 98//98 118//118
f 98//98 119//119 118//118
f 98//98 99//99 119//119
f 99//99 120//120 119//119
f 99//99 100//100 120//120
f 100//100 121//121 120//120
f 100//100 101//101 121//121
f 101//101 122//122 121//121
f 101//101 102//102 122//122
f 102//102 123//123 122//122
f 102//102 103//103 123//123
f 103//103 124//124 123//123
f 103//103 104//104 124//124
f 104//104 125//125 124//124
f 104//104 105//105 125//125
f 105//105 126//126 125//125
f 106//106 107//107 127//127
f 107//107 128//128 127//127
f 107//107 108//108 128//128
f 108//108 129//129 128//128
f 108//108 109//109 129//129
f 109//109 130//130 129//129
f 109//109 110//110 130//130
f 110//110 131//131 130//130
f 110//110 111//111 131//131
f 111//111 132//132 131//131
f 111//111 112//112 132//132
f 112//112 133//133 132//132
f 112//112 113//113 133//133
f 113//113 134//134 133//133
f 113//113 114//114 134//134
f 114//114 135//135 134//134
f 114//114 115//115 135//135
f 115//115 136//136 135//135
f 115//115 116//116 136//136
f 116//116 137//137 136//136
f 116//116 117//117 137//137
f 117//117 138//138 137//137
f 117//117 118//118 138//138
f 118//118 139//139 138//138
f 118//118 119//119 139//139
f 119//119 140//140 139//139
f 119//119 120//120 140//140
f 120//120 141//141 140//140
f 120//120 121//121 141//141
f 121//121 142//142 141//141
f 121//121 122//122 142//142
f 122//122 143//143 142//142
f 122//122 123//123 143//143
f 123//123 144//144 143//143
f 123//123 124//124 144//144
f 124//124 145//145 144//144
f 124//124 125//125 145//145
f 125//125 146//146 145//145
f 125//125 126//126 146//146
f 126//126 147//147 146//146
f 127//127 128//128 148//148
f 128//128 149//149 148//148
f 128//128 129//129 149//149
f 129//129 150//150 149//149
f 129//129 130//130 150//150
f 130//130 151//151 150//150
f 130//130 131//131 151//151
f 131//131 152//152 151//151
f 131//131 132//132 152//152
f 132//132 153//153 152//152
f 132//132 133//133 153//153
f 133//133 154//154 153//153
f 133//133 134//134 154//154
f 134//134 155//155 154//154
f 134//134 135//135 155//155
f 135//135 156//156 155//155
f 135//135 136//136 156//156
f 136//136 157//157 156//156
f 136//136 137//137 157//157
f 137//137 158//158 157//157
f 137//137 138//138 158//158
f 138//138 159//159 158//158
f 138//138 139//139 159//159
f 139//139 160//160 159//159
f 139//139 140//140 160//160
f 140//140 161//161 160//160
f 140//140 141//141 161//161
f 141//141 162//162 161//161
f 141//141 142//142 162//162
f 142//142 163//163 162//162
f 142//142 143//143 163//163
f 143//143 164//164 163//163
f 143//143 144//144 164//164
f 144//144 165//165 164//164
f 144//144 145//145 165//165
f 145//145 166//166 165//165
f 145//145 146//146 166//166
f 146//146 167//167 166//166
f 146//146 147//147 167//167
f 147//147 168//168 167//167
f 148//148 149//149 169//169
f 149//149 170//170 169//169
f 149//149 150//150 170//170
f 150//150 171//171 170//170
f 150//150 151//151 171//171
f 151//151 172//172 171//171
f 151//151 152//152 172//172
f 152//152 173//173 172//172
f 152//152 153//153 173//173
f 153//153 174//174 173//173
f 153//153 154//154 174//174
f 154//154 175//175 174//174
f 154//154 155//155 175//175
f 155//155 176//176 175//175
f 155//155 156//156 176//176
f 156//156 177//177 176//176
f 156//156 157//157 177//177
f 157//157 178//178 177//177
f 157//157 158//158 178//178
f 158//158 179//179 178//178
f 158//158 159//159 179//179
f 159//159 180//180 179//179
f 159//159 160//160 180//180
f 160//160 181//181 180//180
f 160//160 161//161 181//181
f 161//161 182//182 181//181
f 161//161 162//162 182//182
f 162//162 183//183 182//182
f 162//162 163//163 183//183
f 163//163 184//184 183//183
f 163//163 164//164 184//184
f 164//164 185//185 184//184
f 164//164 165//165 185//185
f 165//165 186//186 185//185
f 165//165 166//166 186//186
f 166//166 187//187 186//186
f 166//166 167//167 187//187
f 167//167 188//188 187//187
f 167//167 168//168 188//188
f 168//168 189//189 188//188
f 169//169 170//170 190//190
f 170//170 191//191 190//190
f 170//170 171//171 191//191
f 171//171 192//192 191//191
f 171//171 172//172 192//192
f 172//172 193//193 192//192
f 172//172 173//173 193//193
f 173//173 194//194 193//193
f 173//173 174//174 194//194
f 174//174 195//195 194//194
f 174//174 175//175 195//195
f 175//175 196//196 195//195
f 175//175 176//176 196//196
f 176//176 197//197 196//196
f 176//176 177//177 197//197
f 177//177 198//198 197//197
f 177//177 178//178 198//198
f 178//178 199//199 198//198
f 178//178 179//179 199//199
f 179//179 200//200 199//199
f 179//179 180//180 200//200
f 180//180 201//201 200//200
f 180//180 181//181 201//201
f 181//181 202//202 201//201
f 181//181 182//182 202//202
f 182//182 203//203 202//202
f 182//182 183//183 203//203
f 183//183 204//204 203//203
f 183//183 184//184 204//204
f 184//184 205//205 204//204
f 184//184 185//185 205//205
f 185//185 206//206 205//205
f 185//185 186//186 206//206
f 186//186 207//207 206//206
f 186//186 187//187 207//207
f 187//187 208//208 207//207
f 187//187 188//188 208//208
f 188//188 209//209 208//208
f 188//188 189//189 209//209
f 189//189 210//210 209//209
f 190//190 191//191 211//211
f 191//191 212//212 211//211
f 191//191 192//192 212//212
f 192//192 213//213 212//212
f 192//192 193//193 213//213
f 193//193 214//214 213//213
f 193//193 194//194 214//214
f 194//194 215//215 214//214
f 194//194 195//195 215//215
f 195//195 216//216 215//215
f 195//195 196//196 216//216
f 196//196 217//217 216//216
f 196//196 197//197 217//217
f 197//197 218//218 217//217
f 197//197 198//198 218//218
f 198//198 219//219 218//218
f 198//198 199//199 219//219
f 199//199 220//220 219//219
f 199//199 200//200 220//220
f 200//200 221//221 220//220
f 200//200 201//201 221//221
f 201//201 222//222 221//221
f 201//201 202//202 222//222
f 202//202 223//223 222//222
f 202//202 203//203 223//223
f 203//203 224//224 223//223
f 203//203 204//204 224//224
f 204//204 225//225 224//224
f 204//204 205//205 225//225
f 205//205 226//226 225//225
f 205//205 206//206 226//226
f 206//206 227//227 226//226
f 206//206 207//207 227//227
f 207//207 228//228 227//227
f 207//207 208//208 228//228
f 208//208 229//229 228//228
f 208//208 209//209 229//229
f 209//209 230//230 229//229
f 209//209 210//210 230//230
f 210//210 231//231 230//230
f 211//211 212//212 232//232
f 212//212 233//233 232//232
f 212//212 213//213 233//233
f 213//213 234//234 233//233
f 213//213 214//214 234//234
f 214//214 235//235 234//234
f 214//214 215//215 235//235
f 215//215 236//236 235//235
f 215//215 216//216 236//236
f 216//216 237//237 236//236
f 216//216 217//217 237//237
f 217//217 238//238 237//237
f 217//217 218//218 238//238
f 218//218 239//239 238//238
f 218//218 219//219 239//239
f 219//219 240//240 239//239
f 219//219 220//220 240//240
f 220//220 241//241 240//240
f 220//220 221//221 241//241
f 221//221 242//242 241//241
f 221//221 222//222 242//242
f 222//222 243//243 242//242
f 222//222 223//223 243//243
f 223//223 244//244 243//243
f 223//223 224//224 244//244
f 224//224 245//245 244//244
f 224//224 225//225 245//245
f 225//225 246//246 245//245
f 225//225 226//226 246//246
f 226//226 247//247 246//246
f 226//226 227//227 247//247
f 227//227 248//248 247//247
f 227//227 228//228 248//248
f 228//228 249//249 248//248
f 228//228 229//229 249//249
f 229//229 250//250 249//249
f 229//229 230//230 250//250
f 230//230 251//251 250//250
f 230//230 231//231 251//251
f 231//231 252//252 251//251
f 232//232 233//233 253//253
f 233//233 254//254 253//253
f 233//233 234//234 254//254
f 234//234 255//255 254//254
f 234//234 235//235 255//255
f 235//235 256//256 255//255
f 235//235 236//236 256//256
f 236//236 257//257 256//256
f 236//236 237//237 257//257
f 237//237 258//258 257//257
f 237//237 238//238 258//258
f 238//238 259//259 258//258
f 238//238 239//239 259//259
f 239//239 260//260 259//259
f 239//239 240//240 260//260
f 240//240 261//261 260//260
f 240//240 241//241 261//261
f 241//241 262//262 261//261
f 241//241 242//242 262//262
f 242//242 263//263 262//262
f 242//242 243//243 263//263
f 243//243 264//264 263//263
f 243//243 244//244 264//264
f 244//244 265//265 264//264
f 244//244 245//245 265//265
f 245//245 266//266 265//265
f 245//245 246//246 266//266
f 246//246 267//267 266//266
f 246//246 247//247 267//267
f 247//247 268//268 267//267
f 247//247 248//248 268//268
f 248//248 269//269 268//268
f 248//248 249//249 269//269
f 249//249 270//270 269//269
f 249//249 250//250 270//270
f 250//250 271//271 270//270
f 250//250 251//251 271//271
f 251//251 272//272 271//271
f 251//251 252//252 272//272
f 252//252 273//273 272//272
