# Bara Kitchen - metres, +Y up; editable mesh source
mtllib palette.mtl
o knife_cocoa
usemtl cocoa
v -0.015509 0.006991 -0.133009
v -0.016458 0.006042 -0.130417
v -0.016888 0.005612 -0.126875
v -0.016888 0.005612 -0.023125
v -0.016458 0.006042 -0.019583
v -0.015509 0.006991 -0.016991
v -0.016458 0.009583 -0.133958
v -0.018050 0.008787 -0.131213
v -0.018878 0.008373 -0.126875
v -0.018878 0.008373 -0.023125
v -0.018050 0.008787 -0.018787
v -0.016458 0.009583 -0.016042
v -0.016888 0.013125 -0.134388
v -0.018878 0.013125 -0.131627
v -0.020000 0.013125 -0.126875
v -0.020000 0.013125 -0.023125
v -0.018878 0.013125 -0.018373
v -0.016888 0.013125 -0.015612
v -0.016888 0.016875 -0.134388
v -0.018878 0.016875 -0.131627
v -0.020000 0.016875 -0.126875
v -0.020000 0.016875 -0.023125
v -0.018878 0.016875 -0.018373
v -0.016888 0.016875 -0.015612
v -0.016458 0.020417 -0.133958
v -0.018050 0.021213 -0.131213
v -0.018878 0.021627 -0.126875
v -0.018878 0.021627 -0.023125
v -0.018050 0.021213 -0.018787
v -0.016458 0.020417 -0.016042
v -0.015509 0.023009 -0.133009
v -0.016458 0.023958 -0.130417
v -0.016888 0.024388 -0.126875
v -0.016888 0.024388 -0.023125
v -0.016458 0.023958 -0.019583
v -0.015509 0.023009 -0.016991
v 0.015509 0.006991 -0.133009
v 0.016458 0.006042 -0.130417
v 0.016888 0.005612 -0.126875
v 0.016888 0.005612 -0.023125
v 0.016458 0.006042 -0.019583
v 0.015509 0.006991 -0.016991
v 0.016458 0.009583 -0.133958
v 0.018050 0.008787 -0.131213
v 0.018878 0.008373 -0.126875
v 0.018878 0.008373 -0.023125
v 0.018050 0.008787 -0.018787
v 0.016458 0.009583 -0.016042
v 0.016888 0.013125 -0.134388
v 0.018878 0.013125 -0.131627
v 0.020000 0.013125 -0.126875
v 0.020000 0.013125 -0.023125
v 0.018878 0.013125 -0.018373
v 0.016888 0.013125 -0.015612
v 0.016888 0.016875 -0.134388
v 0.018878 0.016875 -0.131627
v 0.020000 0.016875 -0.126875
v 0.020000 0.016875 -0.023125
v 0.018878 0.016875 -0.018373
v 0.016888 0.016875 -0.015612
v 0.016458 0.020417 -0.133958
v 0.018050 0.021213 -0.131213
v 0.018878 0.021627 -0.126875
v 0.018878 0.021627 -0.023125
v 0.018050 0.021213 -0.018787
v 0.016458 0.020417 -0.016042
v 0.015509 0.023009 -0.133009
v 0.016458 0.023958 -0.130417
v 0.016888 0.024388 -0.126875
v 0.016888 0.024388 -0.023125
v 0.016458 0.023958 -0.019583
v 0.015509 0.023009 -0.016991
v -0.015509 0.006991 -0.133009
v -0.012917 0.006042 -0.133958
v -0.009375 0.005612 -0.134388
v 0.009375 0.005612 -0.134388
v 0.012917 0.006042 -0.133958
v 0.015509 0.006991 -0.133009
v -0.016458 0.006042 -0.130417
v -0.013713 0.004450 -0.131213
v -0.009375 0.003622 -0.131627
v 0.009375 0.003622 -0.131627
v 0.013713 0.004450 -0.131213
v 0.016458 0.006042 -0.130417
v -0.016888 0.005612 -0.126875
v -0.014127 0.003622 -0.126875
v -0.009375 0.002500 -0.126875
v 0.009375 0.002500 -0.126875
v 0.014127 0.003622 -0.126875
v 0.016888 0.005612 -0.126875
v -0.016888 0.005612 -0.023125
v -0.014127 0.003622 -0.023125
v -0.009375 0.002500 -0.023125
v 0.009375 0.002500 -0.023125
v 0.014127 0.003622 -0.023125
v 0.016888 0.005612 -0.023125
v -0.016458 0.006042 -0.019583
v -0.013713 0.004450 -0.018787
v -0.009375 0.003622 -0.018373
v 0.009375 0.003622 -0.018373
v 0.013713 0.004450 -0.018787
v 0.016458 0.006042 -0.019583
v -0.015509 0.006991 -0.016991
v -0.012917 0.006042 -0.016042
v -0.009375 0.005612 -0.015612
v 0.009375 0.005612 -0.015612
v 0.012917 0.006042 -0.016042
v 0.015509 0.006991 -0.016991
v -0.015509 0.023009 -0.133009
v -0.012917 0.023958 -0.133958
v -0.009375 0.024388 -0.134388
v 0.009375 0.024388 -0.134388
v 0.012917 0.023958 -0.133958
v 0.015509 0.023009 -0.133009
v -0.016458 0.023958 -0.130417
v -0.013713 0.025550 -0.131213
v -0.009375 0.026378 -0.131627
v 0.009375 0.026378 -0.131627
v 0.013713 0.025550 -0.131213
v 0.016458 0.023958 -0.130417
v -0.016888 0.024388 -0.126875
v -0.014127 0.026378 -0.126875
v -0.009375 0.027500 -0.126875
v 0.009375 0.027500 -0.126875
v 0.014127 0.026378 -0.126875
v 0.016888 0.024388 -0.126875
v -0.016888 0.024388 -0.023125
v -0.014127 0.026378 -0.023125
v -0.009375 0.027500 -0.023125
v 0.009375 0.027500 -0.023125
v 0.014127 0.026378 -0.023125
v 0.016888 0.024388 -0.023125
v -0.016458 0.023958 -0.019583
v -0.013713 0.025550 -0.018787
v -0.009375 0.026378 -0.018373
v 0.009375 0.026378 -0.018373
v 0.013713 0.025550 -0.018787
v 0.016458 0.023958 -0.019583
v -0.015509 0.023009 -0.016991
v -0.012917 0.023958 -0.016042
v -0.009375 0.024388 -0.015612
v 0.009375 0.024388 -0.015612
v 0.012917 0.023958 -0.016042
v 0.015509 0.023009 -0.016991
v -0.015509 0.006991 -0.133009
v -0.016458 0.009583 -0.133958
v -0.016888 0.013125 -0.134388
v -0.016888 0.016875 -0.134388
v -0.016458 0.020417 -0.133958
v -0.015509 0.023009 -0.133009
v -0.012917 0.006042 -0.133958
v -0.013713 0.008787 -0.135550
v -0.014127 0.013125 -0.136378
v -0.014127 0.016875 -0.136378
v -0.013713 0.021213 -0.135550
v -0.012917 0.023958 -0.133958
v -0.009375 0.005612 -0.134388
v -0.009375 0.008373 -0.136378
v -0.009375 0.013125 -0.137500
v -0.009375 0.016875 -0.137500
v -0.009375 0.021627 -0.136378
v -0.009375 0.024388 -0.134388
v 0.009375 0.005612 -0.134388
v 0.009375 0.008373 -0.136378
v 0.009375 0.013125 -0.137500
v 0.009375 0.016875 -0.137500
v 0.009375 0.021627 -0.136378
v 0.009375 0.024388 -0.134388
v 0.012917 0.006042 -0.133958
v 0.013713 0.008787 -0.135550
v 0.014127 0.013125 -0.136378
v 0.014127 0.016875 -0.136378
v 0.013713 0.021213 -0.135550
v 0.012917 0.023958 -0.133958
v 0.015509 0.006991 -0.133009
v 0.016458 0.009583 -0.133958
v 0.016888 0.013125 -0.134388
v 0.016888 0.016875 -0.134388
v 0.016458 0.020417 -0.133958
v 0.015509 0.023009 -0.133009
v -0.015509 0.006991 -0.016991
v -0.016458 0.009583 -0.016042
v -0.016888 0.013125 -0.015612
v -0.016888 0.016875 -0.015612
v -0.016458 0.020417 -0.016042
v -0.015509 0.023009 -0.016991
v -0.012917 0.006042 -0.016042
v -0.013713 0.008787 -0.014450
v -0.014127 0.013125 -0.013622
v -0.014127 0.016875 -0.013622
v -0.013713 0.021213 -0.014450
v -0.012917 0.023958 -0.016042
v -0.009375 0.005612 -0.015612
v -0.009375 0.008373 -0.013622
v -0.009375 0.013125 -0.012500
v -0.009375 0.016875 -0.012500
v -0.009375 0.021627 -0.013622
v -0.009375 0.024388 -0.015612
v 0.009375 0.005612 -0.015612
v 0.009375 0.008373 -0.013622
v 0.009375 0.013125 -0.012500
v 0.009375 0.016875 -0.012500
v 0.009375 0.021627 -0.013622
v 0.009375 0.024388 -0.015612
v 0.012917 0.006042 -0.016042
v 0.013713 0.008787 -0.014450
v 0.014127 0.013125 -0.013622
v 0.014127 0.016875 -0.013622
v 0.013713 0.021213 -0.014450
v 0.012917 0.023958 -0.016042
v 0.015509 0.006991 -0.016991
v 0.016458 0.009583 -0.016042
v 0.016888 0.013125 -0.015612
v 0.016888 0.016875 -0.015612
v 0.016458 0.020417 -0.016042
v 0.015509 0.023009 -0.016991
vn -0.577350 -0.577350 -0.577350
vn -0.653281 -0.653281 -0.382683
vn -0.707044 -0.707044 -0.013298
vn -0.707104 -0.707104 0.002879
vn -0.682272 -0.682272 0.262698
vn -0.587065 -0.587065 0.557412
vn -0.653281 -0.382683 -0.653281
vn -0.855957 -0.365607 -0.365607
vn -0.898305 -0.439260 -0.009933
vn -0.944133 -0.329495 0.006732
vn -0.884494 -0.329902 0.329902
vn -0.679222 -0.317377 0.661762
vn -0.701137 -0.129670 -0.701137
vn -0.920116 -0.124130 -0.371453
vn -0.986438 -0.163863 -0.009459
vn -0.995518 -0.094034 0.010082
vn -0.923356 -0.098389 0.371125
vn -0.696556 -0.092966 0.711455
vn -0.706038 0.054950 -0.706038
vn -0.923356 0.098389 -0.371125
vn -0.995518 0.094034 -0.010082
vn -0.986438 0.163863 0.009459
vn -0.920116 0.124130 0.371453
vn -0.711455 0.092966 0.696556
vn -0.682272 0.262698 -0.682272
vn -0.884494 0.329902 -0.329902
vn -0.944133 0.329495 -0.006732
vn -0.898305 0.439260 0.009933
vn -0.855957 0.365607 0.365607
vn -0.661762 0.317377 0.679222
vn -0.587065 0.557412 -0.587065
vn -0.679222 0.661762 -0.317377
vn -0.741257 0.671191 -0.006469
vn -0.671191 0.741257 0.006469
vn -0.661762 0.679222 0.317377
vn -0.557412 0.587065 0.587065
vn 0.557412 -0.587065 -0.587065
vn 0.661762 -0.679222 -0.317377
vn 0.671191 -0.741257 -0.006469
vn 0.741257 -0.671191 0.006469
vn 0.679222 -0.661762 0.317377
vn 0.587065 -0.557412 0.587065
vn 0.661762 -0.317377 -0.679222
vn 0.855957 -0.365607 -0.365607
vn 0.898305 -0.439260 -0.009933
vn 0.944133 -0.329495 0.006732
vn 0.884494 -0.329902 0.329902
vn 0.682272 -0.262698 0.682272
vn 0.711455 -0.092966 -0.696556
vn 0.920116 -0.124130 -0.371453
vn 0.986438 -0.163863 -0.009459
vn 0.995518 -0.094034 0.010082
vn 0.923356 -0.098389 0.371125
vn 0.706038 -0.054950 0.706038
vn 0.696556 0.092966 -0.711455
vn 0.923356 0.098389 -0.371125
vn 0.995518 0.094034 -0.010082
vn 0.986438 0.163863 0.009459
vn 0.920116 0.124130 0.371453
vn 0.701137 0.129670 0.701137
vn 0.679222 0.317377 -0.661762
vn 0.884494 0.329902 -0.329902
vn 0.944133 0.329495 -0.006732
vn 0.898305 0.439260 0.009933
vn 0.855957 0.365607 0.365607
vn 0.653281 0.382683 0.653281
vn 0.587065 0.587065 -0.557412
vn 0.682272 0.682272 -0.262698
vn 0.707104 0.707104 -0.002879
vn 0.707044 0.707044 0.013298
vn 0.653281 0.653281 0.382683
vn 0.577350 0.577350 0.577350
vn -0.577350 -0.577350 -0.577350
vn -0.382683 -0.653281 -0.653281
vn -0.056158 -0.705991 -0.705991
vn 0.014804 -0.707029 -0.707029
vn 0.262698 -0.682272 -0.682272
vn 0.557412 -0.587065 -0.587065
vn -0.653281 -0.653281 -0.382683
vn -0.365607 -0.855957 -0.365607
vn -0.045648 -0.906875 -0.418921
vn 0.032377 -0.939327 -0.341490
vn 0.329902 -0.884494 -0.329902
vn 0.661762 -0.679222 -0.317377
vn -0.707044 -0.707044 -0.013298
vn -0.439260 -0.898305 -0.009933
vn -0.075789 -0.997010 -0.015087
vn 0.027823 -0.999590 -0.006709
vn 0.329495 -0.944133 -0.006732
vn 0.671191 -0.741257 -0.006469
vn -0.707104 -0.707104 0.002879
vn -0.329495 -0.944133 0.006732
vn -0.027823 -0.999590 0.006709
vn 0.075789 -0.997010 0.015087
vn 0.439260 -0.898305 0.009933
vn 0.741257 -0.671191 0.006469
vn -0.682272 -0.682272 0.262698
vn -0.329902 -0.884494 0.329902
vn -0.032377 -0.939327 0.341490
vn 0.045648 -0.906875 0.418921
vn 0.365607 -0.855957 0.365607
vn 0.679222 -0.661762 0.317377
vn -0.587065 -0.587065 0.557412
vn -0.317377 -0.679222 0.661762
vn -0.030967 -0.729436 0.683348
vn 0.030967 -0.683348 0.729436
vn 0.317377 -0.661762 0.679222
vn 0.587065 -0.557412 0.587065
vn -0.587065 0.557412 -0.587065
vn -0.317377 0.661762 -0.679222
vn -0.030967 0.683348 -0.729436
vn 0.030967 0.729436 -0.683348
vn 0.317377 0.679222 -0.661762
vn 0.587065 0.587065 -0.557412
vn -0.679222 0.661762 -0.317377
vn -0.365607 0.855957 -0.365607
vn -0.045648 0.906875 -0.418921
vn 0.032377 0.939327 -0.341490
vn 0.329902 0.884494 -0.329902
vn 0.682272 0.682272 -0.262698
vn -0.741257 0.671191 -0.006469
vn -0.439260 0.898305 -0.009933
vn -0.075789 0.997010 -0.015087
vn 0.027823 0.999590 -0.006709
vn 0.329495 0.944133 -0.006732
vn 0.707104 0.707104 -0.002879
vn -0.671191 0.741257 0.006469
vn -0.329495 0.944133 0.006732
vn -0.027823 0.999590 0.006709
vn 0.075789 0.997010 0.015087
vn 0.439260 0.898305 0.009933
vn 0.707044 0.707044 0.013298
vn -0.661762 0.679222 0.317377
vn -0.329902 0.884494 0.329902
vn -0.032377 0.939327 0.341490
vn 0.045648 0.906875 0.418921
vn 0.365607 0.855957 0.365607
vn 0.653281 0.653281 0.382683
vn -0.557412 0.587065 0.587065
vn -0.262698 0.682272 0.682272
vn -0.014804 0.707029 0.707029
vn 0.056158 0.705991 0.705991
vn 0.382683 0.653281 0.653281
vn 0.577350 0.577350 0.577350
vn -0.577350 -0.577350 -0.577350
vn -0.653281 -0.382683 -0.653281
vn -0.701137 -0.129670 -0.701137
vn -0.706038 0.054950 -0.706038
vn -0.682272 0.262698 -0.682272
vn -0.587065 0.557412 -0.587065
vn -0.382683 -0.653281 -0.653281
vn -0.365607 -0.365607 -0.855957
vn -0.371453 -0.124130 -0.920116
vn -0.371125 0.098389 -0.923356
vn -0.329902 0.329902 -0.884494
vn -0.317377 0.661762 -0.679222
vn -0.056158 -0.705991 -0.705991
vn -0.045648 -0.418921 -0.906875
vn -0.044238 -0.152560 -0.987304
vn -0.046346 0.104235 -0.993472
vn -0.032377 0.341490 -0.939327
vn -0.030967 0.683348 -0.729436
vn 0.014804 -0.707029 -0.707029
vn 0.032377 -0.341490 -0.939327
vn 0.046346 -0.104235 -0.993472
vn 0.044238 0.152560 -0.987304
vn 0.045648 0.418921 -0.906875
vn 0.030967 0.729436 -0.683348
vn 0.262698 -0.682272 -0.682272
vn 0.329902 -0.329902 -0.884494
vn 0.371125 -0.098389 -0.923356
vn 0.371453 0.124130 -0.920116
vn 0.365607 0.365607 -0.855957
vn 0.317377 0.679222 -0.661762
vn 0.557412 -0.587065 -0.587065
vn 0.661762 -0.317377 -0.679222
vn 0.711455 -0.092966 -0.696556
vn 0.696556 0.092966 -0.711455
vn 0.679222 0.317377 -0.661762
vn 0.587065 0.587065 -0.557412
vn -0.587065 -0.587065 0.557412
vn -0.679222 -0.317377 0.661762
vn -0.696556 -0.092966 0.711455
vn -0.711455 0.092966 0.696556
vn -0.661762 0.317377 0.679222
vn -0.557412 0.587065 0.587065
vn -0.317377 -0.679222 0.661762
vn -0.365607 -0.365607 0.855957
vn -0.371453 -0.124130 0.920116
vn -0.371125 0.098389 0.923356
vn -0.329902 0.329902 0.884494
vn -0.262698 0.682272 0.682272
vn -0.030967 -0.729436 0.683348
vn -0.045648 -0.418921 0.906875
vn -0.044238 -0.152560 0.987304
vn -0.046346 0.104235 0.993472
vn -0.032377 0.341490 0.939327
vn -0.014804 0.707029 0.707029
vn 0.030967 -0.683348 0.729436
vn 0.032377 -0.341490 0.939327
vn 0.046346 -0.104235 0.993472
vn 0.044238 0.152560 0.987304
vn 0.045648 0.418921 0.906875
vn 0.056158 0.705991 0.705991
vn 0.317377 -0.661762 0.679222
vn 0.329902 -0.329902 0.884494
vn 0.371125 -0.098389 0.923356
vn 0.371453 0.124130 0.920116
vn 0.365607 0.365607 0.855957
vn 0.382683 0.653281 0.653281
vn 0.587065 -0.557412 0.587065
vn 0.682272 -0.262698 0.682272
vn 0.706038 -0.054950 0.706038
vn 0.701137 0.129670 0.701137
vn 0.653281 0.382683 0.653281
vn 0.577350 0.577350 0.577350
f 2//2 7//7 1//1
f 8//8 7//7 2//2
f 3//3 8//8 2//2
f 9//9 8//8 3//3
f 4//4 9//9 3//3
f 10//10 9//9 4//4
f 5//5 10//10 4//4
f 11//11 10//10 5//5
f 6//6 11//11 5//5
f 12//12 11//11 6//6
f 8//8 13//13 7//7
f 14//14 13//13 8//8
f 9//9 14//14 8//8
f 15//15 14//14 9//9
f 10//10 15//15 9//9
f 16//16 15//15 10//10
f 11//11 16//16 10//10
f 17//17 16//16 11//11
f 12//12 17//17 11//11
f 18//18 17//17 12//12
f 14//14 19//19 13//13
f 20//20 19//19 14//14
f 15//15 20//20 14//14
f 21//21 20//20 15//15
f 16//16 21//21 15//15
f 22//22 21//21 16//16
f 17//17 22//22 16//16
f 23//23 22//22 17//17
f 18//18 23//23 17//17
f 24//24 23//23 18//18
f 20//20 25//25 19//19
f 26//26 25//25 20//20
f 21//21 26//26 20//20
f 27//27 26//26 21//21
f 22//22 27//27 21//21
f 28//28 27//27 22//22
f 23//23 28//28 22//22
f 29//29 28//28 23//23
f 24//24 29//29 23//23
f 30//30 29//29 24//24
f 26//26 31//31 25//25
f 32//32 31//31 26//26
f 27//27 32//32 26//26
f 33//33 32//32 27//27
f 28//28 33//33 27//27
f 34//34 33//33 28//28
f 29//29 34//34 28//28
f 35//35 34//34 29//29
f 30//30 35//35 29//29
f 36//36 35//35 30//30
f 37//37 43//43 38//38
f 38//38 43//43 44//44
f 38//38 44//44 39//39
f 39//39 44//44 45//45
f 39//39 45//45 40//40
f 40//40 45//45 46//46
f 40//40 46//46 41//41
f 41//41 46//46 47//47
f 41//41 47//47 42//42
f 42//42 47//47 48//48
f 43//43 49//49 44//44
f 44//44 49//49 50//50
f 44//44 50//50 45//45
f 45//45 50//50 51//51
f 45//45 51//51 46//46
f 46//46 51//51 52//52
f 46//46 52//52 47//47
f 47//47 52//52 53//53
f 47//47 53//53 48//48
f 48//48 53//53 54//54
f 49//49 55//55 50//50
f 50//50 55//55 56//56
f 50//50 56//56 51//51
f 51//51 56//56 57//57
f 51//51 57//57 52//52
f 52//52 57//57 58//58
f 52//52 58//58 53//53
f 53//53 58//58 59//59
f 53//53 59//59 54//54
f 54//54 59//59 60//60
f 55//55 61//61 56//56
f 56//56 61//61 62//62
f 56//56 62//62 57//57
f 57//57 62//62 63//63
f 57//57 63//63 58//58
f 58//58 63//63 64//64
f 58//58 64//64 59//59
f 59//59 64//64 65//65
f 59//59 65//65 60//60
f 60//60 65//65 66//66
f 61//61 67//67 62//62
f 62//62 67//67 68//68
f 62//62 68//68 63//63
f 63//63 68//68 69//69
f 63//63 69//69 64//64
f 64//64 69//69 70//70
f 64//64 70//70 65//65
f 65//65 70//70 71//71
f 65//65 71//71 66//66
f 66//66 71//71 72//72
f 74//74 79//79 73//73
f 80//80 79//79 74//74
f 75//75 80//80 74//74
f 81//81 80//80 75//75
f 76//76 81//81 75//75
f 82//82 81//81 76//76
f 77//77 82//82 76//76
f 83//83 82//82 77//77
f 78//78 83//83 77//77
f 84//84 83//83 78//78
f 80//80 85//85 79//79
f 86//86 85//85 80//80
f 81//81 86//86 80//80
f 87//87 86//86 81//81
f 82//82 87//87 81//81
f 88//88 87//87 82//82
f 83//83 88//88 82//82
f 89//89 88//88 83//83
f 84//84 89//89 83//83
f 90//90 89//89 84//84
f 86//86 91//91 85//85
f 92//92 91//91 86//86
f 87//87 92//92 86//86
f 93//93 92//92 87//87
f 88//88 93//93 87//87
f 94//94 93//93 88//88
f 89//89 94//94 88//88
f 95//95 94//94 89//89
f 90//90 95//95 89//89
f 96//96 95//95 90//90
f 92//92 97//97 91//91
f 98//98 97//97 92//92
f 93//93 98//98 92//92
f 99//99 98//98 93//93
f 94//94 99//99 93//93
f 100//100 99//99 94//94
f 95//95 100//100 94//94
f 101//101 100//100 95//95
f 96//96 101//101 95//95
f 102//102 101//101 96//96
f 98//98 103//103 97//97
f 104//104 103//103 98//98
f 99//99 104//104 98//98
f 105//105 104//104 99//99
f 100//100 105//105 99//99
f 106//106 105//105 100//100
f 101//101 106//106 100//100
f 107//107 106//106 101//101
f 102//102 107//107 101//101
f 108//108 107//107 102//102
f 109//109 115//115 110//110
f 110//110 115//115 116//116
f 110//110 116//116 111//111
f 111//111 116//116 117//117
f 111//111 117//117 112//112
f 112//112 117//117 118//118
f 112//112 118//118 113//113
f 113//113 118//118 119//119
f 113//113 119//119 114//114
f 114//114 119//119 120//120
f 115//115 121//121 116//116
f 116//116 121//121 122//122
f 116//116 122//122 117//117
f 117//117 122//122 123//123
f 117//117 123//123 118//118
f 118//118 123//123 124//124
f 118//118 124//124 119//119
f 119//119 124//124 125//125
f 119//119 125//125 120//120
f 120//120 125//125 126//126
f 121//121 127//127 122//122
f 122//122 127//127 128//128
f 122//122 128//128 123//123
f 123//123 128//128 129//129
f 123//123 129//129 124//124
f 124//124 129//129 130//130
f 124//124 130//130 125//125
f 125//125 130//130 131//131
f 125//125 131//131 126//126
f 126//126 131//131 132//132
f 127//127 133//133 128//128
f 128//128 133//133 134//134
f 128//128 134//134 129//129
f 129//129 134//134 135//135
f 129//129 135//135 130//130
f 130//130 135//135 136//136
f 130//130 136//136 131//131
f 131//131 136//136 137//137
f 131//131 137//137 132//132
f 132//132 137//137 138//138
f 133//133 139//139 134//134
f 134//134 139//139 140//140
f 134//134 140//140 135//135
f 135//135 140//140 141//141
f 135//135 141//141 136//136
f 136//136 141//141 142//142
f 136//136 142//142 137//137
f 137//137 142//142 143//143
f 137//137 143//143 138//138
f 138//138 143//143 144//144
f 146//146 151//151 145//145
f 152//152 151//151 146//146
f 147//147 152//152 146//146
f 153//153 152//152 147//147
f 148//148 153//153 147//147
f 154//154 153//153 148//148
f 149//149 154//154 148//148
f 155//155 154//154 149//149
f 150//150 155//155 149//149
f 156//156 155//155 150//150
f 152//152 157//157 151//151
f 158//158 157//157 152//152
f 153//153 158//158 152//152
f 159//159 158//158 153//153
f 154//154 159//159 153//153
f 160//160 159//159 154//154
f 155//155 160//160 154//154
f 161//161 160//160 155//155
f 156//156 161//161 155//155
f 162//162 161//161 156//156
f 158//158 163//163 157//157
f 164//164 163//163 158//158
f 159//159 164//164 158//158
f 165//165 164//164 159//159
f 160//160 165//165 159//159
f 166//166 165//165 160//160
f 161//161 166//166 160//160
f 167//167 166//166 161//161
f 162//162 167//167 161//161
f 168//168 167//167 162//162
f 164//164 169//169 163//163
f 170//170 169//169 164//164
f 165//165 170//170 164//164
f 171//171 170//170 165//165
f 166//166 171//171 165//165
f 172//172 171//171 166//166
f 167//167 172//172 166//166
f 173//173 172//172 167//167
f 168//168 173//173 167//167
f 174//174 173//173 168//168
f 170//170 175//175 169//169
f 176//176 175//175 170//170
f 171//171 176//176 170//170
f 177//177 176//176 171//171
f 172//172 177//177 171//171
f 178//178 177//177 172//172
f 173//173 178//178 172//172
f 179//179 178//178 173//173
f 174//174 179//179 173//173
f 180//180 179//179 174//174
f 181//181 187//187 182//182
f 182//182 187//187 188//188
f 182//182 188//188 183//183
f 183//183 188//188 189//189
f 183//183 189//189 184//184
f 184//184 189//189 190//190
f 184//184 190//190 185//185
f 185//185 190//190 191//191
f 185//185 191//191 186//186
f 186//186 191//191 192//192
f 187//187 193//193 188//188
f 188//188 193//193 194//194
f 188//188 194//194 189//189
f 189//189 194//194 195//195
f 189//189 195//195 190//190
f 190//190 195//195 196//196
f 190//190 196//196 191//191
f 191//191 196//196 197//197
f 191//191 197//197 192//192
f 192//192 197//197 198//198
f 193//193 199//199 194//194
f 194//194 199//199 200//200
f 194//194 200//200 195//195
f 195//195 200//200 201//201
f 195//195 201//201 196//196
f 196//196 201//201 202//202
f 196//196 202//202 197//197
f 197//197 202//202 203//203
f 197//197 203//203 198//198
f 198//198 203//203 204//204
f 199//199 205//205 200//200
f 200//200 205//205 206//206
f 200//200 206//206 201//201
f 201//201 206//206 207//207
f 201//201 207//207 202//202
f 202//202 207//207 208//208
f 202//202 208//208 203//203
f 203//203 208//208 209//209
f 203//203 209//209 204//204
f 204//204 209//209 210//210
f 205//205 211//211 206//206
f 206//206 211//211 212//212
f 206//206 212//212 207//207
f 207//207 212//212 213//213
f 207//207 213//213 208//208
f 208//208 213//213 214//214
f 208//208 214//214 209//209
f 209//209 214//214 215//215
f 209//209 215//215 210//210
f 210//210 215//215 216//216
o knife_metal
usemtl metal
v -0.019344 0.012156 -0.017844
v -0.019800 0.011700 -0.016600
v -0.020006 0.011494 -0.014900
v -0.020006 0.011494 0.124900
v -0.019800 0.011700 0.126600
v -0.019344 0.012156 0.127844
v -0.019800 0.013400 -0.018300
v -0.020564 0.013018 -0.016982
v -0.020962 0.012819 -0.014900
v -0.020962 0.012819 0.124900
v -0.020564 0.013018 0.126982
v -0.019800 0.013400 0.128300
v -0.020006 0.015100 -0.018506
v -0.020962 0.015100 -0.017181
v -0.021500 0.015100 -0.014900
v -0.021500 0.015100 0.124900
v -0.020962 0.015100 0.127181
v -0.020006 0.015100 0.128506
v -0.020006 0.016900 -0.018506
v -0.020962 0.016900 -0.017181
v -0.021500 0.016900 -0.014900
v -0.021500 0.016900 0.124900
v -0.020962 0.016900 0.127181
v -0.020006 0.016900 0.128506
v -0.019800 0.018600 -0.018300
v -0.020564 0.018982 -0.016982
v -0.020962 0.019181 -0.014900
v -0.020962 0.019181 0.124900
v -0.020564 0.018982 0.126982
v -0.019800 0.018600 0.128300
v -0.019344 0.019844 -0.017844
v -0.019800 0.020300 -0.016600
v -0.020006 0.020506 -0.014900
v -0.020006 0.020506 0.124900
v -0.019800 0.020300 0.126600
v -0.019344 0.019844 0.127844
v 0.049344 0.012156 -0.017844
v 0.049800 0.011700 -0.016600
v 0.050006 0.011494 -0.014900
v 0.050006 0.011494 0.124900
v 0.049800 0.011700 0.126600
v 0.049344 0.012156 0.127844
v 0.049800 0.013400 -0.018300
v 0.050564 0.013018 -0.016982
v 0.050962 0.012819 -0.014900
v 0.050962 0.012819 0.124900
v 0.050564 0.013018 0.126982
v 0.049800 0.013400 0.128300
v 0.050006 0.015100 -0.018506
v 0.050962 0.015100 -0.017181
v 0.051500 0.015100 -0.014900
v 0.051500 0.015100 0.124900
v 0.050962 0.015100 0.127181
v 0.050006 0.015100 0.128506
v 0.050006 0.016900 -0.018506
v 0.050962 0.016900 -0.017181
v 0.051500 0.016900 -0.014900
v 0.051500 0.016900 0.124900
v 0.050962 0.016900 0.127181
v 0.050006 0.016900 0.128506
v 0.049800 0.018600 -0.018300
v 0.050564 0.018982 -0.016982
v 0.050962 0.019181 -0.014900
v 0.050962 0.019181 0.124900
v 0.050564 0.018982 0.126982
v 0.049800 0.018600 0.128300
v 0.049344 0.019844 -0.017844
v 0.049800 0.020300 -0.016600
v 0.050006 0.020506 -0.014900
v 0.050006 0.020506 0.124900
v 0.049800 0.020300 0.126600
v 0.049344 0.019844 0.127844
v -0.019344 0.012156 -0.017844
v -0.018100 0.011700 -0.018300
v -0.016400 0.011494 -0.018506
v 0.046400 0.011494 -0.018506
v 0.048100 0.011700 -0.018300
v 0.049344 0.012156 -0.017844
v -0.019800 0.011700 -0.016600
v -0.018482 0.010936 -0.016982
v -0.016400 0.010538 -0.017181
v 0.046400 0.010538 -0.017181
v 0.048482 0.010936 -0.016982
v 0.049800 0.011700 -0.016600
v -0.020006 0.011494 -0.014900
v -0.018681 0.010538 -0.014900
v -0.016400 0.010000 -0.014900
v 0.046400 0.010000 -0.014900
v 0.048681 0.010538 -0.014900
v 0.050006 0.011494 -0.014900
v -0.020006 0.011494 0.124900
v -0.018681 0.010538 0.124900
v -0.016400 0.010000 0.124900
v 0.046400 0.010000 0.124900
v 0.048681 0.010538 0.124900
v 0.050006 0.011494 0.124900
v -0.019800 0.011700 0.126600
v -0.018482 0.010936 0.126982
v -0.016400 0.010538 0.127181
v 0.046400 0.010538 0.127181
v 0.048482 0.010936 0.126982
v 0.049800 0.011700 0.126600
v -0.019344 0.012156 0.127844
v -0.018100 0.011700 0.128300
v -0.016400 0.011494 0.128506
v 0.046400 0.011494 0.128506
v 0.048100 0.011700 0.128300
v 0.049344 0.012156 0.127844
v -0.019344 0.019844 -0.017844
v -0.018100 0.020300 -0.018300
v -0.016400 0.020506 -0.018506
v 0.046400 0.020506 -0.018506
v 0.048100 0.020300 -0.018300
v 0.049344 0.019844 -0.017844
v -0.019800 0.020300 -0.016600
v -0.018482 0.021064 -0.016982
v -0.016400 0.021462 -0.017181
v 0.046400 0.021462 -0.017181
v 0.048482 0.021064 -0.016982
v 0.049800 0.020300 -0.016600
v -0.020006 0.020506 -0.014900
v -0.018681 0.021462 -0.014900
v -0.016400 0.022000 -0.014900
v 0.046400 0.022000 -0.014900
v 0.048681 0.021462 -0.014900
v 0.050006 0.020506 -0.014900
v -0.020006 0.020506 0.124900
v -0.018681 0.021462 0.124900
v -0.016400 0.022000 0.124900
v 0.046400 0.022000 0.124900
v 0.048681 0.021462 0.124900
v 0.050006 0.020506 0.124900
v -0.019800 0.020300 0.126600
v -0.018482 0.021064 0.126982
v -0.016400 0.021462 0.127181
v 0.046400 0.021462 0.127181
v 0.048482 0.021064 0.126982
v 0.049800 0.020300 0.126600
v -0.019344 0.019844 0.127844
v -0.018100 0.020300 0.128300
v -0.016400 0.020506 0.128506
v 0.046400 0.020506 0.128506
v 0.048100 0.020300 0.128300
v 0.049344 0.019844 0.127844
v -0.019344 0.012156 -0.017844
v -0.019800 0.013400 -0.018300
v -0.020006 0.015100 -0.018506
v -0.020006 0.016900 -0.018506
v -0.019800 0.018600 -0.018300
v -0.019344 0.019844 -0.017844
v -0.018100 0.011700 -0.018300
v -0.018482 0.013018 -0.019064
v -0.018681 0.015100 -0.019462
v -0.018681 0.016900 -0.019462
v -0.018482 0.018982 -0.019064
v -0.018100 0.020300 -0.018300
v -0.016400 0.011494 -0.018506
v -0.016400 0.012819 -0.019462
v -0.016400 0.015100 -0.020000
v -0.016400 0.016900 -0.020000
v -0.016400 0.019181 -0.019462
v -0.016400 0.020506 -0.018506
v 0.046400 0.011494 -0.018506
v 0.046400 0.012819 -0.019462
v 0.046400 0.015100 -0.020000
v 0.046400 0.016900 -0.020000
v 0.046400 0.019181 -0.019462
v 0.046400 0.020506 -0.018506
v 0.048100 0.011700 -0.018300
v 0.048482 0.013018 -0.019064
v 0.048681 0.015100 -0.019462
v 0.048681 0.016900 -0.019462
v 0.048482 0.018982 -0.019064
v 0.048100 0.020300 -0.018300
v 0.049344 0.012156 -0.017844
v 0.049800 0.013400 -0.018300
v 0.050006 0.015100 -0.018506
v 0.050006 0.016900 -0.018506
v 0.049800 0.018600 -0.018300
v 0.049344 0.019844 -0.017844
v -0.019344 0.012156 0.127844
v -0.019800 0.013400 0.128300
v -0.020006 0.015100 0.128506
v -0.020006 0.016900 0.128506
v -0.019800 0.018600 0.128300
v -0.019344 0.019844 0.127844
v -0.018100 0.011700 0.128300
v -0.018482 0.013018 0.129064
v -0.018681 0.015100 0.129462
v -0.018681 0.016900 0.129462
v -0.018482 0.018982 0.129064
v -0.018100 0.020300 0.128300
v -0.016400 0.011494 0.128506
v -0.016400 0.012819 0.129462
v -0.016400 0.015100 0.130000
v -0.016400 0.016900 0.130000
v -0.016400 0.019181 0.129462
v -0.016400 0.020506 0.128506
v 0.046400 0.011494 0.128506
v 0.046400 0.012819 0.129462
v 0.046400 0.015100 0.130000
v 0.046400 0.016900 0.130000
v 0.046400 0.019181 0.129462
v 0.046400 0.020506 0.128506
v 0.048100 0.011700 0.128300
v 0.048482 0.013018 0.129064
v 0.048681 0.015100 0.129462
v 0.048681 0.016900 0.129462
v 0.048482 0.018982 0.129064
v 0.048100 0.020300 0.128300
v 0.049344 0.012156 0.127844
v 0.049800 0.013400 0.128300
v 0.050006 0.015100 0.128506
v 0.050006 0.016900 0.128506
v 0.049800 0.018600 0.128300
v 0.049344 0.019844 0.127844
v 0.000000 0.030000 -0.080000
v 0.000000 0.030000 -0.080000
v 0.000000 0.030000 -0.080000
v 0.000000 0.030000 -0.080000
v 0.000000 0.030000 -0.080000
v 0.000000 0.030000 -0.080000
v 0.000000 0.030000 -0.080000
v 0.000000 0.030000 -0.080000
v 0.000000 0.030000 -0.080000
v 0.000000 0.030000 -0.080000
v 0.000000 0.030000 -0.080000
v 0.000000 0.030000 -0.080000
v 0.000000 0.030000 -0.080000
v 0.000000 0.030000 -0.080000
v 0.000000 0.030000 -0.080000
v 0.000000 0.030000 -0.080000
v 0.000000 0.030000 -0.080000
v 0.000000 0.030000 -0.080000
v 0.000000 0.030000 -0.080000
v 0.000000 0.030000 -0.080000
v 0.000000 0.030000 -0.080000
v 0.000000 0.030000 -0.080000
v 0.000000 0.030000 -0.080000
v 0.000000 0.030000 -0.080000
v 0.000000 0.030000 -0.080000
v 0.000000 0.030000 -0.080000
v 0.000000 0.030000 -0.080000
v 0.000000 0.030000 -0.080000
v 0.000000 0.030000 -0.080000
v 0.000000 0.030000 -0.080000
v 0.000000 0.030000 -0.080000
v 0.000000 0.030000 -0.080000
v 0.000000 0.030000 -0.080000
v 0.000000 0.030000 -0.080000
v 0.000000 0.030000 -0.080000
v 0.000000 0.030000 -0.080000
v 0.000000 0.030000 -0.080000
v 0.000000 0.030000 -0.080000
v 0.000000 0.030000 -0.080000
v 0.000000 0.030000 -0.080000
v 0.000000 0.030000 -0.080000
v 0.005640 0.030000 -0.080000
v 0.005571 0.030000 -0.079118
v 0.005364 0.030000 -0.078257
v 0.005025 0.030000 -0.077439
v 0.004563 0.030000 -0.076685
v 0.003988 0.030000 -0.076012
v 0.003315 0.030000 -0.075437
v 0.002561 0.030000 -0.074975
v 0.001743 0.030000 -0.074636
v 0.000882 0.030000 -0.074429
v 0.000000 0.030000 -0.074360
v -0.000882 0.030000 -0.074429
v -0.001743 0.030000 -0.074636
v -0.002561 0.030000 -0.074975
v -0.003315 0.030000 -0.075437
v -0.003988 0.030000 -0.076012
v -0.004563 0.030000 -0.076685
v -0.005025 0.030000 -0.077439
v -0.005364 0.030000 -0.078257
v -0.005571 0.030000 -0.079118
v -0.005640 0.030000 -0.080000
v -0.005571 0.030000 -0.080882
v -0.005364 0.030000 -0.081743
v -0.005025 0.030000 -0.082561
v -0.004563 0.030000 -0.083315
v -0.003988 0.030000 -0.083988
v -0.003315 0.030000 -0.084563
v -0.002561 0.030000 -0.085025
v -0.001743 0.030000 -0.085364
v -0.000882 0.030000 -0.085571
v -0.000000 0.030000 -0.085640
v 0.000882 0.030000 -0.085571
v 0.001743 0.030000 -0.085364
v 0.002561 0.030000 -0.085025
v 0.003315 0.030000 -0.084563
v 0.003988 0.030000 -0.083988
v 0.004563 0.030000 -0.083315
v 0.005025 0.030000 -0.082561
v 0.005364 0.030000 -0.081743
v 0.005571 0.030000 -0.080882
v 0.005640 0.030000 -0.080000
v 0.006000 0.030240 -0.080000
v 0.005926 0.030240 -0.079061
v 0.005706 0.030240 -0.078146
v 0.005346 0.030240 -0.077276
v 0.004854 0.030240 -0.076473
v 0.004243 0.030240 -0.075757
v 0.003527 0.030240 -0.075146
v 0.002724 0.030240 -0.074654
v 0.001854 0.030240 -0.074294
v 0.000939 0.030240 -0.074074
v 0.000000 0.030240 -0.074000
v -0.000939 0.030240 -0.074074
v -0.001854 0.030240 -0.074294
v -0.002724 0.030240 -0.074654
v -0.003527 0.030240 -0.075146
v -0.004243 0.030240 -0.075757
v -0.004854 0.030240 -0.076473
v -0.005346 0.030240 -0.077276
v -0.005706 0.030240 -0.078146
v -0.005926 0.030240 -0.079061
v -0.006000 0.030240 -0.080000
v -0.005926 0.030240 -0.080939
v -0.005706 0.030240 -0.081854
v -0.005346 0.030240 -0.082724
v -0.004854 0.030240 -0.083527
v -0.004243 0.030240 -0.084243
v -0.003527 0.030240 -0.084854
v -0.002724 0.030240 -0.085346
v -0.001854 0.030240 -0.085706
v -0.000939 0.030240 -0.085926
v -0.000000 0.030240 -0.086000
v 0.000939 0.030240 -0.085926
v 0.001854 0.030240 -0.085706
v 0.002724 0.030240 -0.085346
v 0.003527 0.030240 -0.084854
v 0.004243 0.030240 -0.084243
v 0.004854 0.030240 -0.083527
v 0.005346 0.030240 -0.082724
v 0.005706 0.030240 -0.081854
v 0.005926 0.030240 -0.080939
v 0.006000 0.030240 -0.080000
v 0.006000 0.032760 -0.080000
v 0.005926 0.032760 -0.079061
v 0.005706 0.032760 -0.078146
v 0.005346 0.032760 -0.077276
v 0.004854 0.032760 -0.076473
v 0.004243 0.032760 -0.075757
v 0.003527 0.032760 -0.075146
v 0.002724 0.032760 -0.074654
v 0.001854 0.032760 -0.074294
v 0.000939 0.032760 -0.074074
v 0.000000 0.032760 -0.074000
v -0.000939 0.032760 -0.074074
v -0.001854 0.032760 -0.074294
v -0.002724 0.032760 -0.074654
v -0.003527 0.032760 -0.075146
v -0.004243 0.032760 -0.075757
v -0.004854 0.032760 -0.076473
v -0.005346 0.032760 -0.077276
v -0.005706 0.032760 -0.078146
v -0.005926 0.032760 -0.079061
v -0.006000 0.032760 -0.080000
v -0.005926 0.032760 -0.080939
v -0.005706 0.032760 -0.081854
v -0.005346 0.032760 -0.082724
v -0.004854 0.032760 -0.083527
v -0.004243 0.032760 -0.084243
v -0.003527 0.032760 -0.084854
v -0.002724 0.032760 -0.085346
v -0.001854 0.032760 -0.085706
v -0.000939 0.032760 -0.085926
v -0.000000 0.032760 -0.086000
v 0.000939 0.032760 -0.085926
v 0.001854 0.032760 -0.085706
v 0.002724 0.032760 -0.085346
v 0.003527 0.032760 -0.084854
v 0.004243 0.032760 -0.084243
v 0.004854 0.032760 -0.083527
v 0.005346 0.032760 -0.082724
v 0.005706 0.032760 -0.081854
v 0.005926 0.032760 -0.080939
v 0.006000 0.032760 -0.080000
v 0.005640 0.033000 -0.080000
v 0.005571 0.033000 -0.079118
v 0.005364 0.033000 -0.078257
v 0.005025 0.033000 -0.077439
v 0.004563 0.033000 -0.076685
v 0.003988 0.033000 -0.076012
v 0.003315 0.033000 -0.075437
v 0.002561 0.033000 -0.074975
v 0.001743 0.033000 -0.074636
v 0.000882 0.033000 -0.074429
v 0.000000 0.033000 -0.074360
v -0.000882 0.033000 -0.074429
v -0.001743 0.033000 -0.074636
v -0.002561 0.033000 -0.074975
v -0.003315 0.033000 -0.075437
v -0.003988 0.033000 -0.076012
v -0.004563 0.033000 -0.076685
v -0.005025 0.033000 -0.077439
v -0.005364 0.033000 -0.078257
v -0.005571 0.033000 -0.079118
v -0.005640 0.033000 -0.080000
v -0.005571 0.033000 -0.080882
v -0.005364 0.033000 -0.081743
v -0.005025 0.033000 -0.082561
v -0.004563 0.033000 -0.083315
v -0.003988 0.033000 -0.083988
v -0.003315 0.033000 -0.084563
v -0.002561 0.033000 -0.085025
v -0.001743 0.033000 -0.085364
v -0.000882 0.033000 -0.085571
v -0.000000 0.033000 -0.085640
v 0.000882 0.033000 -0.085571
v 0.001743 0.033000 -0.085364
v 0.002561 0.033000 -0.085025
v 0.003315 0.033000 -0.084563
v 0.003988 0.033000 -0.083988
v 0.004563 0.033000 -0.083315
v 0.005025 0.033000 -0.082561
v 0.005364 0.033000 -0.081743
v 0.005571 0.033000 -0.080882
v 0.005640 0.033000 -0.080000
v 0.000000 0.033000 -0.080000
v 0.000000 0.033000 -0.080000
v 0.000000 0.033000 -0.080000
v 0.000000 0.033000 -0.080000
v 0.000000 0.033000 -0.080000
v 0.000000 0.033000 -0.080000
v 0.000000 0.033000 -0.080000
v 0.000000 0.033000 -0.080000
v 0.000000 0.033000 -0.080000
v 0.000000 0.033000 -0.080000
v 0.000000 0.033000 -0.080000
v 0.000000 0.033000 -0.080000
v 0.000000 0.033000 -0.080000
v 0.000000 0.033000 -0.080000
v 0.000000 0.033000 -0.080000
v 0.000000 0.033000 -0.080000
v 0.000000 0.033000 -0.080000
v 0.000000 0.033000 -0.080000
v 0.000000 0.033000 -0.080000
v 0.000000 0.033000 -0.080000
v 0.000000 0.033000 -0.080000
v 0.000000 0.033000 -0.080000
v 0.000000 0.033000 -0.080000
v 0.000000 0.033000 -0.080000
v 0.000000 0.033000 -0.080000
v 0.000000 0.033000 -0.080000
v 0.000000 0.033000 -0.080000
v 0.000000 0.033000 -0.080000
v 0.000000 0.033000 -0.080000
v 0.000000 0.033000 -0.080000
v 0.000000 0.033000 -0.080000
v 0.000000 0.033000 -0.080000
v 0.000000 0.033000 -0.080000
v 0.000000 0.033000 -0.080000
v 0.000000 0.033000 -0.080000
v 0.000000 0.033000 -0.080000
v 0.000000 0.033000 -0.080000
v 0.000000 0.033000 -0.080000
v 0.000000 0.033000 -0.080000
v 0.000000 0.033000 -0.080000
v 0.000000 0.033000 -0.080000
vn -0.577350 -0.577350 -0.577350
vn -0.653281 -0.653281 -0.382683
vn -0.707098 -0.707098 -0.004954
vn -0.707106 -0.707106 0.001037
vn -0.682272 -0.682272 0.262698
vn -0.587065 -0.587065 0.557412
vn -0.653281 -0.382683 -0.653281
vn -0.855957 -0.365607 -0.365607
vn -0.896633 -0.442760 -0.003643
vn -0.944860 -0.327466 0.002450
vn -0.884494 -0.329902 0.329902
vn -0.679222 -0.317377 0.661762
vn -0.701137 -0.129670 -0.701137
vn -0.920116 -0.124130 -0.371453
vn -0.986155 -0.165791 -0.003459
vn -0.995731 -0.092224 0.003698
vn -0.923356 -0.098389 0.371125
vn -0.696556 -0.092966 0.711455
vn -0.706038 0.054950 -0.706038
vn -0.923356 0.098389 -0.371125
vn -0.995731 0.092224 -0.003698
vn -0.986155 0.165791 0.003459
vn -0.920116 0.124130 0.371453
vn -0.711455 0.092966 0.696556
vn -0.682272 0.262698 -0.682272
vn -0.884494 0.329902 -0.329902
vn -0.944860 0.327466 -0.002450
vn -0.896633 0.442760 0.003643
vn -0.855957 0.365607 0.365607
vn -0.661762 0.317377 0.679222
vn -0.587065 0.557412 -0.587065
vn -0.679222 0.661762 -0.317377
vn -0.743176 0.669091 -0.002357
vn -0.669091 0.743176 0.002357
vn -0.661762 0.679222 0.317377
vn -0.557412 0.587065 0.587065
vn 0.557412 -0.587065 -0.587065
vn 0.661762 -0.679222 -0.317377
vn 0.669091 -0.743176 -0.002357
vn 0.743176 -0.669091 0.002357
vn 0.679222 -0.661762 0.317377
vn 0.587065 -0.557412 0.587065
vn 0.661762 -0.317377 -0.679222
vn 0.855957 -0.365607 -0.365607
vn 0.896633 -0.442760 -0.003643
vn 0.944860 -0.327466 0.002450
vn 0.884494 -0.329902 0.329902
vn 0.682272 -0.262698 0.682272
vn 0.711455 -0.092966 -0.696556
vn 0.920116 -0.124130 -0.371453
vn 0.986155 -0.165791 -0.003459
vn 0.995731 -0.092224 0.003698
vn 0.923356 -0.098389 0.371125
vn 0.706038 -0.054950 0.706038
vn 0.696556 0.092966 -0.711455
vn 0.923356 0.098389 -0.371125
vn 0.995731 0.092224 -0.003698
vn 0.986155 0.165791 0.003459
vn 0.920116 0.124130 0.371453
vn 0.701137 0.129670 0.701137
vn 0.679222 0.317377 -0.661762
vn 0.884494 0.329902 -0.329902
vn 0.944860 0.327466 -0.002450
vn 0.896633 0.442760 0.003643
vn 0.855957 0.365607 0.365607
vn 0.653281 0.382683 0.653281
vn 0.587065 0.587065 -0.557412
vn 0.682272 0.682272 -0.262698
vn 0.707106 0.707106 -0.001037
vn 0.707098 0.707098 0.004954
vn 0.653281 0.653281 0.382683
vn 0.577350 0.577350 0.577350
vn -0.577350 -0.577350 -0.577350
vn -0.382683 -0.653281 -0.653281
vn -0.010696 -0.707066 -0.707066
vn 0.002291 -0.707105 -0.707105
vn 0.262698 -0.682272 -0.682272
vn 0.557412 -0.587065 -0.587065
vn -0.653281 -0.653281 -0.382683
vn -0.365607 -0.855957 -0.365607
vn -0.007950 -0.897783 -0.440366
vn 0.005376 -0.944366 -0.328853
vn 0.329902 -0.884494 -0.329902
vn 0.661762 -0.679222 -0.317377
vn -0.707098 -0.707098 -0.004954
vn -0.442760 -0.896633 -0.003643
vn -0.015630 -0.999853 -0.007091
vn 0.004293 -0.999989 -0.001994
vn 0.327466 -0.944860 -0.002450
vn 0.669091 -0.743176 -0.002357
vn -0.707106 -0.707106 0.001037
vn -0.327466 -0.944860 0.002450
vn -0.004293 -0.999989 0.001994
vn 0.015630 -0.999853 0.007091
vn 0.442760 -0.896633 0.003643
vn 0.743176 -0.669091 0.002357
vn -0.682272 -0.682272 0.262698
vn -0.329902 -0.884494 0.329902
vn -0.005376 -0.944366 0.328853
vn 0.007950 -0.897783 0.440366
vn 0.365607 -0.855957 0.365607
vn 0.679222 -0.661762 0.317377
vn -0.587065 -0.587065 0.557412
vn -0.317377 -0.679222 0.661762
vn -0.005167 -0.741867 0.670528
vn 0.005167 -0.670528 0.741867
vn 0.317377 -0.661762 0.679222
vn 0.587065 -0.557412 0.587065
vn -0.587065 0.557412 -0.587065
vn -0.317377 0.661762 -0.679222
vn -0.005167 0.670528 -0.741867
vn 0.005167 0.741867 -0.670528
vn 0.317377 0.679222 -0.661762
vn 0.587065 0.587065 -0.557412
vn -0.679222 0.661762 -0.317377
vn -0.365607 0.855957 -0.365607
vn -0.007950 0.897783 -0.440366
vn 0.005376 0.944366 -0.328853
vn 0.329902 0.884494 -0.329902
vn 0.682272 0.682272 -0.262698
vn -0.743176 0.669091 -0.002357
vn -0.442760 0.896633 -0.003643
vn -0.015630 0.999853 -0.007091
vn 0.004293 0.999989 -0.001994
vn 0.327466 0.944860 -0.002450
vn 0.707106 0.707106 -0.001037
vn -0.669091 0.743176 0.002357
vn -0.327466 0.944860 0.002450
vn -0.004293 0.999989 0.001994
vn 0.015630 0.999853 0.007091
vn 0.442760 0.896633 0.003643
vn 0.707098 0.707098 0.004954
vn -0.661762 0.679222 0.317377
vn -0.329902 0.884494 0.329902
vn -0.005376 0.944366 0.328853
vn 0.007950 0.897783 0.440366
vn 0.365607 0.855957 0.365607
vn 0.653281 0.653281 0.382683
vn -0.557412 0.587065 0.587065
vn -0.262698 0.682272 0.682272
vn -0.002291 0.707105 0.707105
vn 0.010696 0.707066 0.707066
vn 0.382683 0.653281 0.653281
vn 0.577350 0.577350 0.577350
vn -0.577350 -0.577350 -0.577350
vn -0.653281 -0.382683 -0.653281
vn -0.701137 -0.129670 -0.701137
vn -0.706038 0.054950 -0.706038
vn -0.682272 0.262698 -0.682272
vn -0.587065 0.557412 -0.587065
vn -0.382683 -0.653281 -0.653281
vn -0.365607 -0.365607 -0.855957
vn -0.371453 -0.124130 -0.920116
vn -0.371125 0.098389 -0.923356
vn -0.329902 0.329902 -0.884494
vn -0.317377 0.661762 -0.679222
vn -0.010696 -0.707066 -0.707066
vn -0.007950 -0.440366 -0.897783
vn -0.007564 -0.164473 -0.986353
vn -0.008070 0.093464 -0.995590
vn -0.005376 0.328853 -0.944366
vn -0.005167 0.670528 -0.741867
vn 0.002291 -0.707105 -0.707105
vn 0.005376 -0.328853 -0.944366
vn 0.008070 -0.093464 -0.995590
vn 0.007564 0.164473 -0.986353
vn 0.007950 0.440366 -0.897783
vn 0.005167 0.741867 -0.670528
vn 0.262698 -0.682272 -0.682272
vn 0.329902 -0.329902 -0.884494
vn 0.371125 -0.098389 -0.923356
vn 0.371453 0.124130 -0.920116
vn 0.365607 0.365607 -0.855957
vn 0.317377 0.679222 -0.661762
vn 0.557412 -0.587065 -0.587065
vn 0.661762 -0.317377 -0.679222
vn 0.711455 -0.092966 -0.696556
vn 0.696556 0.092966 -0.711455
vn 0.679222 0.317377 -0.661762
vn 0.587065 0.587065 -0.557412
vn -0.587065 -0.587065 0.557412
vn -0.679222 -0.317377 0.661762
vn -0.696556 -0.092966 0.711455
vn -0.711455 0.092966 0.696556
vn -0.661762 0.317377 0.679222
vn -0.557412 0.587065 0.587065
vn -0.317377 -0.679222 0.661762
vn -0.365607 -0.365607 0.855957
vn -0.371453 -0.124130 0.920116
vn -0.371125 0.098389 0.923356
vn -0.329902 0.329902 0.884494
vn -0.262698 0.682272 0.682272
vn -0.005167 -0.741867 0.670528
vn -0.007950 -0.440366 0.897783
vn -0.007564 -0.164473 0.986353
vn -0.008070 0.093464 0.995590
vn -0.005376 0.328853 0.944366
vn -0.002291 0.707105 0.707105
vn 0.005167 -0.670528 0.741867
vn 0.005376 -0.328853 0.944366
vn 0.008070 -0.093464 0.995590
vn 0.007564 0.164473 0.986353
vn 0.007950 0.440366 0.897783
vn 0.010696 0.707066 0.707066
vn 0.317377 -0.661762 0.679222
vn 0.329902 -0.329902 0.884494
vn 0.371125 -0.098389 0.923356
vn 0.371453 0.124130 0.920116
vn 0.365607 0.365607 0.855957
vn 0.382683 0.653281 0.653281
vn 0.587065 -0.557412 0.587065
vn 0.682272 -0.262698 0.682272
vn 0.706038 -0.054950 0.706038
vn 0.701137 0.129670 0.701137
vn 0.653281 0.382683 0.653281
vn 0.577350 0.577350 0.577350
vn 0.000000 -1.000000 0.000000
vn 0.000000 -1.000000 0.000000
vn 0.000000 -1.000000 0.000000
vn 0.000000 -1.000000 0.000000
vn 0.000000 -1.000000 0.000000
vn 0.000000 -1.000000 0.000000
vn 0.000000 -1.000000 0.000000
vn 0.000000 -1.000000 0.000000
vn 0.000000 -1.000000 0.000000
vn 0.000000 -1.000000 0.000000
vn 0.000000 -1.000000 0.000000
vn 0.000000 -1.000000 0.000000
vn 0.000000 -1.000000 0.000000
vn 0.000000 -1.000000 0.000000
vn 0.000000 -1.000000 0.000000
vn 0.000000 -1.000000 0.000000
vn 0.000000 -1.000000 0.000000
vn 0.000000 -1.000000 0.000000
vn 0.000000 -1.000000 0.000000
vn 0.000000 -1.000000 0.000000
vn 0.000000 -1.000000 0.000000
vn 0.000000 -1.000000 0.000000
vn 0.000000 -1.000000 0.000000
vn 0.000000 -1.000000 0.000000
vn 0.000000 -1.000000 0.000000
vn 0.000000 -1.000000 0.000000
vn 0.000000 -1.000000 0.000000
vn 0.000000 -1.000000 0.000000
vn 0.000000 -1.000000 0.000000
vn 0.000000 -1.000000 0.000000
vn 0.000000 -1.000000 0.000000
vn 0.000000 -1.000000 0.000000
vn 0.000000 -1.000000 0.000000
vn 0.000000 -1.000000 0.000000
vn 0.000000 -1.000000 0.000000
vn 0.000000 -1.000000 0.000000
vn 0.000000 -1.000000 0.000000
vn 0.000000 -1.000000 0.000000
vn 0.000000 -1.000000 0.000000
vn 0.000000 -1.000000 0.000000
vn 0.000000 -1.000000 0.000000
vn 0.059277 -0.998240 -0.001620
vn 0.058801 -0.998240 0.007673
vn 0.056876 -0.998240 0.016777
vn 0.053552 -0.998240 0.025468
vn 0.048908 -0.998240 0.033532
vn 0.043061 -0.998240 0.040770
vn 0.036153 -0.998240 0.047004
vn 0.028354 -0.998240 0.052081
vn 0.019858 -0.998240 0.055875
vn 0.010873 -0.998240 0.058294
vn 0.001620 -0.998240 0.059277
vn -0.007673 -0.998240 0.058801
vn -0.016777 -0.998240 0.056876
vn -0.025468 -0.998240 0.053552
vn -0.033532 -0.998240 0.048908
vn -0.040770 -0.998240 0.043061
vn -0.047004 -0.998240 0.036153
vn -0.052081 -0.998240 0.028354
vn -0.055875 -0.998240 0.019858
vn -0.058294 -0.998240 0.010873
vn -0.059277 -0.998240 0.001620
vn -0.058801 -0.998240 -0.007673
vn -0.056876 -0.998240 -0.016777
vn -0.053552 -0.998240 -0.025468
vn -0.048908 -0.998240 -0.033532
vn -0.043061 -0.998240 -0.040770
vn -0.036153 -0.998240 -0.047004
vn -0.028354 -0.998240 -0.052081
vn -0.019858 -0.998240 -0.055875
vn -0.010873 -0.998240 -0.058294
vn -0.001620 -0.998240 -0.059277
vn 0.007673 -0.998240 -0.058801
vn 0.016777 -0.998240 -0.056876
vn 0.025468 -0.998240 -0.053552
vn 0.033532 -0.998240 -0.048908
vn 0.040770 -0.998240 -0.043061
vn 0.047004 -0.998240 -0.036153
vn 0.052081 -0.998240 -0.028354
vn 0.055875 -0.998240 -0.019858
vn 0.058294 -0.998240 -0.010873
vn 0.059277 -0.998240 -0.001620
vn 0.991668 -0.126982 -0.021664
vn 0.982848 -0.126982 0.133734
vn 0.949827 -0.126982 0.285838
vn 0.893418 -0.126982 0.430905
vn 0.815011 -0.126982 0.565361
vn 0.716534 -0.126982 0.685896
vn 0.600415 -0.126982 0.789543
vn 0.469511 -0.126982 0.873748
vn 0.327046 -0.126982 0.936438
vn 0.176529 -0.126982 0.976070
vn 0.021664 -0.126982 0.991668
vn -0.133734 -0.126982 0.982848
vn -0.285838 -0.126982 0.949827
vn -0.430905 -0.126982 0.893418
vn -0.565361 -0.126982 0.815011
vn -0.685896 -0.126982 0.716534
vn -0.789543 -0.126982 0.600415
vn -0.873748 -0.126982 0.469511
vn -0.936438 -0.126982 0.327046
vn -0.976070 -0.126982 0.176529
vn -0.991668 -0.126982 0.021664
vn -0.982848 -0.126982 -0.133734
vn -0.949827 -0.126982 -0.285838
vn -0.893418 -0.126982 -0.430905
vn -0.815011 -0.126982 -0.565361
vn -0.716534 -0.126982 -0.685896
vn -0.600415 -0.126982 -0.789543
vn -0.469511 -0.126982 -0.873748
vn -0.327046 -0.126982 -0.936438
vn -0.176529 -0.126982 -0.976070
vn -0.021664 -0.126982 -0.991668
vn 0.133734 -0.126982 -0.982848
vn 0.285838 -0.126982 -0.949827
vn 0.430905 -0.126982 -0.893418
vn 0.565361 -0.126982 -0.815011
vn 0.685896 -0.126982 -0.716534
vn 0.789543 -0.126982 -0.600415
vn 0.873748 -0.126982 -0.469511
vn 0.936438 -0.126982 -0.327046
vn 0.976070 -0.126982 -0.176529
vn 0.991668 -0.126982 -0.021664
vn 0.991668 0.126982 0.021664
vn 0.976070 0.126982 0.176529
vn 0.936438 0.126982 0.327046
vn 0.873748 0.126982 0.469511
vn 0.789543 0.126982 0.600415
vn 0.685896 0.126982 0.716534
vn 0.565361 0.126982 0.815011
vn 0.430905 0.126982 0.893418
vn 0.285838 0.126982 0.949827
vn 0.133734 0.126982 0.982848
vn -0.021664 0.126982 0.991668
vn -0.176529 0.126982 0.976070
vn -0.327046 0.126982 0.936438
vn -0.469511 0.126982 0.873748
vn -0.600415 0.126982 0.789543
vn -0.716534 0.126982 0.685896
vn -0.815011 0.126982 0.565361
vn -0.893418 0.126982 0.430905
vn -0.949827 0.126982 0.285838
vn -0.982848 0.126982 0.133734
vn -0.991668 0.126982 -0.021664
vn -0.976070 0.126982 -0.176529
vn -0.936438 0.126982 -0.327046
vn -0.873748 0.126982 -0.469511
vn -0.789543 0.126982 -0.600415
vn -0.685896 0.126982 -0.716534
vn -0.565361 0.126982 -0.815011
vn -0.430905 0.126982 -0.893418
vn -0.285838 0.126982 -0.949827
vn -0.133734 0.126982 -0.982848
vn 0.021664 0.126982 -0.991668
vn 0.176529 0.126982 -0.976070
vn 0.327046 0.126982 -0.936438
vn 0.469511 0.126982 -0.873748
vn 0.600415 0.126982 -0.789543
vn 0.716534 0.126982 -0.685896
vn 0.815011 0.126982 -0.565361
vn 0.893418 0.126982 -0.430905
vn 0.949827 0.126982 -0.285838
vn 0.982848 0.126982 -0.133734
vn 0.991668 0.126982 0.021664
vn 0.059277 0.998240 0.001620
vn 0.058294 0.998240 0.010873
vn 0.055875 0.998240 0.019858
vn 0.052081 0.998240 0.028354
vn 0.047004 0.998240 0.036153
vn 0.040770 0.998240 0.043061
vn 0.033532 0.998240 0.048908
vn 0.025468 0.998240 0.053552
vn 0.016777 0.998240 0.056876
vn 0.007673 0.998240 0.058801
vn -0.001620 0.998240 0.059277
vn -0.010873 0.998240 0.058294
vn -0.019858 0.998240 0.055875
vn -0.028354 0.998240 0.052081
vn -0.036153 0.998240 0.047004
vn -0.043061 0.998240 0.040770
vn -0.048908 0.998240 0.033532
vn -0.053552 0.998240 0.025468
vn -0.056876 0.998240 0.016777
vn -0.058801 0.998240 0.007673
vn -0.059277 0.998240 -0.001620
vn -0.058294 0.998240 -0.010873
vn -0.055875 0.998240 -0.019858
vn -0.052081 0.998240 -0.028354
vn -0.047004 0.998240 -0.036153
vn -0.040770 0.998240 -0.043061
vn -0.033532 0.998240 -0.048908
vn -0.025468 0.998240 -0.053552
vn -0.016777 0.998240 -0.056876
vn -0.007673 0.998240 -0.058801
vn 0.001620 0.998240 -0.059277
vn 0.010873 0.998240 -0.058294
vn 0.019858 0.998240 -0.055875
vn 0.028354 0.998240 -0.052081
vn 0.036153 0.998240 -0.047004
vn 0.043061 0.998240 -0.040770
vn 0.048908 0.998240 -0.033532
vn 0.053552 0.998240 -0.025468
vn 0.056876 0.998240 -0.016777
vn 0.058801 0.998240 -0.007673
vn 0.059277 0.998240 0.001620
vn 0.000000 1.000000 0.000000
vn 0.000000 1.000000 0.000000
vn 0.000000 1.000000 0.000000
vn 0.000000 1.000000 0.000000
vn 0.000000 1.000000 0.000000
vn 0.000000 1.000000 0.000000
vn 0.000000 1.000000 0.000000
vn 0.000000 1.000000 0.000000
vn 0.000000 1.000000 0.000000
vn 0.000000 1.000000 0.000000
vn 0.000000 1.000000 0.000000
vn 0.000000 1.000000 0.000000
vn 0.000000 1.000000 0.000000
vn 0.000000 1.000000 0.000000
vn 0.000000 1.000000 0.000000
vn 0.000000 1.000000 0.000000
vn 0.000000 1.000000 0.000000
vn 0.000000 1.000000 0.000000
vn 0.000000 1.000000 0.000000
vn 0.000000 1.000000 0.000000
vn 0.000000 1.000000 0.000000
vn 0.000000 1.000000 0.000000
vn 0.000000 1.000000 0.000000
vn 0.000000 1.000000 0.000000
vn 0.000000 1.000000 0.000000
vn 0.000000 1.000000 0.000000
vn 0.000000 1.000000 0.000000
vn 0.000000 1.000000 0.000000
vn 0.000000 1.000000 0.000000
vn 0.000000 1.000000 0.000000
vn 0.000000 1.000000 0.000000
vn 0.000000 1.000000 0.000000
vn 0.000000 1.000000 0.000000
vn 0.000000 1.000000 0.000000
vn 0.000000 1.000000 0.000000
vn 0.000000 1.000000 0.000000
vn 0.000000 1.000000 0.000000
vn 0.000000 1.000000 0.000000
vn 0.000000 1.000000 0.000000
vn 0.000000 1.000000 0.000000
vn 0.000000 1.000000 0.000000
f 218//218 223//223 217//217
f 224//224 223//223 218//218
f 219//219 224//224 218//218
f 225//225 224//224 219//219
f 220//220 225//225 219//219
f 226//226 225//225 220//220
f 221//221 226//226 220//220
f 227//227 226//226 221//221
f 222//222 227//227 221//221
f 228//228 227//227 222//222
f 224//224 229//229 223//223
f 230//230 229//229 224//224
f 225//225 230//230 224//224
f 231//231 230//230 225//225
f 226//226 231//231 225//225
f 232//232 231//231 226//226
f 227//227 232//232 226//226
f 233//233 232//232 227//227
f 228//228 233//233 227//227
f 234//234 233//233 228//228
f 230//230 235//235 229//229
f 236//236 235//235 230//230
f 231//231 236//236 230//230
f 237//237 236//236 231//231
f 232//232 237//237 231//231
f 238//238 237//237 232//232
f 233//233 238//238 232//232
f 239//239 238//238 233//233
f 234//234 239//239 233//233
f 240//240 239//239 234//234
f 236//236 241//241 235//235
f 242//242 241//241 236//236
f 237//237 242//242 236//236
f 243//243 242//242 237//237
f 238//238 243//243 237//237
f 244//244 243//243 238//238
f 239//239 244//244 238//238
f 245//245 244//244 239//239
f 240//240 245//245 239//239
f 246//246 245//245 240//240
f 242//242 247//247 241//241
f 248//248 247//247 242//242
f 243//243 248//248 242//242
f 249//249 248//248 243//243
f 244//244 249//249 243//243
f 250//250 249//249 244//244
f 245//245 250//250 244//244
f 251//251 250//250 245//245
f 246//246 251//251 245//245
f 252//252 251//251 246//246
f 253//253 259//259 254//254
f 254//254 259//259 260//260
f 254//254 260//260 255//255
f 255//255 260//260 261//261
f 255//255 261//261 256//256
f 256//256 261//261 262//262
f 256//256 262//262 257//257
f 257//257 262//262 263//263
f 257//257 263//263 258//258
f 258//258 263//263 264//264
f 259//259 265//265 260//260
f 260//260 265//265 266//266
f 260//260 266//266 261//261
f 261//261 266//266 267//267
f 261//261 267//267 262//262
f 262//262 267//267 268//268
f 262//262 268//268 263//263
f 263//263 268//268 269//269
f 263//263 269//269 264//264
f 264//264 269//269 270//270
f 265//265 271//271 266//266
f 266//266 271//271 272//272
f 266//266 272//272 267//267
f 267//267 272//272 273//273
f 267//267 273//273 268//268
f 268//268 273//273 274//274
f 268//268 274//274 269//269
f 269//269 274//274 275//275
f 269//269 275//275 270//270
f 270//270 275//275 276//276
f 271//271 277//277 272//272
f 272//272 277//277 278//278
f 272//272 278//278 273//273
f 273//273 278//278 279//279
f 273//273 279//279 274//274
f 274//274 279//279 280//280
f 274//274 280//280 275//275
f 275//275 280//280 281//281
f 275//275 281//281 276//276
f 276//276 281//281 282//282
f 277//277 283//283 278//278
f 278//278 283//283 284//284
f 278//278 284//284 279//279
f 279//279 284//284 285//285
f 279//279 285//285 280//280
f 280//280 285//285 286//286
f 280//280 286//286 281//281
f 281//281 286//286 287//287
f 281//281 287//287 282//282
f 282//282 287//287 288//288
f 290//290 295//295 289//289
f 296//296 295//295 290//290
f 291//291 296//296 290//290
f 297//297 296//296 291//291
f 292//292 297//297 291//291
f 298//298 297//297 292//292
f 293//293 298//298 292//292
f 299//299 298//298 293//293
f 294//294 299//299 293//293
f 300//300 299//299 294//294
f 296//296 301//301 295//295
f 302//302 301//301 296//296
f 297//297 302//302 296//296
f 303//303 302//302 297//297
f 298//298 303//303 297//297
f 304//304 303//303 298//298
f 299//299 304//304 298//298
f 305//305 304//304 299//299
f 300//300 305//305 299//299
f 306//306 305//305 300//300
f 302//302 307//307 301//301
f 308//308 307//307 302//302
f 303//303 308//308 302//302
f 309//309 308//308 303//303
f 304//304 309//309 303//303
f 310//310 309//309 304//304
f 305//305 310//310 304//304
f 311//311 310//310 305//305
f 306//306 311//311 305//305
f 312//312 311//311 306//306
f 308//308 313//313 307//307
f 314//314 313//313 308//308
f 309//309 314//314 308//308
f 315//315 314//314 309//309
f 310//310 315//315 309//309
f 316//316 315//315 310//310
f 311//311 316//316 310//310
f 317//317 316//316 311//311
f 312//312 317//317 311//311
f 318//318 317//317 312//312
f 314//314 319//319 313//313
f 320//320 319//319 314//314
f 315//315 320//320 314//314
f 321//321 320//320 315//315
f 316//316 321//321 315//315
f 322//322 321//321 316//316
f 317//317 322//322 316//316
f 323//323 322//322 317//317
f 318//318 323//323 317//317
f 324//324 323//323 318//318
f 325//325 331//331 326//326
f 326//326 331//331 332//332
f 326//326 332//332 327//327
f 327//327 332//332 333//333
f 327//327 333//333 328//328
f 328//328 333//333 334//334
f 328//328 334//334 329//329
f 329//329 334//334 335//335
f 329//329 335//335 330//330
f 330//330 335//335 336//336
f 331//331 337//337 332//332
f 332//332 337//337 338//338
f 332//332 338//338 333//333
f 333//333 338//338 339//339
f 333//333 339//339 334//334
f 334//334 339//339 340//340
f 334//334 340//340 335//335
f 335//335 340//340 341//341
f 335//335 341//341 336//336
f 336//336 341//341 342//342
f 337//337 343//343 338//338
f 338//338 343//343 344//344
f 338//338 344//344 339//339
f 339//339 344//344 345//345
f 339//339 345//345 340//340
f 340//340 345//345 346//346
f 340//340 346//346 341//341
f 341//341 346//346 347//347
f 341//341 347//347 342//342
f 342//342 347//347 348//348
f 343//343 349//349 344//344
f 344//344 349//349 350//350
f 344//344 350//350 345//345
f 345//345 350//350 351//351
f 345//345 351//351 346//346
f 346//346 351//351 352//352
f 346//346 352//352 347//347
f 347//347 352//352 353//353
f 347//347 353//353 348//348
f 348//348 353//353 354//354
f 349//349 355//355 350//350
f 350//350 355//355 356//356
f 350//350 356//356 351//351
f 351//351 356//356 357//357
f 351//351 357//357 352//352
f 352//352 357//357 358//358
f 352//352 358//358 353//353
f 353//353 358//358 359//359
f 353//353 359//359 354//354
f 354//354 359//359 360//360
f 362//362 367//367 361//361
f 368//368 367//367 362//362
f 363//363 368//368 362//362
f 369//369 368//368 363//363
f 364//364 369//369 363//363
f 370//370 369//369 364//364
f 365//365 370//370 364//364
f 371//371 370//370 365//365
f 366//366 371//371 365//365
f 372//372 371//371 366//366
f 368//368 373//373 367//367
f 374//374 373//373 368//368
f 369//369 374//374 368//368
f 375//375 374//374 369//369
f 370//370 375//375 369//369
f 376//376 375//375 370//370
f 371//371 376//376 370//370
f 377//377 376//376 371//371
f 372//372 377//377 371//371
f 378//378 377//377 372//372
f 374//374 379//379 373//373
f 380//380 379//379 374//374
f 375//375 380//380 374//374
f 381//381 380//380 375//375
f 376//376 381//381 375//375
f 382//382 381//381 376//376
f 377//377 382//382 376//376
f 383//383 382//382 377//377
f 378//378 383//383 377//377
f 384//384 383//383 378//378
f 380//380 385//385 379//379
f 386//386 385//385 380//380
f 381//381 386//386 380//380
f 387//387 386//386 381//381
f 382//382 387//387 381//381
f 388//388 387//387 382//382
f 383//383 388//388 382//382
f 389//389 388//388 383//383
f 384//384 389//389 383//383
f 390//390 389//389 384//384
f 386//386 391//391 385//385
f 392//392 391//391 386//386
f 387//387 392//392 386//386
f 393//393 392//392 387//387
f 388//388 393//393 387//387
f 394//394 393//393 388//388
f 389//389 394//394 388//388
f 395//395 394//394 389//389
f 390//390 395//395 389//389
f 396//396 395//395 390//390
f 397//397 403//403 398//398
f 398//398 403//403 404//404
f 398//398 404//404 399//399
f 399//399 404//404 405//405
f 399//399 405//405 400//400
f 400//400 405//405 406//406
f 400//400 406//406 401//401
f 401//401 406//406 407//407
f 401//401 407//407 402//402
f 402//402 407//407 408//408
f 403//403 409//409 404//404
f 404//404 409//409 410//410
f 404//404 410//410 405//405
f 405//405 410//410 411//411
f 405//405 411//411 406//406
f 406//406 411//411 412//412
f 406//406 412//412 407//407
f 407//407 412//412 413//413
f 407//407 413//413 408//408
f 408//408 413//413 414//414
f 409//409 415//415 410//410
f 410//410 415//415 416//416
f 410//410 416//416 411//411
f 411//411 416//416 417//417
f 411//411 417//417 412//412
f 412//412 417//417 418//418
f 412//412 418//418 413//413
f 413//413 418//418 419//419
f 413//413 419//419 414//414
f 414//414 419//419 420//420
f 415//415 421//421 416//416
f 416//416 421//421 422//422
f 416//416 422//422 417//417
f 417//417 422//422 423//423
f 417//417 423//423 418//418
f 418//418 423//423 424//424
f 418//418 424//424 419//419
f 419//419 424//424 425//425
f 419//419 425//425 420//420
f 420//420 425//425 426//426
f 421//421 427//427 422//422
f 422//422 427//427 428//428
f 422//422 428//428 423//423
f 423//423 428//428 429//429
f 423//423 429//429 424//424
f 424//424 429//429 430//430
f 424//424 430//430 425//425
f 425//425 430//430 431//431
f 425//425 431//431 426//426
f 426//426 431//431 432//432
f 433//433 474//474 434//434
f 434//434 474//474 475//475
f 434//434 475//475 435//435
f 435//435 475//475 476//476
f 435//435 476//476 436//436
f 436//436 476//476 477//477
f 436//436 477//477 437//437
f 437//437 477//477 478//478
f 437//437 478//478 438//438
f 438//438 478//478 479//479
f 438//438 479//479 439//439
f 439//439 479//479 480//480
f 439//439 480//480 440//440
f 440//440 480//480 481//481
f 440//440 481//481 441//441
f 441//441 481//481 482//482
f 441//441 482//482 442//442
f 442//442 482//482 483//483
f 442//442 483//483 443//443
f 443//443 483//483 484//484
f 443//443 484//484 444//444
f 444//444 484//484 485//485
f 444//444 485//485 445//445
f 445//445 485//485 486//486
f 445//445 486//486 446//446
f 446//446 486//486 487//487
f 446//446 487//487 447//447
f 447//447 487//487 488//488
f 447//447 488//488 448//448
f 448//448 488//488 489//489
f 448//448 489//489 449//449
f 449//449 489//489 490//490
f 449//449 490//490 450//450
f 450//450 490//490 491//491
f 450//450 491//491 451//451
f 451//451 491//491 492//492
f 451//451 492//492 452//452
f 452//452 492//492 493//493
f 452//452 493//493 453//453
f 453//453 493//493 494//494
f 453//453 494//494 454//454
f 454//454 494//494 495//495
f 454//454 495//495 455//455
f 455//455 495//495 496//496
f 455//455 496//496 456//456
f 456//456 496//496 497//497
f 456//456 497//497 457//457
f 457//457 497//497 498//498
f 457//457 498//498 458//458
f 458//458 498//498 499//499
f 458//458 499//499 459//459
f 459//459 499//499 500//500
f 459//459 500//500 460//460
f 460//460 500//500 501//501
f 460//460 501//501 461//461
f 461//461 501//501 502//502
f 461//461 502//502 462//462
f 462//462 502//502 503//503
f 462//462 503//503 463//463
f 463//463 503//503 504//504
f 463//463 504//504 464//464
f 464//464 504//504 505//505
f 464//464 505//505 465//465
f 465//465 505//505 506//506
f 465//465 506//506 466//466
f 466//466 506//506 507//507
f 466//466 507//507 467//467
f 467//467 507//507 508//508
f 467//467 508//508 468//468
f 468//468 508//508 509//509
f 468//468 509//509 469//469
f 469//469 509//509 510//510
f 469//469 510//510 470//470
f 470//470 510//510 511//511
f 470//470 511//511 471//471
f 471//471 511//511 512//512
f 471//471 512//512 472//472
f 472//472 512//512 513//513
f 472//472 513//513 473//473
f 473//473 513//513 514//514
f 474//474 515//515 475//475
f 475//475 515//515 516//516
f 475//475 516//516 476//476
f 476//476 516//516 517//517
f 476//476 517//517 477//477
f 477//477 517//517 518//518
f 477//477 518//518 478//478
f 478//478 518//518 519//519
f 478//478 519//519 479//479
f 479//479 519//519 520//520
f 479//479 520//520 480//480
f 480//480 520//520 521//521
f 480//480 521//521 481//481
f 481//481 521//521 522//522
f 481//481 522//522 482//482
f 482//482 522//522 523//523
f 482//482 523//523 483//483
f 483//483 523//523 524//524
f 483//483 524//524 484//484
f 484//484 524//524 525//525
f 484//484 525//525 485//485
f 485//485 525//525 526//526
f 485//485 526//526 486//486
f 486//486 526//526 527//527
f 486//486 527//527 487//487
f 487//487 527//527 528//528
f 487//487 528//528 488//488
f 488//488 528//528 529//529
f 488//488 529//529 489//489
f 489//489 529//529 530//530
f 489//489 530//530 490//490
f 490//490 530//530 531//531
f 490//490 531//531 491//491
f 491//491 531//531 532//532
f 491//491 532//532 492//492
f 492//492 532//532 533//533
f 492//492 533//533 493//493
f 493//493 533//533 534//534
f 493//493 534//534 494//494
f 494//494 534//534 535//535
f 494//494 535//535 495//495
f 495//495 535//535 536//536
f 495//495 536//536 496//496
f 496//496 536//536 537//537
f 496//496 537//537 497//497
f 497//497 537//537 538//538
f 497//497 538//538 498//498
f 498//498 538//538 539//539
f 498//498 539//539 499//499
f 499//499 539//539 540//540
f 499//499 540//540 500//500
f 500//500 540//540 541//541
f 500//500 541//541 501//501
f 501//501 541//541 542//542
f 501//501 542//542 502//502
f 502//502 542//542 543//543
f 502//502 543//543 503//503
f 503//503 543//543 544//544
f 503//503 544//544 504//504
f 504//504 544//544 545//545
f 504//504 545//545 505//505
f 505//505 545//545 546//546
f 505//505 546//546 506//506
f 506//506 546//546 547//547
f 506//506 547//547 507//507
f 507//507 547//547 548//548
f 507//507 548//548 508//508
f 508//508 548//548 549//549
f 508//508 549//549 509//509
f 509//509 549//549 550//550
f 509//509 550//550 510//510
f 510//510 550//550 551//551
f 510//510 551//551 511//511
f 511//511 551//551 552//552
f 511//511 552//552 512//512
f 512//512 552//552 553//553
f 512//512 553//553 513//513
f 513//513 553//553 554//554
f 513//513 554//554 514//514
f 514//514 554//554 555//555
f 515//515 556//556 516//516
f 516//516 556//556 557//557
f 516//516 557//557 517//517
f 517//517 557//557 558//558
f 517//517 558//558 518//518
f 518//518 558//558 559//559
f 518//518 559//559 519//519
f 519//519 559//559 560//560
f 519//519 560//560 520//520
f 520//520 560//560 561//561
f 520//520 561//561 521//521
f 521//521 561//561 562//562
f 521//521 562//562 522//522
f 522//522 562//562 563//563
f 522//522 563//563 523//523
f 523//523 563//563 564//564
f 523//523 564//564 524//524
f 524//524 564//564 565//565
f 524//524 565//565 525//525
f 525//525 565//565 566//566
f 525//525 566//566 526//526
f 526//526 566//566 567//567
f 526//526 567//567 527//527
f 527//527 567//567 568//568
f 527//527 568//568 528//528
f 528//528 568//568 569//569
f 528//528 569//569 529//529
f 529//529 569//569 570//570
f 529//529 570//570 530//530
f 530//530 570//570 571//571
f 530//530 571//571 531//531
f 531//531 571//571 572//572
f 531//531 572//572 532//532
f 532//532 572//572 573//573
f 532//532 573//573 533//533
f 533//533 573//573 574//574
f 533//533 574//574 534//534
f 534//534 574//574 575//575
f 534//534 575//575 535//535
f 535//535 575//575 576//576
f 535//535 576//576 536//536
f 536//536 576//576 577//577
f 536//536 577//577 537//537
f 537//537 577//577 578//578
f 537//537 578//578 538//538
f 538//538 578//578 579//579
f 538//538 579//579 539//539
f 539//539 579//579 580//580
f 539//539 580//580 540//540
f 540//540 580//580 581//581
f 540//540 581//581 541//541
f 541//541 581//581 582//582
f 541//541 582//582 542//542
f 542//542 582//582 583//583
f 542//542 583//583 543//543
f 543//543 583//583 584//584
f 543//543 584//584 544//544
f 544//544 584//584 585//585
f 544//544 585//585 545//545
f 545//545 585//585 586//586
f 545//545 586//586 546//546
f 546//546 586//586 587//587
f 546//546 587//587 547//547
f 547//547 587//587 588//588
f 547//547 588//588 548//548
f 548//548 588//588 589//589
f 548//548 589//589 549//549
f 549//549 589//589 590//590
f 549//549 590//590 550//550
f 550//550 590//590 591//591
f 550//550 591//591 551//551
f 551//551 591//591 592//592
f 551//551 592//592 552//552
f 552//552 592//592 593//593
f 552//552 593//593 553//553
f 553//553 593//593 594//594
f 553//553 594//594 554//554
f 554//554 594//594 595//595
f 554//554 595//595 555//555
f 555//555 595//595 596//596
f 556//556 597//597 557//557
f 557//557 597//597 598//598
f 557//557 598//598 558//558
f 558//558 598//598 599//599
f 558//558 599//599 559//559
f 559//559 599//599 600//600
f 559//559 600//600 560//560
f 560//560 600//600 601//601
f 560//560 601//601 561//561
f 561//561 601//601 602//602
f 561//561 602//602 562//562
f 562//562 602//602 603//603
f 562//562 603//603 563//563
f 563//563 603//603 604//604
f 563//563 604//604 564//564
f 564//564 604//604 605//605
f 564//564 605//605 565//565
f 565//565 605//605 606//606
f 565//565 606//606 566//566
f 566//566 606//606 607//607
f 566//566 607//607 567//567
f 567//567 607//607 608//608
f 567//567 608//608 568//568
f 568//568 608//608 609//609
f 568//568 609//609 569//569
f 569//569 609//609 610//610
f 569//569 610//610 570//570
f 570//570 610//610 611//611
f 570//570 611//611 571//571
f 571//571 611//611 612//612
f 571//571 612//612 572//572
f 572//572 612//612 613//613
f 572//572 613//613 573//573
f 573//573 613//613 614//614
f 573//573 614//614 574//574
f 574//574 614//614 615//615
f 574//574 615//615 575//575
f 575//575 615//615 616//616
f 575//575 616//616 576//576
f 576//576 616//616 617//617
f 576//576 617//617 577//577
f 577//577 617//617 618//618
f 577//577 618//618 578//578
f 578//578 618//618 619//619
f 578//578 619//619 579//579
f 579//579 619//619 620//620
f 579//579 620//620 580//580
f 580//580 620//620 621//621
f 580//580 621//621 581//581
f 581//581 621//621 622//622
f 581//581 622//622 582//582
f 582//582 622//622 623//623
f 582//582 623//623 583//583
f 583//583 623//623 624//624
f 583//583 624//624 584//584
f 584//584 624//624 625//625
f 584//584 625//625 585//585
f 585//585 625//625 626//626
f 585//585 626//626 586//586
f 586//586 626//626 627//627
f 586//586 627//627 587//587
f 587//587 627//627 628//628
f 587//587 628//628 588//588
f 588//588 628//628 629//629
f 588//588 629//629 589//589
f 589//589 629//629 630//630
f 589//589 630//630 590//590
f 590//590 630//630 631//631
f 590//590 631//631 591//591
f 591//591 631//631 632//632
f 591//591 632//632 592//592
f 592//592 632//632 633//633
f 592//592 633//633 593//593
f 593//593 633//633 634//634
f 593//593 634//634 594//594
f 594//594 634//634 635//635
f 594//594 635//635 595//595
f 595//595 635//635 636//636
f 595//595 636//636 596//596
f 596//596 636//636 637//637
f 597//597 638//638 598//598
f 598//598 638//638 639//639
f 598//598 639//639 599//599
f 599//599 639//639 640//640
f 599//599 640//640 600//600
f 600//600 640//640 641//641
f 600//600 641//641 601//601
f 601//601 641//641 642//642
f 601//601 642//642 602//602
f 602//602 642//642 643//643
f 602//602 643//643 603//603
f 603//603 643//643 644//644
f 603//603 644//644 604//604
f 604//604 644//644 645//645
f 604//604 645//645 605//605
f 605//605 645//645 646//646
f 605//605 646//646 606//606
f 606//606 646//646 647//647
f 606//606 647//647 607//607
f 607//607 647//647 648//648
f 607//607 648//648 608//608
f 608//608 648//648 649//649
f 608//608 649//649 609//609
f 609//609 649//649 650//650
f 609//609 650//650 610//610
f 610//610 650//650 651//651
f 610//610 651//651 611//611
f 611//611 651//651 652//652
f 611//611 652//652 612//612
f 612//612 652//652 653//653
f 612//612 653//653 613//613
f 613//613 653//653 654//654
f 613//613 654//654 614//614
f 614//614 654//654 655//655
f 614//614 655//655 615//615
f 615//615 655//655 656//656
f 615//615 656//656 616//616
f 616//616 656//656 657//657
f 616//616 657//657 617//617
f 617//617 657//657 658//658
f 617//617 658//658 618//618
f 618//618 658//658 659//659
f 618//618 659//659 619//619
f 619//619 659//659 660//660
f 619//619 660//660 620//620
f 620//620 660//660 661//661
f 620//620 661//661 621//621
f 621//621 661//661 662//662
f 621//621 662//662 622//622
f 622//622 662//662 663//663
f 622//622 663//663 623//623
f 623//623 663//663 664//664
f 623//623 664//664 624//624
f 624//624 664//664 665//665
f 624//624 665//665 625//625
f 625//625 665//665 666//666
f 625//625 666//666 626//626
f 626//626 666//666 667//667
f 626//626 667//667 627//627
f 627//627 667//667 668//668
f 627//627 668//668 628//628
f 628//628 668//668 669//669
f 628//628 669//669 629//629
f 629//629 669//669 670//670
f 629//629 670//670 630//630
f 630//630 670//670 671//671
f 630//630 671//671 631//631
f 631//631 671//671 672//672
f 631//631 672//672 632//632
f 632//632 672//672 673//673
f 632//632 673//673 633//633
f 633//633 673//673 674//674
f 633//633 674//674 634//634
f 634//634 674//674 675//675
f 634//634 675//675 635//635
f 635//635 675//675 676//676
f 635//635 676//676 636//636
f 636//636 676//676 677//677
f 636//636 677//677 637//637
f 637//637 677//677 678//678
