# Bara Kitchen - metres, +Y up; editable mesh source
mtllib palette.mtl
o mushroom-whole_mushroomFlesh
usemtl mushroomFlesh
v 0.000000 0.000000 0.000000
v 0.000000 0.000000 0.000000
v 0.000000 0.000000 0.000000
v 0.000000 0.000000 0.000000
v 0.000000 0.000000 0.000000
v 0.000000 0.000000 0.000000
v 0.000000 0.000000 0.000000
v 0.000000 0.000000 0.000000
v 0.000000 0.000000 0.000000
v 0.000000 0.000000 0.000000
v 0.000000 0.000000 0.000000
v 0.000000 0.000000 0.000000
v 0.000000 0.000000 0.000000
v 0.000000 0.000000 0.000000
v 0.000000 0.000000 0.000000
v 0.000000 0.000000 0.000000
v 0.000000 0.000000 0.000000
v 0.000000 0.000000 0.000000
v 0.000000 0.000000 0.000000
v 0.000000 0.000000 0.000000
v 0.000000 0.000000 0.000000
v 0.000000 0.000000 0.000000
v 0.000000 0.000000 0.000000
v 0.000000 0.000000 0.000000
v 0.000000 0.000000 0.000000
v 0.000000 0.000000 0.000000
v 0.000000 0.000000 0.000000
v 0.000000 0.000000 0.000000
v 0.000000 0.000000 0.000000
v 0.000000 0.000000 0.000000
v 0.000000 0.000000 0.000000
v 0.000000 0.000000 0.000000
v 0.000000 0.000000 0.000000
v 0.000000 0.000000 0.000000
v 0.000000 0.000000 0.000000
v 0.000000 0.000000 0.000000
v 0.000000 0.000000 0.000000
v 0.000000 0.000000 0.000000
v 0.000000 0.000000 0.000000
v 0.000000 0.000000 0.000000
v 0.000000 0.000000 0.000000
v 0.050000 0.000000 0.000000
v 0.049384 0.000000 0.007822
v 0.047553 0.000000 0.015451
v 0.044550 0.000000 0.022700
v 0.040451 0.000000 0.029389
v 0.035355 0.000000 0.035355
v 0.029389 0.000000 0.040451
v 0.022700 0.000000 0.044550
v 0.015451 0.000000 0.047553
v 0.007822 0.000000 0.049384
v 0.000000 0.000000 0.050000
v -0.007822 0.000000 0.049384
v -0.015451 0.000000 0.047553
v -0.022700 0.000000 0.044550
v -0.029389 0.000000 0.040451
v -0.035355 0.000000 0.035355
v -0.040451 0.000000 0.029389
v -0.044550 0.000000 0.022700
v -0.047553 0.000000 0.015451
v -0.049384 0.000000 0.007822
v -0.050000 0.000000 0.000000
v -0.049384 0.000000 -0.007822
v -0.047553 0.000000 -0.015451
v -0.044550 0.000000 -0.022700
v -0.040451 0.000000 -0.029389
v -0.035355 0.000000 -0.035355
v -0.029389 0.000000 -0.040451
v -0.022700 0.000000 -0.044550
v -0.015451 0.000000 -0.047553
v -0.007822 0.000000 -0.049384
v -0.000000 0.000000 -0.050000
v 0.007822 0.000000 -0.049384
v 0.015451 0.000000 -0.047553
v 0.022700 0.000000 -0.044550
v 0.029389 0.000000 -0.040451
v 0.035355 0.000000 -0.035355
v 0.040451 0.000000 -0.029389
v 0.044550 0.000000 -0.022700
v 0.047553 0.000000 -0.015451
v 0.049384 0.000000 -0.007822
v 0.050000 0.000000 -0.000000
v 0.046000 0.050000 0.000000
v 0.045434 0.050000 0.007196
v 0.043749 0.050000 0.014215
v 0.040986 0.050000 0.020884
v 0.037215 0.050000 0.027038
v 0.032527 0.050000 0.032527
v 0.027038 0.050000 0.037215
v 0.020884 0.050000 0.040986
v 0.014215 0.050000 0.043749
v 0.007196 0.050000 0.045434
v 0.000000 0.050000 0.046000
v -0.007196 0.050000 0.045434
v -0.014215 0.050000 0.043749
v -0.020884 0.050000 0.040986
v -0.027038 0.050000 0.037215
v -0.032527 0.050000 0.032527
v -0.037215 0.050000 0.027038
v -0.040986 0.050000 0.020884
v -0.043749 0.050000 0.014215
v -0.045434 0.050000 0.007196
v -0.046000 0.050000 0.000000
v -0.045434 0.050000 -0.007196
v -0.043749 0.050000 -0.014215
v -0.040986 0.050000 -0.020884
v -0.037215 0.050000 -0.027038
v -0.032527 0.050000 -0.032527
v -0.027038 0.050000 -0.037215
v -0.020884 0.050000 -0.040986
v -0.014215 0.050000 -0.043749
v -0.007196 0.050000 -0.045434
v -0.000000 0.050000 -0.046000
v 0.007196 0.050000 -0.045434
v 0.014215 0.050000 -0.043749
v 0.020884 0.050000 -0.040986
v 0.027038 0.050000 -0.037215
v 0.032527 0.050000 -0.032527
v 0.037215 0.050000 -0.027038
v 0.040986 0.050000 -0.020884
v 0.043749 0.050000 -0.014215
v 0.045434 0.050000 -0.007196
v 0.046000 0.050000 -0.000000
v 0.034000 0.105000 0.000000
v 0.033581 0.105000 0.005319
v 0.032336 0.105000 0.010507
v 0.030294 0.105000 0.015436
v 0.027507 0.105000 0.019985
v 0.024042 0.105000 0.024042
v 0.019985 0.105000 0.027507
v 0.015436 0.105000 0.030294
v 0.010507 0.105000 0.032336
v 0.005319 0.105000 0.033581
v 0.000000 0.105000 0.034000
v -0.005319 0.105000 0.033581
v -0.010507 0.105000 0.032336
v -0.015436 0.105000 0.030294
v -0.019985 0.105000 0.027507
v -0.024042 0.105000 0.024042
v -0.027507 0.105000 0.019985
v -0.030294 0.105000 0.015436
v -0.032336 0.105000 0.010507
v -0.033581 0.105000 0.005319
v -0.034000 0.105000 0.000000
v -0.033581 0.105000 -0.005319
v -0.032336 0.105000 -0.010507
v -0.030294 0.105000 -0.015436
v -0.027507 0.105000 -0.019985
v -0.024042 0.105000 -0.024042
v -0.019985 0.105000 -0.027507
v -0.015436 0.105000 -0.030294
v -0.010507 0.105000 -0.032336
v -0.005319 0.105000 -0.033581
v -0.000000 0.105000 -0.034000
v 0.005319 0.105000 -0.033581
v 0.010507 0.105000 -0.032336
v 0.015436 0.105000 -0.030294
v 0.019985 0.105000 -0.027507
v 0.024042 0.105000 -0.024042
v 0.027507 0.105000 -0.019985
v 0.030294 0.105000 -0.015436
v 0.032336 0.105000 -0.010507
v 0.033581 0.105000 -0.005319
v 0.034000 0.105000 -0.000000
v 0.000000 0.115000 0.000000
v 0.000000 0.115000 0.000000
v 0.000000 0.115000 0.000000
v 0.000000 0.115000 0.000000
v 0.000000 0.115000 0.000000
v 0.000000 0.115000 0.000000
v 0.000000 0.115000 0.000000
v 0.000000 0.115000 0.000000
v 0.000000 0.115000 0.000000
v 0.000000 0.115000 0.000000
v 0.000000 0.115000 0.000000
v 0.000000 0.115000 0.000000
v 0.000000 0.115000 0.000000
v 0.000000 0.115000 0.000000
v 0.000000 0.115000 0.000000
v 0.000000 0.115000 0.000000
v 0.000000 0.115000 0.000000
v 0.000000 0.115000 0.000000
v 0.000000 0.115000 0.000000
v 0.000000 0.115000 0.000000
v 0.000000 0.115000 0.000000
v 0.000000 0.115000 0.000000
v 0.000000 0.115000 0.000000
v 0.000000 0.115000 0.000000
v 0.000000 0.115000 0.000000
v 0.000000 0.115000 0.000000
v 0.000000 0.115000 0.000000
v 0.000000 0.115000 0.000000
v 0.000000 0.115000 0.000000
v 0.000000 0.115000 0.000000
v 0.000000 0.115000 0.000000
v 0.000000 0.115000 0.000000
v 0.000000 0.115000 0.000000
v 0.000000 0.115000 0.000000
v 0.000000 0.115000 0.000000
v 0.000000 0.115000 0.000000
v 0.000000 0.115000 0.000000
v 0.000000 0.115000 0.000000
v 0.000000 0.115000 0.000000
v 0.000000 0.115000 0.000000
v 0.000000 0.115000 0.000000
vn 0.000000 -1.000000 0.000000
vn 0.000000 -1.000000 0.000000
vn 0.000000 -1.000000 0.000000
vn 0.000000 -1.000000 0.000000
vn 0.000000 -1.000000 0.000000
vn 0.000000 -1.000000 0.000000
vn 0.000000 -1.000000 0.000000
vn 0.000000 -1.000000 0.000000
vn 0.000000 -1.000000 0.000000
vn 0.000000 -1.000000 0.000000
vn 0.000000 -1.000000 0.000000
vn 0.000000 -1.000000 0.000000
vn 0.000000 -1.000000 0.000000
vn 0.000000 -1.000000 0.000000
vn 0.000000 -1.000000 0.000000
vn 0.000000 -1.000000 0.000000
vn 0.000000 -1.000000 0.000000
vn 0.000000 -1.000000 0.000000
vn 0.000000 -1.000000 0.000000
vn 0.000000 -1.000000 0.000000
vn 0.000000 -1.000000 0.000000
vn 0.000000 -1.000000 0.000000
vn 0.000000 -1.000000 0.000000
vn 0.000000 -1.000000 0.000000
vn 0.000000 -1.000000 0.000000
vn 0.000000 -1.000000 0.000000
vn 0.000000 -1.000000 0.000000
vn 0.000000 -1.000000 0.000000
vn 0.000000 -1.000000 0.000000
vn 0.000000 -1.000000 0.000000
vn 0.000000 -1.000000 0.000000
vn 0.000000 -1.000000 0.000000
vn 0.000000 -1.000000 0.000000
vn 0.000000 -1.000000 0.000000
vn 0.000000 -1.000000 0.000000
vn 0.000000 -1.000000 0.000000
vn 0.000000 -1.000000 0.000000
vn 0.000000 -1.000000 0.000000
vn 0.000000 -1.000000 0.000000
vn 0.000000 -1.000000 0.000000
vn 0.000000 -1.000000 0.000000
vn 0.855433 -0.517479 -0.021212
vn 0.848220 -0.517479 0.112869
vn 0.820120 -0.517479 0.244170
vn 0.771827 -0.517479 0.369459
vn 0.704528 -0.517479 0.485650
vn 0.619882 -0.517479 0.589884
vn 0.519972 -0.517479 0.679592
vn 0.407258 -0.517479 0.752567
vn 0.284517 -0.517479 0.807011
vn 0.154770 -0.517479 0.841583
vn 0.021212 -0.517479 0.855433
vn -0.112869 -0.517479 0.848220
vn -0.244170 -0.517479 0.820120
vn -0.369459 -0.517479 0.771827
vn -0.485650 -0.517479 0.704528
vn -0.589884 -0.517479 0.619882
vn -0.679592 -0.517479 0.519972
vn -0.752567 -0.517479 0.407258
vn -0.807011 -0.517479 0.284517
vn -0.841583 -0.517479 0.154770
vn -0.855433 -0.517479 0.021212
vn -0.848220 -0.517479 -0.112869
vn -0.820120 -0.517479 -0.244170
vn -0.771827 -0.517479 -0.369459
vn -0.704528 -0.517479 -0.485650
vn -0.619882 -0.517479 -0.589884
vn -0.519972 -0.517479 -0.679592
vn -0.407258 -0.517479 -0.752567
vn -0.284517 -0.517479 -0.807011
vn -0.154770 -0.517479 -0.841583
vn -0.021212 -0.517479 -0.855433
vn 0.112869 -0.517479 -0.848220
vn 0.244170 -0.517479 -0.820120
vn 0.369459 -0.517479 -0.771827
vn 0.485650 -0.517479 -0.704528
vn 0.589884 -0.517479 -0.619882
vn 0.679592 -0.517479 -0.519972
vn 0.752567 -0.517479 -0.407258
vn 0.807011 -0.517479 -0.284517
vn 0.841583 -0.517479 -0.154770
vn 0.855433 -0.517479 -0.021212
vn 0.989182 0.146650 0.003496
vn 0.976457 0.146650 0.158195
vn 0.939688 0.146650 0.308999
vn 0.879781 0.146650 0.452194
vn 0.798211 0.146650 0.584255
vn 0.696986 0.146650 0.701929
vn 0.578599 0.146650 0.802320
vn 0.445965 0.146650 0.882955
vn 0.302349 0.146650 0.941848
vn 0.151289 0.146650 0.977551
vn -0.003496 0.146650 0.989182
vn -0.158195 0.146650 0.976457
vn -0.308999 0.146650 0.939688
vn -0.452194 0.146650 0.879781
vn -0.584255 0.146650 0.798211
vn -0.701929 0.146650 0.696986
vn -0.802320 0.146650 0.578599
vn -0.882955 0.146650 0.445965
vn -0.941848 0.146650 0.302349
vn -0.977551 0.146650 0.151289
vn -0.989182 0.146650 -0.003496
vn -0.976457 0.146650 -0.158195
vn -0.939688 0.146650 -0.308999
vn -0.879781 0.146650 -0.452194
vn -0.798211 0.146650 -0.584255
vn -0.696986 0.146650 -0.701929
vn -0.578599 0.146650 -0.802320
vn -0.445965 0.146650 -0.882955
vn -0.302349 0.146650 -0.941848
vn -0.151289 0.146650 -0.977551
vn 0.003496 0.146650 -0.989182
vn 0.158195 0.146650 -0.976457
vn 0.308999 0.146650 -0.939688
vn 0.452194 0.146650 -0.879781
vn 0.584255 0.146650 -0.798211
vn 0.701929 0.146650 -0.696986
vn 0.802320 0.146650 -0.578599
vn 0.882955 0.146650 -0.445965
vn 0.941848 0.146650 -0.302349
vn 0.977551 0.146650 -0.151289
vn 0.989182 0.146650 0.003496
vn 0.883474 0.467796 0.025311
vn 0.868637 0.467796 0.163205
vn 0.832412 0.467796 0.297081
vn 0.775690 0.467796 0.423641
vn 0.699868 0.467796 0.539770
vn 0.606813 0.467796 0.642608
vn 0.498816 0.467796 0.729623
vn 0.378536 0.467796 0.798672
vn 0.248936 0.467796 0.848055
vn 0.113206 0.467796 0.876556
vn -0.025311 0.467796 0.883474
vn -0.163205 0.467796 0.868637
vn -0.297081 0.467796 0.832412
vn -0.423641 0.467796 0.775690
vn -0.539770 0.467796 0.699868
vn -0.642608 0.467796 0.606813
vn -0.729623 0.467796 0.498816
vn -0.798672 0.467796 0.378536
vn -0.848055 0.467796 0.248936
vn -0.876556 0.467796 0.113206
vn -0.883474 0.467796 -0.025311
vn -0.868637 0.467796 -0.163205
vn -0.832412 0.467796 -0.297081
vn -0.775690 0.467796 -0.423641
vn -0.699868 0.467796 -0.539770
vn -0.606813 0.467796 -0.642608
vn -0.498816 0.467796 -0.729623
vn -0.378536 0.467796 -0.798672
vn -0.248936 0.467796 -0.848055
vn -0.113206 0.467796 -0.876556
vn 0.025311 0.467796 -0.883474
vn 0.163205 0.467796 -0.868637
vn 0.297081 0.467796 -0.832412
vn 0.423641 0.467796 -0.775690
vn 0.539770 0.467796 -0.699868
vn 0.642608 0.467796 -0.606813
vn 0.729623 0.467796 -0.498816
vn 0.798672 0.467796 -0.378536
vn 0.848055 0.467796 -0.248936
vn 0.876556 0.467796 -0.113206
vn 0.883474 0.467796 0.025311
vn -0.000000 1.000000 0.000000
vn -0.000000 1.000000 0.000000
vn -0.000000 1.000000 0.000000
vn -0.000000 1.000000 0.000000
vn -0.000000 1.000000 0.000000
vn -0.000000 1.000000 0.000000
vn -0.000000 1.000000 0.000000
vn -0.000000 1.000000 0.000000
vn -0.000000 1.000000 0.000000
vn -0.000000 1.000000 0.000000
vn -0.000000 1.000000 0.000000
vn -0.000000 1.000000 0.000000
vn -0.000000 1.000000 0.000000
vn -0.000000 1.000000 0.000000
vn -0.000000 1.000000 0.000000
vn -0.000000 1.000000 0.000000
vn -0.000000 1.000000 0.000000
vn -0.000000 1.000000 0.000000
vn -0.000000 1.000000 0.000000
vn -0.000000 1.000000 0.000000
vn -0.000000 1.000000 0.000000
vn -0.000000 1.000000 0.000000
vn -0.000000 1.000000 0.000000
vn -0.000000 1.000000 0.000000
vn -0.000000 1.000000 0.000000
vn -0.000000 1.000000 0.000000
vn -0.000000 1.000000 0.000000
vn -0.000000 1.000000 0.000000
vn -0.000000 1.000000 0.000000
vn -0.000000 1.000000 0.000000
vn -0.000000 1.000000 0.000000
vn -0.000000 1.000000 0.000000
vn -0.000000 1.000000 0.000000
vn -0.000000 1.000000 0.000000
vn -0.000000 1.000000 0.000000
vn -0.000000 1.000000 0.000000
vn -0.000000 1.000000 0.000000
vn -0.000000 1.000000 0.000000
vn -0.000000 1.000000 0.000000
vn -0.000000 1.000000 0.000000
vn -0.000000 1.000000 0.000000
f 1//1 42//42 2//2
f 2//2 42//42 43//43
f 2//2 43//43 3//3
f 3//3 43//43 44//44
f 3//3 44//44 4//4
f 4//4 44//44 45//45
f 4//4 45//45 5//5
f 5//5 45//45 46//46
f 5//5 46//46 6//6
f 6//6 46//46 47//47
f 6//6 47//47 7//7
f 7//7 47//47 48//48
f 7//7 48//48 8//8
f 8//8 48//48 49//49
f 8//8 49//49 9//9
f 9//9 49//49 50//50
f 9//9 50//50 10//10
f 10//10 50//50 51//51
f 10//10 51//51 11//11
f 11//11 51//51 52//52
f 11//11 52//52 12//12
f 12//12 52//52 53//53
f 12//12 53//53 13//13
f 13//13 53//53 54//54
f 13//13 54//54 14//14
f 14//14 54//54 55//55
f 14//14 55//55 15//15
f 15//15 55//55 56//56
f 15//15 56//56 16//16
f 16//16 56//56 57//57
f 16//16 57//57 17//17
f 17//17 57//57 58//58
f 17//17 58//58 18//18
f 18//18 58//58 59//59
f 18//18 59//59 19//19
f 19//19 59//59 60//60
f 19//19 60//60 20//20
f 20//20 60//60 61//61
f 20//20 61//61 21//21
f 21//21 61//61 62//62
f 21//21 62//62 22//22
f 22//22 62//62 63//63
f 22//22 63//63 23//23
f 23//23 63//63 64//64
f 23//23 64//64 24//24
f 24//24 64//64 65//65
f 24//24 65//65 25//25
f 25//25 65//65 66//66
f 25//25 66//66 26//26
f 26//26 66//66 67//67
f 26//26 67//67 27//27
f 27//27 67//67 68//68
f 27//27 68//68 28//28
f 28//28 68//68 69//69
f 28//28 69//69 29//29
f 29//29 69//69 70//70
f 29//29 70//70 30//30
f 30//30 70//70 71//71
f 30//30 71//71 31//31
f 31//31 71//71 72//72
f 31//31 72//72 32//32
f 32//32 72//72 73//73
f 32//32 73//73 33//33
f 33//33 73//73 74//74
f 33//33 74//74 34//34
f 34//34 74//74 75//75
f 34//34 75//75 35//35
f 35//35 75//75 76//76
f 35//35 76//76 36//36
f 36//36 76//76 77//77
f 36//36 77//77 37//37
f 37//37 77//77 78//78
f 37//37 78//78 38//38
f 38//38 78//78 79//79
f 38//38 79//79 39//39
f 39//39 79//79 80//80
f 39//39 80//80 40//40
f 40//40 80//80 81//81
f 40//40 81//81 41//41
f 41//41 81//81 82//82
f 42//42 83//83 43//43
f 43//43 83//83 84//84
f 43//43 84//84 44//44
f 44//44 84//84 85//85
f 44//44 85//85 45//45
f 45//45 85//85 86//86
f 45//45 86//86 46//46
f 46//46 86//86 87//87
f 46//46 87//87 47//47
f 47//47 87//87 88//88
f 47//47 88//88 48//48
f 48//48 88//88 89//89
f 48//48 89//89 49//49
f 49//49 89//89 90//90
f 49//49 90//90 50//50
f 50//50 90//90 91//91
f 50//50 91//91 51//51
f 51//51 91//91 92//92
f 51//51 92//92 52//52
f 52//52 92//92 93//93
f 52//52 93//93 53//53
f 53//53 93//93 94//94
f 53//53 94//94 54//54
f 54//54 94//94 95//95
f 54//54 95//95 55//55
f 55//55 95//95 96//96
f 55//55 96//96 56//56
f 56//56 96//96 97//97
f 56//56 97//97 57//57
f 57//57 97//97 98//98
f 57//57 98//98 58//58
f 58//58 98//98 99//99
f 58//58 99//99 59//59
f 59//59 99//99 100//100
f 59//59 100//100 60//60
f 60//60 100//100 101//101
f 60//60 101//101 61//61
f 61//61 101//101 102//102
f 61//61 102//102 62//62
f 62//62 102//102 103//103
f 62//62 103//103 63//63
f 63//63 103//103 104//104
f 63//63 104//104 64//64
f 64//64 104//104 105//105
f 64//64 105//105 65//65
f 65//65 105//105 106//106
f 65//65 106//106 66//66
f 66//66 106//106 107//107
f 66//66 107//107 67//67
f 67//67 107//107 108//108
f 67//67 108//108 68//68
f 68//68 108//108 109//109
f 68//68 109//109 69//69
f 69//69 109//109 110//110
f 69//69 110//110 70//70
f 70//70 110//110 111//111
f 70//70 111//111 71//71
f 71//71 111//111 112//112
f 71//71 112//112 72//72
f 72//72 112//112 113//113
f 72//72 113//113 73//73
f 73//73 113//113 114//114
f 73//73 114//114 74//74
f 74//74 114//114 115//115
f 74//74 115//115 75//75
f 75//75 115//115 116//116
f 75//75 116//116 76//76
f 76//76 116//116 117//117
f 76//76 117//117 77//77
f 77//77 117//117 118//118
f 77//77 118//118 78//78
f 78//78 118//118 119//119
f 78//78 119//119 79//79
f 79//79 119//119 120//120
f 79//79 120//120 80//80
f 80//80 120//120 121//121
f 80//80 121//121 81//81
f 81//81 121//121 122//122
f 81//81 122//122 82//82
f 82//82 122//122 123//123
f 83//83 124//124 84//84
f 84//84 124//124 125//125
f 84//84 125//125 85//85
f 85//85 125//125 126//126
f 85//85 126//126 86//86
f 86//86 126//126 127//127
f 86//86 127//127 87//87
f 87//87 127//127 128//128
f 87//87 128//128 88//88
f 88//88 128//128 129//129
f 88//88 129//129 89//89
f 89//89 129//129 130//130
f 89//89 130//130 90//90
f 90//90 130//130 131//131
f 90//90 131//131 91//91
f 91//91 131//131 132//132
f 91//91 132//132 92//92
f 92//92 132//132 133//133
f 92//92 133//133 93//93
f 93//93 133//133 134//134
f 93//93 134//134 94//94
f 94//94 134//134 135//135
f 94//94 135//135 95//95
f 95//95 135//135 136//136
f 95//95 136//136 96//96
f 96//96 136//136 137//137
f 96//96 137//137 97//97
f 97//97 137//137 138//138
f 97//97 138//138 98//98
f 98//98 138//138 139//139
f 98//98 139//139 99//99
f 99//99 139//139 140//140
f 99//99 140//140 100//100
f 100//100 140//140 141//141
f 100//100 141//141 101//101
f 101//101 141//141 142//142
f 101//101 142//142 102//102
f 102//102 142//142 143//143
f 102//102 143//143 103//103
f 103//103 143//143 144//144
f 103//103 144//144 104//104
f 104//104 144//144 145//145
f 104//104 145//145 105//105
f 105//105 145//145 146//146
f 105//105 146//146 106//106
f 106//106 146//146 147//147
f 106//106 147//147 107//107
f 107//107 147//147 148//148
f 107//107 148//148 108//108
f 108//108 148//148 149//149
f 108//108 149//149 109//109
f 109//109 149//149 150//150
f 109//109 150//150 110//110
f 110//110 150//150 151//151
f 110//110 151//151 111//111
f 111//111 151//151 152//152
f 111//111 152//152 112//112
f 112//112 152//152 153//153
f 112//112 153//153 113//113
f 113//113 153//153 154//154
f 113//113 154//154 114//114
f 114//114 154//154 155//155
f 114//114 155//155 115//115
f 115//115 155//155 156//156
f 115//115 156//156 116//116
f 116//116 156//156 157//157
f 116//116 157//157 117//117
f 117//117 157//157 158//158
f 117//117 158//158 118//118
f 118//118 158//158 159//159
f 118//118 159//159 119//119
f 119//119 159//159 160//160
f 119//119 160//160 120//120
f 120//120 160//160 161//161
f 120//120 161//161 121//121
f 121//121 161//161 162//162
f 121//121 162//162 122//122
f 122//122 162//162 163//163
f 122//122 163//163 123//123
f 123//123 163//163 164//164
f 124//124 165//165 125//125
f 125//125 165//165 166//166
f 125//125 166//166 126//126
f 126//126 166//166 167//167
f 126//126 167//167 127//127
f 127//127 167//167 168//168
f 127//127 168//168 128//128
f 128//128 168//168 169//169
f 128//128 169//169 129//129
f 129//129 169//169 170//170
f 129//129 170//170 130//130
f 130//130 170//170 171//171
f 130//130 171//171 131//131
f 131//131 171//171 172//172
f 131//131 172//172 132//132
f 132//132 172//172 173//173
f 132//132 173//173 133//133
f 133//133 173//173 174//174
f 133//133 174//174 134//134
f 134//134 174//174 175//175
f 134//134 175//175 135//135
f 135//135 175//175 176//176
f 135//135 176//176 136//136
f 136//136 176//176 177//177
f 136//136 177//177 137//137
f 137//137 177//177 178//178
f 137//137 178//178 138//138
f 138//138 178//178 179//179
f 138//138 179//179 139//139
f 139//139 179//179 180//180
f 139//139 180//180 140//140
f 140//140 180//180 181//181
f 140//140 181//181 141//141
f 141//141 181//181 182//182
f 141//141 182//182 142//142
f 142//142 182//182 183//183
f 142//142 183//183 143//143
f 143//143 183//183 184//184
f 143//143 184//184 144//144
f 144//144 184//184 185//185
f 144//144 185//185 145//145
f 145//145 185//185 186//186
f 145//145 186//186 146//146
f 146//146 186//186 187//187
f 146//146 187//187 147//147
f 147//147 187//187 188//188
f 147//147 188//188 148//148
f 148//148 188//188 189//189
f 148//148 189//189 149//149
f 149//149 189//189 190//190
f 149//149 190//190 150//150
f 150//150 190//190 191//191
f 150//150 191//191 151//151
f 151//151 191//191 192//192
f 151//151 192//192 152//152
f 152//152 192//192 193//193
f 152//152 193//193 153//153
f 153//153 193//193 194//194
f 153//153 194//194 154//154
f 154//154 194//194 195//195
f 154//154 195//195 155//155
f 155//155 195//195 196//196
f 155//155 196//196 156//156
f 156//156 196//196 197//197
f 156//156 197//197 157//157
f 157//157 197//197 198//198
f 157//157 198//198 158//158
f 158//158 198//198 199//199
f 158//158 199//199 159//159
f 159//159 199//199 200//200
f 159//159 200//200 160//160
f 160//160 200//200 201//201
f 160//160 201//201 161//161
f 161//161 201//201 202//202
f 161//161 202//202 162//162
f 162//162 202//202 203//203
f 162//162 203//203 163//163
f 163//163 203//203 204//204
f 163//163 204//204 164//164
f 164//164 204//204 205//205
o mushroom-whole_mushroom
usemtl mushroom
v 0.000000 0.105000 0.000000
v 0.000000 0.105000 0.000000
v 0.000000 0.105000 0.000000
v 0.000000 0.105000 0.000000
v 0.000000 0.105000 0.000000
v 0.000000 0.105000 0.000000
v 0.000000 0.105000 0.000000
v 0.000000 0.105000 0.000000
v 0.000000 0.105000 0.000000
v 0.000000 0.105000 0.000000
v 0.000000 0.105000 0.000000
v 0.000000 0.105000 0.000000
v 0.000000 0.105000 0.000000
v 0.000000 0.105000 0.000000
v 0.000000 0.105000 0.000000
v 0.000000 0.105000 0.000000
v 0.000000 0.105000 0.000000
v 0.000000 0.105000 0.000000
v 0.000000 0.105000 0.000000
v 0.000000 0.105000 0.000000
v 0.000000 0.105000 0.000000
v 0.000000 0.105000 0.000000
v 0.000000 0.105000 0.000000
v 0.000000 0.105000 0.000000
v 0.000000 0.105000 0.000000
v 0.000000 0.105000 0.000000
v 0.000000 0.105000 0.000000
v 0.000000 0.105000 0.000000
v 0.000000 0.105000 0.000000
v 0.000000 0.105000 0.000000
v 0.000000 0.105000 0.000000
v 0.000000 0.105000 0.000000
v 0.000000 0.105000 0.000000
v 0.000000 0.105000 0.000000
v 0.000000 0.105000 0.000000
v 0.000000 0.105000 0.000000
v 0.000000 0.105000 0.000000
v 0.000000 0.105000 0.000000
v 0.000000 0.105000 0.000000
v 0.000000 0.105000 0.000000
v 0.000000 0.105000 0.000000
v 0.103000 0.105000 0.000000
v 0.101732 0.105000 0.016113
v 0.097959 0.105000 0.031829
v 0.091774 0.105000 0.046761
v 0.083329 0.105000 0.060542
v 0.072832 0.105000 0.072832
v 0.060542 0.105000 0.083329
v 0.046761 0.105000 0.091774
v 0.031829 0.105000 0.097959
v 0.016113 0.105000 0.101732
v 0.000000 0.105000 0.103000
v -0.016113 0.105000 0.101732
v -0.031829 0.105000 0.097959
v -0.046761 0.105000 0.091774
v -0.060542 0.105000 0.083329
v -0.072832 0.105000 0.072832
v -0.083329 0.105000 0.060542
v -0.091774 0.105000 0.046761
v -0.097959 0.105000 0.031829
v -0.101732 0.105000 0.016113
v -0.103000 0.105000 0.000000
v -0.101732 0.105000 -0.016113
v -0.097959 0.105000 -0.031829
v -0.091774 0.105000 -0.046761
v -0.083329 0.105000 -0.060542
v -0.072832 0.105000 -0.072832
v -0.060542 0.105000 -0.083329
v -0.046761 0.105000 -0.091774
v -0.031829 0.105000 -0.097959
v -0.016113 0.105000 -0.101732
v -0.000000 0.105000 -0.103000
v 0.016113 0.105000 -0.101732
v 0.031829 0.105000 -0.097959
v 0.046761 0.105000 -0.091774
v 0.060542 0.105000 -0.083329
v 0.072832 0.105000 -0.072832
v 0.083329 0.105000 -0.060542
v 0.091774 0.105000 -0.046761
v 0.097959 0.105000 -0.031829
v 0.101732 0.105000 -0.016113
v 0.103000 0.105000 -0.000000
v 0.115000 0.125000 0.000000
v 0.113584 0.125000 0.017990
v 0.109371 0.125000 0.035537
v 0.102466 0.125000 0.052209
v 0.093037 0.125000 0.067595
v 0.081317 0.125000 0.081317
v 0.067595 0.125000 0.093037
v 0.052209 0.125000 0.102466
v 0.035537 0.125000 0.109371
v 0.017990 0.125000 0.113584
v 0.000000 0.125000 0.115000
v -0.017990 0.125000 0.113584
v -0.035537 0.125000 0.109371
v -0.052209 0.125000 0.102466
v -0.067595 0.125000 0.093037
v -0.081317 0.125000 0.081317
v -0.093037 0.125000 0.067595
v -0.102466 0.125000 0.052209
v -0.109371 0.125000 0.035537
v -0.113584 0.125000 0.017990
v -0.115000 0.125000 0.000000
v -0.113584 0.125000 -0.017990
v -0.109371 0.125000 -0.035537
v -0.102466 0.125000 -0.052209
v -0.093037 0.125000 -0.067595
v -0.081317 0.125000 -0.081317
v -0.067595 0.125000 -0.093037
v -0.052209 0.125000 -0.102466
v -0.035537 0.125000 -0.109371
v -0.017990 0.125000 -0.113584
v -0.000000 0.125000 -0.115000
v 0.017990 0.125000 -0.113584
v 0.035537 0.125000 -0.109371
v 0.052209 0.125000 -0.102466
v 0.067595 0.125000 -0.093037
v 0.081317 0.125000 -0.081317
v 0.093037 0.125000 -0.067595
v 0.102466 0.125000 -0.052209
v 0.109371 0.125000 -0.035537
v 0.113584 0.125000 -0.017990
v 0.115000 0.125000 -0.000000
v 0.102000 0.173000 0.000000
v 0.100744 0.173000 0.015956
v 0.097008 0.173000 0.031520
v 0.090883 0.173000 0.046307
v 0.082520 0.173000 0.059954
v 0.072125 0.173000 0.072125
v 0.059954 0.173000 0.082520
v 0.046307 0.173000 0.090883
v 0.031520 0.173000 0.097008
v 0.015956 0.173000 0.100744
v 0.000000 0.173000 0.102000
v -0.015956 0.173000 0.100744
v -0.031520 0.173000 0.097008
v -0.046307 0.173000 0.090883
v -0.059954 0.173000 0.082520
v -0.072125 0.173000 0.072125
v -0.082520 0.173000 0.059954
v -0.090883 0.173000 0.046307
v -0.097008 0.173000 0.031520
v -0.100744 0.173000 0.015956
v -0.102000 0.173000 0.000000
v -0.100744 0.173000 -0.015956
v -0.097008 0.173000 -0.031520
v -0.090883 0.173000 -0.046307
v -0.082520 0.173000 -0.059954
v -0.072125 0.173000 -0.072125
v -0.059954 0.173000 -0.082520
v -0.046307 0.173000 -0.090883
v -0.031520 0.173000 -0.097008
v -0.015956 0.173000 -0.100744
v -0.000000 0.173000 -0.102000
v 0.015956 0.173000 -0.100744
v 0.031520 0.173000 -0.097008
v 0.046307 0.173000 -0.090883
v 0.059954 0.173000 -0.082520
v 0.072125 0.173000 -0.072125
v 0.082520 0.173000 -0.059954
v 0.090883 0.173000 -0.046307
v 0.097008 0.173000 -0.031520
v 0.100744 0.173000 -0.015956
v 0.102000 0.173000 -0.000000
v 0.064000 0.208000 0.000000
v 0.063212 0.208000 0.010012
v 0.060868 0.208000 0.019777
v 0.057024 0.208000 0.029055
v 0.051777 0.208000 0.037618
v 0.045255 0.208000 0.045255
v 0.037618 0.208000 0.051777
v 0.029055 0.208000 0.057024
v 0.019777 0.208000 0.060868
v 0.010012 0.208000 0.063212
v 0.000000 0.208000 0.064000
v -0.010012 0.208000 0.063212
v -0.019777 0.208000 0.060868
v -0.029055 0.208000 0.057024
v -0.037618 0.208000 0.051777
v -0.045255 0.208000 0.045255
v -0.051777 0.208000 0.037618
v -0.057024 0.208000 0.029055
v -0.060868 0.208000 0.019777
v -0.063212 0.208000 0.010012
v -0.064000 0.208000 0.000000
v -0.063212 0.208000 -0.010012
v -0.060868 0.208000 -0.019777
v -0.057024 0.208000 -0.029055
v -0.051777 0.208000 -0.037618
v -0.045255 0.208000 -0.045255
v -0.037618 0.208000 -0.051777
v -0.029055 0.208000 -0.057024
v -0.019777 0.208000 -0.060868
v -0.010012 0.208000 -0.063212
v -0.000000 0.208000 -0.064000
v 0.010012 0.208000 -0.063212
v 0.019777 0.208000 -0.060868
v 0.029055 0.208000 -0.057024
v 0.037618 0.208000 -0.051777
v 0.045255 0.208000 -0.045255
v 0.051777 0.208000 -0.037618
v 0.057024 0.208000 -0.029055
v 0.060868 0.208000 -0.019777
v 0.063212 0.208000 -0.010012
v 0.064000 0.208000 -0.000000
v 0.000000 0.220000 0.000000
v 0.000000 0.220000 0.000000
v 0.000000 0.220000 0.000000
v 0.000000 0.220000 0.000000
v 0.000000 0.220000 0.000000
v 0.000000 0.220000 0.000000
v 0.000000 0.220000 0.000000
v 0.000000 0.220000 0.000000
v 0.000000 0.220000 0.000000
v 0.000000 0.220000 0.000000
v 0.000000 0.220000 0.000000
v 0.000000 0.220000 0.000000
v 0.000000 0.220000 0.000000
v 0.000000 0.220000 0.000000
v 0.000000 0.220000 0.000000
v 0.000000 0.220000 0.000000
v 0.000000 0.220000 0.000000
v 0.000000 0.220000 0.000000
v 0.000000 0.220000 0.000000
v 0.000000 0.220000 0.000000
v 0.000000 0.220000 0.000000
v 0.000000 0.220000 0.000000
v 0.000000 0.220000 0.000000
v 0.000000 0.220000 0.000000
v 0.000000 0.220000 0.000000
v 0.000000 0.220000 0.000000
v 0.000000 0.220000 0.000000
v 0.000000 0.220000 0.000000
v 0.000000 0.220000 0.000000
v 0.000000 0.220000 0.000000
v 0.000000 0.220000 0.000000
v 0.000000 0.220000 0.000000
v 0.000000 0.220000 0.000000
v 0.000000 0.220000 0.000000
v 0.000000 0.220000 0.000000
v 0.000000 0.220000 0.000000
v 0.000000 0.220000 0.000000
v 0.000000 0.220000 0.000000
v 0.000000 0.220000 0.000000
v 0.000000 0.220000 0.000000
v 0.000000 0.220000 0.000000
vn 0.000000 -1.000000 0.000000
vn 0.000000 -1.000000 0.000000
vn 0.000000 -1.000000 0.000000
vn 0.000000 -1.000000 0.000000
vn 0.000000 -1.000000 0.000000
vn 0.000000 -1.000000 0.000000
vn 0.000000 -1.000000 0.000000
vn 0.000000 -1.000000 0.000000
vn 0.000000 -1.000000 0.000000
vn 0.000000 -1.000000 0.000000
vn 0.000000 -1.000000 0.000000
vn 0.000000 -1.000000 0.000000
vn 0.000000 -1.000000 0.000000
vn 0.000000 -1.000000 0.000000
vn 0.000000 -1.000000 0.000000
vn 0.000000 -1.000000 0.000000
vn 0.000000 -1.000000 0.000000
vn 0.000000 -1.000000 0.000000
vn 0.000000 -1.000000 0.000000
vn 0.000000 -1.000000 0.000000
vn 0.000000 -1.000000 0.000000
vn 0.000000 -1.000000 0.000000
vn 0.000000 -1.000000 0.000000
vn 0.000000 -1.000000 0.000000
vn 0.000000 -1.000000 0.000000
vn 0.000000 -1.000000 0.000000
vn 0.000000 -1.000000 0.000000
vn 0.000000 -1.000000 0.000000
vn 0.000000 -1.000000 0.000000
vn 0.000000 -1.000000 0.000000
vn 0.000000 -1.000000 0.000000
vn 0.000000 -1.000000 0.000000
vn 0.000000 -1.000000 0.000000
vn 0.000000 -1.000000 0.000000
vn 0.000000 -1.000000 0.000000
vn 0.000000 -1.000000 0.000000
vn 0.000000 -1.000000 0.000000
vn 0.000000 -1.000000 0.000000
vn 0.000000 -1.000000 0.000000
vn 0.000000 -1.000000 0.000000
vn 0.000000 -1.000000 0.000000
vn 0.248072 -0.968716 -0.006994
vn 0.246112 -0.968716 0.031899
vn 0.238092 -0.968716 0.070006
vn 0.224209 -0.968716 0.106390
vn 0.204806 -0.968716 0.140154
vn 0.180359 -0.968716 0.170467
vn 0.151472 -0.968716 0.196583
vn 0.118854 -0.968716 0.217858
vn 0.083311 -0.968716 0.233769
vn 0.045715 -0.968716 0.243923
vn 0.006994 -0.968716 0.248072
vn -0.031899 -0.968716 0.246112
vn -0.070006 -0.968716 0.238092
vn -0.106390 -0.968716 0.224209
vn -0.140154 -0.968716 0.204806
vn -0.170467 -0.968716 0.180359
vn -0.196583 -0.968716 0.151472
vn -0.217858 -0.968716 0.118854
vn -0.233769 -0.968716 0.083311
vn -0.243923 -0.968716 0.045715
vn -0.248072 -0.968716 0.006994
vn -0.246112 -0.968716 -0.031899
vn -0.238092 -0.968716 -0.070006
vn -0.224209 -0.968716 -0.106390
vn -0.204806 -0.968716 -0.140154
vn -0.180359 -0.968716 -0.170467
vn -0.151472 -0.968716 -0.196583
vn -0.118854 -0.968716 -0.217858
vn -0.083311 -0.968716 -0.233769
vn -0.045715 -0.968716 -0.243923
vn -0.006994 -0.968716 -0.248072
vn 0.031899 -0.968716 -0.246112
vn 0.070006 -0.968716 -0.238092
vn 0.106390 -0.968716 -0.224209
vn 0.140154 -0.968716 -0.204806
vn 0.170467 -0.968716 -0.180359
vn 0.196583 -0.968716 -0.151472
vn 0.217858 -0.968716 -0.118854
vn 0.233769 -0.968716 -0.083311
vn 0.243923 -0.968716 -0.045715
vn 0.248072 -0.968716 -0.006994
vn 0.999851 0.014160 -0.009876
vn 0.989086 0.014160 0.146656
vn 0.953967 0.014160 0.299578
vn 0.895357 0.014160 0.445123
vn 0.814702 0.014160 0.579708
vn 0.713985 0.014160 0.700018
vn 0.595688 0.014160 0.803091
vn 0.462723 0.014160 0.886390
vn 0.318364 0.014160 0.947863
vn 0.166166 0.014160 0.985996
vn 0.009876 0.014160 0.999851
vn -0.146656 0.014160 0.989086
vn -0.299578 0.014160 0.953967
vn -0.445123 0.014160 0.895357
vn -0.579708 0.014160 0.814702
vn -0.700018 0.014160 0.713985
vn -0.803091 0.014160 0.595688
vn -0.886390 0.014160 0.462723
vn -0.947863 0.014160 0.318364
vn -0.985996 0.014160 0.166166
vn -0.999851 0.014160 0.009876
vn -0.989086 0.014160 -0.146656
vn -0.953967 0.014160 -0.299578
vn -0.895357 0.014160 -0.445123
vn -0.814702 0.014160 -0.579708
vn -0.713985 0.014160 -0.700018
vn -0.595688 0.014160 -0.803091
vn -0.462723 0.014160 -0.886390
vn -0.318364 0.014160 -0.947863
vn -0.166166 0.014160 -0.985996
vn -0.009876 0.014160 -0.999851
vn 0.146656 0.014160 -0.989086
vn 0.299578 0.014160 -0.953967
vn 0.445123 0.014160 -0.895357
vn 0.579708 0.014160 -0.814702
vn 0.700018 0.014160 -0.713985
vn 0.803091 0.014160 -0.595688
vn 0.886390 0.014160 -0.462723
vn 0.947863 0.014160 -0.318364
vn 0.985996 0.014160 -0.166166
vn 0.999851 0.014160 -0.009876
vn 0.864849 0.501950 0.009042
vn 0.852787 0.501950 0.144222
vn 0.819727 0.501950 0.275852
vn 0.766482 0.501950 0.400689
vn 0.694363 0.501950 0.515660
vn 0.605147 0.501950 0.617934
vn 0.501031 0.501950 0.704992
vn 0.384577 0.501950 0.774691
vn 0.258654 0.501950 0.825315
vn 0.126362 0.501950 0.855616
vn -0.009042 0.501950 0.864849
vn -0.144222 0.501950 0.852787
vn -0.275852 0.501950 0.819727
vn -0.400689 0.501950 0.766482
vn -0.515660 0.501950 0.694363
vn -0.617934 0.501950 0.605147
vn -0.704992 0.501950 0.501031
vn -0.774691 0.501950 0.384577
vn -0.825315 0.501950 0.258654
vn -0.855616 0.501950 0.126362
vn -0.864849 0.501950 -0.009042
vn -0.852787 0.501950 -0.144222
vn -0.819727 0.501950 -0.275852
vn -0.766482 0.501950 -0.400689
vn -0.694363 0.501950 -0.515660
vn -0.605147 0.501950 -0.617934
vn -0.501031 0.501950 -0.704992
vn -0.384577 0.501950 -0.774691
vn -0.258654 0.501950 -0.825315
vn -0.126362 0.501950 -0.855616
vn 0.009042 0.501950 -0.864849
vn 0.144222 0.501950 -0.852787
vn 0.275852 0.501950 -0.819727
vn 0.400689 0.501950 -0.766482
vn 0.515660 0.501950 -0.694363
vn 0.617934 0.501950 -0.605147
vn 0.704992 0.501950 -0.501031
vn 0.774691 0.501950 -0.384577
vn 0.825315 0.501950 -0.258654
vn 0.855616 0.501950 -0.126362
vn 0.864849 0.501950 0.009042
vn 0.492619 0.870125 0.014439
vn 0.484295 0.870125 0.091323
vn 0.464047 0.870125 0.165960
vn 0.432372 0.870125 0.236509
vn 0.390050 0.870125 0.301235
vn 0.338124 0.870125 0.358544
vn 0.277873 0.870125 0.407024
vn 0.210779 0.870125 0.445482
vn 0.138496 0.870125 0.472970
vn 0.062802 0.870125 0.488813
vn -0.014439 0.870125 0.492619
vn -0.091323 0.870125 0.484295
vn -0.165960 0.870125 0.464047
vn -0.236509 0.870125 0.432372
vn -0.301235 0.870125 0.390050
vn -0.358544 0.870125 0.338124
vn -0.407024 0.870125 0.277873
vn -0.445482 0.870125 0.210779
vn -0.472970 0.870125 0.138496
vn -0.488813 0.870125 0.062802
vn -0.492619 0.870125 -0.014439
vn -0.484295 0.870125 -0.091323
vn -0.464047 0.870125 -0.165960
vn -0.432372 0.870125 -0.236509
vn -0.390050 0.870125 -0.301235
vn -0.338124 0.870125 -0.358544
vn -0.277873 0.870125 -0.407024
vn -0.210779 0.870125 -0.445482
vn -0.138496 0.870125 -0.472970
vn -0.062802 0.870125 -0.488813
vn 0.014439 0.870125 -0.492619
vn 0.091323 0.870125 -0.484295
vn 0.165960 0.870125 -0.464047
vn 0.236509 0.870125 -0.432372
vn 0.301235 0.870125 -0.390050
vn 0.358544 0.870125 -0.338124
vn 0.407024 0.870125 -0.277873
vn 0.445482 0.870125 -0.210779
vn 0.472970 0.870125 -0.138496
vn 0.488813 0.870125 -0.062802
vn 0.492619 0.870125 0.014439
vn -0.000000 1.000000 -0.000000
vn -0.000000 1.000000 -0.000000
vn -0.000000 1.000000 -0.000000
vn -0.000000 1.000000 -0.000000
vn -0.000000 1.000000 -0.000000
vn -0.000000 1.000000 -0.000000
vn -0.000000 1.000000 -0.000000
vn -0.000000 1.000000 -0.000000
vn -0.000000 1.000000 -0.000000
vn -0.000000 1.000000 -0.000000
vn -0.000000 1.000000 -0.000000
vn -0.000000 1.000000 -0.000000
vn -0.000000 1.000000 -0.000000
vn -0.000000 1.000000 -0.000000
vn -0.000000 1.000000 -0.000000
vn -0.000000 1.000000 -0.000000
vn -0.000000 1.000000 -0.000000
vn -0.000000 1.000000 -0.000000
vn -0.000000 1.000000 -0.000000
vn -0.000000 1.000000 -0.000000
vn -0.000000 1.000000 -0.000000
vn -0.000000 1.000000 -0.000000
vn -0.000000 1.000000 -0.000000
vn -0.000000 1.000000 -0.000000
vn -0.000000 1.000000 -0.000000
vn -0.000000 1.000000 -0.000000
vn -0.000000 1.000000 -0.000000
vn -0.000000 1.000000 -0.000000
vn -0.000000 1.000000 -0.000000
vn -0.000000 1.000000 -0.000000
vn -0.000000 1.000000 -0.000000
vn -0.000000 1.000000 -0.000000
vn -0.000000 1.000000 -0.000000
vn -0.000000 1.000000 -0.000000
vn -0.000000 1.000000 -0.000000
vn -0.000000 1.000000 -0.000000
vn -0.000000 1.000000 -0.000000
vn -0.000000 1.000000 -0.000000
vn -0.000000 1.000000 -0.000000
vn -0.000000 1.000000 -0.000000
vn -0.000000 1.000000 -0.000000
f 206//206 247//247 207//207
f 207//207 247//247 248//248
f 207//207 248//248 208//208
f 208//208 248//248 249//249
f 208//208 249//249 209//209
f 209//209 249//249 250//250
f 209//209 250//250 210//210
f 210//210 250//250 251//251
f 210//210 251//251 211//211
f 211//211 251//251 252//252
f 211//211 252//252 212//212
f 212//212 252//252 253//253
f 212//212 253//253 213//213
f 213//213 253//253 254//254
f 213//213 254//254 214//214
f 214//214 254//254 255//255
f 214//214 255//255 215//215
f 215//215 255//255 256//256
f 215//215 256//256 216//216
f 216//216 256//256 257//257
f 216//216 257//257 217//217
f 217//217 257//257 258//258
f 217//217 258//258 218//218
f 218//218 258//258 259//259
f 218//218 259//259 219//219
f 219//219 259//259 260//260
f 219//219 260//260 220//220
f 220//220 260//260 261//261
f 220//220 261//261 221//221
f 221//221 261//261 262//262
f 221//221 262//262 222//222
f 222//222 262//262 263//263
f 222//222 263//263 223//223
f 223//223 263//263 264//264
f 223//223 264//264 224//224
f 224//224 264//264 265//265
f 224//224 265//265 225//225
f 225//225 265//265 266//266
f 225//225 266//266 226//226
f 226//226 266//266 267//267
f 226//226 267//267 227//227
f 227//227 267//267 268//268
f 227//227 268//268 228//228
f 228//228 268//268 269//269
f 228//228 269//269 229//229
f 229//229 269//269 270//270
f 229//229 270//270 230//230
f 230//230 270//270 271//271
f 230//230 271//271 231//231
f 231//231 271//271 272//272
f 231//231 272//272 232//232
f 232//232 272//272 273//273
f 232//232 273//273 233//233
f 233//233 273//273 274//274
f 233//233 274//274 234//234
f 234//234 274//274 275//275
f 234//234 275//275 235//235
f 235//235 275//275 276//276
f 235//235 276//276 236//236
f 236//236 276//276 277//277
f 236//236 277//277 237//237
f 237//237 277//277 278//278
f 237//237 278//278 238//238
f 238//238 278//278 279//279
f 238//238 279//279 239//239
f 239//239 279//279 280//280
f 239//239 280//280 240//240
f 240//240 280//280 281//281
f 240//240 281//281 241//241
f 241//241 281//281 282//282
f 241//241 282//282 242//242
f 242//242 282//282 283//283
f 242//242 283//283 243//243
f 243//243 283//283 284//284
f 243//243 284//284 244//244
f 244//244 284//284 285//285
f 244//244 285//285 245//245
f 245//245 285//285 286//286
f 245//245 286//286 246//246
f 246//246 286//286 287//287
f 247//247 288//288 248//248
f 248//248 288//288 289//289
f 248//248 289//289 249//249
f 249//249 289//289 290//290
f 249//249 290//290 250//250
f 250//250 290//290 291//291
f 250//250 291//291 251//251
f 251//251 291//291 292//292
f 251//251 292//292 252//252
f 252//252 292//292 293//293
f 252//252 293//293 253//253
f 253//253 293//293 294//294
f 253//253 294//294 254//254
f 254//254 294//294 295//295
f 254//254 295//295 255//255
f 255//255 295//295 296//296
f 255//255 296//296 256//256
f 256//256 296//296 297//297
f 256//256 297//297 257//257
f 257//257 297//297 298//298
f 257//257 298//298 258//258
f 258//258 298//298 299//299
f 258//258 299//299 259//259
f 259//259 299//299 300//300
f 259//259 300//300 260//260
f 260//260 300//300 301//301
f 260//260 301//301 261//261
f 261//261 301//301 302//302
f 261//261 302//302 262//262
f 262//262 302//302 303//303
f 262//262 303//303 263//263
f 263//263 303//303 304//304
f 263//263 304//304 264//264
f 264//264 304//304 305//305
f 264//264 305//305 265//265
f 265//265 305//305 306//306
f 265//265 306//306 266//266
f 266//266 306//306 307//307
f 266//266 307//307 267//267
f 267//267 307//307 308//308
f 267//267 308//308 268//268
f 268//268 308//308 309//309
f 268//268 309//309 269//269
f 269//269 309//309 310//310
f 269//269 310//310 270//270
f 270//270 310//310 311//311
f 270//270 311//311 271//271
f 271//271 311//311 312//312
f 271//271 312//312 272//272
f 272//272 312//312 313//313
f 272//272 313//313 273//273
f 273//273 313//313 314//314
f 273//273 314//314 274//274
f 274//274 314//314 315//315
f 274//274 315//315 275//275
f 275//275 315//315 316//316
f 275//275 316//316 276//276
f 276//276 316//316 317//317
f 276//276 317//317 277//277
f 277//277 317//317 318//318
f 277//277 318//318 278//278
f 278//278 318//318 319//319
f 278//278 319//319 279//279
f 279//279 319//319 320//320
f 279//279 320//320 280//280
f 280//280 320//320 321//321
f 280//280 321//321 281//281
f 281//281 321//321 322//322
f 281//281 322//322 282//282
f 282//282 322//322 323//323
f 282//282 323//323 283//283
f 283//283 323//323 324//324
f 283//283 324//324 284//284
f 284//284 324//324 325//325
f 284//284 325//325 285//285
f 285//285 325//325 326//326
f 285//285 326//326 286//286
f 286//286 326//326 327//327
f 286//286 327//327 287//287
f 287//287 327//327 328//328
f 288//288 329//329 289//289
f 289//289 329//329 330//330
f 289//289 330//330 290//290
f 290//290 330//330 331//331
f 290//290 331//331 291//291
f 291//291 331//331 332//332
f 291//291 332//332 292//292
f 292//292 332//332 333//333
f 292//292 333//333 293//293
f 293//293 333//333 334//334
f 293//293 334//334 294//294
f 294//294 334//334 335//335
f 294//294 335//335 295//295
f 295//295 335//335 336//336
f 295//295 336//336 296//296
f 296//296 336//336 337//337
f 296//296 337//337 297//297
f 297//297 337//337 338//338
f 297//297 338//338 298//298
f 298//298 338//338 339//339
f 298//298 339//339 299//299
f 299//299 339//339 340//340
f 299//299 340//340 300//300
f 300//300 340//340 341//341
f 300//300 341//341 301//301
f 301//301 341//341 342//342
f 301//301 342//342 302//302
f 302//302 342//342 343//343
f 302//302 343//343 303//303
f 303//303 343//343 344//344
f 303//303 344//344 304//304
f 304//304 344//344 345//345
f 304//304 345//345 305//305
f 305//305 345//345 346//346
f 305//305 346//346 306//306
f 306//306 346//346 347//347
f 306//306 347//347 307//307
f 307//307 347//347 348//348
f 307//307 348//348 308//308
f 308//308 348//348 349//349
f 308//308 349//349 309//309
f 309//309 349//349 350//350
f 309//309 350//350 310//310
f 310//310 350//350 351//351
f 310//310 351//351 311//311
f 311//311 351//351 352//352
f 311//311 352//352 312//312
f 312//312 352//352 353//353
f 312//312 353//353 313//313
f 313//313 353//353 354//354
f 313//313 354//354 314//314
f 314//314 354//354 355//355
f 314//314 355//355 315//315
f 315//315 355//355 356//356
f 315//315 356//356 316//316
f 316//316 356//356 357//357
f 316//316 357//357 317//317
f 317//317 357//357 358//358
f 317//317 358//358 318//318
f 318//318 358//358 359//359
f 318//318 359//359 319//319
f 319//319 359//359 360//360
f 319//319 360//360 320//320
f 320//320 360//360 361//361
f 320//320 361//361 321//321
f 321//321 361//361 362//362
f 321//321 362//362 322//322
f 322//322 362//362 363//363
f 322//322 363//363 323//323
f 323//323 363//363 364//364
f 323//323 364//364 324//324
f 324//324 364//364 365//365
f 324//324 365//365 325//325
f 325//325 365//365 366//366
f 325//325 366//366 326//326
f 326//326 366//366 367//367
f 326//326 367//367 327//327
f 327//327 367//367 368//368
f 327//327 368//368 328//328
f 328//328 368//368 369//369
f 329//329 370//370 330//330
f 330//330 370//370 371//371
f 330//330 371//371 331//331
f 331//331 371//371 372//372
f 331//331 372//372 332//332
f 332//332 372//372 373//373
f 332//332 373//373 333//333
f 333//333 373//373 374//374
f 333//333 374//374 334//334
f 334//334 374//374 375//375
f 334//334 375//375 335//335
f 335//335 375//375 376//376
f 335//335 376//376 336//336
f 336//336 376//376 377//377
f 336//336 377//377 337//337
f 337//337 377//377 378//378
f 337//337 378//378 338//338
f 338//338 378//378 379//379
f 338//338 379//379 339//339
f 339//339 379//379 380//380
f 339//339 380//380 340//340
f 340//340 380//380 381//381
f 340//340 381//381 341//341
f 341//341 381//381 382//382
f 341//341 382//382 342//342
f 342//342 382//382 383//383
f 342//342 383//383 343//343
f 343//343 383//383 384//384
f 343//343 384//384 344//344
f 344//344 384//384 385//385
f 344//344 385//385 345//345
f 345//345 385//385 386//386
f 345//345 386//386 346//346
f 346//346 386//386 387//387
f 346//346 387//387 347//347
f 347//347 387//387 388//388
f 347//347 388//388 348//348
f 348//348 388//388 389//389
f 348//348 389//389 349//349
f 349//349 389//389 390//390
f 349//349 390//390 350//350
f 350//350 390//390 391//391
f 350//350 391//391 351//351
f 351//351 391//391 392//392
f 351//351 392//392 352//352
f 352//352 392//392 393//393
f 352//352 393//393 353//353
f 353//353 393//393 394//394
f 353//353 394//394 354//354
f 354//354 394//394 395//395
f 354//354 395//395 355//355
f 355//355 395//395 396//396
f 355//355 396//396 356//356
f 356//356 396//396 397//397
f 356//356 397//397 357//357
f 357//357 397//397 398//398
f 357//357 398//398 358//358
f 358//358 398//398 399//399
f 358//358 399//399 359//359
f 359//359 399//399 400//400
f 359//359 400//400 360//360
f 360//360 400//400 401//401
f 360//360 401//401 361//361
f 361//361 401//401 402//402
f 361//361 402//402 362//362
f 362//362 402//402 403//403
f 362//362 403//403 363//363
f 363//363 403//403 404//404
f 363//363 404//404 364//364
f 364//364 404//404 405//405
f 364//364 405//405 365//365
f 365//365 405//405 406//406
f 365//365 406//406 366//366
f 366//366 406//406 407//407
f 366//366 407//407 367//367
f 367//367 407//407 408//408
f 367//367 408//408 368//368
f 368//368 408//408 409//409
f 368//368 409//409 369//369
f 369//369 409//409 410//410
f 370//370 411//411 371//371
f 371//371 411//411 412//412
f 371//371 412//412 372//372
f 372//372 412//412 413//413
f 372//372 413//413 373//373
f 373//373 413//413 414//414
f 373//373 414//414 374//374
f 374//374 414//414 415//415
f 374//374 415//415 375//375
f 375//375 415//415 416//416
f 375//375 416//416 376//376
f 376//376 416//416 417//417
f 376//376 417//417 377//377
f 377//377 417//417 418//418
f 377//377 418//418 378//378
f 378//378 418//418 419//419
f 378//378 419//419 379//379
f 379//379 419//419 420//420
f 379//379 420//420 380//380
f 380//380 420//420 421//421
f 380//380 421//421 381//381
f 381//381 421//421 422//422
f 381//381 422//422 382//382
f 382//382 422//422 423//423
f 382//382 423//423 383//383
f 383//383 423//423 424//424
f 383//383 424//424 384//384
f 384//384 424//424 425//425
f 384//384 425//425 385//385
f 385//385 425//425 426//426
f 385//385 426//426 386//386
f 386//386 426//426 427//427
f 386//386 427//427 387//387
f 387//387 427//427 428//428
f 387//387 428//428 388//388
f 388//388 428//428 429//429
f 388//388 429//429 389//389
f 389//389 429//429 430//430
f 389//389 430//430 390//390
f 390//390 430//430 431//431
f 390//390 431//431 391//391
f 391//391 431//431 432//432
f 391//391 432//432 392//392
f 392//392 432//432 433//433
f 392//392 433//433 393//393
f 393//393 433//433 434//434
f 393//393 434//434 394//394
f 394//394 434//434 435//435
f 394//394 435//435 395//395
f 395//395 435//435 436//436
f 395//395 436//436 396//396
f 396//396 436//436 437//437
f 396//396 437//437 397//397
f 397//397 437//437 438//438
f 397//397 438//438 398//398
f 398//398 438//438 439//439
f 398//398 439//439 399//399
f 399//399 439//439 440//440
f 399//399 440//440 400//400
f 400//400 440//440 441//441
f 400//400 441//441 401//401
f 401//401 441//441 442//442
f 401//401 442//442 402//402
f 402//402 442//442 443//443
f 402//402 443//443 403//403
f 403//403 443//443 444//444
f 403//403 444//444 404//404
f 404//404 444//444 445//445
f 404//404 445//445 405//405
f 405//405 445//445 446//446
f 405//405 446//446 406//406
f 406//406 446//446 447//447
f 406//406 447//447 407//407
f 407//407 447//447 448//448
f 407//407 448//448 408//408
f 408//408 448//448 449//449
f 408//408 449//449 409//409
f 409//409 449//449 450//450
f 409//409 450//450 410//410
f 410//410 450//450 451//451
