# Bara Kitchen - metres, +Y up; editable mesh source
mtllib palette.mtl
o pot-lid_teal
usemtl teal
v 0.000000 0.000000 0.000000
v 0.000000 0.000000 0.000000
v 0.000000 0.000000 0.000000
v 0.000000 0.000000 0.000000
v 0.000000 0.000000 0.000000
v 0.000000 0.000000 0.000000
v 0.000000 0.000000 0.000000
v 0.000000 0.000000 0.000000
v 0.000000 0.000000 0.000000
v 0.000000 0.000000 0.000000
v 0.000000 0.000000 0.000000
v 0.000000 0.000000 0.000000
v 0.000000 0.000000 0.000000
v 0.000000 0.000000 0.000000
v 0.000000 0.000000 0.000000
v 0.000000 0.000000 0.000000
v 0.000000 0.000000 0.000000
v 0.000000 0.000000 0.000000
v 0.000000 0.000000 0.000000
v 0.000000 0.000000 0.000000
v 0.000000 0.000000 0.000000
v 0.000000 0.000000 0.000000
v 0.000000 0.000000 0.000000
v 0.000000 0.000000 0.000000
v 0.000000 0.000000 0.000000
v 0.000000 0.000000 0.000000
v 0.000000 0.000000 0.000000
v 0.000000 0.000000 0.000000
v 0.000000 0.000000 0.000000
v 0.000000 0.000000 0.000000
v 0.000000 0.000000 0.000000
v 0.000000 0.000000 0.000000
v 0.000000 0.000000 0.000000
v 0.000000 0.000000 0.000000
v 0.000000 0.000000 0.000000
v 0.000000 0.000000 0.000000
v 0.000000 0.000000 0.000000
v 0.000000 0.000000 0.000000
v 0.000000 0.000000 0.000000
v 0.000000 0.000000 0.000000
v 0.000000 0.000000 0.000000
v 0.168000 0.000000 0.000000
v 0.165932 0.000000 0.026281
v 0.159777 0.000000 0.051915
v 0.149689 0.000000 0.076270
v 0.135915 0.000000 0.098748
v 0.118794 0.000000 0.118794
v 0.098748 0.000000 0.135915
v 0.076270 0.000000 0.149689
v 0.051915 0.000000 0.159777
v 0.026281 0.000000 0.165932
v 0.000000 0.000000 0.168000
v -0.026281 0.000000 0.165932
v -0.051915 0.000000 0.159777
v -0.076270 0.000000 0.149689
v -0.098748 0.000000 0.135915
v -0.118794 0.000000 0.118794
v -0.135915 0.000000 0.098748
v -0.149689 0.000000 0.076270
v -0.159777 0.000000 0.051915
v -0.165932 0.000000 0.026281
v -0.168000 0.000000 0.000000
v -0.165932 0.000000 -0.026281
v -0.159777 0.000000 -0.051915
v -0.149689 0.000000 -0.076270
v -0.135915 0.000000 -0.098748
v -0.118794 0.000000 -0.118794
v -0.098748 0.000000 -0.135915
v -0.076270 0.000000 -0.149689
v -0.051915 0.000000 -0.159777
v -0.026281 0.000000 -0.165932
v -0.000000 0.000000 -0.168000
v 0.026281 0.000000 -0.165932
v 0.051915 0.000000 -0.159777
v 0.076270 0.000000 -0.149689
v 0.098748 0.000000 -0.135915
v 0.118794 0.000000 -0.118794
v 0.135915 0.000000 -0.098748
v 0.149689 0.000000 -0.076270
v 0.159777 0.000000 -0.051915
v 0.165932 0.000000 -0.026281
v 0.168000 0.000000 -0.000000
v 0.169000 0.014000 0.000000
v 0.166919 0.014000 0.026437
v 0.160729 0.014000 0.052224
v 0.150580 0.014000 0.076724
v 0.136724 0.014000 0.099336
v 0.119501 0.014000 0.119501
v 0.099336 0.014000 0.136724
v 0.076724 0.014000 0.150580
v 0.052224 0.014000 0.160729
v 0.026437 0.014000 0.166919
v 0.000000 0.014000 0.169000
v -0.026437 0.014000 0.166919
v -0.052224 0.014000 0.160729
v -0.076724 0.014000 0.150580
v -0.099336 0.014000 0.136724
v -0.119501 0.014000 0.119501
v -0.136724 0.014000 0.099336
v -0.150580 0.014000 0.076724
v -0.160729 0.014000 0.052224
v -0.166919 0.014000 0.026437
v -0.169000 0.014000 0.000000
v -0.166919 0.014000 -0.026437
v -0.160729 0.014000 -0.052224
v -0.150580 0.014000 -0.076724
v -0.136724 0.014000 -0.099336
v -0.119501 0.014000 -0.119501
v -0.099336 0.014000 -0.136724
v -0.076724 0.014000 -0.150580
v -0.052224 0.014000 -0.160729
v -0.026437 0.014000 -0.166919
v -0.000000 0.014000 -0.169000
v 0.026437 0.014000 -0.166919
v 0.052224 0.014000 -0.160729
v 0.076724 0.014000 -0.150580
v 0.099336 0.014000 -0.136724
v 0.119501 0.014000 -0.119501
v 0.136724 0.014000 -0.099336
v 0.150580 0.014000 -0.076724
v 0.160729 0.014000 -0.052224
v 0.166919 0.014000 -0.026437
v 0.169000 0.014000 -0.000000
v 0.145000 0.025000 0.000000
v 0.143215 0.025000 0.022683
v 0.137903 0.025000 0.044807
v 0.129196 0.025000 0.065829
v 0.117307 0.025000 0.085229
v 0.102530 0.025000 0.102530
v 0.085229 0.025000 0.117307
v 0.065829 0.025000 0.129196
v 0.044807 0.025000 0.137903
v 0.022683 0.025000 0.143215
v 0.000000 0.025000 0.145000
v -0.022683 0.025000 0.143215
v -0.044807 0.025000 0.137903
v -0.065829 0.025000 0.129196
v -0.085229 0.025000 0.117307
v -0.102530 0.025000 0.102530
v -0.117307 0.025000 0.085229
v -0.129196 0.025000 0.065829
v -0.137903 0.025000 0.044807
v -0.143215 0.025000 0.022683
v -0.145000 0.025000 0.000000
v -0.143215 0.025000 -0.022683
v -0.137903 0.025000 -0.044807
v -0.129196 0.025000 -0.065829
v -0.117307 0.025000 -0.085229
v -0.102530 0.025000 -0.102530
v -0.085229 0.025000 -0.117307
v -0.065829 0.025000 -0.129196
v -0.044807 0.025000 -0.137903
v -0.022683 0.025000 -0.143215
v -0.000000 0.025000 -0.145000
v 0.022683 0.025000 -0.143215
v 0.044807 0.025000 -0.137903
v 0.065829 0.025000 -0.129196
v 0.085229 0.025000 -0.117307
v 0.102530 0.025000 -0.102530
v 0.117307 0.025000 -0.085229
v 0.129196 0.025000 -0.065829
v 0.137903 0.025000 -0.044807
v 0.143215 0.025000 -0.022683
v 0.145000 0.025000 -0.000000
v 0.090000 0.055000 0.000000
v 0.088892 0.055000 0.014079
v 0.085595 0.055000 0.027812
v 0.080191 0.055000 0.040859
v 0.072812 0.055000 0.052901
v 0.063640 0.055000 0.063640
v 0.052901 0.055000 0.072812
v 0.040859 0.055000 0.080191
v 0.027812 0.055000 0.085595
v 0.014079 0.055000 0.088892
v 0.000000 0.055000 0.090000
v -0.014079 0.055000 0.088892
v -0.027812 0.055000 0.085595
v -0.040859 0.055000 0.080191
v -0.052901 0.055000 0.072812
v -0.063640 0.055000 0.063640
v -0.072812 0.055000 0.052901
v -0.080191 0.055000 0.040859
v -0.085595 0.055000 0.027812
v -0.088892 0.055000 0.014079
v -0.090000 0.055000 0.000000
v -0.088892 0.055000 -0.014079
v -0.085595 0.055000 -0.027812
v -0.080191 0.055000 -0.040859
v -0.072812 0.055000 -0.052901
v -0.063640 0.055000 -0.063640
v -0.052901 0.055000 -0.072812
v -0.040859 0.055000 -0.080191
v -0.027812 0.055000 -0.085595
v -0.014079 0.055000 -0.088892
v -0.000000 0.055000 -0.090000
v 0.014079 0.055000 -0.088892
v 0.027812 0.055000 -0.085595
v 0.040859 0.055000 -0.080191
v 0.052901 0.055000 -0.072812
v 0.063640 0.055000 -0.063640
v 0.072812 0.055000 -0.052901
v 0.080191 0.055000 -0.040859
v 0.085595 0.055000 -0.027812
v 0.088892 0.055000 -0.014079
v 0.090000 0.055000 -0.000000
v 0.000000 0.062000 0.000000
v 0.000000 0.062000 0.000000
v 0.000000 0.062000 0.000000
v 0.000000 0.062000 0.000000
v 0.000000 0.062000 0.000000
v 0.000000 0.062000 0.000000
v 0.000000 0.062000 0.000000
v 0.000000 0.062000 0.000000
v 0.000000 0.062000 0.000000
v 0.000000 0.062000 0.000000
v 0.000000 0.062000 0.000000
v 0.000000 0.062000 0.000000
v 0.000000 0.062000 0.000000
v 0.000000 0.062000 0.000000
v 0.000000 0.062000 0.000000
v 0.000000 0.062000 0.000000
v 0.000000 0.062000 0.000000
v 0.000000 0.062000 0.000000
v 0.000000 0.062000 0.000000
v 0.000000 0.062000 0.000000
v 0.000000 0.062000 0.000000
v 0.000000 0.062000 0.000000
v 0.000000 0.062000 0.000000
v 0.000000 0.062000 0.000000
v 0.000000 0.062000 0.000000
v 0.000000 0.062000 0.000000
v 0.000000 0.062000 0.000000
v 0.000000 0.062000 0.000000
v 0.000000 0.062000 0.000000
v 0.000000 0.062000 0.000000
v 0.000000 0.062000 0.000000
v 0.000000 0.062000 0.000000
v 0.000000 0.062000 0.000000
v 0.000000 0.062000 0.000000
v 0.000000 0.062000 0.000000
v 0.000000 0.062000 0.000000
v 0.000000 0.062000 0.000000
v 0.000000 0.062000 0.000000
v 0.000000 0.062000 0.000000
v 0.000000 0.062000 0.000000
v 0.000000 0.062000 0.000000
vn 0.000000 -1.000000 0.000000
vn 0.000000 -1.000000 0.000000
vn 0.000000 -1.000000 0.000000
vn 0.000000 -1.000000 0.000000
vn 0.000000 -1.000000 0.000000
vn 0.000000 -1.000000 0.000000
vn 0.000000 -1.000000 0.000000
vn 0.000000 -1.000000 0.000000
vn 0.000000 -1.000000 0.000000
vn 0.000000 -1.000000 0.000000
vn 0.000000 -1.000000 0.000000
vn 0.000000 -1.000000 0.000000
vn 0.000000 -1.000000 0.000000
vn 0.000000 -1.000000 0.000000
vn 0.000000 -1.000000 0.000000
vn 0.000000 -1.000000 0.000000
vn 0.000000 -1.000000 0.000000
vn 0.000000 -1.000000 0.000000
vn 0.000000 -1.000000 0.000000
vn 0.000000 -1.000000 0.000000
vn 0.000000 -1.000000 0.000000
vn 0.000000 -1.000000 0.000000
vn 0.000000 -1.000000 0.000000
vn 0.000000 -1.000000 0.000000
vn 0.000000 -1.000000 0.000000
vn 0.000000 -1.000000 0.000000
vn 0.000000 -1.000000 0.000000
vn 0.000000 -1.000000 0.000000
vn 0.000000 -1.000000 0.000000
vn 0.000000 -1.000000 0.000000
vn 0.000000 -1.000000 0.000000
vn 0.000000 -1.000000 0.000000
vn 0.000000 -1.000000 0.000000
vn 0.000000 -1.000000 0.000000
vn 0.000000 -1.000000 0.000000
vn 0.000000 -1.000000 0.000000
vn 0.000000 -1.000000 0.000000
vn 0.000000 -1.000000 0.000000
vn 0.000000 -1.000000 0.000000
vn 0.000000 -1.000000 0.000000
vn 0.000000 -1.000000 0.000000
vn 0.123191 -0.992378 -0.003245
vn 0.122182 -0.992378 0.016067
vn 0.118164 -0.992378 0.034982
vn 0.111237 -0.992378 0.053037
vn 0.101571 -0.992378 0.069785
vn 0.089404 -0.992378 0.084815
vn 0.075035 -0.992378 0.097757
vn 0.058819 -0.992378 0.108291
vn 0.041154 -0.992378 0.116159
vn 0.022476 -0.992378 0.121167
vn 0.003245 -0.992378 0.123191
vn -0.016067 -0.992378 0.122182
vn -0.034982 -0.992378 0.118164
vn -0.053037 -0.992378 0.111237
vn -0.069785 -0.992378 0.101571
vn -0.084815 -0.992378 0.089404
vn -0.097757 -0.992378 0.075035
vn -0.108291 -0.992378 0.058819
vn -0.116159 -0.992378 0.041154
vn -0.121167 -0.992378 0.022476
vn -0.123191 -0.992378 0.003245
vn -0.122182 -0.992378 -0.016067
vn -0.118164 -0.992378 -0.034982
vn -0.111237 -0.992378 -0.053037
vn -0.101571 -0.992378 -0.069785
vn -0.089404 -0.992378 -0.084815
vn -0.075035 -0.992378 -0.097757
vn -0.058819 -0.992378 -0.108291
vn -0.041154 -0.992378 -0.116159
vn -0.022476 -0.992378 -0.121167
vn -0.003245 -0.992378 -0.123191
vn 0.016067 -0.992378 -0.122182
vn 0.034982 -0.992378 -0.118164
vn 0.053037 -0.992378 -0.111237
vn 0.069785 -0.992378 -0.101571
vn 0.084815 -0.992378 -0.089404
vn 0.097757 -0.992378 -0.075035
vn 0.108291 -0.992378 -0.058819
vn 0.116159 -0.992378 -0.041154
vn 0.121167 -0.992378 -0.022476
vn 0.123191 -0.992378 -0.003245
vn 0.745417 0.666588 0.003582
vn 0.735680 0.666588 0.120147
vn 0.707827 0.666588 0.233754
vn 0.662545 0.666588 0.341604
vn 0.600950 0.666588 0.441043
vn 0.524557 0.666588 0.529623
vn 0.435247 0.666588 0.605161
vn 0.335221 0.666588 0.665798
vn 0.226940 0.666588 0.710041
vn 0.113071 0.666588 0.736800
vn -0.003582 0.666588 0.745417
vn -0.120147 0.666588 0.735680
vn -0.233754 0.666588 0.707827
vn -0.341604 0.666588 0.662545
vn -0.441043 0.666588 0.600950
vn -0.529623 0.666588 0.524557
vn -0.605161 0.666588 0.435247
vn -0.665798 0.666588 0.335221
vn -0.710041 0.666588 0.226940
vn -0.736800 0.666588 0.113071
vn -0.745417 0.666588 -0.003582
vn -0.735680 0.666588 -0.120147
vn -0.707827 0.666588 -0.233754
vn -0.662545 0.666588 -0.341604
vn -0.600950 0.666588 -0.441043
vn -0.524557 0.666588 -0.529623
vn -0.435247 0.666588 -0.605161
vn -0.335221 0.666588 -0.665798
vn -0.226940 0.666588 -0.710041
vn -0.113071 0.666588 -0.736800
vn 0.003582 0.666588 -0.745417
vn 0.120147 0.666588 -0.735680
vn 0.233754 0.666588 -0.707827
vn 0.341604 0.666588 -0.662545
vn 0.441043 0.666588 -0.600950
vn 0.529623 0.666588 -0.524557
vn 0.605161 0.666588 -0.435247
vn 0.665798 0.666588 -0.335221
vn 0.710041 0.666588 -0.226940
vn 0.736800 0.666588 -0.113071
vn 0.745417 0.666588 0.003582
vn 0.458119 0.888889 -0.001843
vn 0.452767 0.888889 0.069845
vn 0.436267 0.888889 0.139813
vn 0.409024 0.888889 0.206339
vn 0.371710 0.888889 0.267784
vn 0.325243 0.888889 0.322636
vn 0.270767 0.888889 0.369543
vn 0.209624 0.888889 0.407350
vn 0.143320 0.888889 0.435128
vn 0.073486 0.888889 0.452191
vn 0.001843 0.888889 0.458119
vn -0.069845 0.888889 0.452767
vn -0.139813 0.888889 0.436267
vn -0.206339 0.888889 0.409024
vn -0.267784 0.888889 0.371710
vn -0.322636 0.888889 0.325243
vn -0.369543 0.888889 0.270767
vn -0.407350 0.888889 0.209624
vn -0.435128 0.888889 0.143320
vn -0.452191 0.888889 0.073486
vn -0.458119 0.888889 0.001843
vn -0.452767 0.888889 -0.069845
vn -0.436267 0.888889 -0.139813
vn -0.409024 0.888889 -0.206339
vn -0.371710 0.888889 -0.267784
vn -0.325243 0.888889 -0.322636
vn -0.270767 0.888889 -0.369543
vn -0.209624 0.888889 -0.407350
vn -0.143320 0.888889 -0.435128
vn -0.073486 0.888889 -0.452191
vn -0.001843 0.888889 -0.458119
vn 0.069845 0.888889 -0.452767
vn 0.139813 0.888889 -0.436267
vn 0.206339 0.888889 -0.409024
vn 0.267784 0.888889 -0.371710
vn 0.322636 0.888889 -0.325243
vn 0.369543 0.888889 -0.270767
vn 0.407350 0.888889 -0.209624
vn 0.435128 0.888889 -0.143320
vn 0.452191 0.888889 -0.073486
vn 0.458119 0.888889 -0.001843
vn 0.307446 0.951518 0.009560
vn 0.302165 0.951518 0.057537
vn 0.289444 0.951518 0.104098
vn 0.269596 0.951518 0.148095
vn 0.243110 0.951518 0.188446
vn 0.210637 0.951518 0.224157
vn 0.172978 0.951518 0.254348
vn 0.131059 0.951518 0.278276
vn 0.085914 0.951518 0.295352
vn 0.038653 0.951518 0.305156
vn -0.009560 0.951518 0.307446
vn -0.057537 0.951518 0.302165
vn -0.104098 0.951518 0.289444
vn -0.148095 0.951518 0.269596
vn -0.188446 0.951518 0.243110
vn -0.224157 0.951518 0.210637
vn -0.254348 0.951518 0.172978
vn -0.278276 0.951518 0.131059
vn -0.295352 0.951518 0.085914
vn -0.305156 0.951518 0.038653
vn -0.307446 0.951518 -0.009560
vn -0.302165 0.951518 -0.057537
vn -0.289444 0.951518 -0.104098
vn -0.269596 0.951518 -0.148095
vn -0.243110 0.951518 -0.188446
vn -0.210637 0.951518 -0.224157
vn -0.172978 0.951518 -0.254348
vn -0.131059 0.951518 -0.278276
vn -0.085914 0.951518 -0.295352
vn -0.038653 0.951518 -0.305156
vn 0.009560 0.951518 -0.307446
vn 0.057537 0.951518 -0.302165
vn 0.104098 0.951518 -0.289444
vn 0.148095 0.951518 -0.269596
vn 0.188446 0.951518 -0.243110
vn 0.224157 0.951518 -0.210637
vn 0.254348 0.951518 -0.172978
vn 0.278276 0.951518 -0.131059
vn 0.295352 0.951518 -0.085914
vn 0.305156 0.951518 -0.038653
vn 0.307446 0.951518 0.009560
vn -0.000000 1.000000 0.000000
vn -0.000000 1.000000 0.000000
vn -0.000000 1.000000 0.000000
vn -0.000000 1.000000 0.000000
vn -0.000000 1.000000 0.000000
vn -0.000000 1.000000 0.000000
vn -0.000000 1.000000 0.000000
vn -0.000000 1.000000 0.000000
vn -0.000000 1.000000 0.000000
vn -0.000000 1.000000 0.000000
vn -0.000000 1.000000 0.000000
vn -0.000000 1.000000 0.000000
vn -0.000000 1.000000 0.000000
vn -0.000000 1.000000 0.000000
vn -0.000000 1.000000 0.000000
vn -0.000000 1.000000 0.000000
vn -0.000000 1.000000 0.000000
vn -0.000000 1.000000 0.000000
vn -0.000000 1.000000 0.000000
vn -0.000000 1.000000 0.000000
vn -0.000000 1.000000 0.000000
vn -0.000000 1.000000 0.000000
vn -0.000000 1.000000 0.000000
vn -0.000000 1.000000 0.000000
vn -0.000000 1.000000 0.000000
vn -0.000000 1.000000 0.000000
vn -0.000000 1.000000 0.000000
vn -0.000000 1.000000 0.000000
vn -0.000000 1.000000 0.000000
vn -0.000000 1.000000 0.000000
vn -0.000000 1.000000 0.000000
vn -0.000000 1.000000 0.000000
vn -0.000000 1.000000 0.000000
vn -0.000000 1.000000 0.000000
vn -0.000000 1.000000 0.000000
vn -0.000000 1.000000 0.000000
vn -0.000000 1.000000 0.000000
vn -0.000000 1.000000 0.000000
vn -0.000000 1.000000 0.000000
vn -0.000000 1.000000 0.000000
vn -0.000000 1.000000 0.000000
f 1//1 42//42 2//2
f 2//2 42//42 43//43
f 2//2 43//43 3//3
f 3//3 43//43 44//44
f 3//3 44//44 4//4
f 4//4 44//44 45//45
f 4//4 45//45 5//5
f 5//5 45//45 46//46
f 5//5 46//46 6//6
f 6//6 46//46 47//47
f 6//6 47//47 7//7
f 7//7 47//47 48//48
f 7//7 48//48 8//8
f 8//8 48//48 49//49
f 8//8 49//49 9//9
f 9//9 49//49 50//50
f 9//9 50//50 10//10
f 10//10 50//50 51//51
f 10//10 51//51 11//11
f 11//11 51//51 52//52
f 11//11 52//52 12//12
f 12//12 52//52 53//53
f 12//12 53//53 13//13
f 13//13 53//53 54//54
f 13//13 54//54 14//14
f 14//14 54//54 55//55
f 14//14 55//55 15//15
f 15//15 55//55 56//56
f 15//15 56//56 16//16
f 16//16 56//56 57//57
f 16//16 57//57 17//17
f 17//17 57//57 58//58
f 17//17 58//58 18//18
f 18//18 58//58 59//59
f 18//18 59//59 19//19
f 19//19 59//59 60//60
f 19//19 60//60 20//20
f 20//20 60//60 61//61
f 20//20 61//61 21//21
f 21//21 61//61 62//62
f 21//21 62//62 22//22
f 22//22 62//62 63//63
f 22//22 63//63 23//23
f 23//23 63//63 64//64
f 23//23 64//64 24//24
f 24//24 64//64 65//65
f 24//24 65//65 25//25
f 25//25 65//65 66//66
f 25//25 66//66 26//26
f 26//26 66//66 67//67
f 26//26 67//67 27//27
f 27//27 67//67 68//68
f 27//27 68//68 28//28
f 28//28 68//68 69//69
f 28//28 69//69 29//29
f 29//29 69//69 70//70
f 29//29 70//70 30//30
f 30//30 70//70 71//71
f 30//30 71//71 31//31
f 31//31 71//71 72//72
f 31//31 72//72 32//32
f 32//32 72//72 73//73
f 32//32 73//73 33//33
f 33//33 73//73 74//74
f 33//33 74//74 34//34
f 34//34 74//74 75//75
f 34//34 75//75 35//35
f 35//35 75//75 76//76
f 35//35 76//76 36//36
f 36//36 76//76 77//77
f 36//36 77//77 37//37
f 37//37 77//77 78//78
f 37//37 78//78 38//38
f 38//38 78//78 79//79
f 38//38 79//79 39//39
f 39//39 79//79 80//80
f 39//39 80//80 40//40
f 40//40 80//80 81//81
f 40//40 81//81 41//41
f 41//41 81//81 82//82
f 42//42 83//83 43//43
f 43//43 83//83 84//84
f 43//43 84//84 44//44
f 44//44 84//84 85//85
f 44//44 85//85 45//45
f 45//45 85//85 86//86
f 45//45 86//86 46//46
f 46//46 86//86 87//87
f 46//46 87//87 47//47
f 47//47 87//87 88//88
f 47//47 88//88 48//48
f 48//48 88//88 89//89
f 48//48 89//89 49//49
f 49//49 89//89 90//90
f 49//49 90//90 50//50
f 50//50 90//90 91//91
f 50//50 91//91 51//51
f 51//51 91//91 92//92
f 51//51 92//92 52//52
f 52//52 92//92 93//93
f 52//52 93//93 53//53
f 53//53 93//93 94//94
f 53//53 94//94 54//54
f 54//54 94//94 95//95
f 54//54 95//95 55//55
f 55//55 95//95 96//96
f 55//55 96//96 56//56
f 56//56 96//96 97//97
f 56//56 97//97 57//57
f 57//57 97//97 98//98
f 57//57 98//98 58//58
f 58//58 98//98 99//99
f 58//58 99//99 59//59
f 59//59 99//99 100//100
f 59//59 100//100 60//60
f 60//60 100//100 101//101
f 60//60 101//101 61//61
f 61//61 101//101 102//102
f 61//61 102//102 62//62
f 62//62 102//102 103//103
f 62//62 103//103 63//63
f 63//63 103//103 104//104
f 63//63 104//104 64//64
f 64//64 104//104 105//105
f 64//64 105//105 65//65
f 65//65 105//105 106//106
f 65//65 106//106 66//66
f 66//66 106//106 107//107
f 66//66 107//107 67//67
f 67//67 107//107 108//108
f 67//67 108//108 68//68
f 68//68 108//108 109//109
f 68//68 109//109 69//69
f 69//69 109//109 110//110
f 69//69 110//110 70//70
f 70//70 110//110 111//111
f 70//70 111//111 71//71
f 71//71 111//111 112//112
f 71//71 112//112 72//72
f 72//72 112//112 113//113
f 72//72 113//113 73//73
f 73//73 113//113 114//114
f 73//73 114//114 74//74
f 74//74 114//114 115//115
f 74//74 115//115 75//75
f 75//75 115//115 116//116
f 75//75 116//116 76//76
f 76//76 116//116 117//117
f 76//76 117//117 77//77
f 77//77 117//117 118//118
f 77//77 118//118 78//78
f 78//78 118//118 119//119
f 78//78 119//119 79//79
f 79//79 119//119 120//120
f 79//79 120//120 80//80
f 80//80 120//120 121//121
f 80//80 121//121 81//81
f 81//81 121//121 122//122
f 81//81 122//122 82//82
f 82//82 122//122 123//123
f 83//83 124//124 84//84
f 84//84 124//124 125//125
f 84//84 125//125 85//85
f 85//85 125//125 126//126
f 85//85 126//126 86//86
f 86//86 126//126 127//127
f 86//86 127//127 87//87
f 87//87 127//127 128//128
f 87//87 128//128 88//88
f 88//88 128//128 129//129
f 88//88 129//129 89//89
f 89//89 129//129 130//130
f 89//89 130//130 90//90
f 90//90 130//130 131//131
f 90//90 131//131 91//91
f 91//91 131//131 132//132
f 91//91 132//132 92//92
f 92//92 132//132 133//133
f 92//92 133//133 93//93
f 93//93 133//133 134//134
f 93//93 134//134 94//94
f 94//94 134//134 135//135
f 94//94 135//135 95//95
f 95//95 135//135 136//136
f 95//95 136//136 96//96
f 96//96 136//136 137//137
f 96//96 137//137 97//97
f 97//97 137//137 138//138
f 97//97 138//138 98//98
f 98//98 138//138 139//139
f 98//98 139//139 99//99
f 99//99 139//139 140//140
f 99//99 140//140 100//100
f 100//100 140//140 141//141
f 100//100 141//141 101//101
f 101//101 141//141 142//142
f 101//101 142//142 102//102
f 102//102 142//142 143//143
f 102//102 143//143 103//103
f 103//103 143//143 144//144
f 103//103 144//144 104//104
f 104//104 144//144 145//145
f 104//104 145//145 105//105
f 105//105 145//145 146//146
f 105//105 146//146 106//106
f 106//106 146//146 147//147
f 106//106 147//147 107//107
f 107//107 147//147 148//148
f 107//107 148//148 108//108
f 108//108 148//148 149//149
f 108//108 149//149 109//109
f 109//109 149//149 150//150
f 109//109 150//150 110//110
f 110//110 150//150 151//151
f 110//110 151//151 111//111
f 111//111 151//151 152//152
f 111//111 152//152 112//112
f 112//112 152//152 153//153
f 112//112 153//153 113//113
f 113//113 153//153 154//154
f 113//113 154//154 114//114
f 114//114 154//154 155//155
f 114//114 155//155 115//115
f 115//115 155//155 156//156
f 115//115 156//156 116//116
f 116//116 156//156 157//157
f 116//116 157//157 117//117
f 117//117 157//157 158//158
f 117//117 158//158 118//118
f 118//118 158//158 159//159
f 118//118 159//159 119//119
f 119//119 159//159 160//160
f 119//119 160//160 120//120
f 120//120 160//160 161//161
f 120//120 161//161 121//121
f 121//121 161//161 162//162
f 121//121 162//162 122//122
f 122//122 162//162 163//163
f 122//122 163//163 123//123
f 123//123 163//163 164//164
f 124//124 165//165 125//125
f 125//125 165//165 166//166
f 125//125 166//166 126//126
f 126//126 166//166 167//167
f 126//126 167//167 127//127
f 127//127 167//167 168//168
f 127//127 168//168 128//128
f 128//128 168//168 169//169
f 128//128 169//169 129//129
f 129//129 169//169 170//170
f 129//129 170//170 130//130
f 130//130 170//170 171//171
f 130//130 171//171 131//131
f 131//131 171//171 172//172
f 131//131 172//172 132//132
f 132//132 172//172 173//173
f 132//132 173//173 133//133
f 133//133 173//173 174//174
f 133//133 174//174 134//134
f 134//134 174//174 175//175
f 134//134 175//175 135//135
f 135//135 175//175 176//176
f 135//135 176//176 136//136
f 136//136 176//176 177//177
f 136//136 177//177 137//137
f 137//137 177//177 178//178
f 137//137 178//178 138//138
f 138//138 178//178 179//179
f 138//138 179//179 139//139
f 139//139 179//179 180//180
f 139//139 180//180 140//140
f 140//140 180//180 181//181
f 140//140 181//181 141//141
f 141//141 181//181 182//182
f 141//141 182//182 142//142
f 142//142 182//182 183//183
f 142//142 183//183 143//143
f 143//143 183//183 184//184
f 143//143 184//184 144//144
f 144//144 184//184 185//185
f 144//144 185//185 145//145
f 145//145 185//185 186//186
f 145//145 186//186 146//146
f 146//146 186//186 187//187
f 146//146 187//187 147//147
f 147//147 187//187 188//188
f 147//147 188//188 148//148
f 148//148 188//188 189//189
f 148//148 189//189 149//149
f 149//149 189//189 190//190
f 149//149 190//190 150//150
f 150//150 190//190 191//191
f 150//150 191//191 151//151
f 151//151 191//191 192//192
f 151//151 192//192 152//152
f 152//152 192//192 193//193
f 152//152 193//193 153//153
f 153//153 193//193 194//194
f 153//153 194//194 154//154
f 154//154 194//194 195//195
f 154//154 195//195 155//155
f 155//155 195//195 196//196
f 155//155 196//196 156//156
f 156//156 196//196 197//197
f 156//156 197//197 157//157
f 157//157 197//197 198//198
f 157//157 198//198 158//158
f 158//158 198//198 199//199
f 158//158 199//199 159//159
f 159//159 199//199 200//200
f 159//159 200//200 160//160
f 160//160 200//200 201//201
f 160//160 201//201 161//161
f 161//161 201//201 202//202
f 161//161 202//202 162//162
f 162//162 202//202 203//203
f 162//162 203//203 163//163
f 163//163 203//203 204//204
f 163//163 204//204 164//164
f 164//164 204//204 205//205
f 165//165 206//206 166//166
f 166//166 206//206 207//207
f 166//166 207//207 167//167
f 167//167 207//207 208//208
f 167//167 208//208 168//168
f 168//168 208//208 209//209
f 168//168 209//209 169//169
f 169//169 209//209 210//210
f 169//169 210//210 170//170
f 170//170 210//210 211//211
f 170//170 211//211 171//171
f 171//171 211//211 212//212
f 171//171 212//212 172//172
f 172//172 212//212 213//213
f 172//172 213//213 173//173
f 173//173 213//213 214//214
f 173//173 214//214 174//174
f 174//174 214//214 215//215
f 174//174 215//215 175//175
f 175//175 215//215 216//216
f 175//175 216//216 176//176
f 176//176 216//216 217//217
f 176//176 217//217 177//177
f 177//177 217//217 218//218
f 177//177 218//218 178//178
f 178//178 218//218 219//219
f 178//178 219//219 179//179
f 179//179 219//219 220//220
f 179//179 220//220 180//180
f 180//180 220//220 221//221
f 180//180 221//221 181//181
f 181//181 221//221 222//222
f 181//181 222//222 182//182
f 182//182 222//222 223//223
f 182//182 223//223 183//183
f 183//183 223//223 224//224
f 183//183 224//224 184//184
f 184//184 224//224 225//225
f 184//184 225//225 185//185
f 185//185 225//225 226//226
f 185//185 226//226 186//186
f 186//186 226//226 227//227
f 186//186 227//227 187//187
f 187//187 227//227 228//228
f 187//187 228//228 188//188
f 188//188 228//228 229//229
f 188//188 229//229 189//189
f 189//189 229//229 230//230
f 189//189 230//230 190//190
f 190//190 230//230 231//231
f 190//190 231//231 191//191
f 191//191 231//231 232//232
f 191//191 232//232 192//192
f 192//192 232//232 233//233
f 192//192 233//233 193//193
f 193//193 233//233 234//234
f 193//193 234//234 194//194
f 194//194 234//234 235//235
f 194//194 235//235 195//195
f 195//195 235//235 236//236
f 195//195 236//236 196//196
f 196//196 236//236 237//237
f 196//196 237//237 197//197
f 197//197 237//237 238//238
f 197//197 238//238 198//198
f 198//198 238//238 239//239
f 198//198 239//239 199//199
f 199//199 239//239 240//240
f 199//199 240//240 200//200
f 200//200 240//240 241//241
f 200//200 241//241 201//201
f 201//201 241//241 242//242
f 201//201 242//242 202//202
f 202//202 242//242 243//243
f 202//202 243//243 203//203
f 203//203 243//243 244//244
f 203//203 244//244 204//204
f 204//204 244//244 245//245
f 204//204 245//245 205//205
f 205//205 245//245 246//246
o pot-lid_cocoa
usemtl cocoa
v 0.000000 0.100000 0.000000
v 0.000000 0.100000 0.000000
v 0.000000 0.100000 0.000000
v 0.000000 0.100000 0.000000
v 0.000000 0.100000 0.000000
v 0.000000 0.100000 0.000000
v 0.000000 0.100000 0.000000
v 0.000000 0.100000 0.000000
v 0.000000 0.100000 0.000000
v 0.000000 0.100000 0.000000
v 0.000000 0.100000 0.000000
v 0.000000 0.100000 0.000000
v 0.000000 0.100000 0.000000
v 0.000000 0.100000 0.000000
v 0.000000 0.100000 0.000000
v 0.000000 0.100000 0.000000
v 0.000000 0.100000 0.000000
v 0.000000 0.100000 0.000000
v 0.000000 0.100000 0.000000
v 0.000000 0.100000 0.000000
v 0.000000 0.100000 0.000000
v 0.009059 0.099250 0.000000
v 0.008615 0.099250 0.002079
v 0.007329 0.099250 0.003955
v 0.005325 0.099250 0.005444
v 0.002799 0.099250 0.006400
v 0.000000 0.099250 0.006729
v -0.002799 0.099250 0.006400
v -0.005325 0.099250 0.005444
v -0.007329 0.099250 0.003955
v -0.008615 0.099250 0.002079
v -0.009059 0.099250 0.000000
v -0.008615 0.099250 -0.002079
v -0.007329 0.099250 -0.003955
v -0.005325 0.099250 -0.005444
v -0.002799 0.099250 -0.006400
v -0.000000 0.099250 -0.006729
v 0.002799 0.099250 -0.006400
v 0.005325 0.099250 -0.005444
v 0.007329 0.099250 -0.003955
v 0.008615 0.099250 -0.002079
v 0.009059 0.099250 -0.000000
v 0.017500 0.097053 0.000000
v 0.016643 0.097053 0.004017
v 0.014158 0.097053 0.007641
v 0.010286 0.097053 0.010517
v 0.005408 0.097053 0.012364
v 0.000000 0.097053 0.013000
v -0.005408 0.097053 0.012364
v -0.010286 0.097053 0.010517
v -0.014158 0.097053 0.007641
v -0.016643 0.097053 0.004017
v -0.017500 0.097053 0.000000
v -0.016643 0.097053 -0.004017
v -0.014158 0.097053 -0.007641
v -0.010286 0.097053 -0.010517
v -0.005408 0.097053 -0.012364
v -0.000000 0.097053 -0.013000
v 0.005408 0.097053 -0.012364
v 0.010286 0.097053 -0.010517
v 0.014158 0.097053 -0.007641
v 0.016643 0.097053 -0.004017
v 0.017500 0.097053 -0.000000
v 0.024749 0.093556 0.000000
v 0.023537 0.093556 0.005681
v 0.020022 0.093556 0.010806
v 0.014547 0.093556 0.014874
v 0.007648 0.093556 0.017485
v 0.000000 0.093556 0.018385
v -0.007648 0.093556 0.017485
v -0.014547 0.093556 0.014874
v -0.020022 0.093556 0.010806
v -0.023537 0.093556 0.005681
v -0.024749 0.093556 0.000000
v -0.023537 0.093556 -0.005681
v -0.020022 0.093556 -0.010806
v -0.014547 0.093556 -0.014874
v -0.007648 0.093556 -0.017485
v -0.000000 0.093556 -0.018385
v 0.007648 0.093556 -0.017485
v 0.014547 0.093556 -0.014874
v 0.020022 0.093556 -0.010806
v 0.023537 0.093556 -0.005681
v 0.024749 0.093556 -0.000000
v 0.030311 0.089000 0.000000
v 0.028827 0.089000 0.006958
v 0.024522 0.089000 0.013235
v 0.017816 0.089000 0.018216
v 0.009367 0.089000 0.021415
v 0.000000 0.089000 0.022517
v -0.009367 0.089000 0.021415
v -0.017816 0.089000 0.018216
v -0.024522 0.089000 0.013235
v -0.028827 0.089000 0.006958
v -0.030311 0.089000 0.000000
v -0.028827 0.089000 -0.006958
v -0.024522 0.089000 -0.013235
v -0.017816 0.089000 -0.018216
v -0.009367 0.089000 -0.021415
v -0.000000 0.089000 -0.022517
v 0.009367 0.089000 -0.021415
v 0.017816 0.089000 -0.018216
v 0.024522 0.089000 -0.013235
v 0.028827 0.089000 -0.006958
v 0.030311 0.089000 -0.000000
v 0.033807 0.083694 0.000000
v 0.032153 0.083694 0.007761
v 0.027351 0.083694 0.014762
v 0.019871 0.083694 0.020318
v 0.010447 0.083694 0.023885
v 0.000000 0.083694 0.025114
v -0.010447 0.083694 0.023885
v -0.019871 0.083694 0.020318
v -0.027351 0.083694 0.014762
v -0.032153 0.083694 0.007761
v -0.033807 0.083694 0.000000
v -0.032153 0.083694 -0.007761
v -0.027351 0.083694 -0.014762
v -0.019871 0.083694 -0.020318
v -0.010447 0.083694 -0.023885
v -0.000000 0.083694 -0.025114
v 0.010447 0.083694 -0.023885
v 0.019871 0.083694 -0.020318
v 0.027351 0.083694 -0.014762
v 0.032153 0.083694 -0.007761
v 0.033807 0.083694 -0.000000
v 0.035000 0.078000 0.000000
v 0.033287 0.078000 0.008034
v 0.028316 0.078000 0.015282
v 0.020572 0.078000 0.021034
v 0.010816 0.078000 0.024727
v 0.000000 0.078000 0.026000
v -0.010816 0.078000 0.024727
v -0.020572 0.078000 0.021034
v -0.028316 0.078000 0.015282
v -0.033287 0.078000 0.008034
v -0.035000 0.078000 0.000000
v -0.033287 0.078000 -0.008034
v -0.028316 0.078000 -0.015282
v -0.020572 0.078000 -0.021034
v -0.010816 0.078000 -0.024727
v -0.000000 0.078000 -0.026000
v 0.010816 0.078000 -0.024727
v 0.020572 0.078000 -0.021034
v 0.028316 0.078000 -0.015282
v 0.033287 0.078000 -0.008034
v 0.035000 0.078000 -0.000000
v 0.033807 0.072306 0.000000
v 0.032153 0.072306 0.007761
v 0.027351 0.072306 0.014762
v 0.019871 0.072306 0.020318
v 0.010447 0.072306 0.023885
v 0.000000 0.072306 0.025114
v -0.010447 0.072306 0.023885
v -0.019871 0.072306 0.020318
v -0.027351 0.072306 0.014762
v -0.032153 0.072306 0.007761
v -0.033807 0.072306 0.000000
v -0.032153 0.072306 -0.007761
v -0.027351 0.072306 -0.014762
v -0.019871 0.072306 -0.020318
v -0.010447 0.072306 -0.023885
v -0.000000 0.072306 -0.025114
v 0.010447 0.072306 -0.023885
v 0.019871 0.072306 -0.020318
v 0.027351 0.072306 -0.014762
v 0.032153 0.072306 -0.007761
v 0.033807 0.072306 -0.000000
v 0.030311 0.067000 0.000000
v 0.028827 0.067000 0.006958
v 0.024522 0.067000 0.013235
v 0.017816 0.067000 0.018216
v 0.009367 0.067000 0.021415
v 0.000000 0.067000 0.022517
v -0.009367 0.067000 0.021415
v -0.017816 0.067000 0.018216
v -0.024522 0.067000 0.013235
v -0.028827 0.067000 0.006958
v -0.030311 0.067000 0.000000
v -0.028827 0.067000 -0.006958
v -0.024522 0.067000 -0.013235
v -0.017816 0.067000 -0.018216
v -0.009367 0.067000 -0.021415
v -0.000000 0.067000 -0.022517
v 0.009367 0.067000 -0.021415
v 0.017816 0.067000 -0.018216
v 0.024522 0.067000 -0.013235
v 0.028827 0.067000 -0.006958
v 0.030311 0.067000 -0.000000
v 0.024749 0.062444 0.000000
v 0.023537 0.062444 0.005681
v 0.020022 0.062444 0.010806
v 0.014547 0.062444 0.014874
v 0.007648 0.062444 0.017485
v 0.000000 0.062444 0.018385
v -0.007648 0.062444 0.017485
v -0.014547 0.062444 0.014874
v -0.020022 0.062444 0.010806
v -0.023537 0.062444 0.005681
v -0.024749 0.062444 0.000000
v -0.023537 0.062444 -0.005681
v -0.020022 0.062444 -0.010806
v -0.014547 0.062444 -0.014874
v -0.007648 0.062444 -0.017485
v -0.000000 0.062444 -0.018385
v 0.007648 0.062444 -0.017485
v 0.014547 0.062444 -0.014874
v 0.020022 0.062444 -0.010806
v 0.023537 0.062444 -0.005681
v 0.024749 0.062444 -0.000000
v 0.017500 0.058947 0.000000
v 0.016643 0.058947 0.004017
v 0.014158 0.058947 0.007641
v 0.010286 0.058947 0.010517
v 0.005408 0.058947 0.012364
v 0.000000 0.058947 0.013000
v -0.005408 0.058947 0.012364
v -0.010286 0.058947 0.010517
v -0.014158 0.058947 0.007641
v -0.016643 0.058947 0.004017
v -0.017500 0.058947 0.000000
v -0.016643 0.058947 -0.004017
v -0.014158 0.058947 -0.007641
v -0.010286 0.058947 -0.010517
v -0.005408 0.058947 -0.012364
v -0.000000 0.058947 -0.013000
v 0.005408 0.058947 -0.012364
v 0.010286 0.058947 -0.010517
v 0.014158 0.058947 -0.007641
v 0.016643 0.058947 -0.004017
v 0.017500 0.058947 -0.000000
v 0.009059 0.056750 0.000000
v 0.008615 0.056750 0.002079
v 0.007329 0.056750 0.003955
v 0.005325 0.056750 0.005444
v 0.002799 0.056750 0.006400
v 0.000000 0.056750 0.006729
v -0.002799 0.056750 0.006400
v -0.005325 0.056750 0.005444
v -0.007329 0.056750 0.003955
v -0.008615 0.056750 0.002079
v -0.009059 0.056750 0.000000
v -0.008615 0.056750 -0.002079
v -0.007329 0.056750 -0.003955
v -0.005325 0.056750 -0.005444
v -0.002799 0.056750 -0.006400
v -0.000000 0.056750 -0.006729
v 0.002799 0.056750 -0.006400
v 0.005325 0.056750 -0.005444
v 0.007329 0.056750 -0.003955
v 0.008615 0.056750 -0.002079
v 0.009059 0.056750 -0.000000
v 0.000000 0.056000 0.000000
v 0.000000 0.056000 0.000000
v 0.000000 0.056000 0.000000
v 0.000000 0.056000 0.000000
v 0.000000 0.056000 0.000000
v 0.000000 0.056000 0.000000
v -0.000000 0.056000 0.000000
v -0.000000 0.056000 0.000000
v -0.000000 0.056000 0.000000
v -0.000000 0.056000 0.000000
v -0.000000 0.056000 0.000000
v -0.000000 0.056000 -0.000000
v -0.000000 0.056000 -0.000000
v -0.000000 0.056000 -0.000000
v -0.000000 0.056000 -0.000000
v -0.000000 0.056000 -0.000000
v 0.000000 0.056000 -0.000000
v 0.000000 0.056000 -0.000000
v 0.000000 0.056000 -0.000000
v 0.000000 0.056000 -0.000000
v 0.000000 0.056000 -0.000000
vn -0.000000 1.000000 0.000000
vn -0.000000 1.000000 0.000000
vn -0.000000 1.000000 0.000000
vn -0.000000 1.000000 0.000000
vn -0.000000 1.000000 0.000000
vn -0.000000 1.000000 0.000000
vn -0.000000 1.000000 0.000000
vn -0.000000 1.000000 0.000000
vn -0.000000 1.000000 0.000000
vn -0.000000 1.000000 0.000000
vn -0.000000 1.000000 0.000000
vn -0.000000 1.000000 0.000000
vn -0.000000 1.000000 0.000000
vn -0.000000 1.000000 0.000000
vn -0.000000 1.000000 0.000000
vn -0.000000 1.000000 0.000000
vn -0.000000 1.000000 0.000000
vn -0.000000 1.000000 0.000000
vn -0.000000 1.000000 0.000000
vn -0.000000 1.000000 0.000000
vn -0.000000 1.000000 0.000000
vn 0.193866 0.980875 -0.017306
vn 0.188190 0.980037 0.064131
vn 0.163698 0.976697 0.138802
vn 0.123251 0.972182 0.199179
vn 0.071205 0.968227 0.239722
vn 0.012665 0.966303 0.257097
vn -0.047012 0.967106 0.249990
vn -0.102440 0.970348 0.218930
vn -0.148366 0.974838 0.166368
vn -0.180037 0.978875 0.096907
vn -0.193866 0.980875 0.017306
vn -0.188190 0.980037 -0.064131
vn -0.163698 0.976697 -0.138802
vn -0.123251 0.972182 -0.199179
vn -0.071205 0.968227 -0.239722
vn -0.012665 0.966303 -0.257097
vn 0.047012 0.967106 -0.249990
vn 0.102440 0.970348 -0.218930
vn 0.148366 0.974838 -0.166368
vn 0.180037 0.978875 -0.096907
vn 0.193866 0.980875 -0.017306
vn 0.354987 0.934726 -0.016492
vn 0.340094 0.931155 0.131480
vn 0.289798 0.920139 0.263366
vn 0.211938 0.906372 0.365476
vn 0.116211 0.895148 0.430355
vn 0.011669 0.890328 0.455170
vn -0.093716 0.893448 0.439280
vn -0.192110 0.903523 0.383067
vn -0.274727 0.917158 0.288696
vn -0.331869 0.929242 0.162396
vn -0.354987 0.934726 0.016492
vn -0.340094 0.931155 -0.131480
vn -0.289798 0.920139 -0.263366
vn -0.211938 0.906372 -0.365476
vn -0.116211 0.895148 -0.430355
vn -0.011669 0.890328 -0.455170
vn 0.093716 0.893448 -0.439280
vn 0.192110 0.903523 -0.383067
vn 0.274727 0.917158 -0.288696
vn 0.331869 0.929242 -0.162396
vn 0.354987 0.934726 -0.016492
vn 0.540891 0.840962 -0.014838
vn 0.512764 0.832744 0.208830
vn 0.427811 0.810173 0.400747
vn 0.304673 0.783914 0.540974
vn 0.161348 0.763887 0.624855
vn 0.009908 0.755968 0.654534
vn -0.141971 0.762100 0.631703
vn -0.286903 0.780796 0.555017
vn -0.413564 0.806732 0.422075
vn -0.504613 0.830430 0.236119
vn -0.540891 0.840962 0.014838
vn -0.512764 0.832744 -0.208830
vn -0.427811 0.810173 -0.400747
vn -0.304673 0.783914 -0.540974
vn -0.161348 0.763887 -0.624855
vn -0.009908 0.755968 -0.654534
vn 0.141971 0.762100 -0.631703
vn 0.286903 0.780796 -0.555017
vn 0.413564 0.806732 -0.422075
vn 0.504613 0.830430 -0.236119
vn 0.540891 0.840962 -0.014838
vn 0.741582 0.670758 -0.011835
vn 0.694411 0.657881 0.291525
vn 0.564462 0.625689 0.538420
vn 0.390460 0.591201 0.705707
vn 0.200685 0.566730 0.799088
vn 0.007310 0.557695 0.830014
vn -0.186143 0.565475 0.803485
vn -0.376453 0.588902 0.715177
vn -0.552406 0.622966 0.553860
vn -0.687028 0.655920 0.312669
vn -0.741582 0.670758 0.011835
vn -0.694411 0.657881 -0.291525
vn -0.564462 0.625689 -0.538420
vn -0.390460 0.591201 -0.705707
vn -0.200685 0.566730 -0.799088
vn -0.007310 0.557695 -0.830014
vn 0.186143 0.565475 -0.803485
vn 0.376453 0.588902 -0.715177
vn 0.552406 0.622966 -0.553860
vn 0.687028 0.655920 -0.312669
vn 0.741582 0.670758 -0.011835
vn 0.921619 0.388037 -0.006846
vn 0.851412 0.376251 0.365421
vn 0.673700 0.349215 0.651289
vn 0.453622 0.322486 0.830801
vn 0.227439 0.304712 0.924890
vn 0.003912 0.298509 0.954399
vn -0.219540 0.304293 0.926935
vn -0.445670 0.321683 0.835403
vn -0.666369 0.348195 0.659328
vn -0.846586 0.375462 0.377255
vn -0.921619 0.388037 0.006846
vn -0.851412 0.376251 -0.365421
vn -0.673700 0.349215 -0.651289
vn -0.453622 0.322486 -0.830801
vn -0.227439 0.304712 -0.924890
vn -0.003912 0.298509 -0.954399
vn 0.219540 0.304293 -0.926935
vn 0.445670 0.321683 -0.835403
vn 0.666369 0.348195 -0.659328
vn 0.846586 0.375462 -0.377255
vn 0.921619 0.388037 -0.006846
vn 1.000000 -0.000000 0.000000
vn 0.916194 -0.000000 0.400736
vn 0.714914 -0.000000 0.699213
vn 0.474956 -0.000000 0.880009
vn 0.234631 0.000000 0.972085
vn 0.000000 0.000000 1.000000
vn -0.234631 -0.000000 0.972085
vn -0.474956 -0.000000 0.880009
vn -0.714914 0.000000 0.699213
vn -0.916194 0.000000 0.400736
vn -1.000000 -0.000000 0.000000
vn -0.916194 0.000000 -0.400736
vn -0.714914 -0.000000 -0.699213
vn -0.474956 -0.000000 -0.880009
vn -0.234631 0.000000 -0.972085
vn -0.000000 0.000000 -1.000000
vn 0.234631 -0.000000 -0.972085
vn 0.474956 0.000000 -0.880009
vn 0.714914 0.000000 -0.699213
vn 0.916194 0.000000 -0.400736
vn 1.000000 -0.000000 0.000000
vn 0.921619 -0.388037 0.006846
vn 0.846586 -0.375462 0.377255
vn 0.666369 -0.348195 0.659328
vn 0.445670 -0.321683 0.835403
vn 0.219540 -0.304293 0.926935
vn -0.003912 -0.298509 0.954399
vn -0.227439 -0.304712 0.924890
vn -0.453622 -0.322486 0.830801
vn -0.673700 -0.349215 0.651289
vn -0.851412 -0.376251 0.365421
vn -0.921619 -0.388037 -0.006846
vn -0.846586 -0.375462 -0.377255
vn -0.666369 -0.348195 -0.659328
vn -0.445670 -0.321683 -0.835403
vn -0.219540 -0.304293 -0.926935
vn 0.003912 -0.298509 -0.954399
vn 0.227439 -0.304712 -0.924890
vn 0.453622 -0.322486 -0.830801
vn 0.673700 -0.349215 -0.651289
vn 0.851412 -0.376251 -0.365421
vn 0.921619 -0.388037 0.006846
vn 0.741582 -0.670758 0.011835
vn 0.687028 -0.655920 0.312669
vn 0.552406 -0.622966 0.553860
vn 0.376453 -0.588902 0.715177
vn 0.186143 -0.565475 0.803485
vn -0.007310 -0.557695 0.830014
vn -0.200685 -0.566730 0.799088
vn -0.390460 -0.591201 0.705707
vn -0.564462 -0.625689 0.538420
vn -0.694411 -0.657881 0.291525
vn -0.741582 -0.670758 -0.011835
vn -0.687028 -0.655920 -0.312669
vn -0.552406 -0.622966 -0.553860
vn -0.376453 -0.588902 -0.715177
vn -0.186143 -0.565475 -0.803485
vn 0.007310 -0.557695 -0.830014
vn 0.200685 -0.566730 -0.799088
vn 0.390460 -0.591201 -0.705707
vn 0.564462 -0.625689 -0.538420
vn 0.694411 -0.657881 -0.291525
vn 0.741582 -0.670758 0.011835
vn 0.540891 -0.840962 0.014838
vn 0.504613 -0.830430 0.236119
vn 0.413564 -0.806732 0.422075
vn 0.286903 -0.780796 0.555017
vn 0.141971 -0.762100 0.631703
vn -0.009908 -0.755968 0.654534
vn -0.161348 -0.763887 0.624855
vn -0.304673 -0.783914 0.540974
vn -0.427811 -0.810173 0.400747
vn -0.512764 -0.832744 0.208830
vn -0.540891 -0.840962 -0.014838
vn -0.504613 -0.830430 -0.236119
vn -0.413564 -0.806732 -0.422075
vn -0.286903 -0.780796 -0.555017
vn -0.141971 -0.762100 -0.631703
vn 0.009908 -0.755968 -0.654534
vn 0.161348 -0.763887 -0.624855
vn 0.304673 -0.783914 -0.540974
vn 0.427811 -0.810173 -0.400747
vn 0.512764 -0.832744 -0.208830
vn 0.540891 -0.840962 0.014838
vn 0.354987 -0.934726 0.016492
vn 0.331869 -0.929242 0.162396
vn 0.274727 -0.917158 0.288696
vn 0.192110 -0.903523 0.383067
vn 0.093716 -0.893448 0.439280
vn -0.011669 -0.890328 0.455170
vn -0.116211 -0.895148 0.430355
vn -0.211938 -0.906372 0.365476
vn -0.289798 -0.920139 0.263366
vn -0.340094 -0.931155 0.131480
vn -0.354987 -0.934726 -0.016492
vn -0.331869 -0.929242 -0.162396
vn -0.274727 -0.917158 -0.288696
vn -0.192110 -0.903523 -0.383067
vn -0.093716 -0.893448 -0.439280
vn 0.011669 -0.890328 -0.455170
vn 0.116211 -0.895148 -0.430355
vn 0.211938 -0.906372 -0.365476
vn 0.289798 -0.920139 -0.263366
vn 0.340094 -0.931155 -0.131480
vn 0.354987 -0.934726 0.016492
vn 0.193866 -0.980875 0.017306
vn 0.180037 -0.978875 0.096907
vn 0.148366 -0.974838 0.166368
vn 0.102440 -0.970348 0.218930
vn 0.047012 -0.967106 0.249990
vn -0.012665 -0.966303 0.257097
vn -0.071205 -0.968227 0.239722
vn -0.123251 -0.972182 0.199179
vn -0.163698 -0.976697 0.138802
vn -0.188190 -0.980037 0.064131
vn -0.193866 -0.980875 -0.017306
vn -0.180037 -0.978875 -0.096907
vn -0.148366 -0.974838 -0.166368
vn -0.102440 -0.970348 -0.218930
vn -0.047012 -0.967106 -0.249990
vn 0.012665 -0.966303 -0.257097
vn 0.071205 -0.968227 -0.239722
vn 0.123251 -0.972182 -0.199179
vn 0.163698 -0.976697 -0.138802
vn 0.188190 -0.980037 -0.064131
vn 0.193866 -0.980875 0.017306
vn -0.000000 -1.000000 0.000000
vn -0.000000 -1.000000 0.000000
vn -0.000000 -1.000000 0.000000
vn -0.000000 -1.000000 0.000000
vn -0.000000 -1.000000 0.000000
vn -0.000000 -1.000000 0.000000
vn -0.000000 -1.000000 0.000000
vn -0.000000 -1.000000 0.000000
vn -0.000000 -1.000000 0.000000
vn -0.000000 -1.000000 0.000000
vn -0.000000 -1.000000 0.000000
vn -0.000000 -1.000000 0.000000
vn -0.000000 -1.000000 0.000000
vn -0.000000 -1.000000 0.000000
vn -0.000000 -1.000000 0.000000
vn -0.000000 -1.000000 0.000000
vn -0.000000 -1.000000 0.000000
vn -0.000000 -1.000000 0.000000
vn -0.000000 -1.000000 0.000000
vn -0.000000 -1.000000 0.000000
vn -0.000000 -1.000000 0.000000
f 247//247 248//248 268//268
f 248//248 269//269 268//268
f 248//248 249//249 269//269
f 249//249 270//270 269//269
f 249//249 250//250 270//270
f 250//250 271//271 270//270
f 250//250 251//251 271//271
f 251//251 272//272 271//271
f 251//251 252//252 272//272
f 252//252 273//273 272//272
f 252//252 253//253 273//273
f 253//253 274//274 273//273
f 253//253 254//254 274//274
f 254//254 275//275 274//274
f 254//254 255//255 275//275
f 255//255 276//276 275//275
f 255//255 256//256 276//276
f 256//256 277//277 276//276
f 256//256 257//257 277//277
f 257//257 278//278 277//277
f 257//257 258//258 278//278
f 258//258 279//279 278//278
f 258//258 259//259 279//279
f 259//259 280//280 279//279
f 259//259 260//260 280//280
f 260//260 281//281 280//280
f 260//260 261//261 281//281
f 261//261 282//282 281//281
f 261//261 262//262 282//282
f 262//262 283//283 282//282
f 262//262 263//263 283//283
f 263//263 284//284 283//283
f 263//263 264//264 284//284
f 264//264 285//285 284//284
f 264//264 265//265 285//285
f 265//265 286//286 285//285
f 265//265 266//266 286//286
f 266//266 287//287 286//286
f 266//266 267//267 287//287
f 267//267 288//288 287//287
f 268//268 269//269 289//289
f 269//269 290//290 289//289
f 269//269 270//270 290//290
f 270//270 291//291 290//290
f 270//270 271//271 291//291
f 271//271 292//292 291//291
f 271//271 272//272 292//292
f 272//272 293//293 292//292
f 272//272 273//273 293//293
f 273//273 294//294 293//293
f 273//273 274//274 294//294
f 274//274 295//295 294//294
f 274//274 275//275 295//295
f 275//275 296//296 295//295
f 275//275 276//276 296//296
f 276//276 297//297 296//296
f 276//276 277//277 297//297
f 277//277 298//298 297//297
f 277//277 278//278 298//298
f 278//278 299//299 298//298
f 278//278 279//279 299//299
f 279//279 300//300 299//299
f 279//279 280//280 300//300
f 280//280 301//301 300//300
f 280//280 281//281 301//301
f 281//281 302//302 301//301
f 281//281 282//282 302//302
f 282//282 303//303 302//302
f 282//282 283//283 303//303
f 283//283 304//304 303//303
f 283//283 284//284 304//304
f 284//284 305//305 304//304
f 284//284 285//285 305//305
f 285//285 306//306 305//305
f 285//285 286//286 306//306
f 286//286 307//307 306//306
f 286//286 287//287 307//307
f 287//287 308//308 307//307
f 287//287 288//288 308//308
f 288//288 309//309 308//308
f 289//289 290//290 310//310
f 290//290 311//311 310//310
f 290//290 291//291 311//311
f 291//291 312//312 311//311
f 291//291 292//292 312//312
f 292//292 313//313 312//312
f 292//292 293//293 313//313
f 293//293 314//314 313//313
f 293//293 294//294 314//314
f 294//294 315//315 314//314
f 294//294 295//295 315//315
f 295//295 316//316 315//315
f 295//295 296//296 316//316
f 296//296 317//317 316//316
f 296//296 297//297 317//317
f 297//297 318//318 317//317
f 297//297 298//298 318//318
f 298//298 319//319 318//318
f 298//298 299//299 319//319
f 299//299 320//320 319//319
f 299//299 300//300 320//320
f 300//300 321//321 320//320
f 300//300 301//301 321//321
f 301//301 322//322 321//321
f 301//301 302//302 322//322
f 302//302 323//323 322//322
f 302//302 303//303 323//323
f 303//303 324//324 323//323
f 303//303 304//304 324//324
f 304//304 325//325 324//324
f 304//304 305//305 325//325
f 305//305 326//326 325//325
f 305//305 306//306 326//326
f 306//306 327//327 326//326
f 306//306 307//307 327//327
f 307//307 328//328 327//327
f 307//307 308//308 328//328
f 308//308 329//329 328//328
f 308//308 309//309 329//329
f 309//309 330//330 329//329
f 310//310 311//311 331//331
f 311//311 332//332 331//331
f 311//311 312//312 332//332
f 312//312 333//333 332//332
f 312//312 313//313 333//333
f 313//313 334//334 333//333
f 313//313 314//314 334//334
f 314//314 335//335 334//334
f 314//314 315//315 335//335
f 315//315 336//336 335//335
f 315//315 316//316 336//336
f 316//316 337//337 336//336
f 316//316 317//317 337//337
f 317//317 338//338 337//337
f 317//317 318//318 338//338
f 318//318 339//339 338//338
f 318//318 319//319 339//339
f 319//319 340//340 339//339
f 319//319 320//320 340//340
f 320//320 341//341 340//340
f 320//320 321//321 341//341
f 321//321 342//342 341//341
f 321//321 322//322 342//342
f 322//322 343//343 342//342
f 322//322 323//323 343//343
f 323//323 344//344 343//343
f 323//323 324//324 344//344
f 324//324 345//345 344//344
f 324//324 325//325 345//345
f 325//325 346//346 345//345
f 325//325 326//326 346//346
f 326//326 347//347 346//346
f 326//326 327//327 347//347
f 327//327 348//348 347//347
f 327//327 328//328 348//348
f 328//328 349//349 348//348
f 328//328 329//329 349//349
f 329//329 350//350 349//349
f 329//329 330//330 350//350
f 330//330 351//351 350//350
f 331//331 332//332 352//352
f 332//332 353//353 352//352
f 332//332 333//333 353//353
f 333//333 354//354 353//353
f 333//333 334//334 354//354
f 334//334 355//355 354//354
f 334//334 335//335 355//355
f 335//335 356//356 355//355
f 335//335 336//336 356//356
f 336//336 357//357 356//356
f 336//336 337//337 357//357
f 337//337 358//358 357//357
f 337//337 338//338 358//358
f 338//338 359//359 358//358
f 338//338 339//339 359//359
f 339//339 360//360 359//359
f 339//339 340//340 360//360
f 340//340 361//361 360//360
f 340//340 341//341 361//361
f 341//341 362//362 361//361
f 341//341 342//342 362//362
f 342//342 363//363 362//362
f 342//342 343//343 363//363
f 343//343 364//364 363//363
f 343//343 344//344 364//364
f 344//344 365//365 364//364
f 344//344 345//345 365//365
f 345//345 366//366 365//365
f 345//345 346//346 366//366
f 346//346 367//367 366//366
f 346//346 347//347 367//367
f 347//347 368//368 367//367
f 347//347 348//348 368//368
f 348//348 369//369 368//368
f 348//348 349//349 369//369
f 349//349 370//370 369//369
f 349//349 350//350 370//370
f 350//350 371//371 370//370
f 350//350 351//351 371//371
f 351//351 372//372 371//371
f 352//352 353//353 373//373
f 353//353 374//374 373//373
f 353//353 354//354 374//374
f 354//354 375//375 374//374
f 354//354 355//355 375//375
f 355//355 376//376 375//375
f 355//355 356//356 376//376
f 356//356 377//377 376//376
f 356//356 357//357 377//377
f 357//357 378//378 377//377
f 357//357 358//358 378//378
f 358//358 379//379 378//378
f 358//358 359//359 379//379
f 359//359 380//380 379//379
f 359//359 360//360 380//380
f 360//360 381//381 380//380
f 360//360 361//361 381//381
f 361//361 382//382 381//381
f 361//361 362//362 382//382
f 362//362 383//383 382//382
f 362//362 363//363 383//383
f 363//363 384//384 383//383
f 363//363 364//364 384//384
f 364//364 385//385 384//384
f 364//364 365//365 385//385
f 365//365 386//386 385//385
f 365//365 366//366 386//386
f 366//366 387//387 386//386
f 366//366 367//367 387//387
f 367//367 388//388 387//387
f 367//367 368//368 388//388
f 368//368 389//389 388//388
f 368//368 369//369 389//389
f 369//369 390//390 389//389
f 369//369 370//370 390//390
f 370//370 391//391 390//390
f 370//370 371//371 391//391
f 371//371 392//392 391//391
f 371//371 372//372 392//392
f 372//372 393//393 392//392
f 373//373 374//374 394//394
f 374//374 395//395 394//394
f 374//374 375//375 395//395
f 375//375 396//396 395//395
f 375//375 376//376 396//396
f 376//376 397//397 396//396
f 376//376 377//377 397//397
f 377//377 398//398 397//397
f 377//377 378//378 398//398
f 378//378 399//399 398//398
f 378//378 379//379 399//399
f 379//379 400//400 399//399
f 379//379 380//380 400//400
f 380//380 401//401 400//400
f 380//380 381//381 401//401
f 381//381 402//402 401//401
f 381//381 382//382 402//402
f 382//382 403//403 402//402
f 382//382 383//383 403//403
f 383//383 404//404 403//403
f 383//383 384//384 404//404
f 384//384 405//405 404//404
f 384//384 385//385 405//405
f 385//385 406//406 405//405
f 385//385 386//386 406//406
f 386//386 407//407 406//406
f 386//386 387//387 407//407
f 387//387 408//408 407//407
f 387//387 388//388 408//408
f 388//388 409//409 408//408
f 388//388 389//389 409//409
f 389//389 410//410 409//409
f 389//389 390//390 410//410
f 390//390 411//411 410//410
f 390//390 391//391 411//411
f 391//391 412//412 411//411
f 391//391 392//392 412//412
f 392//392 413//413 412//412
f 392//392 393//393 413//413
f 393//393 414//414 413//413
f 394//394 395//395 415//415
f 395//395 416//416 415//415
f 395//395 396//396 416//416
f 396//396 417//417 416//416
f 396//396 397//397 417//417
f 397//397 418//418 417//417
f 397//397 398//398 418//418
f 398//398 419//419 418//418
f 398//398 399//399 419//419
f 399//399 420//420 419//419
f 399//399 400//400 420//420
f 400//400 421//421 420//420
f 400//400 401//401 421//421
f 401//401 422//422 421//421
f 401//401 402//402 422//422
f 402//402 423//423 422//422
f 402//402 403//403 423//423
f 403//403 424//424 423//423
f 403//403 404//404 424//424
f 404//404 425//425 424//424
f 404//404 405//405 425//425
f 405//405 426//426 425//425
f 405//405 406//406 426//426
f 406//406 427//427 426//426
f 406//406 407//407 427//427
f 407//407 428//428 427//427
f 407//407 408//408 428//428
f 408//408 429//429 428//428
f 408//408 409//409 429//429
f 409//409 430//430 429//429
f 409//409 410//410 430//430
f 410//410 431//431 430//430
f 410//410 411//411 431//431
f 411//411 432//432 431//431
f 411//411 412//412 432//432
f 412//412 433//433 432//432
f 412//412 413//413 433//433
f 413//413 434//434 433//433
f 413//413 414//414 434//434
f 414//414 435//435 434//434
f 415//415 416//416 436//436
f 416//416 437//437 436//436
f 416//416 417//417 437//437
f 417//417 438//438 437//437
f 417//417 418//418 438//438
f 418//418 439//439 438//438
f 418//418 419//419 439//439
f 419//419 440//440 439//439
f 419//419 420//420 440//440
f 420//420 441//441 440//440
f 420//420 421//421 441//441
f 421//421 442//442 441//441
f 421//421 422//422 442//442
f 422//422 443//443 442//442
f 422//422 423//423 443//443
f 423//423 444//444 443//443
f 423//423 424//424 444//444
f 424//424 445//445 444//444
f 424//424 425//425 445//445
f 425//425 446//446 445//445
f 425//425 426//426 446//446
f 426//426 447//447 446//446
f 426//426 427//427 447//447
f 427//427 448//448 447//447
f 427//427 428//428 448//448
f 428//428 449//449 448//448
f 428//428 429//429 449//449
f 429//429 450//450 449//449
f 429//429 430//430 450//450
f 430//430 451//451 450//450
f 430//430 431//431 451//451
f 431//431 452//452 451//451
f 431//431 432//432 452//452
f 432//432 453//453 452//452
f 432//432 433//433 453//453
f 433//433 454//454 453//453
f 433//433 434//434 454//454
f 434//434 455//455 454//454
f 434//434 435//435 455//455
f 435//435 456//456 455//455
f 436//436 437//437 457//457
f 437//437 458//458 457//457
f 437//437 438//438 458//458
f 438//438 459//459 458//458
f 438//438 439//439 459//459
f 439//439 460//460 459//459
f 439//439 440//440 460//460
f 440//440 461//461 460//460
f 440//440 441//441 461//461
f 441//441 462//462 461//461
f 441//441 442//442 462//462
f 442//442 463//463 462//462
f 442//442 443//443 463//463
f 443//443 464//464 463//463
f 443//443 444//444 464//464
f 444//444 465//465 464//464
f 444//444 445//445 465//465
f 445//445 466//466 465//465
f 445//445 446//446 466//466
f 446//446 467//467 466//466
f 446//446 447//447 467//467
f 447//447 468//468 467//467
f 447//447 448//448 468//468
f 448//448 469//469 468//468
f 448//448 449//449 469//469
f 449//449 470//470 469//469
f 449//449 450//450 470//470
f 450//450 471//471 470//470
f 450//450 451//451 471//471
f 451//451 472//472 471//471
f 451//451 452//452 472//472
f 452//452 473//473 472//472
f 452//452 453//453 473//473
f 453//453 474//474 473//473
f 453//453 454//454 474//474
f 454//454 475//475 474//474
f 454//454 455//455 475//475
f 455//455 476//476 475//475
f 455//455 456//456 476//476
f 456//456 477//477 476//476
f 457//457 458//458 478//478
f 458//458 479//479 478//478
f 458//458 459//459 479//479
f 459//459 480//480 479//479
f 459//459 460//460 480//480
f 460//460 481//481 480//480
f 460//460 461//461 481//481
f 461//461 482//482 481//481
f 461//461 462//462 482//482
f 462//462 483//483 482//482
f 462//462 463//463 483//483
f 463//463 484//484 483//483
f 463//463 464//464 484//484
f 464//464 485//485 484//484
f 464//464 465//465 485//485
f 465//465 486//486 485//485
f 465//465 466//466 486//486
f 466//466 487//487 486//486
f 466//466 467//467 487//487
f 467//467 488//488 487//487
f 467//467 468//468 488//488
f 468//468 489//489 488//488
f 468//468 469//469 489//489
f 469//469 490//490 489//489
f 469//469 470//470 490//490
f 470//470 491//491 490//490
f 470//470 471//471 491//491
f 471//471 492//492 491//491
f 471//471 472//472 492//492
f 472//472 493//493 492//492
f 472//472 473//473 493//493
f 473//473 494//494 493//493
f 473//473 474//474 494//494
f 474//474 495//495 494//494
f 474//474 475//475 495//495
f 475//475 496//496 495//495
f 475//475 476//476 496//496
f 476//476 497//497 496//496
f 476//476 477//477 497//497
f 477//477 498//498 497//497
f 478//478 479//479 499//499
f 479//479 500//500 499//499
f 479//479 480//480 500//500
f 480//480 501//501 500//500
f 480//480 481//481 501//501
f 481//481 502//502 501//501
f 481//481 482//482 502//502
f 482//482 503//503 502//502
f 482//482 483//483 503//503
f 483//483 504//504 503//503
f 483//483 484//484 504//504
f 484//484 505//505 504//504
f 484//484 485//485 505//505
f 485//485 506//506 505//505
f 485//485 486//486 506//506
f 486//486 507//507 506//506
f 486//486 487//487 507//507
f 487//487 508//508 507//507
f 487//487 488//488 508//508
f 488//488 509//509 508//508
f 488//488 489//489 509//509
f 489//489 510//510 509//509
f 489//489 490//490 510//510
f 490//490 511//511 510//510
f 490//490 491//491 511//511
f 491//491 512//512 511//511
f 491//491 492//492 512//512
f 492//492 513//513 512//512
f 492//492 493//493 513//513
f 493//493 514//514 513//513
f 493//493 494//494 514//514
f 494//494 515//515 514//514
f 494//494 495//495 515//515
f 495//495 516//516 515//515
f 495//495 496//496 516//516
f 496//496 517//517 516//516
f 496//496 497//497 517//517
f 497//497 518//518 517//517
f 497//497 498//498 518//518
f 498//498 519//519 518//518
