# Bara Kitchen - metres, +Y up; editable mesh source
mtllib palette.mtl
o station-bin_darkMetal
usemtl darkMetal
v -0.192815 0.015086 -0.192815
v -0.194333 0.014053 -0.188667
v -0.195021 0.013586 -0.183000
v -0.195021 0.013586 0.183000
v -0.194333 0.014053 0.188667
v -0.192815 0.015086 0.192815
v -0.194333 0.017907 -0.194333
v -0.196880 0.017041 -0.189940
v -0.198205 0.016590 -0.183000
v -0.198205 0.016590 0.183000
v -0.196880 0.017041 0.189940
v -0.194333 0.017907 0.194333
v -0.195021 0.021760 -0.195021
v -0.198205 0.021760 -0.190603
v -0.200000 0.021760 -0.183000
v -0.200000 0.021760 0.183000
v -0.198205 0.021760 0.190603
v -0.195021 0.021760 0.195021
v -0.195021 0.025840 -0.195021
v -0.198205 0.025840 -0.190603
v -0.200000 0.025840 -0.183000
v -0.200000 0.025840 0.183000
v -0.198205 0.025840 0.190603
v -0.195021 0.025840 0.195021
v -0.194333 0.029693 -0.194333
v -0.196880 0.030559 -0.189940
v -0.198205 0.031010 -0.183000
v -0.198205 0.031010 0.183000
v -0.196880 0.030559 0.189940
v -0.194333 0.029693 0.194333
v -0.192815 0.032514 -0.192815
v -0.194333 0.033547 -0.188667
v -0.195021 0.034014 -0.183000
v -0.195021 0.034014 0.183000
v -0.194333 0.033547 0.188667
v -0.192815 0.032514 0.192815
v 0.192815 0.015086 -0.192815
v 0.194333 0.014053 -0.188667
v 0.195021 0.013586 -0.183000
v 0.195021 0.013586 0.183000
v 0.194333 0.014053 0.188667
v 0.192815 0.015086 0.192815
v 0.194333 0.017907 -0.194333
v 0.196880 0.017041 -0.189940
v 0.198205 0.016590 -0.183000
v 0.198205 0.016590 0.183000
v 0.196880 0.017041 0.189940
v 0.194333 0.017907 0.194333
v 0.195021 0.021760 -0.195021
v 0.198205 0.021760 -0.190603
v 0.200000 0.021760 -0.183000
v 0.200000 0.021760 0.183000
v 0.198205 0.021760 0.190603
v 0.195021 0.021760 0.195021
v 0.195021 0.025840 -0.195021
v 0.198205 0.025840 -0.190603
v 0.200000 0.025840 -0.183000
v 0.200000 0.025840 0.183000
v 0.198205 0.025840 0.190603
v 0.195021 0.025840 0.195021
v 0.194333 0.029693 -0.194333
v 0.196880 0.030559 -0.189940
v 0.198205 0.031010 -0.183000
v 0.198205 0.031010 0.183000
v 0.196880 0.030559 0.189940
v 0.194333 0.029693 0.194333
v 0.192815 0.032514 -0.192815
v 0.194333 0.033547 -0.188667
v 0.195021 0.034014 -0.183000
v 0.195021 0.034014 0.183000
v 0.194333 0.033547 0.188667
v 0.192815 0.032514 0.192815
v -0.192815 0.015086 -0.192815
v -0.188667 0.014053 -0.194333
v -0.183000 0.013586 -0.195021
v 0.183000 0.013586 -0.195021
v 0.188667 0.014053 -0.194333
v 0.192815 0.015086 -0.192815
v -0.194333 0.014053 -0.188667
v -0.189940 0.012321 -0.189940
v -0.183000 0.011420 -0.190603
v 0.183000 0.011420 -0.190603
v 0.189940 0.012321 -0.189940
v 0.194333 0.014053 -0.188667
v -0.195021 0.013586 -0.183000
v -0.190603 0.011420 -0.183000
v -0.183000 0.010200 -0.183000
v 0.183000 0.010200 -0.183000
v 0.190603 0.011420 -0.183000
v 0.195021 0.013586 -0.183000
v -0.195021 0.013586 0.183000
v -0.190603 0.011420 0.183000
v -0.183000 0.010200 0.183000
v 0.183000 0.010200 0.183000
v 0.190603 0.011420 0.183000
v 0.195021 0.013586 0.183000
v -0.194333 0.014053 0.188667
v -0.189940 0.012321 0.189940
v -0.183000 0.011420 0.190603
v 0.183000 0.011420 0.190603
v 0.189940 0.012321 0.189940
v 0.194333 0.014053 0.188667
v -0.192815 0.015086 0.192815
v -0.188667 0.014053 0.194333
v -0.183000 0.013586 0.195021
v 0.183000 0.013586 0.195021
v 0.188667 0.014053 0.194333
v 0.192815 0.015086 0.192815
v -0.192815 0.032514 -0.192815
v -0.188667 0.033547 -0.194333
v -0.183000 0.034014 -0.195021
v 0.183000 0.034014 -0.195021
v 0.188667 0.033547 -0.194333
v 0.192815 0.032514 -0.192815
v -0.194333 0.033547 -0.188667
v -0.189940 0.035279 -0.189940
v -0.183000 0.036180 -0.190603
v 0.183000 0.036180 -0.190603
v 0.189940 0.035279 -0.189940
v 0.194333 0.033547 -0.188667
v -0.195021 0.034014 -0.183000
v -0.190603 0.036180 -0.183000
v -0.183000 0.037400 -0.183000
v 0.183000 0.037400 -0.183000
v 0.190603 0.036180 -0.183000
v 0.195021 0.034014 -0.183000
v -0.195021 0.034014 0.183000
v -0.190603 0.036180 0.183000
v -0.183000 0.037400 0.183000
v 0.183000 0.037400 0.183000
v 0.190603 0.036180 0.183000
v 0.195021 0.034014 0.183000
v -0.194333 0.033547 0.188667
v -0.189940 0.035279 0.189940
v -0.183000 0.036180 0.190603
v 0.183000 0.036180 0.190603
v 0.189940 0.035279 0.189940
v 0.194333 0.033547 0.188667
v -0.192815 0.032514 0.192815
v -0.188667 0.033547 0.194333
v -0.183000 0.034014 0.195021
v 0.183000 0.034014 0.195021
v 0.188667 0.033547 0.194333
v 0.192815 0.032514 0.192815
v -0.192815 0.015086 -0.192815
v -0.194333 0.017907 -0.194333
v -0.195021 0.021760 -0.195021
v -0.195021 0.025840 -0.195021
v -0.194333 0.029693 -0.194333
v -0.192815 0.032514 -0.192815
v -0.188667 0.014053 -0.194333
v -0.189940 0.017041 -0.196880
v -0.190603 0.021760 -0.198205
v -0.190603 0.025840 -0.198205
v -0.189940 0.030559 -0.196880
v -0.188667 0.033547 -0.194333
v -0.183000 0.013586 -0.195021
v -0.183000 0.016590 -0.198205
v -0.183000 0.021760 -0.200000
v -0.183000 0.025840 -0.200000
v -0.183000 0.031010 -0.198205
v -0.183000 0.034014 -0.195021
v 0.183000 0.013586 -0.195021
v 0.183000 0.016590 -0.198205
v 0.183000 0.021760 -0.200000
v 0.183000 0.025840 -0.200000
v 0.183000 0.031010 -0.198205
v 0.183000 0.034014 -0.195021
v 0.188667 0.014053 -0.194333
v 0.189940 0.017041 -0.196880
v 0.190603 0.021760 -0.198205
v 0.190603 0.025840 -0.198205
v 0.189940 0.030559 -0.196880
v 0.188667 0.033547 -0.194333
v 0.192815 0.015086 -0.192815
v 0.194333 0.017907 -0.194333
v 0.195021 0.021760 -0.195021
v 0.195021 0.025840 -0.195021
v 0.194333 0.029693 -0.194333
v 0.192815 0.032514 -0.192815
v -0.192815 0.015086 0.192815
v -0.194333 0.017907 0.194333
v -0.195021 0.021760 0.195021
v -0.195021 0.025840 0.195021
v -0.194333 0.029693 0.194333
v -0.192815 0.032514 0.192815
v -0.188667 0.014053 0.194333
v -0.189940 0.017041 0.196880
v -0.190603 0.021760 0.198205
v -0.190603 0.025840 0.198205
v -0.189940 0.030559 0.196880
v -0.188667 0.033547 0.194333
v -0.183000 0.013586 0.195021
v -0.183000 0.016590 0.198205
v -0.183000 0.021760 0.200000
v -0.183000 0.025840 0.200000
v -0.183000 0.031010 0.198205
v -0.183000 0.034014 0.195021
v 0.183000 0.013586 0.195021
v 0.183000 0.016590 0.198205
v 0.183000 0.021760 0.200000
v 0.183000 0.025840 0.200000
v 0.183000 0.031010 0.198205
v 0.183000 0.034014 0.195021
v 0.188667 0.014053 0.194333
v 0.189940 0.017041 0.196880
v 0.190603 0.021760 0.198205
v 0.190603 0.025840 0.198205
v 0.189940 0.030559 0.196880
v 0.188667 0.033547 0.194333
v 0.192815 0.015086 0.192815
v 0.194333 0.017907 0.194333
v 0.195021 0.021760 0.195021
v 0.195021 0.025840 0.195021
v 0.194333 0.029693 0.194333
v 0.192815 0.032514 0.192815
v 0.195000 0.333200 0.125000
v 0.193655 0.333200 0.138656
v 0.189672 0.333200 0.151788
v 0.183203 0.333200 0.163890
v 0.174497 0.333200 0.174497
v 0.163890 0.333200 0.183203
v 0.151788 0.333200 0.189672
v 0.138656 0.333200 0.193655
v 0.125000 0.333200 0.195000
v -0.125000 0.333200 0.195000
v -0.138656 0.333200 0.193655
v -0.151788 0.333200 0.189672
v -0.163890 0.333200 0.183203
v -0.174497 0.333200 0.174497
v -0.183203 0.333200 0.163890
v -0.189672 0.333200 0.151788
v -0.193655 0.333200 0.138656
v -0.195000 0.333200 0.125000
v -0.195000 0.333200 -0.125000
v -0.193655 0.333200 -0.138656
v -0.189672 0.333200 -0.151788
v -0.183203 0.333200 -0.163890
v -0.174497 0.333200 -0.174497
v -0.163890 0.333200 -0.183203
v -0.151788 0.333200 -0.189672
v -0.138656 0.333200 -0.193655
v -0.125000 0.333200 -0.195000
v 0.125000 0.333200 -0.195000
v 0.138656 0.333200 -0.193655
v 0.151788 0.333200 -0.189672
v 0.163890 0.333200 -0.183203
v 0.174497 0.333200 -0.174497
v 0.183203 0.333200 -0.163890
v 0.189672 0.333200 -0.151788
v 0.193655 0.333200 -0.138656
v 0.195000 0.333200 -0.125000
v 0.172000 0.051000 0.102000
v 0.170655 0.051000 0.115656
v 0.166672 0.051000 0.128788
v 0.160203 0.051000 0.140890
v 0.151497 0.051000 0.151497
v 0.140890 0.051000 0.160203
v 0.128788 0.051000 0.166672
v 0.115656 0.051000 0.170655
v 0.102000 0.051000 0.172000
v -0.102000 0.051000 0.172000
v -0.115656 0.051000 0.170655
v -0.128788 0.051000 0.166672
v -0.140890 0.051000 0.160203
v -0.151497 0.051000 0.151497
v -0.160203 0.051000 0.140890
v -0.166672 0.051000 0.128788
v -0.170655 0.051000 0.115656
v -0.172000 0.051000 0.102000
v -0.172000 0.051000 -0.102000
v -0.170655 0.051000 -0.115656
v -0.166672 0.051000 -0.128788
v -0.160203 0.051000 -0.140890
v -0.151497 0.051000 -0.151497
v -0.140890 0.051000 -0.160203
v -0.128788 0.051000 -0.166672
v -0.115656 0.051000 -0.170655
v -0.102000 0.051000 -0.172000
v 0.102000 0.051000 -0.172000
v 0.115656 0.051000 -0.170655
v 0.128788 0.051000 -0.166672
v 0.140890 0.051000 -0.160203
v 0.151497 0.051000 -0.151497
v 0.160203 0.051000 -0.140890
v 0.166672 0.051000 -0.128788
v 0.170655 0.051000 -0.115656
v 0.172000 0.051000 -0.102000
vn -0.490135 -0.720787 -0.490135
vn -0.534082 -0.785415 -0.312858
vn -0.562303 -0.826916 -0.004982
vn -0.562310 -0.826926 0.001048
vn -0.549577 -0.808201 0.211606
vn -0.496038 -0.729467 0.470983
vn -0.603891 -0.520222 -0.603891
vn -0.796314 -0.500194 -0.340132
vn -0.809572 -0.587006 -0.004168
vn -0.890753 -0.454478 0.002932
vn -0.833341 -0.457092 0.310822
vn -0.642635 -0.441589 0.626115
vn -0.694383 -0.188854 -0.694383
vn -0.911984 -0.180931 -0.368170
vn -0.970865 -0.239588 -0.004318
vn -0.990785 -0.135365 0.004664
vn -0.918203 -0.143882 0.369054
vn -0.693082 -0.136034 0.707907
vn -0.704802 0.080667 -0.704802
vn -0.918203 0.143882 -0.369054
vn -0.990785 0.135365 -0.004664
vn -0.970865 0.239588 0.004318
vn -0.911984 0.180931 0.368170
vn -0.707907 0.136034 0.693082
vn -0.656445 0.371698 -0.656445
vn -0.833341 0.457092 -0.310822
vn -0.890753 0.454478 -0.002932
vn -0.809572 0.587006 0.004168
vn -0.796314 0.500194 0.340132
vn -0.626115 0.441589 0.642635
vn -0.503175 0.702588 -0.503175
vn -0.552899 0.792186 -0.258350
vn -0.602360 0.798221 -0.002425
vn -0.522467 0.852656 0.002334
vn -0.533893 0.805851 0.256051
vn -0.470983 0.729467 0.496038
vn 0.470983 -0.729467 -0.496038
vn 0.533893 -0.805851 -0.256051
vn 0.522467 -0.852656 -0.002334
vn 0.602360 -0.798221 0.002425
vn 0.552899 -0.792186 0.258350
vn 0.503175 -0.702588 0.503175
vn 0.626115 -0.441589 -0.642635
vn 0.796314 -0.500194 -0.340132
vn 0.809572 -0.587006 -0.004168
vn 0.890753 -0.454478 0.002932
vn 0.833341 -0.457092 0.310822
vn 0.656445 -0.371698 0.656445
vn 0.707907 -0.136034 -0.693082
vn 0.911984 -0.180931 -0.368170
vn 0.970865 -0.239588 -0.004318
vn 0.990785 -0.135365 0.004664
vn 0.918203 -0.143882 0.369054
vn 0.704802 -0.080667 0.704802
vn 0.693082 0.136034 -0.707907
vn 0.918203 0.143882 -0.369054
vn 0.990785 0.135365 -0.004664
vn 0.970865 0.239588 0.004318
vn 0.911984 0.180931 0.368170
vn 0.694383 0.188854 0.694383
vn 0.642635 0.441589 -0.626115
vn 0.833341 0.457092 -0.310822
vn 0.890753 0.454478 -0.002932
vn 0.809572 0.587006 0.004168
vn 0.796314 0.500194 0.340132
vn 0.603891 0.520222 0.603891
vn 0.496038 0.729467 -0.470983
vn 0.549577 0.808201 -0.211606
vn 0.562310 0.826926 -0.001048
vn 0.562303 0.826916 0.004982
vn 0.534082 0.785415 0.312858
vn 0.490135 0.720787 0.490135
vn -0.490135 -0.720787 -0.490135
vn -0.312858 -0.785415 -0.534082
vn -0.004982 -0.826916 -0.562303
vn 0.001048 -0.826926 -0.562310
vn 0.211606 -0.808201 -0.549577
vn 0.470983 -0.729467 -0.496038
vn -0.534082 -0.785415 -0.312858
vn -0.268668 -0.925005 -0.268668
vn -0.003320 -0.948123 -0.317885
vn 0.002179 -0.973278 -0.229620
vn 0.238736 -0.941281 -0.238736
vn 0.533893 -0.805851 -0.256051
vn -0.562303 -0.826916 -0.004982
vn -0.317885 -0.948123 -0.003320
vn -0.006219 -0.999961 -0.006219
vn 0.001692 -0.999997 -0.001692
vn 0.229620 -0.973278 -0.002179
vn 0.522467 -0.852656 -0.002334
vn -0.562310 -0.826926 0.001048
vn -0.229620 -0.973278 0.002179
vn -0.001692 -0.999997 0.001692
vn 0.006219 -0.999961 0.006219
vn 0.317885 -0.948123 0.003320
vn 0.602360 -0.798221 0.002425
vn -0.549577 -0.808201 0.211606
vn -0.238736 -0.941281 0.238736
vn -0.002179 -0.973278 0.229620
vn 0.003320 -0.948123 0.317885
vn 0.268668 -0.925005 0.268668
vn 0.552899 -0.792186 0.258350
vn -0.496038 -0.729467 0.470983
vn -0.256051 -0.805851 0.533893
vn -0.002334 -0.852656 0.522467
vn 0.002425 -0.798221 0.602360
vn 0.258350 -0.792186 0.552899
vn 0.503175 -0.702588 0.503175
vn -0.503175 0.702588 -0.503175
vn -0.258350 0.792186 -0.552899
vn -0.002425 0.798221 -0.602360
vn 0.002334 0.852656 -0.522467
vn 0.256051 0.805851 -0.533893
vn 0.496038 0.729467 -0.470983
vn -0.552899 0.792186 -0.258350
vn -0.268668 0.925005 -0.268668
vn -0.003320 0.948123 -0.317885
vn 0.002179 0.973278 -0.229620
vn 0.238736 0.941281 -0.238736
vn 0.549577 0.808201 -0.211606
vn -0.602360 0.798221 -0.002425
vn -0.317885 0.948123 -0.003320
vn -0.006219 0.999961 -0.006219
vn 0.001692 0.999997 -0.001692
vn 0.229620 0.973278 -0.002179
vn 0.562310 0.826926 -0.001048
vn -0.522467 0.852656 0.002334
vn -0.229620 0.973278 0.002179
vn -0.001692 0.999997 0.001692
vn 0.006219 0.999961 0.006219
vn 0.317885 0.948123 0.003320
vn 0.562303 0.826916 0.004982
vn -0.533893 0.805851 0.256051
vn -0.238736 0.941281 0.238736
vn -0.002179 0.973278 0.229620
vn 0.003320 0.948123 0.317885
vn 0.268668 0.925005 0.268668
vn 0.534082 0.785415 0.312858
vn -0.470983 0.729467 0.496038
vn -0.211606 0.808201 0.549577
vn -0.001048 0.826926 0.562310
vn 0.004982 0.826916 0.562303
vn 0.312858 0.785415 0.534082
vn 0.490135 0.720787 0.490135
vn -0.490135 -0.720787 -0.490135
vn -0.603891 -0.520222 -0.603891
vn -0.694383 -0.188854 -0.694383
vn -0.704802 0.080667 -0.704802
vn -0.656445 0.371698 -0.656445
vn -0.503175 0.702588 -0.503175
vn -0.312858 -0.785415 -0.534082
vn -0.340132 -0.500194 -0.796314
vn -0.368170 -0.180931 -0.911984
vn -0.369054 0.143882 -0.918203
vn -0.310822 0.457092 -0.833341
vn -0.258350 0.792186 -0.552899
vn -0.004982 -0.826916 -0.562303
vn -0.004168 -0.587006 -0.809572
vn -0.004318 -0.239588 -0.970865
vn -0.004664 0.135365 -0.990785
vn -0.002932 0.454478 -0.890753
vn -0.002425 0.798221 -0.602360
vn 0.001048 -0.826926 -0.562310
vn 0.002932 -0.454478 -0.890753
vn 0.004664 -0.135365 -0.990785
vn 0.004318 0.239588 -0.970865
vn 0.004168 0.587006 -0.809572
vn 0.002334 0.852656 -0.522467
vn 0.211606 -0.808201 -0.549577
vn 0.310822 -0.457092 -0.833341
vn 0.369054 -0.143882 -0.918203
vn 0.368170 0.180931 -0.911984
vn 0.340132 0.500194 -0.796314
vn 0.256051 0.805851 -0.533893
vn 0.470983 -0.729467 -0.496038
vn 0.626115 -0.441589 -0.642635
vn 0.707907 -0.136034 -0.693082
vn 0.693082 0.136034 -0.707907
vn 0.642635 0.441589 -0.626115
vn 0.496038 0.729467 -0.470983
vn -0.496038 -0.729467 0.470983
vn -0.642635 -0.441589 0.626115
vn -0.693082 -0.136034 0.707907
vn -0.707907 0.136034 0.693082
vn -0.626115 0.441589 0.642635
vn -0.470983 0.729467 0.496038
vn -0.256051 -0.805851 0.533893
vn -0.340132 -0.500194 0.796314
vn -0.368170 -0.180931 0.911984
vn -0.369054 0.143882 0.918203
vn -0.310822 0.457092 0.833341
vn -0.211606 0.808201 0.549577
vn -0.002334 -0.852656 0.522467
vn -0.004168 -0.587006 0.809572
vn -0.004318 -0.239588 0.970865
vn -0.004664 0.135365 0.990785
vn -0.002932 0.454478 0.890753
vn -0.001048 0.826926 0.562310
vn 0.002425 -0.798221 0.602360
vn 0.002932 -0.454478 0.890753
vn 0.004664 -0.135365 0.990785
vn 0.004318 0.239588 0.970865
vn 0.004168 0.587006 0.809572
vn 0.004982 0.826916 0.562303
vn 0.258350 -0.792186 0.552899
vn 0.310822 -0.457092 0.833341
vn 0.369054 -0.143882 0.918203
vn 0.368170 0.180931 0.911984
vn 0.340132 0.500194 0.796314
vn 0.312858 0.785415 0.534082
vn 0.503175 -0.702588 0.503175
vn 0.656445 -0.371698 0.656445
vn 0.704802 -0.080667 0.704802
vn 0.694383 0.188854 0.694383
vn 0.603891 0.520222 0.603891
vn 0.490135 0.720787 0.490135
vn -0.996672 0.081465 -0.002867
vn -0.982357 0.093276 -0.162093
vn -0.930823 0.104410 -0.350238
vn -0.843952 0.111548 -0.524693
vn -0.725132 0.114443 -0.679033
vn -0.578823 0.112996 -0.807587
vn -0.410411 0.107256 -0.905571
vn -0.226087 0.097421 -0.969223
vn -0.009667 0.082012 -0.996584
vn 0.002867 0.081465 -0.996672
vn 0.162093 0.093276 -0.982357
vn 0.350238 0.104410 -0.930823
vn 0.524693 0.111548 -0.843952
vn 0.679033 0.114443 -0.725132
vn 0.807587 0.112996 -0.578823
vn 0.905571 0.107256 -0.410411
vn 0.969223 0.097421 -0.226087
vn 0.996584 0.082012 -0.009667
vn 0.996672 0.081465 0.002867
vn 0.982357 0.093276 0.162093
vn 0.930823 0.104410 0.350238
vn 0.843952 0.111548 0.524693
vn 0.725132 0.114443 0.679033
vn 0.578823 0.112996 0.807587
vn 0.410411 0.107256 0.905571
vn 0.226087 0.097421 0.969223
vn 0.009667 0.082012 0.996584
vn -0.002867 0.081465 0.996672
vn -0.162093 0.093276 0.982357
vn -0.350238 0.104410 0.930823
vn -0.524693 0.111548 0.843952
vn -0.679033 0.114443 0.725132
vn -0.807587 0.112996 0.578823
vn -0.905571 0.107256 0.410411
vn -0.969223 0.097421 0.226087
vn -0.996584 0.082012 0.009667
vn -0.996551 0.082166 -0.011589
vn -0.969223 0.097421 -0.226087
vn -0.905571 0.107256 -0.410411
vn -0.807587 0.112996 -0.578823
vn -0.679033 0.114443 -0.725132
vn -0.524693 0.111548 -0.843952
vn -0.350238 0.104410 -0.930823
vn -0.162093 0.093276 -0.982357
vn -0.002867 0.081465 -0.996672
vn 0.011589 0.082166 -0.996551
vn 0.226087 0.097421 -0.969223
vn 0.410411 0.107256 -0.905571
vn 0.578823 0.112996 -0.807587
vn 0.725132 0.114443 -0.679033
vn 0.843952 0.111548 -0.524693
vn 0.930823 0.104410 -0.350238
vn 0.982357 0.093276 -0.162093
vn 0.996672 0.081465 -0.002867
vn 0.996551 0.082166 0.011589
vn 0.969223 0.097421 0.226087
vn 0.905571 0.107256 0.410411
vn 0.807587 0.112996 0.578823
vn 0.679033 0.114443 0.725132
vn 0.524693 0.111548 0.843952
vn 0.350238 0.104410 0.930823
vn 0.162093 0.093276 0.982357
vn 0.002867 0.081465 0.996672
vn -0.011589 0.082166 0.996551
vn -0.226087 0.097421 0.969223
vn -0.410411 0.107256 0.905571
vn -0.578823 0.112996 0.807587
vn -0.725132 0.114443 0.679033
vn -0.843952 0.111548 0.524693
vn -0.930823 0.104410 0.350238
vn -0.982357 0.093276 0.162093
vn -0.996672 0.081465 0.002867
f 2//2 7//7 1//1
f 8//8 7//7 2//2
f 3//3 8//8 2//2
f 9//9 8//8 3//3
f 4//4 9//9 3//3
f 10//10 9//9 4//4
f 5//5 10//10 4//4
f 11//11 10//10 5//5
f 6//6 11//11 5//5
f 12//12 11//11 6//6
f 8//8 13//13 7//7
f 14//14 13//13 8//8
f 9//9 14//14 8//8
f 15//15 14//14 9//9
f 10//10 15//15 9//9
f 16//16 15//15 10//10
f 11//11 16//16 10//10
f 17//17 16//16 11//11
f 12//12 17//17 11//11
f 18//18 17//17 12//12
f 14//14 19//19 13//13
f 20//20 19//19 14//14
f 15//15 20//20 14//14
f 21//21 20//20 15//15
f 16//16 21//21 15//15
f 22//22 21//21 16//16
f 17//17 22//22 16//16
f 23//23 22//22 17//17
f 18//18 23//23 17//17
f 24//24 23//23 18//18
f 20//20 25//25 19//19
f 26//26 25//25 20//20
f 21//21 26//26 20//20
f 27//27 26//26 21//21
f 22//22 27//27 21//21
f 28//28 27//27 22//22
f 23//23 28//28 22//22
f 29//29 28//28 23//23
f 24//24 29//29 23//23
f 30//30 29//29 24//24
f 26//26 31//31 25//25
f 32//32 31//31 26//26
f 27//27 32//32 26//26
f 33//33 32//32 27//27
f 28//28 33//33 27//27
f 34//34 33//33 28//28
f 29//29 34//34 28//28
f 35//35 34//34 29//29
f 30//30 35//35 29//29
f 36//36 35//35 30//30
f 37//37 43//43 38//38
f 38//38 43//43 44//44
f 38//38 44//44 39//39
f 39//39 44//44 45//45
f 39//39 45//45 40//40
f 40//40 45//45 46//46
f 40//40 46//46 41//41
f 41//41 46//46 47//47
f 41//41 47//47 42//42
f 42//42 47//47 48//48
f 43//43 49//49 44//44
f 44//44 49//49 50//50
f 44//44 50//50 45//45
f 45//45 50//50 51//51
f 45//45 51//51 46//46
f 46//46 51//51 52//52
f 46//46 52//52 47//47
f 47//47 52//52 53//53
f 47//47 53//53 48//48
f 48//48 53//53 54//54
f 49//49 55//55 50//50
f 50//50 55//55 56//56
f 50//50 56//56 51//51
f 51//51 56//56 57//57
f 51//51 57//57 52//52
f 52//52 57//57 58//58
f 52//52 58//58 53//53
f 53//53 58//58 59//59
f 53//53 59//59 54//54
f 54//54 59//59 60//60
f 55//55 61//61 56//56
f 56//56 61//61 62//62
f 56//56 62//62 57//57
f 57//57 62//62 63//63
f 57//57 63//63 58//58
f 58//58 63//63 64//64
f 58//58 64//64 59//59
f 59//59 64//64 65//65
f 59//59 65//65 60//60
f 60//60 65//65 66//66
f 61//61 67//67 62//62
f 62//62 67//67 68//68
f 62//62 68//68 63//63
f 63//63 68//68 69//69
f 63//63 69//69 64//64
f 64//64 69//69 70//70
f 64//64 70//70 65//65
f 65//65 70//70 71//71
f 65//65 71//71 66//66
f 66//66 71//71 72//72
f 74//74 79//79 73//73
f 80//80 79//79 74//74
f 75//75 80//80 74//74
f 81//81 80//80 75//75
f 76//76 81//81 75//75
f 82//82 81//81 76//76
f 77//77 82//82 76//76
f 83//83 82//82 77//77
f 78//78 83//83 77//77
f 84//84 83//83 78//78
f 80//80 85//85 79//79
f 86//86 85//85 80//80
f 81//81 86//86 80//80
f 87//87 86//86 81//81
f 82//82 87//87 81//81
f 88//88 87//87 82//82
f 83//83 88//88 82//82
f 89//89 88//88 83//83
f 84//84 89//89 83//83
f 90//90 89//89 84//84
f 86//86 91//91 85//85
f 92//92 91//91 86//86
f 87//87 92//92 86//86
f 93//93 92//92 87//87
f 88//88 93//93 87//87
f 94//94 93//93 88//88
f 89//89 94//94 88//88
f 95//95 94//94 89//89
f 90//90 95//95 89//89
f 96//96 95//95 90//90
f 92//92 97//97 91//91
f 98//98 97//97 92//92
f 93//93 98//98 92//92
f 99//99 98//98 93//93
f 94//94 99//99 93//93
f 100//100 99//99 94//94
f 95//95 100//100 94//94
f 101//101 100//100 95//95
f 96//96 101//101 95//95
f 102//102 101//101 96//96
f 98//98 103//103 97//97
f 104//104 103//103 98//98
f 99//99 104//104 98//98
f 105//105 104//104 99//99
f 100//100 105//105 99//99
f 106//106 105//105 100//100
f 101//101 106//106 100//100
f 107//107 106//106 101//101
f 102//102 107//107 101//101
f 108//108 107//107 102//102
f 109//109 115//115 110//110
f 110//110 115//115 116//116
f 110//110 116//116 111//111
f 111//111 116//116 117//117
f 111//111 117//117 112//112
f 112//112 117//117 118//118
f 112//112 118//118 113//113
f 113//113 118//118 119//119
f 113//113 119//119 114//114
f 114//114 119//119 120//120
f 115//115 121//121 116//116
f 116//116 121//121 122//122
f 116//116 122//122 117//117
f 117//117 122//122 123//123
f 117//117 123//123 118//118
f 118//118 123//123 124//124
f 118//118 124//124 119//119
f 119//119 124//124 125//125
f 119//119 125//125 120//120
f 120//120 125//125 126//126
f 121//121 127//127 122//122
f 122//122 127//127 128//128
f 122//122 128//128 123//123
f 123//123 128//128 129//129
f 123//123 129//129 124//124
f 124//124 129//129 130//130
f 124//124 130//130 125//125
f 125//125 130//130 131//131
f 125//125 131//131 126//126
f 126//126 131//131 132//132
f 127//127 133//133 128//128
f 128//128 133//133 134//134
f 128//128 134//134 129//129
f 129//129 134//134 135//135
f 129//129 135//135 130//130
f 130//130 135//135 136//136
f 130//130 136//136 131//131
f 131//131 136//136 137//137
f 131//131 137//137 132//132
f 132//132 137//137 138//138
f 133//133 139//139 134//134
f 134//134 139//139 140//140
f 134//134 140//140 135//135
f 135//135 140//140 141//141
f 135//135 141//141 136//136
f 136//136 141//141 142//142
f 136//136 142//142 137//137
f 137//137 142//142 143//143
f 137//137 143//143 138//138
f 138//138 143//143 144//144
f 146//146 151//151 145//145
f 152//152 151//151 146//146
f 147//147 152//152 146//146
f 153//153 152//152 147//147
f 148//148 153//153 147//147
f 154//154 153//153 148//148
f 149//149 154//154 148//148
f 155//155 154//154 149//149
f 150//150 155//155 149//149
f 156//156 155//155 150//150
f 152//152 157//157 151//151
f 158//158 157//157 152//152
f 153//153 158//158 152//152
f 159//159 158//158 153//153
f 154//154 159//159 153//153
f 160//160 159//159 154//154
f 155//155 160//160 154//154
f 161//161 160//160 155//155
f 156//156 161//161 155//155
f 162//162 161//161 156//156
f 158//158 163//163 157//157
f 164//164 163//163 158//158
f 159//159 164//164 158//158
f 165//165 164//164 159//159
f 160//160 165//165 159//159
f 166//166 165//165 160//160
f 161//161 166//166 160//160
f 167//167 166//166 161//161
f 162//162 167//167 161//161
f 168//168 167//167 162//162
f 164//164 169//169 163//163
f 170//170 169//169 164//164
f 165//165 170//170 164//164
f 171//171 170//170 165//165
f 166//166 171//171 165//165
f 172//172 171//171 166//166
f 167//167 172//172 166//166
f 173//173 172//172 167//167
f 168//168 173//173 167//167
f 174//174 173//173 168//168
f 170//170 175//175 169//169
f 176//176 175//175 170//170
f 171//171 176//176 170//170
f 177//177 176//176 171//171
f 172//172 177//177 171//171
f 178//178 177//177 172//172
f 173//173 178//178 172//172
f 179//179 178//178 173//173
f 174//174 179//179 173//173
f 180//180 179//179 174//174
f 181//181 187//187 182//182
f 182//182 187//187 188//188
f 182//182 188//188 183//183
f 183//183 188//188 189//189
f 183//183 189//189 184//184
f 184//184 189//189 190//190
f 184//184 190//190 185//185
f 185//185 190//190 191//191
f 185//185 191//191 186//186
f 186//186 191//191 192//192
f 187//187 193//193 188//188
f 188//188 193//193 194//194
f 188//188 194//194 189//189
f 189//189 194//194 195//195
f 189//189 195//195 190//190
f 190//190 195//195 196//196
f 190//190 196//196 191//191
f 191//191 196//196 197//197
f 191//191 197//197 192//192
f 192//192 197//197 198//198
f 193//193 199//199 194//194
f 194//194 199//199 200//200
f 194//194 200//200 195//195
f 195//195 200//200 201//201
f 195//195 201//201 196//196
f 196//196 201//201 202//202
f 196//196 202//202 197//197
f 197//197 202//202 203//203
f 197//197 203//203 198//198
f 198//198 203//203 204//204
f 199//199 205//205 200//200
f 200//200 205//205 206//206
f 200//200 206//206 201//201
f 201//201 206//206 207//207
f 201//201 207//207 202//202
f 202//202 207//207 208//208
f 202//202 208//208 203//203
f 203//203 208//208 209//209
f 203//203 209//209 204//204
f 204//204 209//209 210//210
f 205//205 211//211 206//206
f 206//206 211//211 212//212
f 206//206 212//212 207//207
f 207//207 212//212 213//213
f 207//207 213//213 208//208
f 208//208 213//213 214//214
f 208//208 214//214 209//209
f 209//209 214//214 215//215
f 209//209 215//215 210//210
f 210//210 215//215 216//216
f 217//217 253//253 218//218
f 218//218 253//253 254//254
f 218//218 254//254 219//219
f 219//219 254//254 255//255
f 219//219 255//255 220//220
f 220//220 255//255 256//256
f 220//220 256//256 221//221
f 221//221 256//256 257//257
f 221//221 257//257 222//222
f 222//222 257//257 258//258
f 222//222 258//258 223//223
f 223//223 258//258 259//259
f 223//223 259//259 224//224
f 224//224 259//259 260//260
f 224//224 260//260 225//225
f 225//225 260//260 261//261
f 225//225 261//261 226//226
f 226//226 261//261 262//262
f 226//226 262//262 227//227
f 227//227 262//262 263//263
f 227//227 263//263 228//228
f 228//228 263//263 264//264
f 228//228 264//264 229//229
f 229//229 264//264 265//265
f 229//229 265//265 230//230
f 230//230 265//265 266//266
f 230//230 266//266 231//231
f 231//231 266//266 267//267
f 231//231 267//267 232//232
f 232//232 267//267 268//268
f 232//232 268//268 233//233
f 233//233 268//268 269//269
f 233//233 269//269 234//234
f 234//234 269//269 270//270
f 234//234 270//270 235//235
f 235//235 270//270 271//271
f 235//235 271//271 236//236
f 236//236 271//271 272//272
f 236//236 272//272 237//237
f 237//237 272//272 273//273
f 237//237 273//273 238//238
f 238//238 273//273 274//274
f 238//238 274//274 239//239
f 239//239 274//274 275//275
f 239//239 275//275 240//240
f 240//240 275//275 276//276
f 240//240 276//276 241//241
f 241//241 276//276 277//277
f 241//241 277//277 242//242
f 242//242 277//277 278//278
f 242//242 278//278 243//243
f 243//243 278//278 279//279
f 243//243 279//279 244//244
f 244//244 279//279 280//280
f 244//244 280//280 245//245
f 245//245 280//280 281//281
f 245//245 281//281 246//246
f 246//246 281//281 282//282
f 246//246 282//282 247//247
f 247//247 282//282 283//283
f 247//247 283//283 248//248
f 248//248 283//283 284//284
f 248//248 284//284 249//249
f 249//249 284//284 285//285
f 249//249 285//285 250//250
f 250//250 285//285 286//286
f 250//250 286//286 251//251
f 251//251 286//286 287//287
f 251//251 287//287 252//252
f 252//252 287//287 288//288
f 252//252 288//288 217//217
f 217//217 288//288 253//253
o station-bin_teal
usemtl teal
v 0.190000 0.023800 0.120000
v 0.188655 0.023800 0.133656
v 0.184672 0.023800 0.146788
v 0.178203 0.023800 0.158890
v 0.169497 0.023800 0.169497
v 0.158890 0.023800 0.178203
v 0.146788 0.023800 0.184672
v 0.133656 0.023800 0.188655
v 0.120000 0.023800 0.190000
v -0.120000 0.023800 0.190000
v -0.133656 0.023800 0.188655
v -0.146788 0.023800 0.184672
v -0.158890 0.023800 0.178203
v -0.169497 0.023800 0.169497
v -0.178203 0.023800 0.158890
v -0.184672 0.023800 0.146788
v -0.188655 0.023800 0.133656
v -0.190000 0.023800 0.120000
v -0.190000 0.023800 -0.120000
v -0.188655 0.023800 -0.133656
v -0.184672 0.023800 -0.146788
v -0.178203 0.023800 -0.158890
v -0.169497 0.023800 -0.169497
v -0.158890 0.023800 -0.178203
v -0.146788 0.023800 -0.184672
v -0.133656 0.023800 -0.188655
v -0.120000 0.023800 -0.190000
v 0.120000 0.023800 -0.190000
v 0.133656 0.023800 -0.188655
v 0.146788 0.023800 -0.184672
v 0.158890 0.023800 -0.178203
v 0.169497 0.023800 -0.169497
v 0.178203 0.023800 -0.158890
v 0.184672 0.023800 -0.146788
v 0.188655 0.023800 -0.133656
v 0.190000 0.023800 -0.120000
v 0.215000 0.292400 0.140000
v 0.213559 0.292400 0.154632
v 0.209291 0.292400 0.168701
v 0.202360 0.292400 0.181668
v 0.193033 0.292400 0.193033
v 0.181668 0.292400 0.202360
v 0.168701 0.292400 0.209291
v 0.154632 0.292400 0.213559
v 0.140000 0.292400 0.215000
v -0.140000 0.292400 0.215000
v -0.154632 0.292400 0.213559
v -0.168701 0.292400 0.209291
v -0.181668 0.292400 0.202360
v -0.193033 0.292400 0.193033
v -0.202360 0.292400 0.181668
v -0.209291 0.292400 0.168701
v -0.213559 0.292400 0.154632
v -0.215000 0.292400 0.140000
v -0.215000 0.292400 -0.140000
v -0.213559 0.292400 -0.154632
v -0.209291 0.292400 -0.168701
v -0.202360 0.292400 -0.181668
v -0.193033 0.292400 -0.193033
v -0.181668 0.292400 -0.202360
v -0.168701 0.292400 -0.209291
v -0.154632 0.292400 -0.213559
v -0.140000 0.292400 -0.215000
v 0.140000 0.292400 -0.215000
v 0.154632 0.292400 -0.213559
v 0.168701 0.292400 -0.209291
v 0.181668 0.292400 -0.202360
v 0.193033 0.292400 -0.193033
v 0.202360 0.292400 -0.181668
v 0.209291 0.292400 -0.168701
v 0.213559 0.292400 -0.154632
v 0.215000 0.292400 -0.140000
v 0.240000 0.312800 0.160000
v 0.238463 0.312800 0.175607
v 0.233910 0.312800 0.190615
v 0.226518 0.312800 0.204446
v 0.216569 0.312800 0.216569
v 0.204446 0.312800 0.226518
v 0.190615 0.312800 0.233910
v 0.175607 0.312800 0.238463
v 0.160000 0.312800 0.240000
v -0.160000 0.312800 0.240000
v -0.175607 0.312800 0.238463
v -0.190615 0.312800 0.233910
v -0.204446 0.312800 0.226518
v -0.216569 0.312800 0.216569
v -0.226518 0.312800 0.204446
v -0.233910 0.312800 0.190615
v -0.238463 0.312800 0.175607
v -0.240000 0.312800 0.160000
v -0.240000 0.312800 -0.160000
v -0.238463 0.312800 -0.175607
v -0.233910 0.312800 -0.190615
v -0.226518 0.312800 -0.204446
v -0.216569 0.312800 -0.216569
v -0.204446 0.312800 -0.226518
v -0.190615 0.312800 -0.233910
v -0.175607 0.312800 -0.238463
v -0.160000 0.312800 -0.240000
v 0.160000 0.312800 -0.240000
v 0.175607 0.312800 -0.238463
v 0.190615 0.312800 -0.233910
v 0.204446 0.312800 -0.226518
v 0.216569 0.312800 -0.216569
v 0.226518 0.312800 -0.204446
v 0.233910 0.312800 -0.190615
v 0.238463 0.312800 -0.175607
v 0.240000 0.312800 -0.160000
v 0.240000 0.333200 0.160000
v 0.238463 0.333200 0.175607
v 0.233910 0.333200 0.190615
v 0.226518 0.333200 0.204446
v 0.216569 0.333200 0.216569
v 0.204446 0.333200 0.226518
v 0.190615 0.333200 0.233910
v 0.175607 0.333200 0.238463
v 0.160000 0.333200 0.240000
v -0.160000 0.333200 0.240000
v -0.175607 0.333200 0.238463
v -0.190615 0.333200 0.233910
v -0.204446 0.333200 0.226518
v -0.216569 0.333200 0.216569
v -0.226518 0.333200 0.204446
v -0.233910 0.333200 0.190615
v -0.238463 0.333200 0.175607
v -0.240000 0.333200 0.160000
v -0.240000 0.333200 -0.160000
v -0.238463 0.333200 -0.175607
v -0.233910 0.333200 -0.190615
v -0.226518 0.333200 -0.204446
v -0.216569 0.333200 -0.216569
v -0.204446 0.333200 -0.226518
v -0.190615 0.333200 -0.233910
v -0.175607 0.333200 -0.238463
v -0.160000 0.333200 -0.240000
v 0.160000 0.333200 -0.240000
v 0.175607 0.333200 -0.238463
v 0.190615 0.333200 -0.233910
v 0.204446 0.333200 -0.226518
v 0.216569 0.333200 -0.216569
v 0.226518 0.333200 -0.204446
v 0.233910 0.333200 -0.190615
v 0.238463 0.333200 -0.175607
v 0.240000 0.333200 -0.160000
v 0.195000 0.333200 0.125000
v 0.193655 0.333200 0.138656
v 0.189672 0.333200 0.151788
v 0.183203 0.333200 0.163890
v 0.174497 0.333200 0.174497
v 0.163890 0.333200 0.183203
v 0.151788 0.333200 0.189672
v 0.138656 0.333200 0.193655
v 0.125000 0.333200 0.195000
v -0.125000 0.333200 0.195000
v -0.138656 0.333200 0.193655
v -0.151788 0.333200 0.189672
v -0.163890 0.333200 0.183203
v -0.174497 0.333200 0.174497
v -0.183203 0.333200 0.163890
v -0.189672 0.333200 0.151788
v -0.193655 0.333200 0.138656
v -0.195000 0.333200 0.125000
v -0.195000 0.333200 -0.125000
v -0.193655 0.333200 -0.138656
v -0.189672 0.333200 -0.151788
v -0.183203 0.333200 -0.163890
v -0.174497 0.333200 -0.174497
v -0.163890 0.333200 -0.183203
v -0.151788 0.333200 -0.189672
v -0.138656 0.333200 -0.193655
v -0.125000 0.333200 -0.195000
v 0.125000 0.333200 -0.195000
v 0.138656 0.333200 -0.193655
v 0.151788 0.333200 -0.189672
v 0.163890 0.333200 -0.183203
v 0.174497 0.333200 -0.174497
v 0.183203 0.333200 -0.163890
v 0.189672 0.333200 -0.151788
v 0.193655 0.333200 -0.138656
v 0.195000 0.333200 -0.125000
vn 0.995676 -0.092860 0.002510
vn 0.981601 -0.103540 0.160431
vn 0.930401 -0.113708 0.348460
vn 0.843889 -0.120238 0.522871
vn 0.725428 -0.122906 0.677236
vn 0.579459 -0.121618 0.805876
vn 0.411365 -0.116420 0.904005
vn 0.227328 -0.107491 0.967868
vn 0.010339 -0.093433 0.995572
vn -0.002510 -0.092860 0.995676
vn -0.160431 -0.103540 0.981601
vn -0.348460 -0.113708 0.930401
vn -0.522871 -0.120238 0.843889
vn -0.677236 -0.122906 0.725428
vn -0.805876 -0.121618 0.579459
vn -0.904005 -0.116420 0.411365
vn -0.967868 -0.107491 0.227328
vn -0.995572 -0.093433 0.010339
vn -0.995676 -0.092860 -0.002510
vn -0.981601 -0.103540 -0.160431
vn -0.930401 -0.113708 -0.348460
vn -0.843889 -0.120238 -0.522871
vn -0.725428 -0.122906 -0.677236
vn -0.579459 -0.121618 -0.805876
vn -0.411365 -0.116420 -0.904005
vn -0.227328 -0.107491 -0.967868
vn -0.010339 -0.093433 -0.995572
vn 0.002510 -0.092860 -0.995676
vn 0.160431 -0.103540 -0.981601
vn 0.348460 -0.113708 -0.930401
vn 0.522871 -0.120238 -0.843889
vn 0.677236 -0.122906 -0.725428
vn 0.805876 -0.121618 -0.579459
vn 0.904005 -0.116420 -0.411365
vn 0.967868 -0.107491 -0.227328
vn 0.995572 -0.093433 -0.010339
vn 0.971718 -0.236013 0.007927
vn 0.956169 -0.196945 0.216687
vn 0.892194 -0.214292 0.397580
vn 0.795535 -0.224908 0.562619
vn 0.669908 -0.228528 0.706398
vn 0.519655 -0.225066 0.824199
vn 0.349720 -0.214604 0.911943
vn 0.165701 -0.197402 0.966217
vn 0.002957 -0.140071 0.990137
vn -0.007927 -0.236013 0.971718
vn -0.216687 -0.196945 0.956169
vn -0.397580 -0.214292 0.892194
vn -0.562619 -0.224908 0.795535
vn -0.706398 -0.228528 0.669908
vn -0.824199 -0.225066 0.519655
vn -0.911943 -0.214604 0.349720
vn -0.966217 -0.197402 0.165701
vn -0.990137 -0.140071 0.002957
vn -0.971718 -0.236013 -0.007927
vn -0.956169 -0.196945 -0.216687
vn -0.892194 -0.214292 -0.397580
vn -0.795535 -0.224908 -0.562619
vn -0.669908 -0.228528 -0.706398
vn -0.519655 -0.225066 -0.824199
vn -0.349720 -0.214604 -0.911943
vn -0.165701 -0.197402 -0.966217
vn -0.002957 -0.140071 -0.990137
vn 0.007927 -0.236013 -0.971718
vn 0.216687 -0.196945 -0.956169
vn 0.397580 -0.214292 -0.892194
vn 0.562619 -0.224908 -0.795535
vn 0.706398 -0.228528 -0.669908
vn 0.824199 -0.225066 -0.519655
vn 0.911943 -0.214604 -0.349720
vn 0.966217 -0.197402 -0.165701
vn 0.990137 -0.140071 -0.002957
vn 0.918787 -0.394732 0.004125
vn 0.802304 -0.575426 0.158724
vn 0.734725 -0.606715 0.303441
vn 0.650279 -0.623851 0.433528
vn 0.550789 -0.628107 0.549648
vn 0.436661 -0.619810 0.652045
vn 0.307394 -0.598326 0.739943
vn 0.162195 -0.562096 0.811012
vn 0.003758 -0.615942 0.787782
vn -0.004125 -0.394732 0.918787
vn -0.158724 -0.575426 0.802304
vn -0.303441 -0.606715 0.734725
vn -0.433528 -0.623851 0.650279
vn -0.549648 -0.628107 0.550789
vn -0.652045 -0.619810 0.436661
vn -0.739943 -0.598326 0.307394
vn -0.811012 -0.562096 0.162195
vn -0.787782 -0.615942 0.003758
vn -0.918787 -0.394732 -0.004125
vn -0.802304 -0.575426 -0.158724
vn -0.734725 -0.606715 -0.303441
vn -0.650279 -0.623851 -0.433528
vn -0.550789 -0.628107 -0.549648
vn -0.436661 -0.619810 -0.652045
vn -0.307394 -0.598326 -0.739943
vn -0.162195 -0.562096 -0.811012
vn -0.003758 -0.615942 -0.787782
vn 0.004125 -0.394732 -0.918787
vn 0.158724 -0.575426 -0.802304
vn 0.303441 -0.606715 -0.734725
vn 0.433528 -0.623851 -0.650279
vn 0.549648 -0.628107 -0.550789
vn 0.652045 -0.619810 -0.436661
vn 0.739943 -0.598326 -0.307394
vn 0.811012 -0.562096 -0.162195
vn 0.787782 -0.615942 -0.003758
vn 0.261861 0.965103 0.002292
vn 0.379520 0.920938 0.088529
vn 0.328071 0.932878 0.148684
vn 0.279086 0.939201 0.200030
vn 0.230367 0.941494 0.246007
vn 0.179717 0.940287 0.289070
vn 0.124610 0.935305 0.331176
vn 0.061727 0.925335 0.374091
vn 0.001514 0.763620 0.645664
vn -0.002292 0.965103 0.261861
vn -0.088529 0.920938 0.379520
vn -0.148684 0.932878 0.328071
vn -0.200030 0.939201 0.279086
vn -0.246007 0.941494 0.230367
vn -0.289070 0.940287 0.179717
vn -0.331176 0.935305 0.124610
vn -0.374091 0.925335 0.061727
vn -0.645664 0.763620 0.001514
vn -0.261861 0.965103 -0.002292
vn -0.379520 0.920938 -0.088529
vn -0.328071 0.932878 -0.148684
vn -0.279086 0.939201 -0.200030
vn -0.230367 0.941494 -0.246007
vn -0.179717 0.940287 -0.289070
vn -0.124610 0.935305 -0.331176
vn -0.061727 0.925335 -0.374091
vn -0.001514 0.763620 -0.645664
vn 0.002292 0.965103 -0.261861
vn 0.088529 0.920938 -0.379520
vn 0.148684 0.932878 -0.328071
vn 0.200030 0.939201 -0.279086
vn 0.246007 0.941494 -0.230367
vn 0.289070 0.940287 -0.179717
vn 0.331176 0.935305 -0.124610
vn 0.374091 0.925335 -0.061727
vn 0.645664 0.763620 -0.001514
vn 0.000000 1.000000 0.000000
vn 0.000000 1.000000 0.000000
vn 0.000000 1.000000 0.000000
vn 0.000000 1.000000 0.000000
vn 0.000000 1.000000 0.000000
vn 0.000000 1.000000 0.000000
vn 0.000000 1.000000 0.000000
vn 0.000000 1.000000 0.000000
vn 0.000000 1.000000 0.000000
vn 0.000000 1.000000 0.000000
vn 0.000000 1.000000 0.000000
vn 0.000000 1.000000 0.000000
vn 0.000000 1.000000 0.000000
vn 0.000000 1.000000 0.000000
vn 0.000000 1.000000 0.000000
vn 0.000000 1.000000 0.000000
vn 0.000000 1.000000 0.000000
vn 0.000000 1.000000 0.000000
vn 0.000000 1.000000 0.000000
vn 0.000000 1.000000 0.000000
vn 0.000000 1.000000 0.000000
vn 0.000000 1.000000 0.000000
vn 0.000000 1.000000 0.000000
vn 0.000000 1.000000 0.000000
vn 0.000000 1.000000 0.000000
vn 0.000000 1.000000 0.000000
vn 0.000000 1.000000 0.000000
vn 0.000000 1.000000 0.000000
vn 0.000000 1.000000 0.000000
vn 0.000000 1.000000 0.000000
vn 0.000000 1.000000 0.000000
vn 0.000000 1.000000 0.000000
vn 0.000000 1.000000 0.000000
vn 0.000000 1.000000 0.000000
vn 0.000000 1.000000 0.000000
vn 0.000000 1.000000 0.000000
f 289//289 325//325 290//290
f 290//290 325//325 326//326
f 290//290 326//326 291//291
f 291//291 326//326 327//327
f 291//291 327//327 292//292
f 292//292 327//327 328//328
f 292//292 328//328 293//293
f 293//293 328//328 329//329
f 293//293 329//329 294//294
f 294//294 329//329 330//330
f 294//294 330//330 295//295
f 295//295 330//330 331//331
f 295//295 331//331 296//296
f 296//296 331//331 332//332
f 296//296 332//332 297//297
f 297//297 332//332 333//333
f 297//297 333//333 298//298
f 298//298 333//333 334//334
f 298//298 334//334 299//299
f 299//299 334//334 335//335
f 299//299 335//335 300//300
f 300//300 335//335 336//336
f 300//300 336//336 301//301
f 301//301 336//336 337//337
f 301//301 337//337 302//302
f 302//302 337//337 338//338
f 302//302 338//338 303//303
f 303//303 338//338 339//339
f 303//303 339//339 304//304
f 304//304 339//339 340//340
f 304//304 340//340 305//305
f 305//305 340//340 341//341
f 305//305 341//341 306//306
f 306//306 341//341 342//342
f 306//306 342//342 307//307
f 307//307 342//342 343//343
f 307//307 343//343 308//308
f 308//308 343//343 344//344
f 308//308 344//344 309//309
f 309//309 344//344 345//345
f 309//309 345//345 310//310
f 310//310 345//345 346//346
f 310//310 346//346 311//311
f 311//311 346//346 347//347
f 311//311 347//347 312//312
f 312//312 347//347 348//348
f 312//312 348//348 313//313
f 313//313 348//348 349//349
f 313//313 349//349 314//314
f 314//314 349//349 350//350
f 314//314 350//350 315//315
f 315//315 350//350 351//351
f 315//315 351//351 316//316
f 316//316 351//351 352//352
f 316//316 352//352 317//317
f 317//317 352//352 353//353
f 317//317 353//353 318//318
f 318//318 353//353 354//354
f 318//318 354//354 319//319
f 319//319 354//354 355//355
f 319//319 355//355 320//320
f 320//320 355//355 356//356
f 320//320 356//356 321//321
f 321//321 356//356 357//357
f 321//321 357//357 322//322
f 322//322 357//357 358//358
f 322//322 358//358 323//323
f 323//323 358//358 359//359
f 323//323 359//359 324//324
f 324//324 359//359 360//360
f 324//324 360//360 289//289
f 289//289 360//360 325//325
f 325//325 361//361 326//326
f 326//326 361//361 362//362
f 326//326 362//362 327//327
f 327//327 362//362 363//363
f 327//327 363//363 328//328
f 328//328 363//363 364//364
f 328//328 364//364 329//329
f 329//329 364//364 365//365
f 329//329 365//365 330//330
f 330//330 365//365 366//366
f 330//330 366//366 331//331
f 331//331 366//366 367//367
f 331//331 367//367 332//332
f 332//332 367//367 368//368
f 332//332 368//368 333//333
f 333//333 368//368 369//369
f 333//333 369//369 334//334
f 334//334 369//369 370//370
f 334//334 370//370 335//335
f 335//335 370//370 371//371
f 335//335 371//371 336//336
f 336//336 371//371 372//372
f 336//336 372//372 337//337
f 337//337 372//372 373//373
f 337//337 373//373 338//338
f 338//338 373//373 374//374
f 338//338 374//374 339//339
f 339//339 374//374 375//375
f 339//339 375//375 340//340
f 340//340 375//375 376//376
f 340//340 376//376 341//341
f 341//341 376//376 377//377
f 341//341 377//377 342//342
f 342//342 377//377 378//378
f 342//342 378//378 343//343
f 343//343 378//378 379//379
f 343//343 379//379 344//344
f 344//344 379//379 380//380
f 344//344 380//380 345//345
f 345//345 380//380 381//381
f 345//345 381//381 346//346
f 346//346 381//381 382//382
f 346//346 382//382 347//347
f 347//347 382//382 383//383
f 347//347 383//383 348//348
f 348//348 383//383 384//384
f 348//348 384//384 349//349
f 349//349 384//384 385//385
f 349//349 385//385 350//350
f 350//350 385//385 386//386
f 350//350 386//386 351//351
f 351//351 386//386 387//387
f 351//351 387//387 352//352
f 352//352 387//387 388//388
f 352//352 388//388 353//353
f 353//353 388//388 389//389
f 353//353 389//389 354//354
f 354//354 389//389 390//390
f 354//354 390//390 355//355
f 355//355 390//390 391//391
f 355//355 391//391 356//356
f 356//356 391//391 392//392
f 356//356 392//392 357//357
f 357//357 392//392 393//393
f 357//357 393//393 358//358
f 358//358 393//393 394//394
f 358//358 394//394 359//359
f 359//359 394//394 395//395
f 359//359 395//395 360//360
f 360//360 395//395 396//396
f 360//360 396//396 325//325
f 325//325 396//396 361//361
f 361//361 397//397 362//362
f 362//362 397//397 398//398
f 362//362 398//398 363//363
f 363//363 398//398 399//399
f 363//363 399//399 364//364
f 364//364 399//399 400//400
f 364//364 400//400 365//365
f 365//365 400//400 401//401
f 365//365 401//401 366//366
f 366//366 401//401 402//402
f 366//366 402//402 367//367
f 367//367 402//402 403//403
f 367//367 403//403 368//368
f 368//368 403//403 404//404
f 368//368 404//404 369//369
f 369//369 404//404 405//405
f 369//369 405//405 370//370
f 370//370 405//405 406//406
f 370//370 406//406 371//371
f 371//371 406//406 407//407
f 371//371 407//407 372//372
f 372//372 407//407 408//408
f 372//372 408//408 373//373
f 373//373 408//408 409//409
f 373//373 409//409 374//374
f 374//374 409//409 410//410
f 374//374 410//410 375//375
f 375//375 410//410 411//411
f 375//375 411//411 376//376
f 376//376 411//411 412//412
f 376//376 412//412 377//377
f 377//377 412//412 413//413
f 377//377 413//413 378//378
f 378//378 413//413 414//414
f 378//378 414//414 379//379
f 379//379 414//414 415//415
f 379//379 415//415 380//380
f 380//380 415//415 416//416
f 380//380 416//416 381//381
f 381//381 416//416 417//417
f 381//381 417//417 382//382
f 382//382 417//417 418//418
f 382//382 418//418 383//383
f 383//383 418//418 419//419
f 383//383 419//419 384//384
f 384//384 419//419 420//420
f 384//384 420//420 385//385
f 385//385 420//420 421//421
f 385//385 421//421 386//386
f 386//386 421//421 422//422
f 386//386 422//422 387//387
f 387//387 422//422 423//423
f 387//387 423//423 388//388
f 388//388 423//423 424//424
f 388//388 424//424 389//389
f 389//389 424//424 425//425
f 389//389 425//425 390//390
f 390//390 425//425 426//426
f 390//390 426//426 391//391
f 391//391 426//426 427//427
f 391//391 427//427 392//392
f 392//392 427//427 428//428
f 392//392 428//428 393//393
f 393//393 428//428 429//429
f 393//393 429//429 394//394
f 394//394 429//429 430//430
f 394//394 430//430 395//395
f 395//395 430//430 431//431
f 395//395 431//431 396//396
f 396//396 431//431 432//432
f 396//396 432//432 361//361
f 361//361 432//432 397//397
f 397//397 433//433 398//398
f 398//398 433//433 434//434
f 398//398 434//434 399//399
f 399//399 434//434 435//435
f 399//399 435//435 400//400
f 400//400 435//435 436//436
f 400//400 436//436 401//401
f 401//401 436//436 437//437
f 401//401 437//437 402//402
f 402//402 437//437 438//438
f 402//402 438//438 403//403
f 403//403 438//438 439//439
f 403//403 439//439 404//404
f 404//404 439//439 440//440
f 404//404 440//440 405//405
f 405//405 440//440 441//441
f 405//405 441//441 406//406
f 406//406 441//441 442//442
f 406//406 442//442 407//407
f 407//407 442//442 443//443
f 407//407 443//443 408//408
f 408//408 443//443 444//444
f 408//408 444//444 409//409
f 409//409 444//444 445//445
f 409//409 445//445 410//410
f 410//410 445//445 446//446
f 410//410 446//446 411//411
f 411//411 446//446 447//447
f 411//411 447//447 412//412
f 412//412 447//447 448//448
f 412//412 448//448 413//413
f 413//413 448//448 449//449
f 413//413 449//449 414//414
f 414//414 449//449 450//450
f 414//414 450//450 415//415
f 415//415 450//450 451//451
f 415//415 451//451 416//416
f 416//416 451//451 452//452
f 416//416 452//452 417//417
f 417//417 452//452 453//453
f 417//417 453//453 418//418
f 418//418 453//453 454//454
f 418//418 454//454 419//419
f 419//419 454//454 455//455
f 419//419 455//455 420//420
f 420//420 455//455 456//456
f 420//420 456//456 421//421
f 421//421 456//456 457//457
f 421//421 457//457 422//422
f 422//422 457//457 458//458
f 422//422 458//458 423//423
f 423//423 458//458 459//459
f 423//423 459//459 424//424
f 424//424 459//459 460//460
f 424//424 460//460 425//425
f 425//425 460//460 461//461
f 425//425 461//461 426//426
f 426//426 461//461 462//462
f 426//426 462//462 427//427
f 427//427 462//462 463//463
f 427//427 463//463 428//428
f 428//428 463//463 464//464
f 428//428 464//464 429//429
f 429//429 464//464 465//465
f 429//429 465//465 430//430
f 430//430 465//465 466//466
f 430//430 466//466 431//431
f 431//431 466//466 467//467
f 431//431 467//467 432//432
f 432//432 467//467 468//468
f 432//432 468//468 397//397
f 397//397 468//468 433//433
o station-bin_cocoa
usemtl cocoa
v 0.240000 0.312800 0.160000
v 0.238463 0.312800 0.175607
v 0.233910 0.312800 0.190615
v 0.226518 0.312800 0.204446
v 0.216569 0.312800 0.216569
v 0.204446 0.312800 0.226518
v 0.190615 0.312800 0.233910
v 0.175607 0.312800 0.238463
v 0.160000 0.312800 0.240000
v -0.160000 0.312800 0.240000
v -0.175607 0.312800 0.238463
v -0.190615 0.312800 0.233910
v -0.204446 0.312800 0.226518
v -0.216569 0.312800 0.216569
v -0.226518 0.312800 0.204446
v -0.233910 0.312800 0.190615
v -0.238463 0.312800 0.175607
v -0.240000 0.312800 0.160000
v -0.240000 0.312800 -0.160000
v -0.238463 0.312800 -0.175607
v -0.233910 0.312800 -0.190615
v -0.226518 0.312800 -0.204446
v -0.216569 0.312800 -0.216569
v -0.204446 0.312800 -0.226518
v -0.190615 0.312800 -0.233910
v -0.175607 0.312800 -0.238463
v -0.160000 0.312800 -0.240000
v 0.160000 0.312800 -0.240000
v 0.175607 0.312800 -0.238463
v 0.190615 0.312800 -0.233910
v 0.204446 0.312800 -0.226518
v 0.216569 0.312800 -0.216569
v 0.226518 0.312800 -0.204446
v 0.233910 0.312800 -0.190615
v 0.238463 0.312800 -0.175607
v 0.240000 0.312800 -0.160000
v 0.240000 0.333200 0.160000
v 0.238463 0.333200 0.175607
v 0.233910 0.333200 0.190615
v 0.226518 0.333200 0.204446
v 0.216569 0.333200 0.216569
v 0.204446 0.333200 0.226518
v 0.190615 0.333200 0.233910
v 0.175607 0.333200 0.238463
v 0.160000 0.333200 0.240000
v -0.160000 0.333200 0.240000
v -0.175607 0.333200 0.238463
v -0.190615 0.333200 0.233910
v -0.204446 0.333200 0.226518
v -0.216569 0.333200 0.216569
v -0.226518 0.333200 0.204446
v -0.233910 0.333200 0.190615
v -0.238463 0.333200 0.175607
v -0.240000 0.333200 0.160000
v -0.240000 0.333200 -0.160000
v -0.238463 0.333200 -0.175607
v -0.233910 0.333200 -0.190615
v -0.226518 0.333200 -0.204446
v -0.216569 0.333200 -0.216569
v -0.204446 0.333200 -0.226518
v -0.190615 0.333200 -0.233910
v -0.175607 0.333200 -0.238463
v -0.160000 0.333200 -0.240000
v 0.160000 0.333200 -0.240000
v 0.175607 0.333200 -0.238463
v 0.190615 0.333200 -0.233910
v 0.204446 0.333200 -0.226518
v 0.216569 0.333200 -0.216569
v 0.226518 0.333200 -0.204446
v 0.233910 0.333200 -0.190615
v 0.238463 0.333200 -0.175607
v 0.240000 0.333200 -0.160000
v 0.195000 0.333200 0.125000
v 0.193655 0.333200 0.138656
v 0.189672 0.333200 0.151788
v 0.183203 0.333200 0.163890
v 0.174497 0.333200 0.174497
v 0.163890 0.333200 0.183203
v 0.151788 0.333200 0.189672
v 0.138656 0.333200 0.193655
v 0.125000 0.333200 0.195000
v -0.125000 0.333200 0.195000
v -0.138656 0.333200 0.193655
v -0.151788 0.333200 0.189672
v -0.163890 0.333200 0.183203
v -0.174497 0.333200 0.174497
v -0.183203 0.333200 0.163890
v -0.189672 0.333200 0.151788
v -0.193655 0.333200 0.138656
v -0.195000 0.333200 0.125000
v -0.195000 0.333200 -0.125000
v -0.193655 0.333200 -0.138656
v -0.189672 0.333200 -0.151788
v -0.183203 0.333200 -0.163890
v -0.174497 0.333200 -0.174497
v -0.163890 0.333200 -0.183203
v -0.151788 0.333200 -0.189672
v -0.138656 0.333200 -0.193655
v -0.125000 0.333200 -0.195000
v 0.125000 0.333200 -0.195000
v 0.138656 0.333200 -0.193655
v 0.151788 0.333200 -0.189672
v 0.163890 0.333200 -0.183203
v 0.174497 0.333200 -0.174497
v 0.183203 0.333200 -0.163890
v 0.189672 0.333200 -0.151788
v 0.193655 0.333200 -0.138656
v 0.195000 0.333200 -0.125000
v 0.195000 0.312800 0.125000
v 0.193655 0.312800 0.138656
v 0.189672 0.312800 0.151788
v 0.183203 0.312800 0.163890
v 0.174497 0.312800 0.174497
v 0.163890 0.312800 0.183203
v 0.151788 0.312800 0.189672
v 0.138656 0.312800 0.193655
v 0.125000 0.312800 0.195000
v -0.125000 0.312800 0.195000
v -0.138656 0.312800 0.193655
v -0.151788 0.312800 0.189672
v -0.163890 0.312800 0.183203
v -0.174497 0.312800 0.174497
v -0.183203 0.312800 0.163890
v -0.189672 0.312800 0.151788
v -0.193655 0.312800 0.138656
v -0.195000 0.312800 0.125000
v -0.195000 0.312800 -0.125000
v -0.193655 0.312800 -0.138656
v -0.189672 0.312800 -0.151788
v -0.183203 0.312800 -0.163890
v -0.174497 0.312800 -0.174497
v -0.163890 0.312800 -0.183203
v -0.151788 0.312800 -0.189672
v -0.138656 0.312800 -0.193655
v -0.125000 0.312800 -0.195000
v 0.125000 0.312800 -0.195000
v 0.138656 0.312800 -0.193655
v 0.151788 0.312800 -0.189672
v 0.163890 0.312800 -0.183203
v 0.174497 0.312800 -0.174497
v 0.183203 0.312800 -0.163890
v 0.189672 0.312800 -0.151788
v 0.193655 0.312800 -0.138656
v 0.195000 0.312800 -0.125000
vn 0.999997 0.000000 0.002345
vn 0.986659 0.000000 0.162803
vn 0.935939 0.000000 0.352162
vn 0.849252 0.000000 0.527988
vn 0.729928 0.000000 0.683524
vn 0.582554 0.000000 0.812792
vn 0.412792 0.000000 0.910825
vn 0.227168 0.000000 0.973856
vn 0.008753 0.000000 0.999962
vn -0.002345 0.000000 0.999997
vn -0.162803 0.000000 0.986659
vn -0.352162 0.000000 0.935939
vn -0.527988 0.000000 0.849252
vn -0.683524 0.000000 0.729928
vn -0.812792 0.000000 0.582554
vn -0.910825 0.000000 0.412792
vn -0.973856 0.000000 0.227168
vn -0.999962 0.000000 0.008753
vn -0.999997 0.000000 -0.002345
vn -0.986659 0.000000 -0.162803
vn -0.935939 0.000000 -0.352162
vn -0.849252 0.000000 -0.527988
vn -0.729928 0.000000 -0.683524
vn -0.582554 0.000000 -0.812792
vn -0.412792 0.000000 -0.910825
vn -0.227168 0.000000 -0.973856
vn -0.008753 0.000000 -0.999962
vn 0.002345 0.000000 -0.999997
vn 0.162803 0.000000 -0.986659
vn 0.352162 0.000000 -0.935939
vn 0.527988 0.000000 -0.849252
vn 0.683524 0.000000 -0.729928
vn 0.812792 0.000000 -0.582554
vn 0.910825 0.000000 -0.412792
vn 0.973856 0.000000 -0.227168
vn 0.999962 0.000000 -0.008753
vn 0.261861 0.965103 0.002292
vn 0.379520 0.920938 0.088529
vn 0.328071 0.932878 0.148684
vn 0.279086 0.939201 0.200030
vn 0.230367 0.941494 0.246007
vn 0.179717 0.940287 0.289070
vn 0.124610 0.935305 0.331176
vn 0.061727 0.925335 0.374091
vn 0.001514 0.763620 0.645664
vn -0.002292 0.965103 0.261861
vn -0.088529 0.920938 0.379520
vn -0.148684 0.932878 0.328071
vn -0.200030 0.939201 0.279086
vn -0.246007 0.941494 0.230367
vn -0.289070 0.940287 0.179717
vn -0.331176 0.935305 0.124610
vn -0.374091 0.925335 0.061727
vn -0.645664 0.763620 0.001514
vn -0.261861 0.965103 -0.002292
vn -0.379520 0.920938 -0.088529
vn -0.328071 0.932878 -0.148684
vn -0.279086 0.939201 -0.200030
vn -0.230367 0.941494 -0.246007
vn -0.179717 0.940287 -0.289070
vn -0.124610 0.935305 -0.331176
vn -0.061727 0.925335 -0.374091
vn -0.001514 0.763620 -0.645664
vn 0.002292 0.965103 -0.261861
vn 0.088529 0.920938 -0.379520
vn 0.148684 0.932878 -0.328071
vn 0.200030 0.939201 -0.279086
vn 0.246007 0.941494 -0.230367
vn 0.289070 0.940287 -0.179717
vn 0.331176 0.935305 -0.124610
vn 0.374091 0.925335 -0.061727
vn 0.645664 0.763620 -0.001514
vn -0.637384 0.770544 -0.001669
vn -0.345359 0.936739 -0.056986
vn -0.305558 0.945207 -0.114971
vn -0.266738 0.949394 -0.165834
vn -0.227155 0.950344 -0.212714
vn -0.184929 0.948277 -0.258017
vn -0.137721 0.942703 -0.303881
vn -0.082235 0.932178 -0.352536
vn -0.002039 0.977656 -0.210203
vn 0.001669 0.770544 -0.637384
vn 0.056986 0.936739 -0.345359
vn 0.114971 0.945207 -0.305558
vn 0.165834 0.949394 -0.266738
vn 0.212714 0.950344 -0.227155
vn 0.258017 0.948277 -0.184929
vn 0.303881 0.942703 -0.137721
vn 0.352536 0.932178 -0.082235
vn 0.210203 0.977656 -0.002039
vn 0.637384 0.770544 0.001669
vn 0.345359 0.936739 0.056986
vn 0.305558 0.945207 0.114971
vn 0.266738 0.949394 0.165834
vn 0.227155 0.950344 0.212714
vn 0.184929 0.948277 0.258017
vn 0.137721 0.942703 0.303881
vn 0.082235 0.932178 0.352536
vn 0.002039 0.977656 0.210203
vn -0.001669 0.770544 0.637384
vn -0.056986 0.936739 0.345359
vn -0.114971 0.945207 0.305558
vn -0.165834 0.949394 0.266738
vn -0.212714 0.950344 0.227155
vn -0.258017 0.948277 0.184929
vn -0.303881 0.942703 0.137721
vn -0.352536 0.932178 0.082235
vn -0.210203 0.977656 0.002039
vn -0.999953 0.000000 -0.009700
vn -0.973856 0.000000 -0.227168
vn -0.910825 0.000000 -0.412792
vn -0.812792 0.000000 -0.582554
vn -0.683524 0.000000 -0.729928
vn -0.527988 0.000000 -0.849252
vn -0.352162 0.000000 -0.935939
vn -0.162803 0.000000 -0.986659
vn -0.002619 0.000000 -0.999997
vn 0.009700 0.000000 -0.999953
vn 0.227168 0.000000 -0.973856
vn 0.412792 0.000000 -0.910825
vn 0.582554 0.000000 -0.812792
vn 0.729928 0.000000 -0.683524
vn 0.849252 0.000000 -0.527988
vn 0.935939 0.000000 -0.352162
vn 0.986659 0.000000 -0.162803
vn 0.999997 0.000000 -0.002619
vn 0.999953 0.000000 0.009700
vn 0.973856 0.000000 0.227168
vn 0.910825 0.000000 0.412792
vn 0.812792 0.000000 0.582554
vn 0.683524 0.000000 0.729928
vn 0.527988 0.000000 0.849252
vn 0.352162 0.000000 0.935939
vn 0.162803 0.000000 0.986659
vn 0.002619 0.000000 0.999997
vn -0.009700 0.000000 0.999953
vn -0.227168 0.000000 0.973856
vn -0.412792 0.000000 0.910825
vn -0.582554 0.000000 0.812792
vn -0.729928 0.000000 0.683524
vn -0.849252 0.000000 0.527988
vn -0.935939 0.000000 0.352162
vn -0.986659 0.000000 0.162803
vn -0.999997 0.000000 0.002619
f 469//469 505//505 470//470
f 470//470 505//505 506//506
f 470//470 506//506 471//471
f 471//471 506//506 507//507
f 471//471 507//507 472//472
f 472//472 507//507 508//508
f 472//472 508//508 473//473
f 473//473 508//508 509//509
f 473//473 509//509 474//474
f 474//474 509//509 510//510
f 474//474 510//510 475//475
f 475//475 510//510 511//511
f 475//475 511//511 476//476
f 476//476 511//511 512//512
f 476//476 512//512 477//477
f 477//477 512//512 513//513
f 477//477 513//513 478//478
f 478//478 513//513 514//514
f 478//478 514//514 479//479
f 479//479 514//514 515//515
f 479//479 515//515 480//480
f 480//480 515//515 516//516
f 480//480 516//516 481//481
f 481//481 516//516 517//517
f 481//481 517//517 482//482
f 482//482 517//517 518//518
f 482//482 518//518 483//483
f 483//483 518//518 519//519
f 483//483 519//519 484//484
f 484//484 519//519 520//520
f 484//484 520//520 485//485
f 485//485 520//520 521//521
f 485//485 521//521 486//486
f 486//486 521//521 522//522
f 486//486 522//522 487//487
f 487//487 522//522 523//523
f 487//487 523//523 488//488
f 488//488 523//523 524//524
f 488//488 524//524 489//489
f 489//489 524//524 525//525
f 489//489 525//525 490//490
f 490//490 525//525 526//526
f 490//490 526//526 491//491
f 491//491 526//526 527//527
f 491//491 527//527 492//492
f 492//492 527//527 528//528
f 492//492 528//528 493//493
f 493//493 528//528 529//529
f 493//493 529//529 494//494
f 494//494 529//529 530//530
f 494//494 530//530 495//495
f 495//495 530//530 531//531
f 495//495 531//531 496//496
f 496//496 531//531 532//532
f 496//496 532//532 497//497
f 497//497 532//532 533//533
f 497//497 533//533 498//498
f 498//498 533//533 534//534
f 498//498 534//534 499//499
f 499//499 534//534 535//535
f 499//499 535//535 500//500
f 500//500 535//535 536//536
f 500//500 536//536 501//501
f 501//501 536//536 537//537
f 501//501 537//537 502//502
f 502//502 537//537 538//538
f 502//502 538//538 503//503
f 503//503 538//538 539//539
f 503//503 539//539 504//504
f 504//504 539//539 540//540
f 504//504 540//540 469//469
f 469//469 540//540 505//505
f 505//505 541//541 506//506
f 506//506 541//541 542//542
f 506//506 542//542 507//507
f 507//507 542//542 543//543
f 507//507 543//543 508//508
f 508//508 543//543 544//544
f 508//508 544//544 509//509
f 509//509 544//544 545//545
f 509//509 545//545 510//510
f 510//510 545//545 546//546
f 510//510 546//546 511//511
f 511//511 546//546 547//547
f 511//511 547//547 512//512
f 512//512 547//547 548//548
f 512//512 548//548 513//513
f 513//513 548//548 549//549
f 513//513 549//549 514//514
f 514//514 549//549 550//550
f 514//514 550//550 515//515
f 515//515 550//550 551//551
f 515//515 551//551 516//516
f 516//516 551//551 552//552
f 516//516 552//552 517//517
f 517//517 552//552 553//553
f 517//517 553//553 518//518
f 518//518 553//553 554//554
f 518//518 554//554 519//519
f 519//519 554//554 555//555
f 519//519 555//555 520//520
f 520//520 555//555 556//556
f 520//520 556//556 521//521
f 521//521 556//556 557//557
f 521//521 557//557 522//522
f 522//522 557//557 558//558
f 522//522 558//558 523//523
f 523//523 558//558 559//559
f 523//523 559//559 524//524
f 524//524 559//559 560//560
f 524//524 560//560 525//525
f 525//525 560//560 561//561
f 525//525 561//561 526//526
f 526//526 561//561 562//562
f 526//526 562//562 527//527
f 527//527 562//562 563//563
f 527//527 563//563 528//528
f 528//528 563//563 564//564
f 528//528 564//564 529//529
f 529//529 564//564 565//565
f 529//529 565//565 530//530
f 530//530 565//565 566//566
f 530//530 566//566 531//531
f 531//531 566//566 567//567
f 531//531 567//567 532//532
f 532//532 567//567 568//568
f 532//532 568//568 533//533
f 533//533 568//568 569//569
f 533//533 569//569 534//534
f 534//534 569//569 570//570
f 534//534 570//570 535//535
f 535//535 570//570 571//571
f 535//535 571//571 536//536
f 536//536 571//571 572//572
f 536//536 572//572 537//537
f 537//537 572//572 573//573
f 537//537 573//573 538//538
f 538//538 573//573 574//574
f 538//538 574//574 539//539
f 539//539 574//574 575//575
f 539//539 575//575 540//540
f 540//540 575//575 576//576
f 540//540 576//576 505//505
f 505//505 576//576 541//541
f 541//541 577//577 542//542
f 542//542 577//577 578//578
f 542//542 578//578 543//543
f 543//543 578//578 579//579
f 543//543 579//579 544//544
f 544//544 579//579 580//580
f 544//544 580//580 545//545
f 545//545 580//580 581//581
f 545//545 581//581 546//546
f 546//546 581//581 582//582
f 546//546 582//582 547//547
f 547//547 582//582 583//583
f 547//547 583//583 548//548
f 548//548 583//583 584//584
f 548//548 584//584 549//549
f 549//549 584//584 585//585
f 549//549 585//585 550//550
f 550//550 585//585 586//586
f 550//550 586//586 551//551
f 551//551 586//586 587//587
f 551//551 587//587 552//552
f 552//552 587//587 588//588
f 552//552 588//588 553//553
f 553//553 588//588 589//589
f 553//553 589//589 554//554
f 554//554 589//589 590//590
f 554//554 590//590 555//555
f 555//555 590//590 591//591
f 555//555 591//591 556//556
f 556//556 591//591 592//592
f 556//556 592//592 557//557
f 557//557 592//592 593//593
f 557//557 593//593 558//558
f 558//558 593//593 594//594
f 558//558 594//594 559//559
f 559//559 594//594 595//595
f 559//559 595//595 560//560
f 560//560 595//595 596//596
f 560//560 596//596 561//561
f 561//561 596//596 597//597
f 561//561 597//597 562//562
f 562//562 597//597 598//598
f 562//562 598//598 563//563
f 563//563 598//598 599//599
f 563//563 599//599 564//564
f 564//564 599//599 600//600
f 564//564 600//600 565//565
f 565//565 600//600 601//601
f 565//565 601//601 566//566
f 566//566 601//601 602//602
f 566//566 602//602 567//567
f 567//567 602//602 603//603
f 567//567 603//603 568//568
f 568//568 603//603 604//604
f 568//568 604//604 569//569
f 569//569 604//604 605//605
f 569//569 605//605 570//570
f 570//570 605//605 606//606
f 570//570 606//606 571//571
f 571//571 606//606 607//607
f 571//571 607//607 572//572
f 572//572 607//607 608//608
f 572//572 608//608 573//573
f 573//573 608//608 609//609
f 573//573 609//609 574//574
f 574//574 609//609 610//610
f 574//574 610//610 575//575
f 575//575 610//610 611//611
f 575//575 611//611 576//576
f 576//576 611//611 612//612
f 576//576 612//612 541//541
f 541//541 612//612 577//577
o station-bin_metal
usemtl metal
v -0.065689 0.029451 0.209811
v -0.066600 0.028832 0.212300
v -0.067012 0.028552 0.215700
v -0.067012 0.028552 0.260300
v -0.066600 0.028832 0.263700
v -0.065689 0.029451 0.266189
v -0.066600 0.031144 0.208900
v -0.068128 0.030624 0.211536
v -0.068923 0.030354 0.215700
v -0.068923 0.030354 0.260300
v -0.068128 0.030624 0.264464
v -0.066600 0.031144 0.267100
v -0.067012 0.033456 0.208488
v -0.068923 0.033456 0.211138
v -0.070000 0.033456 0.215700
v -0.070000 0.033456 0.260300
v -0.068923 0.033456 0.264862
v -0.067012 0.033456 0.267512
v -0.067012 0.035904 0.208488
v -0.068923 0.035904 0.211138
v -0.070000 0.035904 0.215700
v -0.070000 0.035904 0.260300
v -0.068923 0.035904 0.264862
v -0.067012 0.035904 0.267512
v -0.066600 0.038216 0.208900
v -0.068128 0.038736 0.211536
v -0.068923 0.039006 0.215700
v -0.068923 0.039006 0.260300
v -0.068128 0.038736 0.264464
v -0.066600 0.038216 0.267100
v -0.065689 0.039909 0.209811
v -0.066600 0.040528 0.212300
v -0.067012 0.040808 0.215700
v -0.067012 0.040808 0.260300
v -0.066600 0.040528 0.263700
v -0.065689 0.039909 0.266189
v 0.065689 0.029451 0.209811
v 0.066600 0.028832 0.212300
v 0.067012 0.028552 0.215700
v 0.067012 0.028552 0.260300
v 0.066600 0.028832 0.263700
v 0.065689 0.029451 0.266189
v 0.066600 0.031144 0.208900
v 0.068128 0.030624 0.211536
v 0.068923 0.030354 0.215700
v 0.068923 0.030354 0.260300
v 0.068128 0.030624 0.264464
v 0.066600 0.031144 0.267100
v 0.067012 0.033456 0.208488
v 0.068923 0.033456 0.211138
v 0.070000 0.033456 0.215700
v 0.070000 0.033456 0.260300
v 0.068923 0.033456 0.264862
v 0.067012 0.033456 0.267512
v 0.067012 0.035904 0.208488
v 0.068923 0.035904 0.211138
v 0.070000 0.035904 0.215700
v 0.070000 0.035904 0.260300
v 0.068923 0.035904 0.264862
v 0.067012 0.035904 0.267512
v 0.066600 0.038216 0.208900
v 0.068128 0.038736 0.211536
v 0.068923 0.039006 0.215700
v 0.068923 0.039006 0.260300
v 0.068128 0.038736 0.264464
v 0.066600 0.038216 0.267100
v 0.065689 0.039909 0.209811
v 0.066600 0.040528 0.212300
v 0.067012 0.040808 0.215700
v 0.067012 0.040808 0.260300
v 0.066600 0.040528 0.263700
v 0.065689 0.039909 0.266189
v -0.065689 0.029451 0.209811
v -0.063200 0.028832 0.208900
v -0.059800 0.028552 0.208488
v 0.059800 0.028552 0.208488
v 0.063200 0.028832 0.208900
v 0.065689 0.029451 0.209811
v -0.066600 0.028832 0.212300
v -0.063964 0.027793 0.211536
v -0.059800 0.027252 0.211138
v 0.059800 0.027252 0.211138
v 0.063964 0.027793 0.211536
v 0.066600 0.028832 0.212300
v -0.067012 0.028552 0.215700
v -0.064362 0.027252 0.215700
v -0.059800 0.026520 0.215700
v 0.059800 0.026520 0.215700
v 0.064362 0.027252 0.215700
v 0.067012 0.028552 0.215700
v -0.067012 0.028552 0.260300
v -0.064362 0.027252 0.260300
v -0.059800 0.026520 0.260300
v 0.059800 0.026520 0.260300
v 0.064362 0.027252 0.260300
v 0.067012 0.028552 0.260300
v -0.066600 0.028832 0.263700
v -0.063964 0.027793 0.264464
v -0.059800 0.027252 0.264862
v 0.059800 0.027252 0.264862
v 0.063964 0.027793 0.264464
v 0.066600 0.028832 0.263700
v -0.065689 0.029451 0.266189
v -0.063200 0.028832 0.267100
v -0.059800 0.028552 0.267512
v 0.059800 0.028552 0.267512
v 0.063200 0.028832 0.267100
v 0.065689 0.029451 0.266189
v -0.065689 0.039909 0.209811
v -0.063200 0.040528 0.208900
v -0.059800 0.040808 0.208488
v 0.059800 0.040808 0.208488
v 0.063200 0.040528 0.208900
v 0.065689 0.039909 0.209811
v -0.066600 0.040528 0.212300
v -0.063964 0.041567 0.211536
v -0.059800 0.042108 0.211138
v 0.059800 0.042108 0.211138
v 0.063964 0.041567 0.211536
v 0.066600 0.040528 0.212300
v -0.067012 0.040808 0.215700
v -0.064362 0.042108 0.215700
v -0.059800 0.042840 0.215700
v 0.059800 0.042840 0.215700
v 0.064362 0.042108 0.215700
v 0.067012 0.040808 0.215700
v -0.067012 0.040808 0.260300
v -0.064362 0.042108 0.260300
v -0.059800 0.042840 0.260300
v 0.059800 0.042840 0.260300
v 0.064362 0.042108 0.260300
v 0.067012 0.040808 0.260300
v -0.066600 0.040528 0.263700
v -0.063964 0.041567 0.264464
v -0.059800 0.042108 0.264862
v 0.059800 0.042108 0.264862
v 0.063964 0.041567 0.264464
v 0.066600 0.040528 0.263700
v -0.065689 0.039909 0.266189
v -0.063200 0.040528 0.267100
v -0.059800 0.040808 0.267512
v 0.059800 0.040808 0.267512
v 0.063200 0.040528 0.267100
v 0.065689 0.039909 0.266189
v -0.065689 0.029451 0.209811
v -0.066600 0.031144 0.208900
v -0.067012 0.033456 0.208488
v -0.067012 0.035904 0.208488
v -0.066600 0.038216 0.208900
v -0.065689 0.039909 0.209811
v -0.063200 0.028832 0.208900
v -0.063964 0.030624 0.207372
v -0.064362 0.033456 0.206577
v -0.064362 0.035904 0.206577
v -0.063964 0.038736 0.207372
v -0.063200 0.040528 0.208900
v -0.059800 0.028552 0.208488
v -0.059800 0.030354 0.206577
v -0.059800 0.033456 0.205500
v -0.059800 0.035904 0.205500
v -0.059800 0.039006 0.206577
v -0.059800 0.040808 0.208488
v 0.059800 0.028552 0.208488
v 0.059800 0.030354 0.206577
v 0.059800 0.033456 0.205500
v 0.059800 0.035904 0.205500
v 0.059800 0.039006 0.206577
v 0.059800 0.040808 0.208488
v 0.063200 0.028832 0.208900
v 0.063964 0.030624 0.207372
v 0.064362 0.033456 0.206577
v 0.064362 0.035904 0.206577
v 0.063964 0.038736 0.207372
v 0.063200 0.040528 0.208900
v 0.065689 0.029451 0.209811
v 0.066600 0.031144 0.208900
v 0.067012 0.033456 0.208488
v 0.067012 0.035904 0.208488
v 0.066600 0.038216 0.208900
v 0.065689 0.039909 0.209811
v -0.065689 0.029451 0.266189
v -0.066600 0.031144 0.267100
v -0.067012 0.033456 0.267512
v -0.067012 0.035904 0.267512
v -0.066600 0.038216 0.267100
v -0.065689 0.039909 0.266189
v -0.063200 0.028832 0.267100
v -0.063964 0.030624 0.268628
v -0.064362 0.033456 0.269423
v -0.064362 0.035904 0.269423
v -0.063964 0.038736 0.268628
v -0.063200 0.040528 0.267100
v -0.059800 0.028552 0.267512
v -0.059800 0.030354 0.269423
v -0.059800 0.033456 0.270500
v -0.059800 0.035904 0.270500
v -0.059800 0.039006 0.269423
v -0.059800 0.040808 0.267512
v 0.059800 0.028552 0.267512
v 0.059800 0.030354 0.269423
v 0.059800 0.033456 0.270500
v 0.059800 0.035904 0.270500
v 0.059800 0.039006 0.269423
v 0.059800 0.040808 0.267512
v 0.063200 0.028832 0.267100
v 0.063964 0.030624 0.268628
v 0.064362 0.033456 0.269423
v 0.064362 0.035904 0.269423
v 0.063964 0.038736 0.268628
v 0.063200 0.040528 0.267100
v 0.065689 0.029451 0.266189
v 0.066600 0.031144 0.267100
v 0.067012 0.033456 0.267512
v 0.067012 0.035904 0.267512
v 0.066600 0.038216 0.267100
v 0.065689 0.039909 0.266189
vn -0.490135 -0.720787 -0.490135
vn -0.534082 -0.785415 -0.312858
vn -0.562177 -0.826730 -0.021785
vn -0.562303 -0.826916 0.005010
vn -0.549577 -0.808201 0.211606
vn -0.496038 -0.729467 0.470983
vn -0.603891 -0.520222 -0.603891
vn -0.796314 -0.500194 -0.340132
vn -0.816515 -0.577011 -0.019046
vn -0.887267 -0.461056 0.013594
vn -0.833341 -0.457092 0.310822
vn -0.642635 -0.441589 0.626115
vn -0.694383 -0.188854 -0.694383
vn -0.911984 -0.180931 -0.368170
vn -0.972404 -0.232461 -0.019829
vn -0.989613 -0.142182 0.021220
vn -0.918203 -0.143882 0.369054
vn -0.693082 -0.136034 0.707907
vn -0.704802 0.080667 -0.704802
vn -0.918203 0.143882 -0.369054
vn -0.989613 0.142182 -0.021220
vn -0.972404 0.232461 0.019829
vn -0.911984 0.180931 0.368170
vn -0.707907 0.136034 0.693082
vn -0.656445 0.371698 -0.656445
vn -0.833341 0.457092 -0.310822
vn -0.887267 0.461056 -0.013594
vn -0.816515 0.577011 0.019046
vn -0.796314 0.500194 0.340132
vn -0.626115 0.441589 0.642635
vn -0.503175 0.702588 -0.503175
vn -0.552899 0.792186 -0.258350
vn -0.596522 0.802519 -0.011207
vn -0.528184 0.849060 0.010847
vn -0.533893 0.805851 0.256051
vn -0.470983 0.729467 0.496038
vn 0.470983 -0.729467 -0.496038
vn 0.533893 -0.805851 -0.256051
vn 0.528184 -0.849060 -0.010847
vn 0.596522 -0.802519 0.011207
vn 0.552899 -0.792186 0.258350
vn 0.503175 -0.702588 0.503175
vn 0.626115 -0.441589 -0.642635
vn 0.796314 -0.500194 -0.340132
vn 0.816515 -0.577011 -0.019046
vn 0.887267 -0.461056 0.013594
vn 0.833341 -0.457092 0.310822
vn 0.656445 -0.371698 0.656445
vn 0.707907 -0.136034 -0.693082
vn 0.911984 -0.180931 -0.368170
vn 0.972404 -0.232461 -0.019829
vn 0.989613 -0.142182 0.021220
vn 0.918203 -0.143882 0.369054
vn 0.704802 -0.080667 0.704802
vn 0.693082 0.136034 -0.707907
vn 0.918203 0.143882 -0.369054
vn 0.989613 0.142182 -0.021220
vn 0.972404 0.232461 0.019829
vn 0.911984 0.180931 0.368170
vn 0.694383 0.188854 0.694383
vn 0.642635 0.441589 -0.626115
vn 0.833341 0.457092 -0.310822
vn 0.887267 0.461056 -0.013594
vn 0.816515 0.577011 0.019046
vn 0.796314 0.500194 0.340132
vn 0.603891 0.520222 0.603891
vn 0.496038 0.729467 -0.470983
vn 0.549577 0.808201 -0.211606
vn 0.562303 0.826916 -0.005010
vn 0.562177 0.826730 0.021785
vn 0.534082 0.785415 0.312858
vn 0.490135 0.720787 0.490135
vn -0.490135 -0.720787 -0.490135
vn -0.312858 -0.785415 -0.534082
vn -0.008908 -0.826894 -0.562288
vn 0.001912 -0.826925 -0.562309
vn 0.211606 -0.808201 -0.549577
vn 0.470983 -0.729467 -0.496038
vn -0.534082 -0.785415 -0.312858
vn -0.268668 -0.925005 -0.268668
vn -0.005988 -0.948664 -0.316230
vn 0.003950 -0.973061 -0.230513
vn 0.238736 -0.941281 -0.238736
vn 0.533893 -0.805851 -0.256051
vn -0.562177 -0.826730 -0.021785
vn -0.310569 -0.950431 -0.015075
vn -0.010015 -0.999611 -0.026036
vn 0.003358 -0.999961 -0.008152
vn 0.233618 -0.972276 -0.010130
vn 0.528184 -0.849060 -0.010847
vn -0.562303 -0.826916 0.005010
vn -0.233618 -0.972276 0.010130
vn -0.003358 -0.999961 0.008152
vn 0.010015 -0.999611 0.026036
vn 0.310569 -0.950431 0.015075
vn 0.596522 -0.802519 0.011207
vn -0.549577 -0.808201 0.211606
vn -0.238736 -0.941281 0.238736
vn -0.003950 -0.973061 0.230513
vn 0.005988 -0.948664 0.316230
vn 0.268668 -0.925005 0.268668
vn 0.552899 -0.792186 0.258350
vn -0.496038 -0.729467 0.470983
vn -0.256051 -0.805851 0.533893
vn -0.004232 -0.851863 0.523747
vn 0.004391 -0.799192 0.601059
vn 0.258350 -0.792186 0.552899
vn 0.503175 -0.702588 0.503175
vn -0.503175 0.702588 -0.503175
vn -0.258350 0.792186 -0.552899
vn -0.004391 0.799192 -0.601059
vn 0.004232 0.851863 -0.523747
vn 0.256051 0.805851 -0.533893
vn 0.496038 0.729467 -0.470983
vn -0.552899 0.792186 -0.258350
vn -0.268668 0.925005 -0.268668
vn -0.005988 0.948664 -0.316230
vn 0.003950 0.973061 -0.230513
vn 0.238736 0.941281 -0.238736
vn 0.549577 0.808201 -0.211606
vn -0.596522 0.802519 -0.011207
vn -0.310569 0.950431 -0.015075
vn -0.010015 0.999611 -0.026036
vn 0.003358 0.999961 -0.008152
vn 0.233618 0.972276 -0.010130
vn 0.562303 0.826916 -0.005010
vn -0.528184 0.849060 0.010847
vn -0.233618 0.972276 0.010130
vn -0.003358 0.999961 0.008152
vn 0.010015 0.999611 0.026036
vn 0.310569 0.950431 0.015075
vn 0.562177 0.826730 0.021785
vn -0.533893 0.805851 0.256051
vn -0.238736 0.941281 0.238736
vn -0.003950 0.973061 0.230513
vn 0.005988 0.948664 0.316230
vn 0.268668 0.925005 0.268668
vn 0.534082 0.785415 0.312858
vn -0.470983 0.729467 0.496038
vn -0.211606 0.808201 0.549577
vn -0.001912 0.826925 0.562309
vn 0.008908 0.826894 0.562288
vn 0.312858 0.785415 0.534082
vn 0.490135 0.720787 0.490135
vn -0.490135 -0.720787 -0.490135
vn -0.603891 -0.520222 -0.603891
vn -0.694383 -0.188854 -0.694383
vn -0.704802 0.080667 -0.704802
vn -0.656445 0.371698 -0.656445
vn -0.503175 0.702588 -0.503175
vn -0.312858 -0.785415 -0.534082
vn -0.340132 -0.500194 -0.796314
vn -0.368170 -0.180931 -0.911984
vn -0.369054 0.143882 -0.918203
vn -0.310822 0.457092 -0.833341
vn -0.258350 0.792186 -0.552899
vn -0.008908 -0.826894 -0.562288
vn -0.007529 -0.584767 -0.811166
vn -0.007809 -0.237990 -0.971236
vn -0.008417 0.136914 -0.990547
vn -0.005313 0.455954 -0.889988
vn -0.004391 0.799192 -0.601059
vn 0.001912 -0.826925 -0.562309
vn 0.005313 -0.455954 -0.889988
vn 0.008417 -0.136914 -0.990547
vn 0.007809 0.237990 -0.971236
vn 0.007529 0.584767 -0.811166
vn 0.004232 0.851863 -0.523747
vn 0.211606 -0.808201 -0.549577
vn 0.310822 -0.457092 -0.833341
vn 0.369054 -0.143882 -0.918203
vn 0.368170 0.180931 -0.911984
vn 0.340132 0.500194 -0.796314
vn 0.256051 0.805851 -0.533893
vn 0.470983 -0.729467 -0.496038
vn 0.626115 -0.441589 -0.642635
vn 0.707907 -0.136034 -0.693082
vn 0.693082 0.136034 -0.707907
vn 0.642635 0.441589 -0.626115
vn 0.496038 0.729467 -0.470983
vn -0.496038 -0.729467 0.470983
vn -0.642635 -0.441589 0.626115
vn -0.693082 -0.136034 0.707907
vn -0.707907 0.136034 0.693082
vn -0.626115 0.441589 0.642635
vn -0.470983 0.729467 0.496038
vn -0.256051 -0.805851 0.533893
vn -0.340132 -0.500194 0.796314
vn -0.368170 -0.180931 0.911984
vn -0.369054 0.143882 0.918203
vn -0.310822 0.457092 0.833341
vn -0.211606 0.808201 0.549577
vn -0.004232 -0.851863 0.523747
vn -0.007529 -0.584767 0.811166
vn -0.007809 -0.237990 0.971236
vn -0.008417 0.136914 0.990547
vn -0.005313 0.455954 0.889988
vn -0.001912 0.826925 0.562309
vn 0.004391 -0.799192 0.601059
vn 0.005313 -0.455954 0.889988
vn 0.008417 -0.136914 0.990547
vn 0.007809 0.237990 0.971236
vn 0.007529 0.584767 0.811166
vn 0.008908 0.826894 0.562288
vn 0.258350 -0.792186 0.552899
vn 0.310822 -0.457092 0.833341
vn 0.369054 -0.143882 0.918203
vn 0.368170 0.180931 0.911984
vn 0.340132 0.500194 0.796314
vn 0.312858 0.785415 0.534082
vn 0.503175 -0.702588 0.503175
vn 0.656445 -0.371698 0.656445
vn 0.704802 -0.080667 0.704802
vn 0.694383 0.188854 0.694383
vn 0.603891 0.520222 0.603891
vn 0.490135 0.720787 0.490135
f 614//614 619//619 613//613
f 620//620 619//619 614//614
f 615//615 620//620 614//614
f 621//621 620//620 615//615
f 616//616 621//621 615//615
f 622//622 621//621 616//616
f 617//617 622//622 616//616
f 623//623 622//622 617//617
f 618//618 623//623 617//617
f 624//624 623//623 618//618
f 620//620 625//625 619//619
f 626//626 625//625 620//620
f 621//621 626//626 620//620
f 627//627 626//626 621//621
f 622//622 627//627 621//621
f 628//628 627//627 622//622
f 623//623 628//628 622//622
f 629//629 628//628 623//623
f 624//624 629//629 623//623
f 630//630 629//629 624//624
f 626//626 631//631 625//625
f 632//632 631//631 626//626
f 627//627 632//632 626//626
f 633//633 632//632 627//627
f 628//628 633//633 627//627
f 634//634 633//633 628//628
f 629//629 634//634 628//628
f 635//635 634//634 629//629
f 630//630 635//635 629//629
f 636//636 635//635 630//630
f 632//632 637//637 631//631
f 638//638 637//637 632//632
f 633//633 638//638 632//632
f 639//639 638//638 633//633
f 634//634 639//639 633//633
f 640//640 639//639 634//634
f 635//635 640//640 634//634
f 641//641 640//640 635//635
f 636//636 641//641 635//635
f 642//642 641//641 636//636
f 638//638 643//643 637//637
f 644//644 643//643 638//638
f 639//639 644//644 638//638
f 645//645 644//644 639//639
f 640//640 645//645 639//639
f 646//646 645//645 640//640
f 641//641 646//646 640//640
f 647//647 646//646 641//641
f 642//642 647//647 641//641
f 648//648 647//647 642//642
f 649//649 655//655 650//650
f 650//650 655//655 656//656
f 650//650 656//656 651//651
f 651//651 656//656 657//657
f 651//651 657//657 652//652
f 652//652 657//657 658//658
f 652//652 658//658 653//653
f 653//653 658//658 659//659
f 653//653 659//659 654//654
f 654//654 659//659 660//660
f 655//655 661//661 656//656
f 656//656 661//661 662//662
f 656//656 662//662 657//657
f 657//657 662//662 663//663
f 657//657 663//663 658//658
f 658//658 663//663 664//664
f 658//658 664//664 659//659
f 659//659 664//664 665//665
f 659//659 665//665 660//660
f 660//660 665//665 666//666
f 661//661 667//667 662//662
f 662//662 667//667 668//668
f 662//662 668//668 663//663
f 663//663 668//668 669//669
f 663//663 669//669 664//664
f 664//664 669//669 670//670
f 664//664 670//670 665//665
f 665//665 670//670 671//671
f 665//665 671//671 666//666
f 666//666 671//671 672//672
f 667//667 673//673 668//668
f 668//668 673//673 674//674
f 668//668 674//674 669//669
f 669//669 674//674 675//675
f 669//669 675//675 670//670
f 670//670 675//675 676//676
f 670//670 676//676 671//671
f 671//671 676//676 677//677
f 671//671 677//677 672//672
f 672//672 677//677 678//678
f 673//673 679//679 674//674
f 674//674 679//679 680//680
f 674//674 680//680 675//675
f 675//675 680//680 681//681
f 675//675 681//681 676//676
f 676//676 681//681 682//682
f 676//676 682//682 677//677
f 677//677 682//682 683//683
f 677//677 683//683 678//678
f 678//678 683//683 684//684
f 686//686 691//691 685//685
f 692//692 691//691 686//686
f 687//687 692//692 686//686
f 693//693 692//692 687//687
f 688//688 693//693 687//687
f 694//694 693//693 688//688
f 689//689 694//694 688//688
f 695//695 694//694 689//689
f 690//690 695//695 689//689
f 696//696 695//695 690//690
f 692//692 697//697 691//691
f 698//698 697//697 692//692
f 693//693 698//698 692//692
f 699//699 698//698 693//693
f 694//694 699//699 693//693
f 700//700 699//699 694//694
f 695//695 700//700 694//694
f 701//701 700//700 695//695
f 696//696 701//701 695//695
f 702//702 701//701 696//696
f 698//698 703//703 697//697
f 704//704 703//703 698//698
f 699//699 704//704 698//698
f 705//705 704//704 699//699
f 700//700 705//705 699//699
f 706//706 705//705 700//700
f 701//701 706//706 700//700
f 707//707 706//706 701//701
f 702//702 707//707 701//701
f 708//708 707//707 702//702
f 704//704 709//709 703//703
f 710//710 709//709 704//704
f 705//705 710//710 704//704
f 711//711 710//710 705//705
f 706//706 711//711 705//705
f 712//712 711//711 706//706
f 707//707 712//712 706//706
f 713//713 712//712 707//707
f 708//708 713//713 707//707
f 714//714 713//713 708//708
f 710//710 715//715 709//709
f 716//716 715//715 710//710
f 711//711 716//716 710//710
f 717//717 716//716 711//711
f 712//712 717//717 711//711
f 718//718 717//717 712//712
f 713//713 718//718 712//712
f 719//719 718//718 713//713
f 714//714 719//719 713//713
f 720//720 719//719 714//714
f 721//721 727//727 722//722
f 722//722 727//727 728//728
f 722//722 728//728 723//723
f 723//723 728//728 729//729
f 723//723 729//729 724//724
f 724//724 729//729 730//730
f 724//724 730//730 725//725
f 725//725 730//730 731//731
f 725//725 731//731 726//726
f 726//726 731//731 732//732
f 727//727 733//733 728//728
f 728//728 733//733 734//734
f 728//728 734//734 729//729
f 729//729 734//734 735//735
f 729//729 735//735 730//730
f 730//730 735//735 736//736
f 730//730 736//736 731//731
f 731//731 736//736 737//737
f 731//731 737//737 732//732
f 732//732 737//737 738//738
f 733//733 739//739 734//734
f 734//734 739//739 740//740
f 734//734 740//740 735//735
f 735//735 740//740 741//741
f 735//735 741//741 736//736
f 736//736 741//741 742//742
f 736//736 742//742 737//737
f 737//737 742//742 743//743
f 737//737 743//743 738//738
f 738//738 743//743 744//744
f 739//739 745//745 740//740
f 740//740 745//745 746//746
f 740//740 746//746 741//741
f 741//741 746//746 747//747
f 741//741 747//747 742//742
f 742//742 747//747 748//748
f 742//742 748//748 743//743
f 743//743 748//748 749//749
f 743//743 749//749 744//744
f 744//744 749//749 750//750
f 745//745 751//751 746//746
f 746//746 751//751 752//752
f 746//746 752//752 747//747
f 747//747 752//752 753//753
f 747//747 753//753 748//748
f 748//748 753//753 754//754
f 748//748 754//754 749//749
f 749//749 754//754 755//755
f 749//749 755//755 750//750
f 750//750 755//755 756//756
f 758//758 763//763 757//757
f 764//764 763//763 758//758
f 759//759 764//764 758//758
f 765//765 764//764 759//759
f 760//760 765//765 759//759
f 766//766 765//765 760//760
f 761//761 766//766 760//760
f 767//767 766//766 761//761
f 762//762 767//767 761//761
f 768//768 767//767 762//762
f 764//764 769//769 763//763
f 770//770 769//769 764//764
f 765//765 770//770 764//764
f 771//771 770//770 765//765
f 766//766 771//771 765//765
f 772//772 771//771 766//766
f 767//767 772//772 766//766
f 773//773 772//772 767//767
f 768//768 773//773 767//767
f 774//774 773//773 768//768
f 770//770 775//775 769//769
f 776//776 775//775 770//770
f 771//771 776//776 770//770
f 777//777 776//776 771//771
f 772//772 777//777 771//771
f 778//778 777//777 772//772
f 773//773 778//778 772//772
f 779//779 778//778 773//773
f 774//774 779//779 773//773
f 780//780 779//779 774//774
f 776//776 781//781 775//775
f 782//782 781//781 776//776
f 777//777 782//782 776//776
f 783//783 782//782 777//777
f 778//778 783//783 777//777
f 784//784 783//783 778//778
f 779//779 784//784 778//778
f 785//785 784//784 779//779
f 780//780 785//785 779//779
f 786//786 785//785 780//780
f 782//782 787//787 781//781
f 788//788 787//787 782//782
f 783//783 788//788 782//782
f 789//789 788//788 783//783
f 784//784 789//789 783//783
f 790//790 789//789 784//784
f 785//785 790//790 784//784
f 791//791 790//790 785//785
f 786//786 791//791 785//785
f 792//792 791//791 786//786
f 793//793 799//799 794//794
f 794//794 799//799 800//800
f 794//794 800//800 795//795
f 795//795 800//800 801//801
f 795//795 801//801 796//796
f 796//796 801//801 802//802
f 796//796 802//802 797//797
f 797//797 802//802 803//803
f 797//797 803//803 798//798
f 798//798 803//803 804//804
f 799//799 805//805 800//800
f 800//800 805//805 806//806
f 800//800 806//806 801//801
f 801//801 806//806 807//807
f 801//801 807//807 802//802
f 802//802 807//807 808//808
f 802//802 808//808 803//803
f 803//803 808//808 809//809
f 803//803 809//809 804//804
f 804//804 809//809 810//810
f 805//805 811//811 806//806
f 806//806 811//811 812//812
f 806//806 812//812 807//807
f 807//807 812//812 813//813
f 807//807 813//813 808//808
f 808//808 813//813 814//814
f 808//808 814//814 809//809
f 809//809 814//814 815//815
f 809//809 815//815 810//810
f 810//810 815//815 816//816
f 811//811 817//817 812//812
f 812//812 817//817 818//818
f 812//812 818//818 813//813
f 813//813 818//818 819//819
f 813//813 819//819 814//814
f 814//814 819//819 820//820
f 814//814 820//820 815//815
f 815//815 820//820 821//821
f 815//815 821//821 816//816
f 816//816 821//821 822//822
f 817//817 823//823 818//818
f 818//818 823//823 824//824
f 818//818 824//824 819//819
f 819//819 824//824 825//825
f 819//819 825//825 820//820
f 820//820 825//825 826//826
f 820//820 826//826 821//821
f 821//821 826//826 827//827
f 821//821 827//827 822//822
f 822//822 827//827 828//828
