# Bara Kitchen - metres, +Y up; editable mesh source
mtllib palette.mtl
o welcome-mat_teal
usemtl teal
v -0.512126 0.004874 -0.307126
v -0.512733 0.004267 -0.305467
v -0.513008 0.003992 -0.303200
v -0.513008 0.003992 0.303200
v -0.512733 0.004267 0.305467
v -0.512126 0.004874 0.307126
v -0.512733 0.006533 -0.307733
v -0.513752 0.006024 -0.305976
v -0.514282 0.005759 -0.303200
v -0.514282 0.005759 0.303200
v -0.513752 0.006024 0.305976
v -0.512733 0.006533 0.307733
v -0.513008 0.008800 -0.308008
v -0.514282 0.008800 -0.306241
v -0.515000 0.008800 -0.303200
v -0.515000 0.008800 0.303200
v -0.514282 0.008800 0.306241
v -0.513008 0.008800 0.308008
v -0.513008 0.011200 -0.308008
v -0.514282 0.011200 -0.306241
v -0.515000 0.011200 -0.303200
v -0.515000 0.011200 0.303200
v -0.514282 0.011200 0.306241
v -0.513008 0.011200 0.308008
v -0.512733 0.013467 -0.307733
v -0.513752 0.013976 -0.305976
v -0.514282 0.014241 -0.303200
v -0.514282 0.014241 0.303200
v -0.513752 0.013976 0.305976
v -0.512733 0.013467 0.307733
v -0.512126 0.015126 -0.307126
v -0.512733 0.015733 -0.305467
v -0.513008 0.016008 -0.303200
v -0.513008 0.016008 0.303200
v -0.512733 0.015733 0.305467
v -0.512126 0.015126 0.307126
v 0.512126 0.004874 -0.307126
v 0.512733 0.004267 -0.305467
v 0.513008 0.003992 -0.303200
v 0.513008 0.003992 0.303200
v 0.512733 0.004267 0.305467
v 0.512126 0.004874 0.307126
v 0.512733 0.006533 -0.307733
v 0.513752 0.006024 -0.305976
v 0.514282 0.005759 -0.303200
v 0.514282 0.005759 0.303200
v 0.513752 0.006024 0.305976
v 0.512733 0.006533 0.307733
v 0.513008 0.008800 -0.308008
v 0.514282 0.008800 -0.306241
v 0.515000 0.008800 -0.303200
v 0.515000 0.008800 0.303200
v 0.514282 0.008800 0.306241
v 0.513008 0.008800 0.308008
v 0.513008 0.011200 -0.308008
v 0.514282 0.011200 -0.306241
v 0.515000 0.011200 -0.303200
v 0.515000 0.011200 0.303200
v 0.514282 0.011200 0.306241
v 0.513008 0.011200 0.308008
v 0.512733 0.013467 -0.307733
v 0.513752 0.013976 -0.305976
v 0.514282 0.014241 -0.303200
v 0.514282 0.014241 0.303200
v 0.513752 0.013976 0.305976
v 0.512733 0.013467 0.307733
v 0.512126 0.015126 -0.307126
v 0.512733 0.015733 -0.305467
v 0.513008 0.016008 -0.303200
v 0.513008 0.016008 0.303200
v 0.512733 0.015733 0.305467
v 0.512126 0.015126 0.307126
v -0.512126 0.004874 -0.307126
v -0.510467 0.004267 -0.307733
v -0.508200 0.003992 -0.308008
v 0.508200 0.003992 -0.308008
v 0.510467 0.004267 -0.307733
v 0.512126 0.004874 -0.307126
v -0.512733 0.004267 -0.305467
v -0.510976 0.003248 -0.305976
v -0.508200 0.002718 -0.306241
v 0.508200 0.002718 -0.306241
v 0.510976 0.003248 -0.305976
v 0.512733 0.004267 -0.305467
v -0.513008 0.003992 -0.303200
v -0.511241 0.002718 -0.303200
v -0.508200 0.002000 -0.303200
v 0.508200 0.002000 -0.303200
v 0.511241 0.002718 -0.303200
v 0.513008 0.003992 -0.303200
v -0.513008 0.003992 0.303200
v -0.511241 0.002718 0.303200
v -0.508200 0.002000 0.303200
v 0.508200 0.002000 0.303200
v 0.511241 0.002718 0.303200
v 0.513008 0.003992 0.303200
v -0.512733 0.004267 0.305467
v -0.510976 0.003248 0.305976
v -0.508200 0.002718 0.306241
v 0.508200 0.002718 0.306241
v 0.510976 0.003248 0.305976
v 0.512733 0.004267 0.305467
v -0.512126 0.004874 0.307126
v -0.510467 0.004267 0.307733
v -0.508200 0.003992 0.308008
v 0.508200 0.003992 0.308008
v 0.510467 0.004267 0.307733
v 0.512126 0.004874 0.307126
v -0.512126 0.015126 -0.307126
v -0.510467 0.015733 -0.307733
v -0.508200 0.016008 -0.308008
v 0.508200 0.016008 -0.308008
v 0.510467 0.015733 -0.307733
v 0.512126 0.015126 -0.307126
v -0.512733 0.015733 -0.305467
v -0.510976 0.016752 -0.305976
v -0.508200 0.017282 -0.306241
v 0.508200 0.017282 -0.306241
v 0.510976 0.016752 -0.305976
v 0.512733 0.015733 -0.305467
v -0.513008 0.016008 -0.303200
v -0.511241 0.017282 -0.303200
v -0.508200 0.018000 -0.303200
v 0.508200 0.018000 -0.303200
v 0.511241 0.017282 -0.303200
v 0.513008 0.016008 -0.303200
v -0.513008 0.016008 0.303200
v -0.511241 0.017282 0.303200
v -0.508200 0.018000 0.303200
v 0.508200 0.018000 0.303200
v 0.511241 0.017282 0.303200
v 0.513008 0.016008 0.303200
v -0.512733 0.015733 0.305467
v -0.510976 0.016752 0.305976
v -0.508200 0.017282 0.306241
v 0.508200 0.017282 0.306241
v 0.510976 0.016752 0.305976
v 0.512733 0.015733 0.305467
v -0.512126 0.015126 0.307126
v -0.510467 0.015733 0.307733
v -0.508200 0.016008 0.308008
v 0.508200 0.016008 0.308008
v 0.510467 0.015733 0.307733
v 0.512126 0.015126 0.307126
v -0.512126 0.004874 -0.307126
v -0.512733 0.006533 -0.307733
v -0.513008 0.008800 -0.308008
v -0.513008 0.011200 -0.308008
v -0.512733 0.013467 -0.307733
v -0.512126 0.015126 -0.307126
v -0.510467 0.004267 -0.307733
v -0.510976 0.006024 -0.308752
v -0.511241 0.008800 -0.309282
v -0.511241 0.011200 -0.309282
v -0.510976 0.013976 -0.308752
v -0.510467 0.015733 -0.307733
v -0.508200 0.003992 -0.308008
v -0.508200 0.005759 -0.309282
v -0.508200 0.008800 -0.310000
v -0.508200 0.011200 -0.310000
v -0.508200 0.014241 -0.309282
v -0.508200 0.016008 -0.308008
v 0.508200 0.003992 -0.308008
v 0.508200 0.005759 -0.309282
v 0.508200 0.008800 -0.310000
v 0.508200 0.011200 -0.310000
v 0.508200 0.014241 -0.309282
v 0.508200 0.016008 -0.308008
v 0.510467 0.004267 -0.307733
v 0.510976 0.006024 -0.308752
v 0.511241 0.008800 -0.309282
v 0.511241 0.011200 -0.309282
v 0.510976 0.013976 -0.308752
v 0.510467 0.015733 -0.307733
v 0.512126 0.004874 -0.307126
v 0.512733 0.006533 -0.307733
v 0.513008 0.008800 -0.308008
v 0.513008 0.011200 -0.308008
v 0.512733 0.013467 -0.307733
v 0.512126 0.015126 -0.307126
v -0.512126 0.004874 0.307126
v -0.512733 0.006533 0.307733
v -0.513008 0.008800 0.308008
v -0.513008 0.011200 0.308008
v -0.512733 0.013467 0.307733
v -0.512126 0.015126 0.307126
v -0.510467 0.004267 0.307733
v -0.510976 0.006024 0.308752
v -0.511241 0.008800 0.309282
v -0.511241 0.011200 0.309282
v -0.510976 0.013976 0.308752
v -0.510467 0.015733 0.307733
v -0.508200 0.003992 0.308008
v -0.508200 0.005759 0.309282
v -0.508200 0.008800 0.310000
v -0.508200 0.011200 0.310000
v -0.508200 0.014241 0.309282
v -0.508200 0.016008 0.308008
v 0.508200 0.003992 0.308008
v 0.508200 0.005759 0.309282
v 0.508200 0.008800 0.310000
v 0.508200 0.011200 0.310000
v 0.508200 0.014241 0.309282
v 0.508200 0.016008 0.308008
v 0.510467 0.004267 0.307733
v 0.510976 0.006024 0.308752
v 0.511241 0.008800 0.309282
v 0.511241 0.011200 0.309282
v 0.510976 0.013976 0.308752
v 0.510467 0.015733 0.307733
v 0.512126 0.004874 0.307126
v 0.512733 0.006533 0.307733
v 0.513008 0.008800 0.308008
v 0.513008 0.011200 0.308008
v 0.512733 0.013467 0.307733
v 0.512126 0.015126 0.307126
vn -0.577350 -0.577350 -0.577350
vn -0.653281 -0.653281 -0.382683
vn -0.707106 -0.707106 -0.001550
vn -0.707107 -0.707107 0.000320
vn -0.682272 -0.682272 0.262698
vn -0.587065 -0.587065 0.557412
vn -0.653281 -0.382683 -0.653281
vn -0.855957 -0.365607 -0.365607
vn -0.895951 -0.444151 -0.001133
vn -0.945141 -0.326663 0.000760
vn -0.884494 -0.329902 0.329902
vn -0.679222 -0.317377 0.661762
vn -0.701137 -0.129670 -0.701137
vn -0.920116 -0.124130 -0.371453
vn -0.986032 -0.166555 -0.001074
vn -0.995804 -0.091501 0.001150
vn -0.923356 -0.098389 0.371125
vn -0.696556 -0.092966 0.711455
vn -0.706038 0.054950 -0.706038
vn -0.923356 0.098389 -0.371125
vn -0.995804 0.091501 -0.001150
vn -0.986032 0.166555 0.001074
vn -0.920116 0.124130 0.371453
vn -0.711455 0.092966 0.696556
vn -0.682272 0.262698 -0.682272
vn -0.884494 0.329902 -0.329902
vn -0.945141 0.326663 -0.000760
vn -0.895951 0.444151 0.001133
vn -0.855957 0.365607 0.365607
vn -0.661762 0.317377 0.679222
vn -0.587065 0.557412 -0.587065
vn -0.679222 0.661762 -0.317377
vn -0.743930 0.668257 -0.000731
vn -0.668257 0.743930 0.000731
vn -0.661762 0.679222 0.317377
vn -0.557412 0.587065 0.587065
vn 0.557412 -0.587065 -0.587065
vn 0.661762 -0.679222 -0.317377
vn 0.668257 -0.743930 -0.000731
vn 0.743930 -0.668257 0.000731
vn 0.679222 -0.661762 0.317377
vn 0.587065 -0.557412 0.587065
vn 0.661762 -0.317377 -0.679222
vn 0.855957 -0.365607 -0.365607
vn 0.895951 -0.444151 -0.001133
vn 0.945141 -0.326663 0.000760
vn 0.884494 -0.329902 0.329902
vn 0.682272 -0.262698 0.682272
vn 0.711455 -0.092966 -0.696556
vn 0.920116 -0.124130 -0.371453
vn 0.986032 -0.166555 -0.001074
vn 0.995804 -0.091501 0.001150
vn 0.923356 -0.098389 0.371125
vn 0.706038 -0.054950 0.706038
vn 0.696556 0.092966 -0.711455
vn 0.923356 0.098389 -0.371125
vn 0.995804 0.091501 -0.001150
vn 0.986032 0.166555 0.001074
vn 0.920116 0.124130 0.371453
vn 0.701137 0.129670 0.701137
vn 0.679222 0.317377 -0.661762
vn 0.884494 0.329902 -0.329902
vn 0.945141 0.326663 -0.000760
vn 0.895951 0.444151 0.001133
vn 0.855957 0.365607 0.365607
vn 0.653281 0.382683 0.653281
vn 0.587065 0.587065 -0.557412
vn 0.682272 0.682272 -0.262698
vn 0.707107 0.707107 -0.000320
vn 0.707106 0.707106 0.001550
vn 0.653281 0.653281 0.382683
vn 0.577350 0.577350 0.577350
vn -0.577350 -0.577350 -0.577350
vn -0.382683 -0.653281 -0.653281
vn -0.000928 -0.707106 -0.707106
vn 0.000191 -0.707107 -0.707107
vn 0.262698 -0.682272 -0.682272
vn 0.557412 -0.587065 -0.587065
vn -0.653281 -0.653281 -0.382683
vn -0.365607 -0.855957 -0.365607
vn -0.000677 -0.895827 -0.444403
vn 0.000454 -0.945191 -0.326517
vn 0.329902 -0.884494 -0.329902
vn 0.661762 -0.679222 -0.317377
vn -0.707106 -0.707106 -0.001550
vn -0.444151 -0.895951 -0.001133
vn -0.001394 -0.999996 -0.002334
vn 0.000355 -1.000000 -0.000593
vn 0.326663 -0.945141 -0.000760
vn 0.668257 -0.743930 -0.000731
vn -0.707107 -0.707107 0.000320
vn -0.326663 -0.945141 0.000760
vn -0.000355 -1.000000 0.000593
vn 0.001394 -0.999996 0.002334
vn 0.444151 -0.895951 0.001133
vn 0.743930 -0.668257 0.000731
vn -0.682272 -0.682272 0.262698
vn -0.329902 -0.884494 0.329902
vn -0.000454 -0.945191 0.326517
vn 0.000677 -0.895827 0.444403
vn 0.365607 -0.855957 0.365607
vn 0.679222 -0.661762 0.317377
vn -0.587065 -0.587065 0.557412
vn -0.317377 -0.679222 0.661762
vn -0.000437 -0.744066 0.668106
vn 0.000437 -0.668106 0.744066
vn 0.317377 -0.661762 0.679222
vn 0.587065 -0.557412 0.587065
vn -0.587065 0.557412 -0.587065
vn -0.317377 0.661762 -0.679222
vn -0.000437 0.668106 -0.744066
vn 0.000437 0.744066 -0.668106
vn 0.317377 0.679222 -0.661762
vn 0.587065 0.587065 -0.557412
vn -0.679222 0.661762 -0.317377
vn -0.365607 0.855957 -0.365607
vn -0.000677 0.895827 -0.444403
vn 0.000454 0.945191 -0.326517
vn 0.329902 0.884494 -0.329902
vn 0.682272 0.682272 -0.262698
vn -0.743930 0.668257 -0.000731
vn -0.444151 0.895951 -0.001133
vn -0.001394 0.999996 -0.002334
vn 0.000355 1.000000 -0.000593
vn 0.326663 0.945141 -0.000760
vn 0.707107 0.707107 -0.000320
vn -0.668257 0.743930 0.000731
vn -0.326663 0.945141 0.000760
vn -0.000355 1.000000 0.000593
vn 0.001394 0.999996 0.002334
vn 0.444151 0.895951 0.001133
vn 0.707106 0.707106 0.001550
vn -0.661762 0.679222 0.317377
vn -0.329902 0.884494 0.329902
vn -0.000454 0.945191 0.326517
vn 0.000677 0.895827 0.444403
vn 0.365607 0.855957 0.365607
vn 0.653281 0.653281 0.382683
vn -0.557412 0.587065 0.587065
vn -0.262698 0.682272 0.682272
vn -0.000191 0.707107 0.707107
vn 0.000928 0.707106 0.707106
vn 0.382683 0.653281 0.653281
vn 0.577350 0.577350 0.577350
vn -0.577350 -0.577350 -0.577350
vn -0.653281 -0.382683 -0.653281
vn -0.701137 -0.129670 -0.701137
vn -0.706038 0.054950 -0.706038
vn -0.682272 0.262698 -0.682272
vn -0.587065 0.557412 -0.587065
vn -0.382683 -0.653281 -0.653281
vn -0.365607 -0.365607 -0.855957
vn -0.371453 -0.124130 -0.920116
vn -0.371125 0.098389 -0.923356
vn -0.329902 0.329902 -0.884494
vn -0.317377 0.661762 -0.679222
vn -0.000928 -0.707106 -0.707106
vn -0.000677 -0.444403 -0.895827
vn -0.000642 -0.166693 -0.986009
vn -0.000687 0.091370 -0.995817
vn -0.000454 0.326517 -0.945191
vn -0.000437 0.668106 -0.744066
vn 0.000191 -0.707107 -0.707107
vn 0.000454 -0.326517 -0.945191
vn 0.000687 -0.091370 -0.995817
vn 0.000642 0.166693 -0.986009
vn 0.000677 0.444403 -0.895827
vn 0.000437 0.744066 -0.668106
vn 0.262698 -0.682272 -0.682272
vn 0.329902 -0.329902 -0.884494
vn 0.371125 -0.098389 -0.923356
vn 0.371453 0.124130 -0.920116
vn 0.365607 0.365607 -0.855957
vn 0.317377 0.679222 -0.661762
vn 0.557412 -0.587065 -0.587065
vn 0.661762 -0.317377 -0.679222
vn 0.711455 -0.092966 -0.696556
vn 0.696556 0.092966 -0.711455
vn 0.679222 0.317377 -0.661762
vn 0.587065 0.587065 -0.557412
vn -0.587065 -0.587065 0.557412
vn -0.679222 -0.317377 0.661762
vn -0.696556 -0.092966 0.711455
vn -0.711455 0.092966 0.696556
vn -0.661762 0.317377 0.679222
vn -0.557412 0.587065 0.587065
vn -0.317377 -0.679222 0.661762
vn -0.365607 -0.365607 0.855957
vn -0.371453 -0.124130 0.920116
vn -0.371125 0.098389 0.923356
vn -0.329902 0.329902 0.884494
vn -0.262698 0.682272 0.682272
vn -0.000437 -0.744066 0.668106
vn -0.000677 -0.444403 0.895827
vn -0.000642 -0.166693 0.986009
vn -0.000687 0.091370 0.995817
vn -0.000454 0.326517 0.945191
vn -0.000191 0.707107 0.707107
vn 0.000437 -0.668106 0.744066
vn 0.000454 -0.326517 0.945191
vn 0.000687 -0.091370 0.995817
vn 0.000642 0.166693 0.986009
vn 0.000677 0.444403 0.895827
vn 0.000928 0.707106 0.707106
vn 0.317377 -0.661762 0.679222
vn 0.329902 -0.329902 0.884494
vn 0.371125 -0.098389 0.923356
vn 0.371453 0.124130 0.920116
vn 0.365607 0.365607 0.855957
vn 0.382683 0.653281 0.653281
vn 0.587065 -0.557412 0.587065
vn 0.682272 -0.262698 0.682272
vn 0.706038 -0.054950 0.706038
vn 0.701137 0.129670 0.701137
vn 0.653281 0.382683 0.653281
vn 0.577350 0.577350 0.577350
f 2//2 7//7 1//1
f 8//8 7//7 2//2
f 3//3 8//8 2//2
f 9//9 8//8 3//3
f 4//4 9//9 3//3
f 10//10 9//9 4//4
f 5//5 10//10 4//4
f 11//11 10//10 5//5
f 6//6 11//11 5//5
f 12//12 11//11 6//6
f 8//8 13//13 7//7
f 14//14 13//13 8//8
f 9//9 14//14 8//8
f 15//15 14//14 9//9
f 10//10 15//15 9//9
f 16//16 15//15 10//10
f 11//11 16//16 10//10
f 17//17 16//16 11//11
f 12//12 17//17 11//11
f 18//18 17//17 12//12
f 14//14 19//19 13//13
f 20//20 19//19 14//14
f 15//15 20//20 14//14
f 21//21 20//20 15//15
f 16//16 21//21 15//15
f 22//22 21//21 16//16
f 17//17 22//22 16//16
f 23//23 22//22 17//17
f 18//18 23//23 17//17
f 24//24 23//23 18//18
f 20//20 25//25 19//19
f 26//26 25//25 20//20
f 21//21 26//26 20//20
f 27//27 26//26 21//21
f 22//22 27//27 21//21
f 28//28 27//27 22//22
f 23//23 28//28 22//22
f 29//29 28//28 23//23
f 24//24 29//29 23//23
f 30//30 29//29 24//24
f 26//26 31//31 25//25
f 32//32 31//31 26//26
f 27//27 32//32 26//26
f 33//33 32//32 27//27
f 28//28 33//33 27//27
f 34//34 33//33 28//28
f 29//29 34//34 28//28
f 35//35 34//34 29//29
f 30//30 35//35 29//29
f 36//36 35//35 30//30
f 37//37 43//43 38//38
f 38//38 43//43 44//44
f 38//38 44//44 39//39
f 39//39 44//44 45//45
f 39//39 45//45 40//40
f 40//40 45//45 46//46
f 40//40 46//46 41//41
f 41//41 46//46 47//47
f 41//41 47//47 42//42
f 42//42 47//47 48//48
f 43//43 49//49 44//44
f 44//44 49//49 50//50
f 44//44 50//50 45//45
f 45//45 50//50 51//51
f 45//45 51//51 46//46
f 46//46 51//51 52//52
f 46//46 52//52 47//47
f 47//47 52//52 53//53
f 47//47 53//53 48//48
f 48//48 53//53 54//54
f 49//49 55//55 50//50
f 50//50 55//55 56//56
f 50//50 56//56 51//51
f 51//51 56//56 57//57
f 51//51 57//57 52//52
f 52//52 57//57 58//58
f 52//52 58//58 53//53
f 53//53 58//58 59//59
f 53//53 59//59 54//54
f 54//54 59//59 60//60
f 55//55 61//61 56//56
f 56//56 61//61 62//62
f 56//56 62//62 57//57
f 57//57 62//62 63//63
f 57//57 63//63 58//58
f 58//58 63//63 64//64
f 58//58 64//64 59//59
f 59//59 64//64 65//65
f 59//59 65//65 60//60
f 60//60 65//65 66//66
f 61//61 67//67 62//62
f 62//62 67//67 68//68
f 62//62 68//68 63//63
f 63//63 68//68 69//69
f 63//63 69//69 64//64
f 64//64 69//69 70//70
f 64//64 70//70 65//65
f 65//65 70//70 71//71
f 65//65 71//71 66//66
f 66//66 71//71 72//72
f 74//74 79//79 73//73
f 80//80 79//79 74//74
f 75//75 80//80 74//74
f 81//81 80//80 75//75
f 76//76 81//81 75//75
f 82//82 81//81 76//76
f 77//77 82//82 76//76
f 83//83 82//82 77//77
f 78//78 83//83 77//77
f 84//84 83//83 78//78
f 80//80 85//85 79//79
f 86//86 85//85 80//80
f 81//81 86//86 80//80
f 87//87 86//86 81//81
f 82//82 87//87 81//81
f 88//88 87//87 82//82
f 83//83 88//88 82//82
f 89//89 88//88 83//83
f 84//84 89//89 83//83
f 90//90 89//89 84//84
f 86//86 91//91 85//85
f 92//92 91//91 86//86
f 87//87 92//92 86//86
f 93//93 92//92 87//87
f 88//88 93//93 87//87
f 94//94 93//93 88//88
f 89//89 94//94 88//88
f 95//95 94//94 89//89
f 90//90 95//95 89//89
f 96//96 95//95 90//90
f 92//92 97//97 91//91
f 98//98 97//97 92//92
f 93//93 98//98 92//92
f 99//99 98//98 93//93
f 94//94 99//99 93//93
f 100//100 99//99 94//94
f 95//95 100//100 94//94
f 101//101 100//100 95//95
f 96//96 101//101 95//95
f 102//102 101//101 96//96
f 98//98 103//103 97//97
f 104//104 103//103 98//98
f 99//99 104//104 98//98
f 105//105 104//104 99//99
f 100//100 105//105 99//99
f 106//106 105//105 100//100
f 101//101 106//106 100//100
f 107//107 106//106 101//101
f 102//102 107//107 101//101
f 108//108 107//107 102//102
f 109//109 115//115 110//110
f 110//110 115//115 116//116
f 110//110 116//116 111//111
f 111//111 116//116 117//117
f 111//111 117//117 112//112
f 112//112 117//117 118//118
f 112//112 118//118 113//113
f 113//113 118//118 119//119
f 113//113 119//119 114//114
f 114//114 119//119 120//120
f 115//115 121//121 116//116
f 116//116 121//121 122//122
f 116//116 122//122 117//117
f 117//117 122//122 123//123
f 117//117 123//123 118//118
f 118//118 123//123 124//124
f 118//118 124//124 119//119
f 119//119 124//124 125//125
f 119//119 125//125 120//120
f 120//120 125//125 126//126
f 121//121 127//127 122//122
f 122//122 127//127 128//128
f 122//122 128//128 123//123
f 123//123 128//128 129//129
f 123//123 129//129 124//124
f 124//124 129//129 130//130
f 124//124 130//130 125//125
f 125//125 130//130 131//131
f 125//125 131//131 126//126
f 126//126 131//131 132//132
f 127//127 133//133 128//128
f 128//128 133//133 134//134
f 128//128 134//134 129//129
f 129//129 134//134 135//135
f 129//129 135//135 130//130
f 130//130 135//135 136//136
f 130//130 136//136 131//131
f 131//131 136//136 137//137
f 131//131 137//137 132//132
f 132//132 137//137 138//138
f 133//133 139//139 134//134
f 134//134 139//139 140//140
f 134//134 140//140 135//135
f 135//135 140//140 141//141
f 135//135 141//141 136//136
f 136//136 141//141 142//142
f 136//136 142//142 137//137
f 137//137 142//142 143//143
f 137//137 143//143 138//138
f 138//138 143//143 144//144
f 146//146 151//151 145//145
f 152//152 151//151 146//146
f 147//147 152//152 146//146
f 153//153 152//152 147//147
f 148//148 153//153 147//147
f 154//154 153//153 148//148
f 149//149 154//154 148//148
f 155//155 154//154 149//149
f 150//150 155//155 149//149
f 156//156 155//155 150//150
f 152//152 157//157 151//151
f 158//158 157//157 152//152
f 153//153 158//158 152//152
f 159//159 158//158 153//153
f 154//154 159//159 153//153
f 160//160 159//159 154//154
f 155//155 160//160 154//154
f 161//161 160//160 155//155
f 156//156 161//161 155//155
f 162//162 161//161 156//156
f 158//158 163//163 157//157
f 164//164 163//163 158//158
f 159//159 164//164 158//158
f 165//165 164//164 159//159
f 160//160 165//165 159//159
f 166//166 165//165 160//160
f 161//161 166//166 160//160
f 167//167 166//166 161//161
f 162//162 167//167 161//161
f 168//168 167//167 162//162
f 164//164 169//169 163//163
f 170//170 169//169 164//164
f 165//165 170//170 164//164
f 171//171 170//170 165//165
f 166//166 171//171 165//165
f 172//172 171//171 166//166
f 167//167 172//172 166//166
f 173//173 172//172 167//167
f 168//168 173//173 167//167
f 174//174 173//173 168//168
f 170//170 175//175 169//169
f 176//176 175//175 170//170
f 171//171 176//176 170//170
f 177//177 176//176 171//171
f 172//172 177//177 171//171
f 178//178 177//177 172//172
f 173//173 178//178 172//172
f 179//179 178//178 173//173
f 174//174 179//179 173//173
f 180//180 179//179 174//174
f 181//181 187//187 182//182
f 182//182 187//187 188//188
f 182//182 188//188 183//183
f 183//183 188//188 189//189
f 183//183 189//189 184//184
f 184//184 189//189 190//190
f 184//184 190//190 185//185
f 185//185 190//190 191//191
f 185//185 191//191 186//186
f 186//186 191//191 192//192
f 187//187 193//193 188//188
f 188//188 193//193 194//194
f 188//188 194//194 189//189
f 189//189 194//194 195//195
f 189//189 195//195 190//190
f 190//190 195//195 196//196
f 190//190 196//196 191//191
f 191//191 196//196 197//197
f 191//191 197//197 192//192
f 192//192 197//197 198//198
f 193//193 199//199 194//194
f 194//194 199//199 200//200
f 194//194 200//200 195//195
f 195//195 200//200 201//201
f 195//195 201//201 196//196
f 196//196 201//201 202//202
f 196//196 202//202 197//197
f 197//197 202//202 203//203
f 197//197 203//203 198//198
f 198//198 203//203 204//204
f 199//199 205//205 200//200
f 200//200 205//205 206//206
f 200//200 206//206 201//201
f 201//201 206//206 207//207
f 201//201 207//207 202//202
f 202//202 207//207 208//208
f 202//202 208//208 203//203
f 203//203 208//208 209//209
f 203//203 209//209 204//204
f 204//204 209//209 210//210
f 205//205 211//211 206//206
f 206//206 211//211 212//212
f 206//206 212//212 207//207
f 207//207 212//212 213//213
f 207//207 213//213 208//208
f 208//208 213//213 214//214
f 208//208 214//214 209//209
f 209//209 214//214 215//215
f 209//209 215//215 210//210
f 210//210 215//215 216//216
o welcome-mat_sage
usemtl sage
v -0.423922 0.018078 -0.218922
v -0.424150 0.017850 -0.218300
v -0.424253 0.017747 -0.217450
v -0.424253 0.017747 0.217450
v -0.424150 0.017850 0.218300
v -0.423922 0.018078 0.218922
v -0.424150 0.018700 -0.219150
v -0.424532 0.018509 -0.218491
v -0.424731 0.018410 -0.217450
v -0.424731 0.018410 0.217450
v -0.424532 0.018509 0.218491
v -0.424150 0.018700 0.219150
v -0.424253 0.019550 -0.219253
v -0.424731 0.019550 -0.218590
v -0.425000 0.019550 -0.217450
v -0.425000 0.019550 0.217450
v -0.424731 0.019550 0.218590
v -0.424253 0.019550 0.219253
v -0.424253 0.020450 -0.219253
v -0.424731 0.020450 -0.218590
v -0.425000 0.020450 -0.217450
v -0.425000 0.020450 0.217450
v -0.424731 0.020450 0.218590
v -0.424253 0.020450 0.219253
v -0.424150 0.021300 -0.219150
v -0.424532 0.021491 -0.218491
v -0.424731 0.021590 -0.217450
v -0.424731 0.021590 0.217450
v -0.424532 0.021491 0.218491
v -0.424150 0.021300 0.219150
v -0.423922 0.021922 -0.218922
v -0.424150 0.022150 -0.218300
v -0.424253 0.022253 -0.217450
v -0.424253 0.022253 0.217450
v -0.424150 0.022150 0.218300
v -0.423922 0.021922 0.218922
v 0.423922 0.018078 -0.218922
v 0.424150 0.017850 -0.218300
v 0.424253 0.017747 -0.217450
v 0.424253 0.017747 0.217450
v 0.424150 0.017850 0.218300
v 0.423922 0.018078 0.218922
v 0.424150 0.018700 -0.219150
v 0.424532 0.018509 -0.218491
v 0.424731 0.018410 -0.217450
v 0.424731 0.018410 0.217450
v 0.424532 0.018509 0.218491
v 0.424150 0.018700 0.219150
v 0.424253 0.019550 -0.219253
v 0.424731 0.019550 -0.218590
v 0.425000 0.019550 -0.217450
v 0.425000 0.019550 0.217450
v 0.424731 0.019550 0.218590
v 0.424253 0.019550 0.219253
v 0.424253 0.020450 -0.219253
v 0.424731 0.020450 -0.218590
v 0.425000 0.020450 -0.217450
v 0.425000 0.020450 0.217450
v 0.424731 0.020450 0.218590
v 0.424253 0.020450 0.219253
v 0.424150 0.021300 -0.219150
v 0.424532 0.021491 -0.218491
v 0.424731 0.021590 -0.217450
v 0.424731 0.021590 0.217450
v 0.424532 0.021491 0.218491
v 0.424150 0.021300 0.219150
v 0.423922 0.021922 -0.218922
v 0.424150 0.022150 -0.218300
v 0.424253 0.022253 -0.217450
v 0.424253 0.022253 0.217450
v 0.424150 0.022150 0.218300
v 0.423922 0.021922 0.218922
v -0.423922 0.018078 -0.218922
v -0.423300 0.017850 -0.219150
v -0.422450 0.017747 -0.219253
v 0.422450 0.017747 -0.219253
v 0.423300 0.017850 -0.219150
v 0.423922 0.018078 -0.218922
v -0.424150 0.017850 -0.218300
v -0.423491 0.017468 -0.218491
v -0.422450 0.017269 -0.218590
v 0.422450 0.017269 -0.218590
v 0.423491 0.017468 -0.218491
v 0.424150 0.017850 -0.218300
v -0.424253 0.017747 -0.217450
v -0.423590 0.017269 -0.217450
v -0.422450 0.017000 -0.217450
v 0.422450 0.017000 -0.217450
v 0.423590 0.017269 -0.217450
v 0.424253 0.017747 -0.217450
v -0.424253 0.017747 0.217450
v -0.423590 0.017269 0.217450
v -0.422450 0.017000 0.217450
v 0.422450 0.017000 0.217450
v 0.423590 0.017269 0.217450
v 0.424253 0.017747 0.217450
v -0.424150 0.017850 0.218300
v -0.423491 0.017468 0.218491
v -0.422450 0.017269 0.218590
v 0.422450 0.017269 0.218590
v 0.423491 0.017468 0.218491
v 0.424150 0.017850 0.218300
v -0.423922 0.018078 0.218922
v -0.423300 0.017850 0.219150
v -0.422450 0.017747 0.219253
v 0.422450 0.017747 0.219253
v 0.423300 0.017850 0.219150
v 0.423922 0.018078 0.218922
v -0.423922 0.021922 -0.218922
v -0.423300 0.022150 -0.219150
v -0.422450 0.022253 -0.219253
v 0.422450 0.022253 -0.219253
v 0.423300 0.022150 -0.219150
v 0.423922 0.021922 -0.218922
v -0.424150 0.022150 -0.218300
v -0.423491 0.022532 -0.218491
v -0.422450 0.022731 -0.218590
v 0.422450 0.022731 -0.218590
v 0.423491 0.022532 -0.218491
v 0.424150 0.022150 -0.218300
v -0.424253 0.022253 -0.217450
v -0.423590 0.022731 -0.217450
v -0.422450 0.023000 -0.217450
v 0.422450 0.023000 -0.217450
v 0.423590 0.022731 -0.217450
v 0.424253 0.022253 -0.217450
v -0.424253 0.022253 0.217450
v -0.423590 0.022731 0.217450
v -0.422450 0.023000 0.217450
v 0.422450 0.023000 0.217450
v 0.423590 0.022731 0.217450
v 0.424253 0.022253 0.217450
v -0.424150 0.022150 0.218300
v -0.423491 0.022532 0.218491
v -0.422450 0.022731 0.218590
v 0.422450 0.022731 0.218590
v 0.423491 0.022532 0.218491
v 0.424150 0.022150 0.218300
v -0.423922 0.021922 0.218922
v -0.423300 0.022150 0.219150
v -0.422450 0.022253 0.219253
v 0.422450 0.022253 0.219253
v 0.423300 0.022150 0.219150
v 0.423922 0.021922 0.218922
v -0.423922 0.018078 -0.218922
v -0.424150 0.018700 -0.219150
v -0.424253 0.019550 -0.219253
v -0.424253 0.020450 -0.219253
v -0.424150 0.021300 -0.219150
v -0.423922 0.021922 -0.218922
v -0.423300 0.017850 -0.219150
v -0.423491 0.018509 -0.219532
v -0.423590 0.019550 -0.219731
v -0.423590 0.020450 -0.219731
v -0.423491 0.021491 -0.219532
v -0.423300 0.022150 -0.219150
v -0.422450 0.017747 -0.219253
v -0.422450 0.018410 -0.219731
v -0.422450 0.019550 -0.220000
v -0.422450 0.020450 -0.220000
v -0.422450 0.021590 -0.219731
v -0.422450 0.022253 -0.219253
v 0.422450 0.017747 -0.219253
v 0.422450 0.018410 -0.219731
v 0.422450 0.019550 -0.220000
v 0.422450 0.020450 -0.220000
v 0.422450 0.021590 -0.219731
v 0.422450 0.022253 -0.219253
v 0.423300 0.017850 -0.219150
v 0.423491 0.018509 -0.219532
v 0.423590 0.019550 -0.219731
v 0.423590 0.020450 -0.219731
v 0.423491 0.021491 -0.219532
v 0.423300 0.022150 -0.219150
v 0.423922 0.018078 -0.218922
v 0.424150 0.018700 -0.219150
v 0.424253 0.019550 -0.219253
v 0.424253 0.020450 -0.219253
v 0.424150 0.021300 -0.219150
v 0.423922 0.021922 -0.218922
v -0.423922 0.018078 0.218922
v -0.424150 0.018700 0.219150
v -0.424253 0.019550 0.219253
v -0.424253 0.020450 0.219253
v -0.424150 0.021300 0.219150
v -0.423922 0.021922 0.218922
v -0.423300 0.017850 0.219150
v -0.423491 0.018509 0.219532
v -0.423590 0.019550 0.219731
v -0.423590 0.020450 0.219731
v -0.423491 0.021491 0.219532
v -0.423300 0.022150 0.219150
v -0.422450 0.017747 0.219253
v -0.422450 0.018410 0.219731
v -0.422450 0.019550 0.220000
v -0.422450 0.020450 0.220000
v -0.422450 0.021590 0.219731
v -0.422450 0.022253 0.219253
v 0.422450 0.017747 0.219253
v 0.422450 0.018410 0.219731
v 0.422450 0.019550 0.220000
v 0.422450 0.020450 0.220000
v 0.422450 0.021590 0.219731
v 0.422450 0.022253 0.219253
v 0.423300 0.017850 0.219150
v 0.423491 0.018509 0.219532
v 0.423590 0.019550 0.219731
v 0.423590 0.020450 0.219731
v 0.423491 0.021491 0.219532
v 0.423300 0.022150 0.219150
v 0.423922 0.018078 0.218922
v 0.424150 0.018700 0.219150
v 0.424253 0.019550 0.219253
v 0.424253 0.020450 0.219253
v 0.424150 0.021300 0.219150
v 0.423922 0.021922 0.218922
vn -0.577350 -0.577350 -0.577350
vn -0.653281 -0.653281 -0.382683
vn -0.707107 -0.707107 -0.000814
vn -0.707107 -0.707107 0.000168
vn -0.682272 -0.682272 0.262698
vn -0.587065 -0.587065 0.557412
vn -0.653281 -0.382683 -0.653281
vn -0.855957 -0.365607 -0.365607
vn -0.895804 -0.444449 -0.000594
vn -0.945200 -0.326491 0.000398
vn -0.884494 -0.329902 0.329902
vn -0.679222 -0.317377 0.661762
vn -0.701137 -0.129670 -0.701137
vn -0.920116 -0.124130 -0.371453
vn -0.986004 -0.166718 -0.000563
vn -0.995819 -0.091346 0.000603
vn -0.923356 -0.098389 0.371125
vn -0.696556 -0.092966 0.711455
vn -0.706038 0.054950 -0.706038
vn -0.923356 0.098389 -0.371125
vn -0.995819 0.091346 -0.000603
vn -0.986004 0.166718 0.000563
vn -0.920116 0.124130 0.371453
vn -0.711455 0.092966 0.696556
vn -0.682272 0.262698 -0.682272
vn -0.884494 0.329902 -0.329902
vn -0.945200 0.326491 -0.000398
vn -0.895804 0.444449 0.000594
vn -0.855957 0.365607 0.365607
vn -0.661762 0.317377 0.679222
vn -0.587065 0.557412 -0.587065
vn -0.679222 0.661762 -0.317377
vn -0.744091 0.668078 -0.000383
vn -0.668078 0.744091 0.000383
vn -0.661762 0.679222 0.317377
vn -0.557412 0.587065 0.587065
vn 0.557412 -0.587065 -0.587065
vn 0.661762 -0.679222 -0.317377
vn 0.668078 -0.744091 -0.000383
vn 0.744091 -0.668078 0.000383
vn 0.679222 -0.661762 0.317377
vn 0.587065 -0.557412 0.587065
vn 0.661762 -0.317377 -0.679222
vn 0.855957 -0.365607 -0.365607
vn 0.895804 -0.444449 -0.000594
vn 0.945200 -0.326491 0.000398
vn 0.884494 -0.329902 0.329902
vn 0.682272 -0.262698 0.682272
vn 0.711455 -0.092966 -0.696556
vn 0.920116 -0.124130 -0.371453
vn 0.986004 -0.166718 -0.000563
vn 0.995819 -0.091346 0.000603
vn 0.923356 -0.098389 0.371125
vn 0.706038 -0.054950 0.706038
vn 0.696556 0.092966 -0.711455
vn 0.923356 0.098389 -0.371125
vn 0.995819 0.091346 -0.000603
vn 0.986004 0.166718 0.000563
vn 0.920116 0.124130 0.371453
vn 0.701137 0.129670 0.701137
vn 0.679222 0.317377 -0.661762
vn 0.884494 0.329902 -0.329902
vn 0.945200 0.326491 -0.000398
vn 0.895804 0.444449 0.000594
vn 0.855957 0.365607 0.365607
vn 0.653281 0.382683 0.653281
vn 0.587065 0.587065 -0.557412
vn 0.682272 0.682272 -0.262698
vn 0.707107 0.707107 -0.000168
vn 0.707107 0.707107 0.000814
vn 0.653281 0.653281 0.382683
vn 0.577350 0.577350 0.577350
vn -0.577350 -0.577350 -0.577350
vn -0.382683 -0.653281 -0.653281
vn -0.000420 -0.707107 -0.707107
vn 0.000086 -0.707107 -0.707107
vn 0.262698 -0.682272 -0.682272
vn 0.557412 -0.587065 -0.587065
vn -0.653281 -0.653281 -0.382683
vn -0.365607 -0.855957 -0.365607
vn -0.000306 -0.895725 -0.444608
vn 0.000205 -0.945232 -0.326399
vn 0.329902 -0.884494 -0.329902
vn 0.661762 -0.679222 -0.317377
vn -0.707107 -0.707107 -0.000814
vn -0.444449 -0.895804 -0.000594
vn -0.000633 -0.999999 -0.001229
vn 0.000160 -1.000000 -0.000310
vn 0.326491 -0.945200 -0.000398
vn 0.668078 -0.744091 -0.000383
vn -0.707107 -0.707107 0.000168
vn -0.326491 -0.945200 0.000398
vn -0.000160 -1.000000 0.000310
vn 0.000633 -0.999999 0.001229
vn 0.444449 -0.895804 0.000594
vn 0.744091 -0.668078 0.000383
vn -0.682272 -0.682272 0.262698
vn -0.329902 -0.884494 0.329902
vn -0.000205 -0.945232 0.326399
vn 0.000306 -0.895725 0.444608
vn 0.365607 -0.855957 0.365607
vn 0.679222 -0.661762 0.317377
vn -0.587065 -0.587065 0.557412
vn -0.317377 -0.679222 0.661762
vn -0.000197 -0.744177 0.667983
vn 0.000197 -0.667983 0.744177
vn 0.317377 -0.661762 0.679222
vn 0.587065 -0.557412 0.587065
vn -0.587065 0.557412 -0.587065
vn -0.317377 0.661762 -0.679222
vn -0.000197 0.667983 -0.744177
vn 0.000197 0.744177 -0.667983
vn 0.317377 0.679222 -0.661762
vn 0.587065 0.587065 -0.557412
vn -0.679222 0.661762 -0.317377
vn -0.365607 0.855957 -0.365607
vn -0.000306 0.895725 -0.444608
vn 0.000205 0.945232 -0.326399
vn 0.329902 0.884494 -0.329902
vn 0.682272 0.682272 -0.262698
vn -0.744091 0.668078 -0.000383
vn -0.444449 0.895804 -0.000594
vn -0.000633 0.999999 -0.001229
vn 0.000160 1.000000 -0.000310
vn 0.326491 0.945200 -0.000398
vn 0.707107 0.707107 -0.000168
vn -0.668078 0.744091 0.000383
vn -0.326491 0.945200 0.000398
vn -0.000160 1.000000 0.000310
vn 0.000633 0.999999 0.001229
vn 0.444449 0.895804 0.000594
vn 0.707107 0.707107 0.000814
vn -0.661762 0.679222 0.317377
vn -0.329902 0.884494 0.329902
vn -0.000205 0.945232 0.326399
vn 0.000306 0.895725 0.444608
vn 0.365607 0.855957 0.365607
vn 0.653281 0.653281 0.382683
vn -0.557412 0.587065 0.587065
vn -0.262698 0.682272 0.682272
vn -0.000086 0.707107 0.707107
vn 0.000420 0.707107 0.707107
vn 0.382683 0.653281 0.653281
vn 0.577350 0.577350 0.577350
vn -0.577350 -0.577350 -0.577350
vn -0.653281 -0.382683 -0.653281
vn -0.701137 -0.129670 -0.701137
vn -0.706038 0.054950 -0.706038
vn -0.682272 0.262698 -0.682272
vn -0.587065 0.557412 -0.587065
vn -0.382683 -0.653281 -0.653281
vn -0.365607 -0.365607 -0.855957
vn -0.371453 -0.124130 -0.920116
vn -0.371125 0.098389 -0.923356
vn -0.329902 0.329902 -0.884494
vn -0.317377 0.661762 -0.679222
vn -0.000420 -0.707107 -0.707107
vn -0.000306 -0.444608 -0.895725
vn -0.000290 -0.166806 -0.985990
vn -0.000311 0.091263 -0.995827
vn -0.000205 0.326399 -0.945232
vn -0.000197 0.667983 -0.744177
vn 0.000086 -0.707107 -0.707107
vn 0.000205 -0.326399 -0.945232
vn 0.000311 -0.091263 -0.995827
vn 0.000290 0.166806 -0.985990
vn 0.000306 0.444608 -0.895725
vn 0.000197 0.744177 -0.667983
vn 0.262698 -0.682272 -0.682272
vn 0.329902 -0.329902 -0.884494
vn 0.371125 -0.098389 -0.923356
vn 0.371453 0.124130 -0.920116
vn 0.365607 0.365607 -0.855957
vn 0.317377 0.679222 -0.661762
vn 0.557412 -0.587065 -0.587065
vn 0.661762 -0.317377 -0.679222
vn 0.711455 -0.092966 -0.696556
vn 0.696556 0.092966 -0.711455
vn 0.679222 0.317377 -0.661762
vn 0.587065 0.587065 -0.557412
vn -0.587065 -0.587065 0.557412
vn -0.679222 -0.317377 0.661762
vn -0.696556 -0.092966 0.711455
vn -0.711455 0.092966 0.696556
vn -0.661762 0.317377 0.679222
vn -0.557412 0.587065 0.587065
vn -0.317377 -0.679222 0.661762
vn -0.365607 -0.365607 0.855957
vn -0.371453 -0.124130 0.920116
vn -0.371125 0.098389 0.923356
vn -0.329902 0.329902 0.884494
vn -0.262698 0.682272 0.682272
vn -0.000197 -0.744177 0.667983
vn -0.000306 -0.444608 0.895725
vn -0.000290 -0.166806 0.985990
vn -0.000311 0.091263 0.995827
vn -0.000205 0.326399 0.945232
vn -0.000086 0.707107 0.707107
vn 0.000197 -0.667983 0.744177
vn 0.000205 -0.326399 0.945232
vn 0.000311 -0.091263 0.995827
vn 0.000290 0.166806 0.985990
vn 0.000306 0.444608 0.895725
vn 0.000420 0.707107 0.707107
vn 0.317377 -0.661762 0.679222
vn 0.329902 -0.329902 0.884494
vn 0.371125 -0.098389 0.923356
vn 0.371453 0.124130 0.920116
vn 0.365607 0.365607 0.855957
vn 0.382683 0.653281 0.653281
vn 0.587065 -0.557412 0.587065
vn 0.682272 -0.262698 0.682272
vn 0.706038 -0.054950 0.706038
vn 0.701137 0.129670 0.701137
vn 0.653281 0.382683 0.653281
vn 0.577350 0.577350 0.577350
f 218//218 223//223 217//217
f 224//224 223//223 218//218
f 219//219 224//224 218//218
f 225//225 224//224 219//219
f 220//220 225//225 219//219
f 226//226 225//225 220//220
f 221//221 226//226 220//220
f 227//227 226//226 221//221
f 222//222 227//227 221//221
f 228//228 227//227 222//222
f 224//224 229//229 223//223
f 230//230 229//229 224//224
f 225//225 230//230 224//224
f 231//231 230//230 225//225
f 226//226 231//231 225//225
f 232//232 231//231 226//226
f 227//227 232//232 226//226
f 233//233 232//232 227//227
f 228//228 233//233 227//227
f 234//234 233//233 228//228
f 230//230 235//235 229//229
f 236//236 235//235 230//230
f 231//231 236//236 230//230
f 237//237 236//236 231//231
f 232//232 237//237 231//231
f 238//238 237//237 232//232
f 233//233 238//238 232//232
f 239//239 238//238 233//233
f 234//234 239//239 233//233
f 240//240 239//239 234//234
f 236//236 241//241 235//235
f 242//242 241//241 236//236
f 237//237 242//242 236//236
f 243//243 242//242 237//237
f 238//238 243//243 237//237
f 244//244 243//243 238//238
f 239//239 244//244 238//238
f 245//245 244//244 239//239
f 240//240 245//245 239//239
f 246//246 245//245 240//240
f 242//242 247//247 241//241
f 248//248 247//247 242//242
f 243//243 248//248 242//242
f 249//249 248//248 243//243
f 244//244 249//249 243//243
f 250//250 249//249 244//244
f 245//245 250//250 244//244
f 251//251 250//250 245//245
f 246//246 251//251 245//245
f 252//252 251//251 246//246
f 253//253 259//259 254//254
f 254//254 259//259 260//260
f 254//254 260//260 255//255
f 255//255 260//260 261//261
f 255//255 261//261 256//256
f 256//256 261//261 262//262
f 256//256 262//262 257//257
f 257//257 262//262 263//263
f 257//257 263//263 258//258
f 258//258 263//263 264//264
f 259//259 265//265 260//260
f 260//260 265//265 266//266
f 260//260 266//266 261//261
f 261//261 266//266 267//267
f 261//261 267//267 262//262
f 262//262 267//267 268//268
f 262//262 268//268 263//263
f 263//263 268//268 269//269
f 263//263 269//269 264//264
f 264//264 269//269 270//270
f 265//265 271//271 266//266
f 266//266 271//271 272//272
f 266//266 272//272 267//267
f 267//267 272//272 273//273
f 267//267 273//273 268//268
f 268//268 273//273 274//274
f 268//268 274//274 269//269
f 269//269 274//274 275//275
f 269//269 275//275 270//270
f 270//270 275//275 276//276
f 271//271 277//277 272//272
f 272//272 277//277 278//278
f 272//272 278//278 273//273
f 273//273 278//278 279//279
f 273//273 279//279 274//274
f 274//274 279//279 280//280
f 274//274 280//280 275//275
f 275//275 280//280 281//281
f 275//275 281//281 276//276
f 276//276 281//281 282//282
f 277//277 283//283 278//278
f 278//278 283//283 284//284
f 278//278 284//284 279//279
f 279//279 284//284 285//285
f 279//279 285//285 280//280
f 280//280 285//285 286//286
f 280//280 286//286 281//281
f 281//281 286//286 287//287
f 281//281 287//287 282//282
f 282//282 287//287 288//288
f 290//290 295//295 289//289
f 296//296 295//295 290//290
f 291//291 296//296 290//290
f 297//297 296//296 291//291
f 292//292 297//297 291//291
f 298//298 297//297 292//292
f 293//293 298//298 292//292
f 299//299 298//298 293//293
f 294//294 299//299 293//293
f 300//300 299//299 294//294
f 296//296 301//301 295//295
f 302//302 301//301 296//296
f 297//297 302//302 296//296
f 303//303 302//302 297//297
f 298//298 303//303 297//297
f 304//304 303//303 298//298
f 299//299 304//304 298//298
f 305//305 304//304 299//299
f 300//300 305//305 299//299
f 306//306 305//305 300//300
f 302//302 307//307 301//301
f 308//308 307//307 302//302
f 303//303 308//308 302//302
f 309//309 308//308 303//303
f 304//304 309//309 303//303
f 310//310 309//309 304//304
f 305//305 310//310 304//304
f 311//311 310//310 305//305
f 306//306 311//311 305//305
f 312//312 311//311 306//306
f 308//308 313//313 307//307
f 314//314 313//313 308//308
f 309//309 314//314 308//308
f 315//315 314//314 309//309
f 310//310 315//315 309//309
f 316//316 315//315 310//310
f 311//311 316//316 310//310
f 317//317 316//316 311//311
f 312//312 317//317 311//311
f 318//318 317//317 312//312
f 314//314 319//319 313//313
f 320//320 319//319 314//314
f 315//315 320//320 314//314
f 321//321 320//320 315//315
f 316//316 321//321 315//315
f 322//322 321//321 316//316
f 317//317 322//322 316//316
f 323//323 322//322 317//317
f 318//318 323//323 317//317
f 324//324 323//323 318//318
f 325//325 331//331 326//326
f 326//326 331//331 332//332
f 326//326 332//332 327//327
f 327//327 332//332 333//333
f 327//327 333//333 328//328
f 328//328 333//333 334//334
f 328//328 334//334 329//329
f 329//329 334//334 335//335
f 329//329 335//335 330//330
f 330//330 335//335 336//336
f 331//331 337//337 332//332
f 332//332 337//337 338//338
f 332//332 338//338 333//333
f 333//333 338//338 339//339
f 333//333 339//339 334//334
f 334//334 339//339 340//340
f 334//334 340//340 335//335
f 335//335 340//340 341//341
f 335//335 341//341 336//336
f 336//336 341//341 342//342
f 337//337 343//343 338//338
f 338//338 343//343 344//344
f 338//338 344//344 339//339
f 339//339 344//344 345//345
f 339//339 345//345 340//340
f 340//340 345//345 346//346
f 340//340 346//346 341//341
f 341//341 346//346 347//347
f 341//341 347//347 342//342
f 342//342 347//347 348//348
f 343//343 349//349 344//344
f 344//344 349//349 350//350
f 344//344 350//350 345//345
f 345//345 350//350 351//351
f 345//345 351//351 346//346
f 346//346 351//351 352//352
f 346//346 352//352 347//347
f 347//347 352//352 353//353
f 347//347 353//353 348//348
f 348//348 353//353 354//354
f 349//349 355//355 350//350
f 350//350 355//355 356//356
f 350//350 356//356 351//351
f 351//351 356//356 357//357
f 351//351 357//357 352//352
f 352//352 357//357 358//358
f 352//352 358//358 353//353
f 353//353 358//358 359//359
f 353//353 359//359 354//354
f 354//354 359//359 360//360
f 362//362 367//367 361//361
f 368//368 367//367 362//362
f 363//363 368//368 362//362
f 369//369 368//368 363//363
f 364//364 369//369 363//363
f 370//370 369//369 364//364
f 365//365 370//370 364//364
f 371//371 370//370 365//365
f 366//366 371//371 365//365
f 372//372 371//371 366//366
f 368//368 373//373 367//367
f 374//374 373//373 368//368
f 369//369 374//374 368//368
f 375//375 374//374 369//369
f 370//370 375//375 369//369
f 376//376 375//375 370//370
f 371//371 376//376 370//370
f 377//377 376//376 371//371
f 372//372 377//377 371//371
f 378//378 377//377 372//372
f 374//374 379//379 373//373
f 380//380 379//379 374//374
f 375//375 380//380 374//374
f 381//381 380//380 375//375
f 376//376 381//381 375//375
f 382//382 381//381 376//376
f 377//377 382//382 376//376
f 383//383 382//382 377//377
f 378//378 383//383 377//377
f 384//384 383//383 378//378
f 380//380 385//385 379//379
f 386//386 385//385 380//380
f 381//381 386//386 380//380
f 387//387 386//386 381//381
f 382//382 387//387 381//381
f 388//388 387//387 382//382
f 383//383 388//388 382//382
f 389//389 388//388 383//383
f 384//384 389//389 383//383
f 390//390 389//389 384//384
f 386//386 391//391 385//385
f 392//392 391//391 386//386
f 387//387 392//392 386//386
f 393//393 392//392 387//387
f 388//388 393//393 387//387
f 394//394 393//393 388//388
f 389//389 394//394 388//388
f 395//395 394//394 389//389
f 390//390 395//395 389//389
f 396//396 395//395 390//390
f 397//397 403//403 398//398
f 398//398 403//403 404//404
f 398//398 404//404 399//399
f 399//399 404//404 405//405
f 399//399 405//405 400//400
f 400//400 405//405 406//406
f 400//400 406//406 401//401
f 401//401 406//406 407//407
f 401//401 407//407 402//402
f 402//402 407//407 408//408
f 403//403 409//409 404//404
f 404//404 409//409 410//410
f 404//404 410//410 405//405
f 405//405 410//410 411//411
f 405//405 411//411 406//406
f 406//406 411//411 412//412
f 406//406 412//412 407//407
f 407//407 412//412 413//413
f 407//407 413//413 408//408
f 408//408 413//413 414//414
f 409//409 415//415 410//410
f 410//410 415//415 416//416
f 410//410 416//416 411//411
f 411//411 416//416 417//417
f 411//411 417//417 412//412
f 412//412 417//417 418//418
f 412//412 418//418 413//413
f 413//413 418//418 419//419
f 413//413 419//419 414//414
f 414//414 419//419 420//420
f 415//415 421//421 416//416
f 416//416 421//421 422//422
f 416//416 422//422 417//417
f 417//417 422//422 423//423
f 417//417 423//423 418//418
f 418//418 423//423 424//424
f 418//418 424//424 419//419
f 419//419 424//424 425//425
f 419//419 425//425 420//420
f 420//420 425//425 426//426
f 421//421 427//427 422//422
f 422//422 427//427 428//428
f 422//422 428//428 423//423
f 423//423 428//428 429//429
f 423//423 429//429 424//424
f 424//424 429//429 430//430
f 424//424 430//430 425//425
f 425//425 430//430 431//431
f 425//425 431//431 426//426
f 426//426 431//431 432//432
